# Blender v2.82 (sub 7) OBJ File: 'Forest.blendD379C932-11C9-4E09-B687-B4B439D4B66E.blend'
# www.blender.org
mtllib dead1.mtl
o dead1_Cylinder.044
v 0.127182 -2.020549 0.469220
v -0.222325 -2.014956 0.469605
v -0.470205 -1.976459 0.206676
v -0.471369 -2.149836 -0.110125
v -0.225398 -1.917620 -0.423884
v 0.123846 -2.157668 -0.365798
v 0.371770 -2.007638 -0.149886
v 0.372805 -2.016411 0.212342
v 0.111796 -0.511819 0.297649
v -0.096625 -0.465791 0.436875
v -0.355334 -0.508832 0.396014
v -0.502894 -0.477189 0.164452
v -0.451619 -0.599562 -0.069752
v -0.232948 -0.629351 -0.213027
v 0.020071 -0.564253 -0.177668
v 0.164845 -0.581172 0.050222
v 0.347760 0.470616 0.079424
v 0.193790 0.377805 0.363431
v -0.089560 0.511878 0.405362
v -0.344449 0.498895 0.254326
v -0.421395 0.454420 -0.028126
v -0.268971 0.437575 -0.284786
v 0.016246 0.430453 -0.358378
v 0.271461 0.448598 -0.208630
v -0.204741 -1.621507 0.325648
v -0.426260 -1.577942 0.088116
v -0.426750 -1.498935 -0.253737
v -0.207123 -1.748578 -0.420397
v 0.105493 -1.965295 -0.367942
v 0.326624 -1.785108 -0.186212
v 0.329279 -1.655805 0.103689
v 0.107162 -1.818914 0.373288
v 0.088558 -2.277628 -1.129250
v 0.081045 -2.323384 -1.136275
v 0.222146 -2.243692 -1.156869
v 0.214810 -2.297590 -1.124915
v 0.047206 -2.115344 -0.677413
v 0.034062 -1.872577 -0.704793
v -0.192123 -1.877120 -0.702507
v -0.205584 -1.966768 -0.713179
v -0.041930 -2.562075 -1.568187
v -0.049444 -2.685576 -1.555823
v 0.091658 -2.656965 -1.563678
v 0.084322 -2.595462 -1.560504
v 0.687156 -1.886758 -0.191804
v 0.731878 -2.121629 -0.152400
v 0.733469 -2.104990 0.203490
v 0.688689 -1.877545 0.128047
v 1.125387 -2.020368 0.152782
v 1.153414 -2.112269 0.163604
v 1.154504 -2.100447 0.387846
v 1.126290 -1.992070 0.349005
v 1.480429 -2.219499 0.200636
v 1.508376 -2.339057 0.218355
v 1.509466 -2.285715 0.432242
v 1.481405 -2.171770 0.392012
v -0.734419 -1.766119 0.046099
v -0.761925 -1.783477 0.062227
v -0.762701 -2.019943 -0.100385
v -0.735310 -1.815031 -0.139968
v -1.059476 -1.632426 -0.068491
v -1.086064 -1.779684 -0.020107
v -1.087115 -1.919035 -0.204295
v -1.060077 -1.828192 -0.215567
v -1.376093 -1.938951 0.131541
v -1.385366 -1.955423 0.154627
v -1.483285 -2.002705 0.049388
v -1.463706 -1.909589 0.019503
v -0.009554 -2.035480 0.923854
v -0.240641 -1.988160 0.913230
v -0.228173 -1.754596 0.824644
v -0.022244 -1.789760 0.832360
v 0.340201 -2.020561 1.385488
v 0.108971 -2.014061 1.385045
v 0.120968 -1.863448 1.317147
v 0.327888 -1.883120 1.320998
v -0.180515 -2.004438 1.783268
v -0.411745 -2.004162 1.784378
v -0.399723 -1.888852 1.725283
v -0.192828 -1.889100 1.724291
v 0.257498 0.431174 0.076162
v 0.138867 0.423991 0.277574
v -0.077766 0.508964 0.314057
v -0.273916 0.479844 0.203263
v -0.331925 0.444480 -0.012549
v -0.216415 0.447223 -0.212854
v 0.004309 0.433424 -0.267087
v 0.201109 0.410311 -0.143267
v 0.161775 0.440654 0.059875
v 0.081900 0.411490 0.201674
v -0.066444 0.488767 0.221269
v -0.198055 0.453128 0.150598
v -0.235875 0.431511 0.004608
v -0.158927 0.441939 -0.132518
v -0.008735 0.452886 -0.174116
v 0.122354 0.450688 -0.094009
v -0.039078 0.414037 0.037740
vt -0.613587 -0.271553
vt -1.320693 -0.271553
vt -1.320693 0.435553
vt -0.967140 -0.418000
vt -1.217140 0.582000
vt -1.217140 -0.418000
vt -0.967140 -0.418000
vt -1.217140 0.582000
vt -1.217140 -0.418000
vt -1.217140 -0.418000
vt -0.967140 0.582000
vt -1.217140 0.582000
vt -1.217140 -0.418000
vt -0.967140 0.582000
vt -1.217140 0.582000
vt -1.217140 -0.418000
vt -0.967140 0.582000
vt -1.217140 0.582000
vt -1.217140 -0.418000
vt -0.967140 0.582000
vt -1.217140 0.582000
vt -1.217140 -0.418000
vt -0.967140 0.582000
vt -1.217140 0.582000
vt -0.967140 -0.418000
vt -1.217140 0.582000
vt -1.217140 -0.418000
vt -0.717140 -0.418000
vt -0.967140 0.582000
vt -0.717140 -0.418000
vt -0.967140 0.582000
vt -0.717140 -0.418000
vt -0.967140 -0.418000
vt -0.967140 -0.418000
vt -0.717140 0.582000
vt -0.967140 -0.418000
vt -0.717140 0.582000
vt -0.967140 -0.418000
vt -0.717140 0.582000
vt -0.967140 -0.418000
vt -0.717140 0.582000
vt -0.717140 0.582000
vt -0.967140 0.582000
vt -1.467140 0.582000
vt -1.217140 0.582000
vt -1.467140 0.582000
vt -1.467140 0.582000
vt -1.467140 -0.418000
vt -0.467140 0.082000
vt -0.613587 -0.271553
vt -1.467140 -0.418000
vt -1.467140 0.582000
vt -1.217140 -0.418000
vt -1.467140 -0.418000
vt -1.217140 -0.418000
vt -1.467140 0.582000
vt -1.467140 -0.418000
vt -1.467140 -0.418000
vt -1.217140 0.582000
vt -1.217140 -0.418000
vt -1.217140 -0.418000
vt -1.217140 0.582000
vt -1.217140 -0.418000
vt -1.467140 0.582000
vt -1.217140 0.582000
vt -1.467140 0.582000
vt -1.217140 0.582000
vt -1.217140 -0.418000
vt -1.320693 -0.271553
vt -0.967140 -0.418000
vt -1.320693 -0.271553
vt -0.967140 -0.418000
vt -1.217140 0.582000
vt -1.467140 -0.418000
vt -1.467140 0.582000
vt -1.217140 0.582000
vt -1.467140 0.582000
vt -1.320693 -0.271553
vt -1.467140 -0.418000
vt -1.217140 -0.418000
vt -1.217140 -0.418000
vt -1.467140 0.082000
vt -1.320693 0.435553
vt -1.217140 -0.418000
vt -1.217140 0.582000
vt -1.467140 0.582000
vt -1.217140 0.582000
vt -1.217140 -0.418000
vt -1.217140 0.582000
vt -1.467140 0.582000
vt -1.467140 0.082000
vt -1.320693 0.435553
vt -1.467140 -0.418000
vt -1.217140 -0.418000
vt -1.467140 -0.418000
vt -1.217140 0.582000
vt -1.467140 0.582000
vt -1.217140 0.582000
vt -1.467140 0.582000
vt -1.467140 0.082000
vt -1.320693 0.435553
vt -1.467140 -0.418000
vt -1.217140 -0.418000
vt -1.217140 0.582000
vt -1.217140 -0.418000
vt -1.217140 -0.418000
vt -1.217140 -0.418000
vt -1.217140 0.582000
vt -1.467140 0.582000
vt -1.217140 0.582000
vt -1.217140 -0.418000
vt -1.217140 0.582000
vt -1.467140 0.582000
vt -0.467140 0.082000
vt -0.613587 -0.271553
vt -1.467140 -0.418000
vt -1.217140 -0.418000
vt -1.467140 0.582000
vt -1.467140 -0.418000
vt -1.217140 0.582000
vt -1.467140 0.582000
vt -0.613587 -0.271553
vt -1.467140 -0.418000
vt -1.217140 -0.418000
vt -1.217140 -0.418000
vt -1.217140 0.582000
vt -1.217140 -0.418000
vt -1.217140 -0.418000
vt -0.613587 0.435554
vt -0.967140 0.582000
vt -0.613587 0.435554
vt -1.217140 -0.418000
vt -0.613587 0.435554
vt -1.467140 -0.418000
vt -1.217140 -0.418000
vt -1.217140 0.582000
vt -1.467140 0.582000
vt -1.467140 -0.418000
vt -1.217140 0.582000
vt -1.467140 0.582000
vt -0.967140 0.582000
vt -0.613587 0.435554
vt -1.467140 -0.418000
vt -1.217140 -0.418000
vt -1.217140 0.582000
vt -1.467140 0.582000
vt -0.717140 -0.418000
vt -0.717140 0.582000
vt -0.717140 0.582000
vt -0.717140 -0.418000
vt -0.717140 0.582000
vt -0.717140 -0.418000
vt -0.717140 0.582000
vt -0.717140 0.582000
vt -0.717140 0.582000
vt -0.717140 -0.418000
vt -0.717140 0.582000
vt -0.717140 -0.418000
vt -0.717140 0.582000
vt -0.717140 -0.418000
vt -0.717140 0.582000
vt -0.717140 0.582000
vt -0.717140 -0.418000
vt -0.717140 0.582000
vt -0.717140 -0.418000
vt -0.717140 0.582000
vt -0.717140 0.582000
vt -0.717140 -0.418000
vt -0.717140 0.582000
vt -0.717140 -0.418000
vt -0.717140 0.582000
vt -0.717140 -0.418000
vt -0.717140 0.582000
vt -0.717140 -0.418000
vt -0.717140 0.582000
vt -0.717140 -0.418000
vt -0.717140 0.582000
vt -0.717140 0.582000
vt -0.717140 0.582000
vt -0.717140 -0.418000
vt -0.717140 -0.418000
vt -0.717140 -0.418000
vt -0.717140 -0.418000
vt -0.967140 0.582000
vt -0.467140 0.082000
vt -0.717140 -0.418000
vt -0.717140 -0.418000
vt -0.717140 -0.418000
vt -1.467140 -0.418000
vt -1.217140 0.582000
vt -0.967140 -0.418000
vt -0.967140 -0.418000
vt -1.467140 0.082000
vt -1.467140 -0.418000
vt -1.217140 0.582000
vt -0.467140 0.082000
vt -1.467140 -0.418000
vt -1.217140 0.582000
vt -0.967140 0.582000
vt -1.467140 -0.418000
vt -0.717140 -0.418000
vn 0.0756 -0.9757 0.2058
vn 0.9630 0.2426 -0.1170
vn 0.7193 0.1439 0.6797
vn 0.5550 0.1451 -0.8191
vn 0.2835 0.1810 -0.9417
vn -0.4710 0.1643 -0.8667
vn -0.9976 -0.0685 -0.0144
vn -0.7368 -0.1415 0.6612
vn -0.1149 0.0578 0.9917
vn 0.8371 -0.0947 -0.5388
vn 0.9741 -0.0452 0.2215
vn 0.1536 -0.0611 -0.9862
vn -0.5536 -0.0745 -0.8294
vn -0.9720 0.0370 -0.2321
vn -0.8349 0.0855 0.5437
vn -0.1613 0.0330 0.9864
vn 0.5349 -0.1112 0.8375
vn 0.9444 0.1564 0.2892
vn -0.6780 0.2791 0.6800
vn -0.2194 -0.5523 0.8042
vn -0.8177 0.1001 -0.5669
vn -0.9401 -0.0699 -0.3337
vn 0.6377 0.0523 -0.7685
vn 0.6676 0.3729 0.6444
vn 0.2708 0.9622 -0.0290
vn 0.2414 0.7801 -0.5773
vn -0.7119 0.2193 -0.6672
vn -0.0215 0.7219 -0.6917
vn 0.4955 -0.7768 0.3887
vn -0.5694 -0.8216 0.0285
vn -0.0225 0.9093 -0.4155
vn -0.9828 0.1588 -0.0943
vn 0.9790 0.0914 -0.1824
vn -0.0644 0.0438 -0.9970
vn -0.9696 0.0821 0.2307
vn 0.4701 -0.6901 0.5503
vn 0.9223 0.1288 -0.3644
vn 0.3122 0.9496 -0.0289
vn -0.2390 -0.9708 -0.0228
vn 0.1208 0.2997 0.9464
vn -0.0628 -0.1767 -0.9823
vn 0.4981 0.8579 -0.1260
vn 0.5963 0.0879 -0.7980
vn -0.0123 -0.9985 0.0527
vn -0.3936 0.2187 0.8929
vn 0.9739 0.2188 -0.0595
vn 0.0692 -0.1304 -0.9890
vn -0.4729 -0.8544 0.2155
vn 0.0648 0.3516 0.9339
vn 0.4385 0.8687 -0.2305
vn -0.1485 -0.2033 -0.9678
vn -0.5304 0.8258 0.1916
vn 0.0447 0.6411 0.7662
vn -0.4056 0.7551 0.5151
vn -0.2277 0.3408 0.9121
vn -0.4038 -0.7284 0.5534
vn 0.2297 -0.2141 -0.9494
vn -0.6343 0.7267 0.2637
vn -0.1858 0.8336 0.5201
vn 0.4845 -0.6990 0.5261
vn -0.5095 0.0450 -0.8593
vn 0.0916 0.9882 0.1231
vn -0.9988 0.0304 -0.0388
vn -0.2026 -0.9780 0.0507
vn 0.5222 0.8477 0.0934
vn 0.0914 0.9870 0.1326
vn -0.2040 -0.9741 0.0977
vn -0.7575 0.2665 0.5959
vn 0.7833 -0.2052 -0.5868
vn 0.0048 0.4557 0.8901
vn -0.0011 -0.9997 0.0234
vn -0.5803 -0.2958 -0.7588
vn 0.5580 0.4243 0.7132
vn 0.0333 0.9506 -0.3087
vn -0.4008 0.9160 0.0159
vn 0.3677 0.9298 0.0178
vn 0.0171 0.9994 -0.0303
vn 0.3666 0.8968 0.2479
vn -0.0514 0.9941 -0.0958
vn 0.1412 0.9713 -0.1914
vn -0.1365 0.9118 0.3872
vn 0.0008 0.8923 -0.4515
vn 0.1187 0.9851 -0.1242
vn 0.4431 0.8857 -0.1387
vn -0.1316 0.9664 -0.2208
vn -0.2710 0.9615 0.0451
vn 0.0402 0.9985 0.0369
vn 0.1665 0.9649 -0.2029
vn 0.2883 0.9133 -0.2877
vn -0.0446 0.9229 -0.3824
vn -0.1416 0.9848 0.1005
vn 0.4116 0.8638 -0.2904
vn -0.0226 0.9839 0.1772
vn -0.1435 0.9822 0.1212
vn 0.0688 0.9911 0.1140
vn 0.1163 0.9777 -0.1749
vn -0.0861 0.9821 0.1678
vn -0.0468 -0.9970 -0.0609
vn -0.0160 -0.9914 -0.1301
vn -0.0448 -0.8763 0.4797
vn -0.3139 -0.6288 -0.7114
vn 0.5316 -0.8467 -0.0220
vn 0.8430 0.1027 -0.5279
vn 0.9782 0.0085 0.2073
vn 0.1016 0.1400 -0.9849
vn -0.5287 0.1428 -0.8367
vn -0.9746 0.0187 -0.2231
vn -0.8453 -0.0953 0.5257
vn -0.1422 -0.0816 0.9865
vn 0.5307 -0.1302 0.8375
vn 0.5024 -0.2593 -0.8248
vn 0.9345 -0.2748 -0.2265
vn -0.2501 -0.1740 -0.9525
vn -0.8576 0.0448 -0.5123
vn -0.9613 0.1339 0.2408
vn -0.5105 0.1251 0.8507
vn 0.1605 0.0306 0.9866
vn 0.8885 -0.1147 0.4442
vn 0.9437 0.2138 0.2524
vn -0.6767 0.2775 0.6820
vn -0.6333 -0.6779 0.3733
vn -0.6792 -0.1134 -0.7251
vn 0.9431 0.0872 0.3208
vn 0.6338 0.0023 -0.7735
vn 0.6446 0.2908 0.7070
vn 0.5082 0.7848 -0.3547
vn 0.1460 0.7957 -0.5879
vn -0.7304 0.1878 -0.6567
vn 0.1378 0.7253 -0.6745
vn -0.5131 -0.7953 0.3227
vn -0.5151 -0.8501 0.1091
vn 0.5538 0.8254 0.1098
vn -0.9888 0.1090 -0.1022
vn 0.9715 0.0261 -0.2354
vn 0.0336 -0.1016 -0.9943
vn -0.9703 0.1277 0.2057
vn 0.1902 -0.7716 0.6070
vn -0.9738 0.1983 0.1109
vn 0.3149 0.9392 -0.1369
vn -0.3012 -0.9525 0.0459
vn 0.1044 0.3316 0.9376
vn -0.0641 -0.1734 -0.9828
vn 0.4616 0.8602 -0.2169
vn 0.6152 -0.0151 -0.7882
vn -0.0129 -0.9988 0.0468
vn -0.3934 0.2177 0.8932
vn 0.0823 -0.0918 -0.9924
vn -0.5429 -0.8385 0.0468
vn 0.0636 0.3461 0.9360
vn 0.1598 0.5926 -0.7895
vn -0.1104 -0.1743 -0.9785
vn -0.7350 0.6566 -0.1691
vn -0.3076 0.3023 0.9022
vn -0.5059 0.5191 -0.6889
vn 0.0133 0.6692 0.7430
vn -0.2111 -0.5534 0.8057
vn 0.2451 -0.1909 -0.9505
vn -0.6919 0.3484 0.6324
vn 0.3453 0.2361 0.9083
vn 0.4815 -0.8747 -0.0550
vn -0.5069 -0.1649 -0.8461
vn 0.1638 0.9813 0.1008
vn -0.9984 0.0368 -0.0434
vn -0.0160 -0.9992 -0.0376
vn 0.1530 0.9530 0.2614
vn 0.0015 0.9979 0.0640
vn -0.0282 -0.9982 0.0536
vn -0.7529 0.3194 0.5754
vn 0.7827 -0.1813 -0.5955
vn -0.0281 -0.9996 0.0037
vn -0.5798 -0.3229 -0.7480
vn 0.5604 0.3924 0.7294
vn -0.0297 0.9989 -0.0357
vn -0.4422 0.8956 0.0487
vn 0.4427 0.8767 0.1884
vn 0.0248 0.9883 -0.1507
vn -0.4016 0.9123 0.0804
vn 0.0981 0.9927 0.0701
vn 0.1234 0.9735 -0.1927
vn -0.0482 0.9981 -0.0388
vn -0.0233 0.9763 -0.2153
vn 0.4300 0.9014 -0.0514
vn 0.2871 0.8871 -0.3615
vn 0.0668 0.9976 0.0178
vn 0.0839 0.9929 0.0848
vn 0.1087 0.9847 0.1359
vn 0.2028 0.9597 -0.1946
vn 0.1298 0.9740 -0.1857
usemtl Trunck
s off
f 4/1/1 6/2/1 8/3/1
f 15/4/2 31/5/2 30/6/2
f 16/7/3 32/8/3 31/9/3
f 29/10/4 15/11/4 30/12/4
f 28/13/5 14/14/5 29/15/5
f 27/16/6 13/17/6 28/18/6
f 26/19/7 12/20/7 27/21/7
f 25/22/8 11/23/8 26/24/8
f 9/25/9 25/26/9 32/27/9
f 23/28/10 16/29/10 15/4/10
f 24/30/11 9/31/11 16/7/11
f 22/32/12 15/11/12 14/33/12
f 13/34/13 22/35/13 14/14/13
f 12/36/14 21/37/14 13/17/14
f 11/38/15 20/39/15 12/20/15
f 10/40/16 19/41/16 11/23/16
f 9/25/17 18/42/17 10/43/17
f 1/44/18 72/45/18 69/46/18
f 25/22/19 3/47/19 2/48/19
f 4/1/20 58/49/20 59/50/20
f 4/51/21 28/18/21 5/52/21
f 38/53/22 35/54/22 36/55/22
f 29/10/23 7/56/23 6/57/23
f 8/58/24 32/8/24 1/44/24
f 30/6/25 48/59/25 45/60/25
f 33/61/26 44/62/26 41/63/26
f 40/64/27 33/65/27 34/66/27
f 38/67/28 33/61/28 39/68/28
f 37/69/29 34/70/29 35/71/29
f 5/72/30 37/69/30 6/2/30
f 28/13/31 38/67/31 39/68/31
f 5/52/32 39/73/32 40/64/32
f 6/57/33 38/53/33 29/10/33
f 42/74/34 44/62/34 43/75/34
f 34/66/35 41/76/35 42/77/35
f 34/70/36 43/78/36 35/71/36
f 36/55/37 43/79/37 44/80/37
f 48/59/38 49/81/38 45/60/38
f 7/82/39 47/83/39 8/3/39
f 8/58/40 48/84/40 31/9/40
f 7/56/41 45/85/41 46/86/41
f 52/87/42 53/88/42 49/81/42
f 46/86/43 49/89/43 50/90/43
f 47/83/44 50/91/44 51/92/44
f 47/93/45 52/94/45 48/84/45
f 54/95/46 56/96/46 55/97/46
f 50/90/47 53/98/47 54/99/47
f 51/92/48 54/100/48 55/101/48
f 51/102/49 56/103/49 52/94/49
f 60/104/50 61/105/50 57/106/50
f 4/51/51 60/107/51 27/16/51
f 27/21/52 57/106/52 26/19/52
f 3/47/53 57/108/53 58/109/53
f 61/105/54 68/110/54 65/111/54
f 58/109/55 61/112/55 62/113/55
f 59/50/56 62/114/56 63/115/56
f 59/116/57 64/117/57 60/107/57
f 65/111/58 67/118/58 66/119/58
f 62/113/59 65/120/59 66/121/59
f 62/114/60 67/122/60 63/115/60
f 63/123/61 68/124/61 64/117/61
f 72/125/62 75/126/62 76/127/62
f 2/48/63 71/128/63 25/22/63
f 2/129/64 69/130/64 70/131/64
f 25/26/65 72/125/65 32/27/65
f 75/126/66 80/132/66 76/127/66
f 69/130/67 74/133/67 70/131/67
f 70/134/68 75/135/68 71/128/68
f 69/46/69 76/136/69 73/137/69
f 77/138/70 79/139/70 78/140/70
f 74/133/71 77/141/71 78/142/71
f 74/143/72 79/144/72 75/135/72
f 73/137/73 80/145/73 77/146/73
f 20/39/74 83/147/74 84/148/74
f 17/149/75 88/150/75 81/151/75
f 19/41/76 82/152/76 83/153/76
f 22/32/77 87/154/77 23/155/77
f 18/42/78 81/156/78 82/157/78
f 21/158/79 86/159/79 22/35/79
f 20/160/80 85/161/80 21/37/80
f 24/162/81 87/163/81 88/164/81
usemtl Material.003
f 84/148/82 91/165/82 92/166/82
f 88/150/83 89/167/83 81/151/83
f 83/153/84 90/168/84 91/169/84
f 87/154/85 94/170/85 95/171/85
f 82/157/86 89/172/86 90/173/86
f 85/174/87 94/175/87 86/159/87
f 84/176/88 93/177/88 85/161/88
f 87/163/89 96/178/89 88/164/89
usemtl Trunck
f 92/166/90 91/165/90 97/179/90
f 89/167/91 96/180/91 97/179/91
f 91/169/92 90/168/92 97/179/92
f 95/171/93 94/170/93 97/179/93
f 90/173/94 89/172/94 97/179/94
f 94/175/95 93/181/95 97/179/95
f 93/177/96 92/182/96 97/179/96
f 96/178/97 95/183/97 97/179/97
f 8/3/98 1/184/98 3/185/98
f 1/184/99 2/129/99 3/185/99
f 3/185/100 4/1/100 8/3/100
f 4/1/101 5/72/101 6/2/101
f 6/2/102 7/82/102 8/3/102
f 15/4/103 16/29/103 31/5/103
f 16/7/104 9/31/104 32/8/104
f 29/10/105 14/33/105 15/11/105
f 28/13/106 13/34/106 14/14/106
f 27/16/107 12/36/107 13/17/107
f 26/19/108 11/38/108 12/20/108
f 25/22/109 10/40/109 11/23/109
f 9/25/110 10/43/110 25/26/110
f 23/28/111 24/162/111 16/29/111
f 24/30/112 17/149/112 9/31/112
f 22/32/113 23/155/113 15/11/113
f 13/34/114 21/158/114 22/35/114
f 12/36/115 20/160/115 21/37/115
f 11/38/116 19/186/116 20/39/116
f 10/40/117 18/187/117 19/41/117
f 9/25/118 17/188/118 18/42/118
f 1/44/119 32/8/119 72/45/119
f 25/22/120 26/24/120 3/47/120
f 4/1/121 3/185/121 58/49/121
f 4/51/122 27/16/122 28/18/122
f 38/53/123 37/189/123 35/54/123
f 29/10/124 30/12/124 7/56/124
f 8/58/125 31/9/125 32/8/125
f 30/6/126 31/5/126 48/59/126
f 33/61/127 36/190/127 44/62/127
f 40/64/128 39/73/128 33/65/128
f 38/67/129 36/190/129 33/61/129
f 37/69/130 40/191/130 34/70/130
f 5/72/131 40/191/131 37/69/131
f 28/13/132 29/15/132 38/67/132
f 5/52/133 28/18/133 39/73/133
f 6/57/134 37/189/134 38/53/134
f 42/74/135 41/63/135 44/62/135
f 34/66/136 33/65/136 41/76/136
f 34/70/137 42/192/137 43/78/137
f 36/55/138 35/54/138 43/79/138
f 48/59/139 52/87/139 49/81/139
f 7/82/140 46/193/140 47/83/140
f 8/58/141 47/93/141 48/84/141
f 7/56/142 30/12/142 45/85/142
f 52/87/143 56/96/143 53/88/143
f 46/86/144 45/85/144 49/89/144
f 47/83/145 46/193/145 50/91/145
f 47/93/146 51/102/146 52/94/146
f 54/95/46 53/88/46 56/96/46
f 50/90/147 49/89/147 53/98/147
f 51/92/148 50/91/148 54/100/148
f 51/102/149 55/194/149 56/103/149
f 60/104/150 64/195/150 61/105/150
f 4/51/151 59/116/151 60/107/151
f 27/21/152 60/104/152 57/106/152
f 3/47/153 26/24/153 57/108/153
f 61/105/154 64/195/154 68/110/154
f 58/109/155 57/108/155 61/112/155
f 59/50/156 58/49/156 62/114/156
f 59/116/157 63/123/157 64/117/157
f 65/111/158 68/110/158 67/118/158
f 62/113/159 61/112/159 65/120/159
f 62/114/160 66/196/160 67/122/160
f 63/123/161 67/197/161 68/124/161
f 72/125/162 71/198/162 75/126/162
f 2/48/163 70/134/163 71/128/163
f 2/129/164 1/184/164 69/130/164
f 25/26/165 71/198/165 72/125/165
f 75/126/166 79/139/166 80/132/166
f 69/130/167 73/199/167 74/133/167
f 70/134/168 74/143/168 75/135/168
f 69/46/169 72/45/169 76/136/169
f 77/138/70 80/132/70 79/139/70
f 74/133/170 73/199/170 77/141/170
f 74/143/171 78/200/171 79/144/171
f 73/137/172 76/136/172 80/145/172
f 20/39/173 19/186/173 83/147/173
f 17/149/174 24/30/174 88/150/174
f 19/41/175 18/187/175 82/152/175
f 22/32/176 86/201/176 87/154/176
f 18/42/177 17/188/177 81/156/177
f 21/158/178 85/174/178 86/159/178
f 20/160/179 84/176/179 85/161/179
f 24/162/180 23/28/180 87/163/180
usemtl Material.003
f 84/148/181 83/147/181 91/165/181
f 88/150/182 96/180/182 89/167/182
f 83/153/183 82/152/183 90/168/183
f 87/154/184 86/201/184 94/170/184
f 82/157/185 81/156/185 89/172/185
f 85/174/186 93/181/186 94/175/186
f 84/176/187 92/182/187 93/177/187
f 87/163/188 95/183/188 96/178/188
newmtl Material.003
Ns 225.000000
Ka 1.000000 1.000000 1.000000
Kd 0.310813 0.061869 0.018581
Ks 0.000000 0.000000 0.000000
Ke 0.000000 0.000000 0.000000
Ni 1.000000
d 1.000000
illum 1
newmtl Trunck
Ns 225.000000
Ka 1.000000 1.000000 1.000000
Kd 0.142400 0.051570 0.023390
Ks 0.076000 0.076000 0.076000
Ke 0.000000 0.000000 0.000000
Ni 1.000000
d 1.000000
illum 2