# Blender v2.82 (sub 7) OBJ File: 'Forest.blendD379C932-11C9-4E09-B687-B4B439D4B66E.blend'
# www.blender.org
mtllib f2.mtl
o f2_Cylinder.041
v -0.010287 -0.333220 0.001579
v -0.271066 0.606981 0.041600
v -0.000084 -0.333301 -0.041826
v -0.268253 0.610036 0.023579
v 0.037121 -0.333488 -0.064865
v -0.256508 0.617116 0.014491
v 0.079564 -0.333664 -0.054049
v -0.242673 0.624099 0.019654
v 0.102354 -0.333734 -0.015708
v -0.234886 0.626883 0.036048
v 0.092111 -0.333664 0.027702
v -0.237738 0.623814 0.054075
v 0.054864 -0.333488 0.050749
v -0.249552 0.616694 0.063173
v 0.012462 -0.333301 0.039926
v -0.263350 0.609724 0.058005
v 0.016316 -0.084303 -0.002504
v -0.027575 0.161963 0.004232
v -0.124545 0.414794 0.019114
v -0.119063 0.417840 -0.005379
v -0.020907 0.163503 -0.026505
v 0.024791 -0.083594 -0.039581
v -0.100593 0.423622 -0.018010
v 0.003555 0.166765 -0.042567
v 0.055975 -0.081882 -0.059186
v -0.079892 0.428793 -0.011391
v 0.031563 0.169905 -0.034558
v 0.091601 -0.080170 -0.049834
v -0.069150 0.430284 0.010612
v 0.046689 0.171066 -0.007165
v 0.110800 -0.079461 -0.017004
v -0.074731 0.427172 0.035120
v 0.039994 0.169503 0.023576
v 0.102329 -0.080170 0.020072
v -0.093297 0.421327 0.047767
v 0.015417 0.166145 0.039656
v 0.071147 -0.081882 0.039676
v -0.113902 0.416219 0.041132
v -0.012564 0.163027 0.031642
v 0.035519 -0.083594 0.030325
v -0.322318 0.428269 0.049466
v -0.242816 0.535492 -0.104735
v -0.151097 0.535492 0.077427
v -0.278951 0.566380 0.212364
v -0.477274 0.535492 0.127485
v -0.444403 0.535492 -0.073797
v -0.167362 0.708984 -0.028553
v -0.217283 0.678096 0.181314
v -0.401820 0.708984 0.203667
v -0.493539 0.708984 0.021505
v -0.348636 0.708984 -0.122017
v -0.322318 0.816208 0.049466
v -0.211822 0.291588 -0.141274
v -0.136368 0.603174 -0.065092
v -0.111578 0.269751 -0.143850
v -0.080351 0.341552 -0.112321
v -0.220116 0.437902 -0.118220
v -0.442430 0.437902 -0.084102
v -0.310625 0.224554 -0.163439
v -0.409144 0.224554 -0.148319
v -0.577636 0.411393 0.122138
v -0.532421 0.411393 -0.154725
v -0.606635 0.335025 -0.031228
v -0.596511 0.335025 -0.093221
v -0.351194 0.438911 0.308132
v -0.567696 0.438911 0.196504
v -0.474127 0.378101 0.312620
v -0.552303 0.378101 0.272312
v -0.083066 0.412165 0.147595
v -0.250237 0.412165 0.313173
v -0.105805 0.358298 0.228379
v -0.170383 0.358298 0.292342
v -0.157796 0.469800 0.282303
v -0.050031 0.647990 0.304977
v -0.094697 0.491111 0.296279
v -0.039884 0.581743 0.307811
v -0.464850 0.485855 0.230014
v -0.359545 0.727984 0.336335
v -0.402254 0.546044 0.312516
v -0.365380 0.630830 0.349746
v -0.557437 0.549044 0.278659
v -0.577942 0.767772 0.145047
v -0.593101 0.639515 0.317630
v -0.600750 0.721109 0.267787
v -0.176573 0.722669 -0.150089
v -0.418306 0.889938 -0.028379
v -0.282979 0.794736 -0.220216
v -0.391529 0.869848 -0.165562
v -0.157828 0.704620 0.321442
v -0.288068 0.875874 0.157955
v -0.190860 0.792657 0.372524
v -0.251857 0.872862 0.295956
v -0.458637 0.767197 0.278612
v -0.358032 0.902882 0.083480
v -0.533351 0.932289 0.206192
v -0.502004 0.974566 0.145393
v -0.581590 0.758960 -0.053557
v -0.383676 0.758960 -0.249584
v -0.554755 0.747925 -0.191503
v -0.485333 0.747925 -0.260263
v -0.323724 0.477115 -0.175494
v -0.467728 0.713210 -0.199013
v -0.456022 0.498000 -0.248878
v -0.512995 0.591407 -0.258183
v -0.521033 0.483949 0.023961
v -0.579334 0.689800 0.137038
v -0.659880 0.503543 0.110204
v -0.682678 0.584037 0.154421
v -0.037874 0.481708 -0.012218
v -0.054138 0.655200 -0.118197
v -0.006366 0.401614 -0.093714
v -0.014433 0.487666 -0.146280
vn -0.7832 -0.5709 -0.2463
vn -0.4902 -0.2550 -0.8335
vn 0.2136 0.3245 -0.9215
vn 0.6838 0.6252 -0.3762
vn 0.7561 0.6052 0.2490
vn 0.4676 0.3077 0.8287
vn -0.4716 0.8787 0.0748
vn -0.7145 -0.5853 0.3833
vn -0.2361 -0.2626 0.9356
vn -0.0045 -1.0000 0.0004
vn -0.2466 0.0600 0.9673
vn -0.2509 -0.0563 0.9664
vn -0.2581 -0.1403 0.9559
vn -0.8557 0.0998 0.5078
vn -0.8493 -0.1683 0.5004
vn -0.8177 -0.3446 0.4612
vn 0.5262 0.0034 0.8504
vn 0.5238 0.1189 0.8435
vn 0.5185 0.1935 0.8329
vn 0.9728 -0.0323 0.2296
vn 0.9469 0.2336 0.2208
vn 0.8970 0.3861 0.2150
vn 0.8591 -0.0323 -0.5107
vn 0.8371 0.2336 -0.4946
vn 0.7995 0.3887 -0.4579
vn 0.2470 0.0034 -0.9690
vn 0.2468 0.1180 -0.9619
vn 0.2498 0.1925 -0.9490
vn -0.5253 0.0600 -0.8488
vn -0.5293 -0.0550 -0.8467
vn -0.5311 -0.1354 -0.8364
vn -0.9686 0.0998 -0.2278
vn -0.9607 -0.1659 -0.2227
vn -0.9169 -0.3359 -0.2157
vn 0.5422 -0.7947 -0.2730
vn -0.0921 -0.7947 -0.6000
vn 0.3836 -0.7523 0.5357
vn -0.1704 -0.7288 0.6632
vn -0.5991 -0.7947 -0.0978
vn -0.1490 -0.1876 -0.9709
vn 0.8773 -0.1876 -0.4417
vn 0.6912 -0.1876 0.6979
vn -0.3489 -0.2454 0.9045
vn -0.9694 -0.1876 -0.1583
vn 0.4501 0.1876 -0.8730
vn 0.9343 0.2454 0.2584
vn 0.1490 0.1876 0.9709
vn -0.8773 0.1876 0.4417
vn -0.6912 0.1876 -0.6979
vn 0.2782 0.7947 -0.5396
vn 0.6342 0.7288 0.2581
vn 0.2019 0.7523 0.6272
vn -0.5422 0.7947 0.2730
vn -0.4272 0.7947 -0.4313
vn 0.2446 0.1740 -0.9539
vn 0.0255 0.2316 -0.9725
vn -0.1509 0.1008 -0.9834
vn -0.1463 0.2641 -0.9533
vn -0.7687 0.6271 -0.1255
vn -0.8091 0.5726 -0.1321
vn -0.3747 0.6832 0.6268
vn -0.3253 0.7043 0.6310
vn 0.6377 0.6154 0.4633
vn 0.5580 0.6093 0.5634
vn -0.5511 0.2313 0.8017
vn -0.2189 0.0082 0.9757
vn -0.9230 0.2905 0.2525
vn -0.8321 0.1246 0.5404
vn 0.8447 0.3345 0.4179
vn 0.9301 0.2511 0.2683
vn 0.5843 0.8102 0.0469
vn 0.5654 0.8247 -0.0104
vn -0.8696 -0.2618 0.4185
vn -0.8657 -0.4509 0.2173
vn -0.8379 -0.1381 -0.5280
vn -0.5438 -0.5311 -0.6497
vn 0.2799 0.9175 0.2826
vn -0.0972 0.9904 -0.0981
vn 0.5326 0.2441 -0.8104
vn 0.4995 0.2212 -0.8376
vn -0.8067 0.0922 -0.5837
vn -0.4667 0.3206 -0.8242
vn 0.6772 0.4288 0.5980
vn 0.9639 0.1987 0.1774
vn -0.7879 -0.5749 -0.2205
vn -0.4907 -0.2554 -0.8331
vn 0.1909 0.3103 -0.9313
vn 0.6631 0.6195 -0.4202
vn 0.7608 0.6091 0.2241
vn 0.4605 0.3025 0.8346
vn -0.4715 0.8787 0.0751
vn -0.4717 0.8785 0.0753
vn -0.4718 0.8785 0.0750
vn -0.4718 0.8785 0.0749
vn -0.6956 -0.5799 0.4241
vn -0.2237 -0.2548 0.9408
vn -0.0045 -1.0000 0.0006
vn -0.0044 -1.0000 0.0008
vn -0.0044 -1.0000 0.0010
vn -0.2561 0.0590 0.9649
vn -0.2689 -0.0576 0.9614
vn -0.2708 -0.1440 0.9518
vn -0.8599 0.0987 0.5008
vn -0.8621 -0.1667 0.4786
vn -0.8359 -0.3457 0.4264
vn 0.5321 0.0040 0.8467
vn 0.5321 0.1196 0.8382
vn 0.5108 0.1910 0.8382
vn 0.9745 -0.0312 0.2221
vn 0.9476 0.2335 0.2182
vn 0.8884 0.3843 0.2511
vn 0.8631 -0.0312 -0.5041
vn 0.8472 0.2326 -0.4777
vn 0.8169 0.3897 -0.4252
vn 0.2537 0.0040 -0.9673
vn 0.2606 0.1190 -0.9581
vn 0.2546 0.1938 -0.9474
vn -0.5336 0.0590 -0.8437
vn -0.5428 -0.0560 -0.8380
vn -0.5302 -0.1351 -0.8371
vn -0.9705 0.0987 -0.2199
vn -0.9620 -0.1655 -0.2170
vn -0.9099 -0.3345 -0.2453
vn 0.1195 0.3552 -0.9271
vn 0.3593 0.2398 -0.9019
vn -0.3138 0.7288 0.6086
vn 0.6046 0.5116 0.6105
vn -0.2225 0.3731 0.9007
usemtl GreenLeaves
s off
f 19//1 4//1 20//1
f 20//2 6//2 23//2
f 23//3 8//3 26//3
f 26//4 10//4 29//4
f 10//5 32//5 29//5
f 12//6 35//6 32//6
f 10//7 8//7 4//7
f 16//8 19//8 38//8
f 14//9 38//9 35//9
f 11//10 13//10 15//10
f 13//11 40//11 15//11
f 36//12 40//12 37//12
f 35//13 39//13 36//13
f 15//14 17//14 1//14
f 39//15 17//15 40//15
f 38//16 18//16 39//16
f 11//17 37//17 13//17
f 33//18 37//18 34//18
f 32//19 36//19 33//19
f 9//20 34//20 11//20
f 30//21 34//21 31//21
f 29//22 33//22 30//22
f 28//23 9//23 7//23
f 28//24 30//24 31//24
f 27//25 29//25 30//25
f 25//26 7//26 5//26
f 25//27 27//27 28//27
f 24//28 26//28 27//28
f 22//29 5//29 3//29
f 22//30 24//30 25//30
f 21//31 23//31 24//31
f 17//32 3//32 1//32
f 17//33 21//33 22//33
f 18//34 20//34 21//34
usemtl Material
f 41//35 42//35 43//35
f 42//36 41//36 46//36
f 41//37 43//37 44//37
f 41//38 44//38 45//38
f 41//39 45//39 46//39
f 42//40 46//40 51//40
f 43//41 42//41 47//41
f 44//42 43//42 48//42
f 45//43 44//43 49//43
f 46//44 45//44 50//44
f 42//45 51//45 47//45
f 43//46 47//46 48//46
f 44//47 48//47 49//47
f 45//48 49//48 50//48
f 46//49 50//49 51//49
f 47//50 51//50 52//50
f 48//51 47//51 52//51
f 49//52 48//52 52//52
f 50//53 49//53 52//53
f 51//54 50//54 52//54
f 42//55 54//55 53//55
f 54//56 55//56 53//56
f 42//57 58//57 46//57
f 58//58 59//58 60//58
f 46//59 61//59 45//59
f 62//60 63//60 61//60
f 45//61 65//61 44//61
f 66//62 67//62 65//62
f 44//63 69//63 43//63
f 70//64 71//64 69//64
f 48//65 73//65 74//65
f 74//66 75//66 76//66
f 49//67 77//67 78//67
f 78//68 79//68 80//68
f 45//69 82//69 81//69
f 81//70 84//70 83//70
f 52//71 85//71 86//71
f 85//72 88//72 86//72
f 48//73 90//73 52//73
f 89//74 92//74 90//74
f 49//75 94//75 52//75
f 93//76 96//76 94//76
f 51//77 97//77 50//77
f 98//78 99//78 97//78
f 51//79 101//79 102//79
f 102//80 103//80 104//80
f 50//81 105//81 106//81
f 106//82 107//82 108//82
f 47//83 109//83 110//83
f 110//84 111//84 112//84
usemtl GreenLeaves
f 19//85 2//85 4//85
f 20//86 4//86 6//86
f 23//87 6//87 8//87
f 26//88 8//88 10//88
f 10//89 12//89 32//89
f 12//90 14//90 35//90
f 6//91 4//91 8//91
f 4//92 2//92 10//92
f 2//93 16//93 12//93
f 16//94 14//94 12//94
f 12//94 10//94 2//94
f 16//95 2//95 19//95
f 14//96 16//96 38//96
f 15//97 1//97 11//97
f 1//98 3//98 7//98
f 3//99 5//99 7//99
f 7//98 9//98 1//98
f 9//97 11//97 1//97
f 13//100 37//100 40//100
f 36//101 39//101 40//101
f 35//102 38//102 39//102
f 15//103 40//103 17//103
f 39//104 18//104 17//104
f 38//105 19//105 18//105
f 11//106 34//106 37//106
f 33//107 36//107 37//107
f 32//108 35//108 36//108
f 9//109 31//109 34//109
f 30//110 33//110 34//110
f 29//111 32//111 33//111
f 28//112 31//112 9//112
f 28//113 27//113 30//113
f 27//114 26//114 29//114
f 25//115 28//115 7//115
f 25//116 24//116 27//116
f 24//117 23//117 26//117
f 22//118 25//118 5//118
f 22//119 21//119 24//119
f 21//120 20//120 23//120
f 17//121 22//121 3//121
f 17//122 18//122 21//122
f 18//123 19//123 20//123
usemtl Material
f 42//124 47//124 54//124
f 54//125 56//125 55//125
f 42//57 57//57 58//57
f 58//58 57//58 59//58
f 46//59 62//59 61//59
f 62//60 64//60 63//60
f 45//126 66//126 65//126
f 66//62 68//62 67//62
f 44//127 70//127 69//127
f 70//64 72//64 71//64
f 48//128 44//128 73//128
f 74//66 73//66 75//66
f 49//67 45//67 77//67
f 78//68 77//68 79//68
f 45//69 50//69 82//69
f 81//70 82//70 84//70
f 52//71 47//71 85//71
f 85//72 87//72 88//72
f 48//73 89//73 90//73
f 89//74 91//74 92//74
f 49//75 93//75 94//75
f 93//76 95//76 96//76
f 51//77 98//77 97//77
f 98//78 100//78 99//78
f 51//79 42//79 101//79
f 102//80 101//80 103//80
f 50//81 46//81 105//81
f 106//82 105//82 107//82
f 47//83 43//83 109//83
f 110//84 109//84 111//84
