# Blender v2.82 (sub 7) OBJ File: 'Forest.blendD379C932-11C9-4E09-B687-B4B439D4B66E.blend'
# www.blender.org
mtllib g1-green.mtl
o g1-green_Cube.004
v 0.116966 -1.087589 0.165768
v 0.048601 -0.253130 0.056568
v -0.094820 -1.087589 0.198271
v -0.062348 -0.253130 0.073596
v 0.061873 -1.087589 -0.193214
v 0.029401 -0.253130 -0.068539
v -0.149913 -1.087589 -0.160712
v -0.081549 -0.253130 -0.051512
v 0.138218 0.389619 0.042815
v 0.027268 0.389619 0.059842
v 0.119018 0.389619 -0.082293
v 0.008068 0.389619 -0.065265
v 0.024879 0.951100 0.060209
v -0.086070 0.951100 0.077236
v 0.005679 0.951100 -0.064899
v -0.105271 0.951100 -0.047871
vn 0.1502 0.1404 0.9786
vn -0.9866 0.0610 0.1514
vn -0.1502 0.1404 -0.9786
vn 0.9866 0.0610 -0.1514
vn 0.0000 -1.0000 -0.0000
vn 0.9787 -0.1397 -0.1502
vn -0.1517 -0.0000 -0.9884
vn -0.9787 0.1397 0.1502
vn 0.1517 -0.0000 0.9884
vn 0.0000 1.0000 0.0000
vn 0.9684 0.2001 -0.1486
vn -0.9684 -0.2001 0.1486
usemtl GreenLeaves
s off
f 4//1 1//1 2//1
f 8//2 3//2 4//2
f 6//3 7//3 8//3
f 2//4 5//4 6//4
f 3//5 5//5 1//5
f 6//6 9//6 2//6
f 12//7 15//7 11//7
f 6//7 12//7 11//7
f 8//8 10//8 12//8
f 2//9 10//9 4//9
f 16//10 13//10 15//10
f 11//11 13//11 9//11
f 10//9 13//9 14//9
f 10//12 16//12 12//12
f 4//1 3//1 1//1
f 8//2 7//2 3//2
f 6//3 5//3 7//3
f 2//4 1//4 5//4
f 3//5 7//5 5//5
f 6//6 11//6 9//6
f 12//7 16//7 15//7
f 6//7 8//7 12//7
f 8//8 4//8 10//8
f 2//9 9//9 10//9
f 16//10 14//10 13//10
f 11//11 15//11 13//11
f 10//9 9//9 13//9
f 10//12 14//12 16//12
