# Blender v2.82 (sub 7) OBJ File: 'Forest.blendD379C932-11C9-4E09-B687-B4B439D4B66E.blend'
# www.blender.org
mtllib g6-yellow.mtl
o g6-yellow_Cylinder.038
v 0.245515 -0.890951 -0.037679
v -0.651999 0.963614 0.100062
v 0.279856 -0.893764 -0.108444
v 0.380467 -0.895667 -0.151145
v 0.488038 -0.895130 -0.140487
v 0.540699 -0.894892 -0.082981
v 0.507706 -0.895130 -0.012329
v 0.408282 -0.895667 0.030097
v 0.299496 -0.893764 0.019531
v 0.104013 -0.324533 -0.015963
v -0.173266 0.293475 0.026591
v -0.572066 0.817915 0.087795
v -0.562183 0.822488 0.066350
v -0.144501 0.290450 -0.017823
v 0.142624 -0.334412 -0.080043
v -0.531319 0.833739 0.052749
v -0.069932 0.292805 -0.048123
v 0.253633 -0.352171 -0.123367
v -0.496283 0.845295 0.055361
v 0.023029 0.291847 -0.047060
v 0.376505 -0.368554 -0.119011
v -0.478649 0.850173 0.073458
v 0.076895 0.287341 -0.011801
v 0.437201 -0.375991 -0.067097
v -0.490045 0.845295 0.096010
v 0.036082 0.291847 0.037989
v 0.394866 -0.368554 0.000629
v -0.522685 0.833739 0.109009
v -0.052282 0.292805 0.066879
v 0.278955 -0.352171 0.041631
v -0.556208 0.822488 0.105289
v -0.132506 0.290450 0.060335
v 0.160063 -0.334412 0.033589
vn 0.0051 -1.0000 -0.0008
vn -0.0973 -0.0443 0.9943
vn -0.0791 -0.0795 0.9937
vn -0.0763 -0.1432 0.9868
vn -0.7180 -0.1958 0.6679
vn -0.6564 -0.3362 0.6754
vn -0.5710 -0.5091 0.6440
vn 0.3915 0.0613 0.9182
vn 0.3474 0.1363 0.9277
vn 0.3068 0.1939 0.9318
vn 0.8934 0.1654 0.4178
vn 0.7978 0.3954 0.4553
vn 0.6574 0.5751 0.4868
vn 0.7270 0.1654 -0.6664
vn 0.6245 0.3954 -0.6735
vn 0.4812 0.5751 -0.6616
vn 0.0981 0.0613 -0.9933
vn 0.0532 0.1363 -0.9892
vn 0.0132 0.1939 -0.9809
vn -0.3910 -0.0443 -0.9193
vn -0.3734 -0.0795 -0.9242
vn -0.3687 -0.1432 -0.9185
vn -0.8853 -0.1958 -0.4218
vn -0.8287 -0.3362 -0.4475
vn -0.7378 -0.5091 -0.4432
vn -0.7973 -0.3993 -0.4526
vn -0.3936 -0.0310 -0.9188
vn -0.0331 0.3148 -0.9486
vn 0.3862 0.7241 -0.5715
vn 0.5397 0.7241 0.4294
vn 0.2529 0.3148 0.9148
vn -0.6249 -0.3993 0.6709
vn -0.0999 -0.0310 0.9945
vn -0.0621 -0.9980 0.0095
vn -0.0178 -0.9998 0.0027
vn 0.0054 -1.0000 -0.0008
vn -0.0739 -0.0435 0.9963
vn -0.0787 -0.0794 0.9937
vn -0.0645 -0.1349 0.9888
vn -0.6687 -0.1946 0.7176
vn -0.6171 -0.3262 0.7161
vn -0.5681 -0.5076 0.6477
vn 0.3405 0.0611 0.9382
vn 0.3096 0.1221 0.9430
vn 0.3038 0.1915 0.9333
vn 0.8441 0.1683 0.5091
vn 0.7353 0.3673 0.5695
vn 0.6661 0.5847 0.4631
vn 0.6525 0.1683 -0.7388
vn 0.5307 0.3673 -0.7638
vn 0.4966 0.5847 -0.6415
vn 0.0435 0.0611 -0.9972
vn 0.0126 0.1221 -0.9924
vn 0.0100 0.1915 -0.9814
vn -0.3693 -0.0435 -0.9283
vn -0.3731 -0.0794 -0.9244
vn -0.3580 -0.1349 -0.9239
vn -0.8531 -0.1946 -0.4841
vn -0.8034 -0.3262 -0.4981
vn -0.7362 -0.5076 -0.4475
usemtl Material.002
s off
f 7//1 8//1 5//1
f 30//2 9//2 8//2
f 29//3 33//3 30//3
f 28//4 32//4 29//4
f 33//5 1//5 9//5
f 32//6 10//6 33//6
f 31//7 11//7 32//7
f 27//8 8//8 7//8
f 26//9 30//9 27//9
f 25//10 29//10 26//10
f 24//11 7//11 6//11
f 23//12 27//12 24//12
f 22//13 26//13 23//13
f 5//14 24//14 6//14
f 21//15 23//15 24//15
f 20//16 22//16 23//16
f 4//17 21//17 5//17
f 18//18 20//18 21//18
f 17//19 19//19 20//19
f 3//20 18//20 4//20
f 15//21 17//21 18//21
f 14//22 16//22 17//22
f 1//23 15//23 3//23
f 10//24 14//24 15//24
f 11//25 13//25 14//25
f 12//26 2//26 13//26
f 13//27 2//27 16//27
f 16//28 2//28 19//28
f 19//29 2//29 22//29
f 22//30 2//30 25//30
f 25//31 2//31 28//31
f 31//32 2//32 12//32
f 28//33 2//33 31//33
f 9//34 1//34 3//34
f 3//35 4//35 9//35
f 4//1 5//1 8//1
f 9//35 4//35 8//35
f 5//36 6//36 7//36
f 30//37 33//37 9//37
f 29//38 32//38 33//38
f 28//39 31//39 32//39
f 33//40 10//40 1//40
f 32//41 11//41 10//41
f 31//42 12//42 11//42
f 27//43 30//43 8//43
f 26//44 29//44 30//44
f 25//45 28//45 29//45
f 24//46 27//46 7//46
f 23//47 26//47 27//47
f 22//48 25//48 26//48
f 5//49 21//49 24//49
f 21//50 20//50 23//50
f 20//51 19//51 22//51
f 4//52 18//52 21//52
f 18//53 17//53 20//53
f 17//54 16//54 19//54
f 3//55 15//55 18//55
f 15//56 14//56 17//56
f 14//57 13//57 16//57
f 1//58 10//58 15//58
f 10//59 11//59 14//59
f 11//60 12//60 13//60
