# Blender v2.82 (sub 7) OBJ File: 'Forest.blendD379C932-11C9-4E09-B687-B4B439D4B66E.blend'
# www.blender.org
mtllib g7-green.mtl
o g7-green_Cylinder.011
v 0.043525 -0.889223 -0.006680
v -0.143871 1.011029 0.022080
v 0.056999 -0.892036 -0.074242
v 0.114218 -0.893939 -0.110284
v 0.180446 -0.893402 -0.093281
v 0.217084 -0.893164 -0.033316
v 0.200114 -0.893402 0.034877
v 0.142033 -0.893939 0.070958
v 0.076639 -0.892036 0.053733
v -0.085516 -0.322805 0.013124
v -0.061074 0.289950 0.009373
v -0.162331 0.847276 0.024913
v -0.157581 0.842475 0.004256
v -0.043659 0.285319 -0.033300
v -0.067601 -0.332684 -0.047780
v -0.139627 0.830323 -0.007364
v 0.005327 0.285578 -0.059673
v -0.008040 -0.350444 -0.083208
v -0.118265 0.817341 -0.002653
v 0.069426 0.286049 -0.054181
v 0.059701 -0.366827 -0.070391
v -0.106526 0.811712 0.016348
v 0.108191 0.283981 -0.016604
v 0.096038 -0.374263 -0.014739
v -0.112026 0.817341 0.037996
v 0.082478 0.286049 0.030868
v 0.078062 -0.366827 0.049249
v -0.130993 0.830323 0.048896
v 0.022976 0.285578 0.055329
v 0.017282 -0.350444 0.081790
v -0.151605 0.842475 0.043195
v -0.031664 0.285319 0.044859
v -0.050162 -0.332684 0.065852
vn 0.0084 -1.0000 -0.0013
vn -0.2561 -0.0780 0.9635
vn -0.2199 0.0397 0.9747
vn -0.1878 -0.0415 0.9813
vn -0.8622 -0.2055 0.4630
vn -0.8269 0.0364 0.5612
vn -0.7699 -0.1639 0.6167
vn 0.5245 0.0985 0.8457
vn 0.4785 0.0322 0.8775
vn 0.3764 0.1255 0.9179
vn 0.9480 0.2127 0.2367
vn 0.9628 0.0011 0.2703
vn 0.8404 0.3144 0.4415
vn 0.8334 0.2127 -0.5101
vn 0.8374 0.0011 -0.5466
vn 0.6693 0.3144 -0.6732
vn 0.2467 0.0985 -0.9641
vn 0.1933 0.0322 -0.9806
vn 0.0838 0.1255 -0.9886
vn -0.5332 -0.0780 -0.8424
vn -0.5021 0.0397 -0.8639
vn -0.4735 -0.0415 -0.8798
vn -0.9614 -0.2055 -0.1832
vn -0.9571 0.0364 -0.2874
vn -0.9194 -0.1639 -0.3574
vn -0.9637 0.1044 -0.2459
vn -0.4748 0.1307 -0.8703
vn 0.3044 0.1601 -0.9390
vn 0.8600 0.1749 -0.4795
vn 0.9642 0.1749 0.1995
vn 0.5719 0.1601 0.8045
vn -0.8456 0.1044 0.5235
vn -0.1920 0.1307 0.9727
vn -0.0197 -0.9992 -0.0357
vn -0.0080 -0.9992 0.0400
vn -0.0544 -0.9985 0.0083
vn 0.0087 -1.0000 -0.0013
vn -0.2485 -0.0773 0.9655
vn -0.1882 0.0425 0.9812
vn -0.2997 -0.0617 0.9520
vn -0.8301 -0.2072 0.5177
vn -0.7663 0.0447 0.6409
vn -0.8688 -0.1708 0.4648
vn 0.4897 0.0951 0.8667
vn 0.3800 0.0235 0.9247
vn 0.5769 0.1725 0.7984
vn 0.9468 0.2129 0.2413
vn 0.8789 -0.0149 0.4767
vn 0.9293 0.3382 0.1482
vn 0.8309 0.2129 -0.5141
vn 0.6955 -0.0149 -0.7183
vn 0.8421 0.3382 -0.4200
vn 0.2072 0.0951 -0.9737
vn 0.0852 0.0235 -0.9961
vn 0.3109 0.1725 -0.9347
vn -0.5266 -0.0773 -0.8466
vn -0.4738 0.0425 -0.8796
vn -0.5714 -0.0617 -0.8184
vn -0.9471 -0.2072 -0.2450
vn -0.9232 0.0447 -0.3816
vn -0.9682 -0.1708 -0.1829
usemtl GreenLeaves
s off
f 7//1 8//1 5//1
f 30//2 9//2 8//2
f 30//3 32//3 33//3
f 28//4 32//4 29//4
f 33//5 1//5 9//5
f 33//6 11//6 10//6
f 31//7 11//7 32//7
f 27//8 8//8 7//8
f 27//9 29//9 30//9
f 25//10 29//10 26//10
f 24//11 7//11 6//11
f 24//12 26//12 27//12
f 22//13 26//13 23//13
f 5//14 24//14 6//14
f 20//15 24//15 21//15
f 20//16 22//16 23//16
f 4//17 21//17 5//17
f 17//18 21//18 18//18
f 17//19 19//19 20//19
f 3//20 18//20 4//20
f 14//21 18//21 15//21
f 14//22 16//22 17//22
f 1//23 15//23 3//23
f 11//24 15//24 10//24
f 11//25 13//25 14//25
f 12//26 2//26 13//26
f 13//27 2//27 16//27
f 16//28 2//28 19//28
f 19//29 2//29 22//29
f 22//30 2//30 25//30
f 25//31 2//31 28//31
f 31//32 2//32 12//32
f 28//33 2//33 31//33
f 9//34 1//34 8//34
f 1//35 3//35 4//35
f 8//1 4//1 5//1
f 1//36 4//36 8//36
f 5//37 6//37 7//37
f 30//38 33//38 9//38
f 30//39 29//39 32//39
f 28//40 31//40 32//40
f 33//41 10//41 1//41
f 33//42 32//42 11//42
f 31//43 12//43 11//43
f 27//44 30//44 8//44
f 27//45 26//45 29//45
f 25//46 28//46 29//46
f 24//47 27//47 7//47
f 24//48 23//48 26//48
f 22//49 25//49 26//49
f 5//50 21//50 24//50
f 20//51 23//51 24//51
f 20//52 19//52 22//52
f 4//53 18//53 21//53
f 17//54 20//54 21//54
f 17//55 16//55 19//55
f 3//56 15//56 18//56
f 14//57 17//57 18//57
f 14//58 13//58 16//58
f 1//59 10//59 15//59
f 11//60 14//60 15//60
f 11//61 12//61 13//61
