# Blender v2.82 (sub 7) OBJ File: 'Forest.blendD379C932-11C9-4E09-B687-B4B439D4B66E.blend'
# www.blender.org
mtllib g8-yellow.mtl
o g8-yellow_Cylinder.036
v -0.069209 -0.449684 0.010621
v -0.000000 1.711064 -0.000000
v -0.054155 -0.449684 -0.026483
v -0.007378 -0.449684 -0.048074
v 0.043721 -0.449684 -0.041504
v 0.069209 -0.449684 -0.010621
v 0.054155 -0.449684 0.026483
v 0.007378 -0.449684 0.048074
v -0.043721 -0.449684 0.041504
v -0.128438 0.235835 0.019711
v -0.100499 0.235801 -0.049146
v -0.013691 0.235765 -0.089213
v 0.081136 0.235801 -0.077022
v 0.128438 0.235835 -0.019711
v 0.100499 0.235801 0.049146
v 0.013691 0.235765 0.089213
v -0.081136 0.235801 0.077022
vn 0.0000 -1.0000 -0.0000
vn -0.1273 -0.0583 0.9902
vn -0.7691 -0.0749 0.6347
vn 0.4184 -0.0583 0.9064
vn 0.9240 -0.0749 0.3749
vn 0.7691 -0.0749 -0.6347
vn 0.1273 -0.0583 -0.9902
vn -0.4184 -0.0583 -0.9064
vn -0.9240 -0.0749 -0.3749
vn -0.9240 0.0754 -0.3749
vn -0.4183 0.0587 -0.9064
vn 0.1273 0.0587 -0.9901
vn 0.7690 0.0754 -0.6348
vn 0.9240 0.0754 0.3749
vn 0.4183 0.0587 0.9064
vn -0.7690 0.0754 0.6348
vn -0.1273 0.0587 0.9901
usemtl Material.002
s off
f 5//1 7//1 9//1
f 16//2 9//2 8//2
f 17//3 1//3 9//3
f 7//4 16//4 8//4
f 6//5 15//5 7//5
f 13//6 6//6 5//6
f 12//7 5//7 4//7
f 3//8 12//8 4//8
f 1//9 11//9 3//9
f 10//10 2//10 11//10
f 11//11 2//11 12//11
f 12//12 2//12 13//12
f 13//13 2//13 14//13
f 14//14 2//14 15//14
f 15//15 2//15 16//15
f 17//16 2//16 10//16
f 16//17 2//17 17//17
f 9//1 1//1 3//1
f 3//1 4//1 5//1
f 5//1 6//1 7//1
f 7//1 8//1 9//1
f 9//1 3//1 5//1
f 16//2 17//2 9//2
f 17//3 10//3 1//3
f 7//4 15//4 16//4
f 6//5 14//5 15//5
f 13//6 14//6 6//6
f 12//7 13//7 5//7
f 3//8 11//8 12//8
f 1//9 10//9 11//9
