# Blender v2.82 (sub 7) OBJ File: 'Forest.blendD379C932-11C9-4E09-B687-B4B439D4B66E.blend'
# www.blender.org
mtllib L2.mtl
o L2_Cube.011
v -7.040771 -0.887673 -1.562319
v 2.009664 -0.661505 -8.153560
v -1.760705 -1.310828 6.412724
v 7.825202 -1.433568 0.737853
v -2.804780 -1.133477 -5.675599
v 4.485591 -1.299072 -2.644504
v 2.650664 -1.291417 4.499547
v -5.740700 -1.416447 3.381690
v 0.000000 -6.988775 0.000000
v -4.989737 -1.301302 -3.318901
v 3.739985 -1.380132 -5.235397
v 5.283675 -1.613011 3.722856
v -3.196296 -1.627607 4.934581
v -7.540113 0.000940 -2.332755
v -0.402904 -1.300283 -5.825020
v 5.929479 -1.499430 -0.457348
v 0.786841 -1.494299 6.484031
v -6.524524 -1.733722 0.523654
v -2.253077 -5.156191 1.327682
v 1.327682 -4.085636 2.253077
v 2.253077 -4.202408 -1.327682
v -1.327682 -3.469269 -2.253077
v -5.128174 -0.236609 -3.469857
v 3.580760 -3.365005 0.925395
v -0.925395 -3.630260 3.580760
v 0.925395 -5.166432 -3.580760
v -3.580760 -4.330861 -0.925395
v -5.013410 -2.486273 -1.295540
v 1.295611 -2.591784 -5.013290
v -1.295611 -2.715851 5.013290
v 5.184538 -2.952446 1.225620
v -1.869663 -2.450416 -3.172817
v 3.154451 -2.701772 -1.858840
v 1.858840 -2.499320 3.154451
v -3.154451 -3.772579 1.858840
v -3.436065 -2.659179 -2.225031
v 2.225031 -2.944422 -3.436065
v 3.463481 -2.645237 2.271555
v -2.225031 -3.405674 3.436065
v -0.281614 -2.937914 -4.083870
v 4.083870 -2.643809 -0.281614
v 0.281614 -2.682241 4.083870
v -4.083870 -3.743808 0.281614
v -2.454221 -4.182899 -1.589236
v 1.589236 -4.256779 -2.454221
v 2.454221 -3.738489 1.589236
v -1.589236 -3.982979 2.454221
v -0.201144 -4.012567 -2.916918
v 2.916918 -3.755275 -0.201144
v 0.201144 -4.480190 2.916918
v -2.916918 -5.587873 0.201144
v 0.663841 -5.706268 1.126539
v -0.663841 -5.158019 -1.126539
v -1.126539 -8.527099 0.663841
v 1.126539 -5.154892 -0.663841
v 0.462697 -3.950734 -1.790380
v -1.790380 -5.906159 -0.462697
v -0.462697 -5.137560 1.790380
v 1.790380 -4.627264 0.462697
v -5.408300 0.710640 -1.325836
v -4.263225 0.936522 -1.755956
v -0.017197 1.015675 -3.453261
v 1.188603 1.007349 -4.715908
v 2.311707 0.366980 -6.163803
v 1.901682 -0.286986 -7.686635
v 3.881014 0.539798 -0.266069
v 4.776340 0.707686 1.226570
v 6.372589 -0.038891 1.748025
v 7.385056 -1.014952 0.696930
v 3.533173 -0.964568 -4.935148
v 0.520720 1.208057 3.205244
v -0.819698 1.162286 4.420751
v -1.709538 0.282867 6.586270
v -1.653337 -0.899222 6.047671
v 4.988693 -1.184146 3.511440
v -3.852976 0.580862 0.254123
v -3.006932 -1.197908 4.653955
v -7.102645 0.337622 -2.198295
v -6.041872 0.610885 -1.406499
v -3.223299 0.931785 -2.142657
v -1.689157 1.172227 -2.876821
v 1.451905 0.793987 -5.424557
v 1.816358 0.534183 -5.917105
v -0.373088 -0.889279 -5.491094
v -2.637777 -0.732001 -5.350207
v 1.801569 1.359806 -3.071842
v 2.992248 0.553046 -1.758095
v 5.550514 0.531304 1.409037
v 6.237356 0.285451 1.549696
v 5.597610 -1.077052 -0.430004
v 4.236193 -0.888138 -2.492238
v 3.284172 0.681152 2.143565
v 1.803626 0.996003 2.917177
v -1.237857 0.789234 5.370024
v -1.563876 0.555813 5.992338
v 0.748702 -1.072214 6.114906
v 2.506069 -0.880919 4.243770
v -2.062069 0.836789 3.234508
v -2.884702 0.658700 1.686618
v -6.145062 -1.297962 0.494965
v -5.406008 -0.998809 3.189760
v -0.874847 1.125441 -1.494938
v 0.888496 0.942475 1.497355
v 0.006803 0.679999 0.001221
v -1.489357 0.841061 0.882871
v 1.502962 1.335104 -0.880428
v -4.565887 -0.185464 2.689918
v -3.365834 0.501122 1.965571
v -3.945687 0.368694 2.312067
v -2.695466 0.497588 4.205113
v -4.980824 0.289355 0.232682
v 2.542183 0.076120 4.306108
v 2.017698 0.893167 3.406877
v 2.290523 0.677039 3.878257
v 4.307305 0.278500 2.868840
v 0.421836 0.492300 5.109081
v 4.310669 -0.024557 -2.536944
v 3.452175 0.521645 -2.029703
v 3.884520 0.382599 -2.285249
v 2.470865 0.516285 -4.065557
v 5.143051 0.227179 -0.416670
v -2.600640 0.325339 -4.555719
v -1.918792 1.050147 -3.266157
v -2.178487 1.014768 -3.735356
v -4.279029 0.572353 -2.981125
v -0.305189 0.592416 -4.961411
v -4.697937 -0.890240 -3.128116
v -6.631823 -0.500236 -1.471864
v -0.152774 0.784122 -4.217428
v -3.753403 0.828007 -2.579764
v -4.828467 0.113641 -3.270450
v 4.507784 0.312062 -0.325085
v 2.230307 0.811562 -3.636314
v 3.024079 -0.475690 -4.684761
v 0.382467 0.714043 4.338514
v 3.827884 0.422141 2.542579
v 4.745725 -0.321950 3.114085
v -4.450701 0.498218 0.279745
v -2.373188 0.997133 3.729020
v -3.023353 0.084133 4.690784
v 2.384612 0.866234 0.615731
v -0.619871 1.421640 2.301082
v -2.371006 0.387365 -0.613289
v 0.608420 1.349460 -2.293686
v -5.782414 -0.285062 0.357585
v 0.577844 -0.740553 5.904060
v 5.835790 0.004367 -0.529688
v -0.357556 0.124302 -5.546183
vn -0.4272 -0.7051 0.5660
vn -0.2547 -0.7664 -0.5897
vn -0.5709 -0.7841 0.2436
vn -0.2305 -0.7168 -0.6581
vn -0.3533 -0.7182 -0.5994
vn 0.1577 -0.8873 0.4333
vn 0.3711 -0.8264 -0.4236
vn 0.2473 -0.8881 0.3875
vn 0.5306 -0.7375 -0.4178
vn -0.4097 -0.7083 0.5749
vn -0.6332 -0.7424 -0.2188
vn -0.5212 -0.7338 -0.4358
vn 0.5683 -0.7949 -0.2126
vn -0.0894 -0.8948 -0.4374
vn 0.5691 0.5698 0.5928
vn -0.0045 0.6308 -0.7760
vn 0.2950 0.5780 0.7608
vn -0.6349 0.5987 0.4883
vn -0.5834 0.6439 -0.4950
vn 0.7500 0.5897 -0.2995
vn 0.4047 -0.4476 0.7974
vn 0.3895 -0.7169 -0.5782
vn 0.5034 -0.7689 0.3942
vn -0.7433 0.6559 0.1310
vn 0.0265 0.6594 0.7513
vn -0.6667 0.4985 -0.5540
vn 0.7036 0.5794 -0.4114
vn 0.5846 -0.0389 -0.8104
vn -0.3721 0.6169 0.6935
vn 0.7863 0.5676 -0.2440
vn -0.6724 0.6129 0.4150
vn 0.5635 0.6432 0.5185
vn 0.4730 0.4218 -0.7735
vn -0.5222 0.3720 0.7675
vn -0.2742 0.6422 -0.7158
vn 0.6766 -0.7211 -0.1489
vn -0.1969 -0.4829 -0.8533
vn 0.4705 -0.5497 0.6902
vn -0.6920 -0.6031 0.3968
vn 0.9082 -0.2956 -0.2965
vn 0.0804 -0.5452 0.8344
vn -0.8431 -0.5294 -0.0939
vn 0.6907 -0.6169 -0.3773
vn 0.1344 -0.8689 0.4763
vn -0.2011 -0.8484 0.4896
vn 0.3003 -0.6889 0.6597
vn -0.2576 -0.8965 0.3604
vn -0.5011 -0.7114 -0.4928
vn -0.2250 -0.7244 -0.6516
vn 0.7910 -0.5613 -0.2434
vn -0.4767 -0.5134 -0.7135
vn 0.6660 -0.7242 0.1789
vn 0.4444 -0.8626 0.2415
vn -0.0016 -0.3952 -0.9186
vn 0.1038 -0.6484 -0.7542
vn 0.2241 -0.4505 -0.8642
vn 0.0745 -0.5330 -0.8429
vn -0.1728 -0.9727 0.1552
vn -0.7374 -0.3591 0.5721
vn -0.2806 -0.7185 -0.6364
vn -0.1006 -0.5713 -0.8146
vn -0.3460 -0.8178 0.4599
vn -0.1898 -0.6220 0.7596
vn 0.7721 -0.3314 0.5422
vn 0.7472 -0.5575 0.3618
vn 0.8608 -0.5045 0.0671
vn 0.6397 -0.7685 -0.0170
vn -0.6902 -0.0287 -0.7230
vn 0.5281 -0.1926 -0.8270
vn 0.0155 0.5421 0.8402
vn -0.8625 0.3574 0.3584
vn -0.1408 0.9690 -0.2030
vn -0.1893 0.8870 0.4212
vn 0.0681 0.9080 -0.4135
vn 0.4661 0.8847 0.0026
vn -0.7899 -0.0277 0.6127
vn -0.7145 0.6658 0.2149
vn -0.3663 0.8393 0.4018
vn 0.3021 0.4679 0.8305
vn 0.2333 0.9688 0.0837
vn 0.2096 0.9425 0.2605
vn 0.6243 0.7543 -0.2033
vn 0.5307 0.8073 -0.2579
vn 0.1183 0.9884 -0.0952
vn -0.7135 -0.1885 -0.6749
vn -0.2787 0.9327 -0.2291
vn -0.1668 0.9625 -0.2139
vn 0.0838 0.9891 -0.1210
vn -0.0115 0.9560 -0.2930
vn -0.2458 0.9389 -0.2409
vn -0.1319 0.9763 -0.1715
vn -0.2919 0.9081 -0.3003
vn -0.1426 0.9879 -0.0615
vn -0.1275 0.9777 -0.1666
vn -0.3716 0.7711 -0.5170
vn 0.2769 0.9594 -0.0535
vn 0.0543 0.9982 -0.0235
vn 0.3015 0.9064 -0.2959
vn 0.4362 0.8880 -0.1456
vn 0.3354 0.9292 -0.1551
vn 0.6785 0.7129 -0.1771
vn 0.9225 0.1961 -0.3326
vn 0.2784 0.9563 -0.0892
vn 0.5946 0.6375 -0.4900
vn 0.1056 0.9257 0.3633
vn 0.0079 0.9793 0.2022
vn 0.3431 0.8450 0.4102
vn 0.2465 0.8976 0.3654
vn 0.1421 0.9411 0.3067
vn 0.3219 0.9320 0.1663
vn 0.6508 -0.1304 0.7480
vn 0.4521 0.5949 0.6646
vn 0.4612 0.6027 0.6512
vn -0.1626 0.9813 0.1029
vn -0.2481 0.9618 0.1154
vn -0.1255 0.9710 0.2033
vn -0.3271 0.9283 0.1768
vn -0.2203 0.9370 0.2712
vn 0.0345 0.9568 -0.2886
vn -0.7708 -0.2941 0.5651
vn -0.4705 0.8399 0.2706
vn -0.5403 0.7849 0.3034
vn -0.3722 0.9264 0.0568
vn 0.0208 0.9985 -0.0510
vn 0.0414 0.9945 0.0961
vn -0.1490 0.9882 -0.0345
vn -0.3271 0.9412 0.0843
vn 0.2552 0.9622 -0.0947
vn 0.0644 0.9848 0.1611
vn 0.0702 0.9924 -0.1014
vn -0.4463 0.8948 -0.0083
vn 0.0872 0.9960 -0.0176
vn -0.1772 0.9098 0.3753
vn -0.0014 0.9999 0.0111
vn -0.5816 0.7671 0.2706
vn -0.5575 0.7925 0.2473
vn -0.4793 0.7631 0.4335
vn 0.6476 -0.0738 0.7584
vn 0.3792 0.6368 0.6713
vn 0.4500 0.5235 0.7235
vn 0.7930 -0.0995 -0.6011
vn 0.5549 0.7722 -0.3095
vn 0.2743 0.9445 -0.1807
vn -0.2841 0.5823 -0.7617
vn -0.1937 0.7979 -0.5708
vn -0.2457 0.7674 -0.5923
vn -0.4284 -0.7076 0.5619
vn -0.3093 -0.8843 -0.3497
vn -0.5808 -0.7448 0.3287
vn -0.3245 -0.7711 -0.5478
vn -0.6605 -0.1889 -0.7267
vn 0.0934 -0.7675 0.6342
vn 0.3756 -0.8324 -0.4074
vn -0.0710 -0.7156 0.6949
vn 0.4911 -0.8318 -0.2588
vn -0.4465 -0.7770 0.4438
vn -0.5962 -0.7845 -0.1707
vn -0.3667 -0.8009 -0.4733
vn 0.6660 -0.7266 -0.1689
vn -0.5207 -0.6397 -0.5654
vn 0.3348 -0.9138 0.2301
vn 0.3831 -0.8092 -0.4455
vn 0.3172 -0.8748 0.3662
vn 0.2975 -0.8691 -0.3952
vn -0.2856 -0.7214 -0.6309
vn 0.5646 -0.4670 0.6806
vn -0.6798 -0.4553 0.5750
vn 0.5836 -0.6485 -0.4889
vn 0.3498 -0.7461 0.5666
vn -0.7867 -0.6167 -0.0280
vn 0.7431 -0.5703 -0.3501
vn 0.5056 -0.7418 0.4407
vn -0.1991 -0.8957 0.3977
vn 0.5440 -0.5448 0.6382
vn -0.3627 -0.5304 0.7662
vn -0.5997 -0.6088 -0.5193
vn -0.6828 -0.2778 -0.6758
vn 0.6338 -0.6907 -0.3481
vn -0.3691 -0.5503 -0.7490
vn 0.3675 -0.9242 0.1036
vn 0.1542 -0.6057 0.7806
vn -0.1202 -0.5515 -0.8255
vn -0.1756 -0.9729 0.1505
vn 0.1996 -0.6085 -0.7680
vn -0.3081 -0.9226 0.2322
vn -0.2706 -0.6648 0.6963
vn -0.5447 -0.4438 -0.7116
vn -0.5255 -0.5980 -0.6051
vn -0.1077 -0.5807 -0.8070
vn -0.3546 -0.7014 0.6183
vn -0.2388 -0.2638 0.9345
vn 0.0840 -0.6818 0.7267
vn 0.4635 -0.8078 0.3642
vn 0.6744 -0.7365 -0.0525
vn 0.5987 -0.8002 -0.0352
vn -0.1651 0.9216 -0.3513
vn 0.6148 0.7779 -0.1301
vn 0.0876 -0.4096 0.9081
vn -0.8935 -0.1292 0.4301
vn -0.1528 0.9764 -0.1524
vn -0.1084 0.9893 0.0974
vn 0.0031 0.9846 -0.1746
vn 0.1625 0.9828 -0.0881
vn -0.3207 0.7139 0.6225
vn -0.1891 0.9802 0.0582
vn -0.1802 0.9554 0.2339
vn 0.4639 -0.0750 0.8827
vn 0.3428 0.9132 0.2203
vn 0.2249 0.8677 0.4433
vn 0.8627 -0.1001 -0.4957
vn 0.2400 0.9635 -0.1182
vn 0.3777 0.8628 -0.3362
vn -0.4574 0.5444 -0.7031
vn -0.1227 0.9924 -0.0069
vn -0.2433 0.7720 -0.5872
vn 0.0483 0.9648 -0.2585
vn -0.0110 0.9575 -0.2882
vn -0.2852 0.8834 -0.3719
vn -0.2589 0.9318 -0.2545
vn -0.0568 0.9847 -0.1649
vn -0.2295 0.9592 -0.1654
vn -0.2426 0.7086 -0.6626
vn -0.3453 0.7984 -0.4933
vn 0.1316 0.9913 -0.0062
vn 0.3326 0.9387 -0.0905
vn 0.2736 0.9237 -0.2680
vn 0.5457 0.8013 -0.2454
vn 0.5185 0.7758 -0.3596
vn 0.1193 0.9890 0.0877
vn 0.6305 0.7530 -0.1884
vn 0.8405 0.5322 -0.1016
vn 0.5251 0.7716 -0.3590
vn 0.0841 0.9587 0.2716
vn 0.2380 0.8794 0.4124
vn 0.3365 0.8165 0.4691
vn 0.1104 0.9592 0.2601
vn 0.1912 0.9216 0.3377
vn 0.2528 0.9632 0.0918
vn 0.6625 0.4594 0.5917
vn 0.4510 0.5994 0.6613
vn 0.4423 0.6357 0.6327
vn -0.3739 0.9150 0.1512
vn -0.1330 0.9876 0.0839
vn -0.1183 0.9734 0.1964
vn -0.5016 0.7441 0.4413
vn 0.0284 0.9560 -0.2921
vn -0.2883 0.9566 0.0431
vn -0.7139 -0.0292 0.6996
vn -0.5470 0.7827 0.2970
vn -0.5276 0.7949 0.2997
vn 0.1687 0.9646 0.2029
vn 0.2065 0.9784 -0.0030
vn 0.1098 0.9783 -0.1759
vn -0.4304 0.8967 -0.1032
vn 0.0830 0.9882 0.1287
vn 0.1347 0.9831 -0.1239
vn 0.2425 0.9488 0.2026
vn -0.2193 0.9620 -0.1625
vn 0.2027 0.9648 0.1678
vn -0.2280 0.9614 -0.1537
vn -0.1076 0.9911 0.0782
vn 0.4990 0.8631 0.0777
vn -0.9110 0.3547 0.2105
vn -0.5388 0.8055 0.2466
vn -0.5389 0.6894 0.4841
vn 0.5315 0.6322 0.5638
vn 0.3891 0.5335 0.7510
vn 0.2287 0.8621 0.4523
vn 0.8029 -0.2276 -0.5509
vn 0.2668 0.9392 -0.2162
vn 0.9410 0.2598 -0.2168
vn -0.0657 -0.0532 -0.9964
vn -0.1964 0.7740 -0.6020
vn -0.2375 0.5133 -0.8247
usemtl Material.003
s off
f 13//1 30//1 3//1
f 10//2 32//2 36//2
f 18//3 35//3 8//3
f 15//4 29//4 40//4
f 23//5 1//5 14//5
f 12//6 34//6 38//6
f 11//7 29//7 2//7
f 17//8 30//8 42//8
f 16//9 33//9 6//9
f 8//10 39//10 13//10
f 18//11 28//11 43//11
f 10//12 28//12 1//12
f 11//13 33//13 37//13
f 15//14 32//14 5//14
usemtl GreenLeaves
f 7//15 96//15 17//15
f 5//16 84//16 15//16
f 7//17 75//17 97//17
f 3//18 77//18 13//18
f 5//19 127//19 85//19
f 2//20 70//20 11//20
usemtl Material.003
f 4//21 38//21 31//21
f 4//22 41//22 16//22
f 17//23 34//23 7//23
usemtl GreenLeaves
f 8//24 100//24 18//24
f 3//25 96//25 74//25
f 2//26 84//26 65//26
f 6//27 90//27 16//27
f 23//28 127//28 10//28
f 8//29 77//29 101//29
f 6//30 70//30 91//30
f 1//31 100//31 128//31
f 4//32 75//32 12//32
f 4//33 90//33 69//33
f 14//34 128//34 78//34
f 14//35 131//35 23//35
usemtl Material.003
f 41//36 24//36 49//36
f 36//37 22//37 44//37
f 42//38 20//38 34//38
f 43//39 19//39 35//39
f 29//40 45//40 26//40
f 42//41 25//41 50//41
f 43//42 27//42 51//42
f 37//43 21//43 45//43
f 38//44 24//44 31//44
f 39//45 25//45 30//45
f 34//46 46//46 38//46
f 35//47 47//47 39//47
f 40//48 22//48 32//48
f 29//49 48//49 40//49
f 33//50 49//50 21//50
f 36//51 27//51 28//51
f 49//52 46//52 59//52
f 58//53 20//53 50//53
f 57//54 9//54 54//54
f 56//55 21//55 55//55
f 53//56 55//56 9//56
f 22//57 56//57 53//57
f 48//58 45//58 56//58
f 51//59 54//59 19//59
f 44//60 51//60 27//60
f 44//61 53//61 57//61
f 47//62 50//62 25//62
f 19//63 58//63 47//63
f 9//64 58//64 54//64
f 59//65 20//65 52//65
f 55//66 52//66 9//66
f 21//67 59//67 55//67
usemtl GreenLeaves
f 148//68 65//68 84//68
f 147//69 69//69 90//69
f 146//70 74//70 96//70
f 145//71 128//71 100//71
f 86//72 62//72 144//72
f 102//73 80//73 143//73
f 103//74 105//74 142//74
f 141//75 87//75 106//75
f 107//76 77//76 140//76
f 108//77 110//77 139//77
f 138//78 79//78 111//78
f 137//79 97//79 75//79
f 136//80 114//80 115//80
f 94//81 116//81 135//81
f 134//82 91//82 70//82
f 118//83 120//83 133//83
f 132//84 89//84 121//84
f 131//85 85//85 127//85
f 130//86 124//86 125//86
f 82//87 126//87 129//87
f 129//88 124//88 123//88
f 62//89 123//89 81//89
f 63//90 129//90 62//90
f 60//91 125//91 79//91
f 61//92 130//92 60//92
f 80//93 123//93 130//93
f 125//94 78//94 79//94
f 125//95 122//95 131//95
f 132//96 119//96 118//96
f 66//97 118//97 87//97
f 66//98 88//98 132//98
f 82//99 120//99 83//99
f 63//100 133//100 82//100
f 87//101 133//101 86//101
f 134//102 65//102 64//102
f 120//103 64//103 83//103
f 120//104 117//104 134//104
f 135//105 114//105 113//105
f 93//106 135//106 113//106
f 72//107 135//107 71//107
f 88//108 115//108 89//108
f 67//109 136//109 88//109
f 92//110 113//110 136//110
f 137//111 69//111 68//111
f 115//112 68//112 89//112
f 115//113 112//113 137//113
f 138//114 109//114 108//114
f 76//115 108//115 99//115
f 76//116 60//116 138//116
f 94//117 110//117 95//117
f 72//118 139//118 94//118
f 98//119 108//119 139//119
f 140//120 74//120 73//120
f 110//121 73//121 95//121
f 109//122 140//122 110//122
f 103//123 106//123 104//123
f 93//124 141//124 103//124
f 67//125 141//125 92//125
f 98//126 105//126 99//126
f 72//127 142//127 98//127
f 71//128 103//128 142//128
f 76//129 80//129 61//129
f 99//130 143//130 76//130
f 105//131 102//131 143//131
f 102//132 62//132 81//132
f 106//133 102//133 104//133
f 106//134 86//134 144//134
f 145//135 101//135 107//135
f 111//136 107//136 109//136
f 111//137 78//137 145//137
f 146//138 97//138 112//138
f 116//139 112//139 114//139
f 116//140 73//140 146//140
f 147//141 91//141 117//141
f 121//142 117//142 119//142
f 89//143 147//143 121//143
f 148//144 85//144 122//144
f 126//145 122//145 124//145
f 83//146 148//146 126//146
usemtl Material.003
f 13//147 39//147 30//147
f 10//148 5//148 32//148
f 18//149 43//149 35//149
f 15//150 2//150 29//150
f 23//151 10//151 1//151
f 12//152 7//152 34//152
f 11//153 37//153 29//153
f 17//154 3//154 30//154
f 16//155 41//155 33//155
f 8//156 35//156 39//156
f 18//157 1//157 28//157
f 10//158 36//158 28//158
f 11//159 6//159 33//159
f 15//160 40//160 32//160
usemtl GreenLeaves
f 7//15 97//15 96//15
f 5//16 85//16 84//16
f 7//17 12//17 75//17
f 3//18 74//18 77//18
f 5//19 10//19 127//19
f 2//20 65//20 70//20
usemtl Material.003
f 4//161 12//161 38//161
f 4//162 31//162 41//162
f 17//163 42//163 34//163
usemtl GreenLeaves
f 8//24 101//24 100//24
f 3//25 17//25 96//25
f 2//26 15//26 84//26
f 6//27 91//27 90//27
f 23//28 131//28 127//28
f 8//29 13//29 77//29
f 6//30 11//30 70//30
f 1//31 18//31 100//31
f 4//32 69//32 75//32
f 4//33 16//33 90//33
f 14//34 1//34 128//34
f 14//35 78//35 131//35
usemtl Material.003
f 41//164 31//164 24//164
f 36//165 32//165 22//165
f 42//166 50//166 20//166
f 43//167 51//167 19//167
f 29//168 37//168 45//168
f 42//169 30//169 25//169
f 43//170 28//170 27//170
f 37//171 33//171 21//171
f 38//172 46//172 24//172
f 39//173 47//173 25//173
f 34//174 20//174 46//174
f 35//175 19//175 47//175
f 40//176 48//176 22//176
f 29//177 26//177 48//177
f 33//178 41//178 49//178
f 36//179 44//179 27//179
f 49//180 24//180 46//180
f 58//181 52//181 20//181
f 57//182 53//182 9//182
f 56//183 45//183 21//183
f 53//184 56//184 55//184
f 22//185 48//185 56//185
f 48//186 26//186 45//186
f 51//187 57//187 54//187
f 44//188 57//188 51//188
f 44//189 22//189 53//189
f 47//190 58//190 50//190
f 19//191 54//191 58//191
f 9//192 52//192 58//192
f 59//193 46//193 20//193
f 55//194 59//194 52//194
f 21//195 49//195 59//195
usemtl GreenLeaves
f 148//196 64//196 65//196
f 147//197 68//197 69//197
f 146//198 73//198 74//198
f 145//199 78//199 128//199
f 86//200 63//200 62//200
f 102//201 81//201 80//201
f 103//202 104//202 105//202
f 141//203 66//203 87//203
f 107//204 101//204 77//204
f 108//205 109//205 110//205
f 138//206 60//206 79//206
f 137//207 112//207 97//207
f 136//208 113//208 114//208
f 94//209 95//209 116//209
f 134//210 117//210 91//210
f 118//211 119//211 120//211
f 132//212 88//212 89//212
f 131//213 122//213 85//213
f 130//214 123//214 124//214
f 82//215 83//215 126//215
f 129//216 126//216 124//216
f 62//217 129//217 123//217
f 63//218 82//218 129//218
f 60//219 130//219 125//219
f 61//220 80//220 130//220
f 80//221 81//221 123//221
f 125//222 131//222 78//222
f 125//223 124//223 122//223
f 132//224 121//224 119//224
f 66//225 132//225 118//225
f 66//226 67//226 88//226
f 82//227 133//227 120//227
f 63//228 86//228 133//228
f 87//229 118//229 133//229
f 134//230 70//230 65//230
f 120//231 134//231 64//231
f 120//232 119//232 117//232
f 135//233 116//233 114//233
f 93//234 71//234 135//234
f 72//235 94//235 135//235
f 88//236 136//236 115//236
f 67//237 92//237 136//237
f 92//238 93//238 113//238
f 137//239 75//239 69//239
f 115//240 137//240 68//240
f 115//241 114//241 112//241
f 138//242 111//242 109//242
f 76//243 138//243 108//243
f 76//244 61//244 60//244
f 94//245 139//245 110//245
f 72//246 98//246 139//246
f 98//247 99//247 108//247
f 140//248 77//248 74//248
f 110//249 140//249 73//249
f 109//250 107//250 140//250
f 103//251 141//251 106//251
f 93//252 92//252 141//252
f 67//253 66//253 141//253
f 98//254 142//254 105//254
f 72//255 71//255 142//255
f 71//256 93//256 103//256
f 76//257 143//257 80//257
f 99//258 105//258 143//258
f 105//259 104//259 102//259
f 102//260 144//260 62//260
f 106//261 144//261 102//261
f 106//262 87//262 86//262
f 145//263 100//263 101//263
f 111//264 145//264 107//264
f 111//265 79//265 78//265
f 146//266 96//266 97//266
f 116//267 146//267 112//267
f 116//268 95//268 73//268
f 147//269 90//269 91//269
f 121//270 147//270 117//270
f 89//271 68//271 147//271
f 148//272 84//272 85//272
f 126//273 148//273 122//273
f 83//274 64//274 148//274
newmtl GreenLeaves
Ns 225.000000
Ka 1.000000 1.000000 1.000000
Kd 0.172285 0.389000 0.026521
Ks 0.000000 0.000000 0.000000
Ke 0.000000 0.000000 0.000000
Ni 1.000000
d 1.000000
illum 1
newmtl Material.003
Ns 225.000000
Ka 1.000000 1.000000 1.000000
Kd 0.310813 0.061869 0.018581
Ks 0.000000 0.000000 0.000000
Ke 0.000000 0.000000 0.000000
Ni 1.000000
d 1.000000
illum 1