# Blender v2.82 (sub 7) OBJ File: 'Forest.blendD379C932-11C9-4E09-B687-B4B439D4B66E.blend'
# www.blender.org
mtllib p2-green.mtl
o p2-green_Cylinder.051
v -0.783960 -1.726471 -0.015345
v -0.788348 1.923999 -0.033191
v -0.563358 -1.587572 -0.385591
v -0.669423 1.979834 -0.054540
v -0.202217 -1.570496 -0.584421
v -0.825106 2.007443 -0.075593
v 0.280680 -1.723675 -0.508342
v -0.695401 2.102207 -0.065113
v 0.404351 -1.671797 -0.187789
v -0.717179 2.044788 -0.044709
v 0.503152 -1.697457 0.228636
v -0.696215 2.113727 -0.015851
v 0.116812 -1.755167 0.526840
v -0.703826 2.098401 0.005190
v -0.262382 -1.634934 0.582446
v -0.802669 2.047748 0.005589
v -0.571899 -1.553156 0.379839
v -0.748438 2.010893 -0.004570
v -2.185059 0.309030 -0.043656
v -1.697618 -0.036297 -0.421942
v -2.107945 -0.181890 0.303677
v -1.089964 -1.226903 0.764016
v -1.357794 -0.744645 -0.032152
v -0.936182 -1.032576 -0.773594
v -1.607358 -0.236651 0.623185
v -1.802336 -0.245892 -0.052112
v -1.413295 -0.467515 -0.538300
v 1.353011 0.079573 -0.441520
v 1.713162 0.282502 -0.128878
v 1.640976 -0.125456 0.265805
v 0.581401 -0.692658 -0.774541
v 1.091696 -0.668262 -0.179750
v 0.944796 -0.692493 0.528917
v 0.940430 -0.226150 -0.578839
v 1.313412 -0.166715 -0.164908
v 1.187842 -0.244529 0.377190
v -0.599959 -0.102661 -1.289978
v -0.042189 0.316521 -1.857809
v 0.270107 0.105162 -1.534873
v -0.292140 -0.880113 -0.990094
v 0.239482 -0.835242 -0.826883
v -0.670566 -0.831317 -0.680408
v -0.138297 -0.091889 -1.298954
v -0.891682 -0.391098 -1.109624
v 0.398957 -0.231207 -1.202721
v 0.628017 0.106038 1.241814
v 0.225862 0.255227 1.879430
v -0.280104 0.315589 1.809152
v -0.667251 -0.183045 1.383105
v -0.273787 -0.303806 1.256370
v -0.952756 -0.463190 1.037134
v 0.667980 -0.256724 0.910493
v 0.193309 -0.507657 1.204721
v -0.808098 -1.064467 0.662179
v 0.212864 -1.003565 0.824135
v -0.433539 -0.770347 0.867714
v 0.648482 -0.792374 0.528149
v 0.025358 0.501426 1.941279
v -0.151249 -0.305885 1.225549
v -0.236422 -0.870298 0.840249
v -0.708414 -1.541033 0.322022
v -0.758229 -1.414691 -0.045583
v -0.643163 -1.404163 -0.411942
v -0.374051 -1.399368 -0.603055
v 0.058011 -1.419959 -0.503445
v 0.351658 -1.446327 -0.207940
v 0.259480 -1.503479 0.169317
v 0.072318 -1.273556 0.471201
v -0.359082 -1.553235 0.557081
v -1.788320 0.375592 1.161327
v -1.822005 0.172125 0.613781
v -1.454712 0.164968 1.237772
v -0.329741 -0.671806 1.074943
v -0.993649 -0.943092 0.624427
v -1.585098 -0.802549 -0.129786
v -0.800455 -0.122401 1.238611
v -1.465794 -0.004468 0.806457
v -1.634954 -0.116830 0.351311
v 0.649593 0.251017 -1.170824
v 1.125704 0.402111 -1.139256
v 1.216702 0.073872 -0.818179
v 0.049810 -0.604125 -1.039227
v 0.509025 -0.429825 -0.830590
v 1.000766 -0.525391 -0.275813
v 0.330835 -0.049057 -1.065348
v 0.681850 -0.000967 -0.935931
v 1.072575 -0.090326 -0.522739
v -1.499697 0.173225 -0.657068
v -1.250965 0.376949 -1.373425
v -0.924710 0.143515 -1.321468
v -1.009676 -0.644199 -0.721463
v -0.535802 -0.699626 -0.838781
v -0.930634 -0.846997 -0.260764
v -0.925347 0.083720 -0.943666
v -1.339846 -0.271395 -0.472137
v -0.460407 0.009460 -1.216552
v 1.073905 0.229512 0.481526
v 1.210285 0.558468 1.186044
v 0.770585 0.372158 1.395182
v 0.096318 0.066349 1.338032
v 0.502663 -0.135915 0.999372
v -0.170144 -0.196984 1.153973
v 0.867541 -0.146245 0.190706
v 0.789904 -0.123999 0.694617
v -0.148106 -0.837314 0.778838
v 0.379718 -0.615162 0.400195
v 0.276616 -0.799531 0.709611
v 0.506969 -0.687626 -0.034569
v 1.069472 0.584075 1.363049
v 0.560607 -0.092442 0.843138
v 0.436237 -0.623292 0.559767
v -0.580904 -0.907167 -0.088685
v -0.749710 -0.691266 -0.437938
v -0.346269 -0.773191 -0.593154
v 0.155402 -0.628868 -0.490872
v 0.325377 -0.661421 -0.173262
v 0.421823 -0.686347 0.215043
v 0.143754 -0.882288 0.476705
v -0.247984 -0.665232 0.495328
v -0.554941 -0.857224 0.277324
v -2.111749 1.045979 -0.229602
v -1.640312 0.890700 -0.548555
v -1.885509 0.770559 0.122106
v -1.173058 -0.023604 0.600614
v -1.350801 -0.136096 -0.152273
v -0.777186 -0.144412 -0.810208
v -1.568422 0.569240 0.441203
v -1.506289 0.567176 -0.183782
v -1.382187 0.573706 -0.635272
v 1.329080 0.911982 -0.345047
v 1.639441 1.064081 -0.031488
v 1.554299 0.786568 0.330198
v 0.755106 0.223325 -0.692746
v 0.947615 0.269811 -0.126513
v 0.974390 0.275679 0.536193
v 0.976999 0.499631 -0.495877
v 1.244213 0.678183 -0.094562
v 1.108578 0.465464 0.407386
v -0.490920 0.823496 -1.272529
v 0.013663 1.117618 -1.763618
v 0.384461 0.917464 -1.437985
v -0.189603 0.166604 -0.958264
v 0.231475 0.030810 -0.781216
v -0.424152 0.053623 -0.692503
v 0.034988 0.669892 -1.241304
v -0.534906 0.636334 -1.099638
v 0.548573 0.560023 -1.109571
v 0.411495 0.849096 1.157660
v 0.061171 1.162083 1.722926
v -0.285230 1.071152 1.631469
v -0.750256 0.901562 1.199110
v -0.297479 0.413449 1.116038
v -0.807472 0.371414 0.879279
v 0.577688 0.446164 0.861110
v -0.027899 0.387939 1.092806
v -0.661372 -0.049610 0.544192
v 0.098236 -0.126039 0.744719
v -0.432714 -0.199592 0.756623
v 0.447756 0.100071 0.493412
v -0.092968 1.332364 1.765758
v -0.111484 0.419427 1.106727
v -0.112428 -0.117994 0.753138
v -0.583306 -0.033395 -0.382629
v -0.305709 -0.083183 -0.556619
v -0.028117 -0.050786 -0.484036
v 0.432617 -0.264205 -0.180013
v 0.385348 -0.099408 0.195943
v 0.205372 -0.271789 0.504087
v -0.238003 -0.226772 0.560467
v -0.837593 -0.234816 0.327553
v -0.731906 -0.280264 -0.048180
v -1.682903 1.678147 -1.273523
v -1.111194 1.381857 -1.281969
v -1.700494 1.401606 -0.835371
v -1.226939 0.382272 0.003924
v -1.155296 0.520097 -0.711935
v -0.310655 0.470375 -1.050132
v -1.491330 1.163382 -0.364822
v -1.264226 1.148027 -0.920984
v -0.934319 1.104319 -1.189919
v 1.162811 1.447524 0.496541
v 1.264136 1.574630 0.922515
v 0.973384 1.291836 1.170370
v 0.821949 0.660635 -0.112432
v 0.747001 0.791059 0.527926
v 0.381156 0.674924 1.017796
v 0.991207 1.028355 0.195546
v 0.988752 1.213252 0.659527
v 0.637262 1.136849 1.043794
v 0.259072 1.389899 -1.264797
v 0.967471 1.678018 -1.365314
v 0.950569 1.477691 -0.953797
v 0.282459 0.662032 -0.760443
v 0.576034 0.555766 -0.405149
v -0.201746 0.561681 -0.765786
v 0.549930 1.261970 -0.981142
v -0.000955 1.135926 -1.173346
v 0.938088 1.138527 -0.563599
v -0.385920 1.319396 1.284476
v -1.062192 1.721086 1.507155
v -1.281548 1.646657 1.198134
v -1.513660 1.394055 0.619663
v -1.057461 1.149769 0.788483
v -1.335678 1.125986 0.315517
v -0.207495 0.947069 1.090319
v -0.774168 0.945397 1.014569
v -1.138624 0.510070 0.146837
v -0.396333 0.645233 0.753397
v -0.920924 0.639301 0.520094
v -0.018393 0.467062 0.753431
v -1.180124 1.801920 1.420851
v -0.977114 0.986277 0.898766
v -0.803000 0.548846 0.630247
v -0.415866 0.931941 -0.130363
v -0.238119 0.956713 -0.208154
v -0.468057 0.980193 -0.274463
v -0.235250 0.996210 -0.250688
v -0.298177 1.040225 -0.180053
v -0.179283 1.058356 -0.078645
v -0.403545 1.033463 -0.015157
v -0.479124 0.879522 -0.001664
v -0.383246 0.921556 -0.042031
v -0.475982 -0.028810 -0.141902
v -0.574471 -0.134587 -0.220998
v -0.235590 -0.301948 -0.186649
v -0.245529 -0.083389 -0.077549
v -0.314540 -0.179456 0.062612
v -0.291457 -0.150747 0.173401
v -0.586169 -0.112425 0.185393
v -0.767010 -0.082016 0.111402
v -0.503075 -0.042065 -0.010844
vn -0.3973 -0.0298 -0.9172
vn -0.2920 -0.2612 0.9201
vn 0.0860 0.1995 -0.9761
vn 0.7940 0.2364 0.5601
vn 0.5830 0.3298 -0.7425
vn 0.2643 0.0722 0.9617
vn 0.1368 0.0196 0.9904
vn -0.1763 -0.2727 0.9458
vn -0.9024 -0.3127 0.2965
vn -0.3541 -0.0867 -0.9312
vn -0.2349 -0.9501 -0.2053
vn -0.7065 -0.4793 -0.5206
vn -0.7955 -0.4022 -0.4532
vn -0.4716 -0.6957 -0.5419
vn -0.8631 -0.5047 -0.0154
vn -0.7887 -0.5716 -0.2265
vn -0.7325 -0.6441 0.2203
vn 0.6942 -0.5840 -0.4206
vn 0.2337 -0.9686 -0.0849
vn 0.8830 -0.4383 0.1681
vn 0.6821 -0.4627 -0.5662
vn 0.8892 -0.4249 0.1698
vn 0.7290 -0.3041 -0.6132
vn -0.0597 -0.7129 -0.6988
vn 0.0074 -0.8080 -0.5892
vn -0.5963 -0.4630 -0.6558
vn 0.0418 -0.3355 -0.9411
vn -0.0968 -0.3467 -0.9330
vn 0.0141 -0.5309 -0.8473
vn -0.0279 -0.7655 0.6428
vn 0.6703 -0.5075 0.5415
vn -0.4411 -0.5394 0.7173
vn -0.2545 -0.5188 0.8162
vn 0.6305 -0.4568 0.6276
vn -0.0419 -0.5359 0.8432
vn -0.0587 -0.5205 0.8518
vn 0.6368 -0.3526 0.6857
vn -0.0601 -0.3171 0.9465
vn -0.1894 -0.5894 0.7853
vn 0.1739 -0.6547 0.7356
vn -0.0441 -0.9796 -0.1960
vn -0.5572 -0.7679 0.3160
vn -0.5697 -0.7233 0.3903
vn -0.5846 -0.7457 0.3195
vn -0.4735 -0.5668 0.6742
vn -0.7521 -0.4143 0.5126
vn -0.5461 -0.4157 0.7273
vn 0.2519 -0.6424 -0.7238
vn 0.2119 -0.8945 -0.3938
vn 0.6142 -0.4792 -0.6270
vn 0.5067 -0.4697 -0.7229
vn 0.6230 -0.4613 -0.6317
vn 0.3658 -0.3584 -0.8589
vn -0.2423 -0.9582 -0.1521
vn -0.3162 -0.8780 -0.3595
vn -0.8927 -0.4486 -0.0443
vn -0.5315 -0.3782 -0.7579
vn -0.6907 -0.1368 -0.7101
vn -0.5143 -0.3600 -0.7784
vn 0.2199 -0.6985 0.6810
vn 0.8070 -0.5794 0.1143
vn 0.4773 -0.7323 0.4857
vn 0.4205 -0.5020 0.7558
vn 0.7168 -0.6829 0.1406
vn 0.1825 -0.4923 0.8511
vn 0.4103 -0.3780 0.8299
vn 0.9295 -0.2054 0.3063
vn 0.6012 -0.7584 -0.2516
vn 0.8904 -0.3990 0.2192
vn 0.8209 -0.5507 0.1512
vn -0.5943 -0.7728 -0.2229
vn -0.7848 -0.5778 -0.2241
vn -0.6814 -0.4349 -0.5886
vn -0.7061 -0.6931 0.1447
vn -0.6827 -0.4315 -0.5897
vn -0.9710 -0.2190 -0.0958
vn 0.6798 -0.6367 -0.3640
vn 0.5508 -0.8115 -0.1951
vn 0.8711 -0.4901 -0.0309
vn 0.8139 -0.5322 -0.2330
vn 0.8073 -0.5894 -0.0274
vn 0.7871 -0.5498 -0.2795
vn 0.0496 -0.6633 -0.7467
vn -0.1814 -0.7503 -0.6357
vn -0.7089 -0.1496 -0.6893
vn 0.2361 -0.4141 -0.8791
vn -0.1968 -0.4124 -0.8895
vn 0.0901 -0.5635 -0.8212
vn -0.3430 -0.4578 0.8202
vn 0.5116 -0.5770 0.6366
vn -0.3826 -0.5357 0.7528
vn -0.0677 -0.5483 0.8335
vn 0.3552 -0.4628 0.8121
vn -0.7299 -0.5625 0.3885
vn -0.3975 -0.3347 0.8544
vn 0.6582 -0.2160 0.7212
vn 0.0250 -0.3326 0.9427
vn 0.1426 -0.5238 0.8398
vn 0.0591 -0.6164 0.7852
vn -0.5102 -0.7179 -0.4736
vn -0.5664 -0.5611 -0.6036
vn -0.5056 -0.5766 -0.6417
vn -0.6157 -0.7600 -0.2080
vn -0.3450 -0.5127 -0.7862
vn -0.8930 -0.2738 -0.3571
vn 0.7991 -0.6011 -0.0107
vn 0.3660 -0.9181 0.1522
vn 0.7757 -0.4061 0.4830
vn 0.8826 -0.4296 0.1908
vn 0.7635 -0.4494 0.4637
vn 0.8162 -0.5352 0.2176
vn 0.4137 -0.6936 -0.5897
vn 0.2320 -0.7753 -0.5875
vn 0.0919 -0.3945 -0.9143
vn 0.4205 -0.3079 -0.8534
vn 0.3846 -0.4648 -0.7975
vn 0.5448 -0.5178 -0.6596
vn -0.5401 -0.7626 0.3561
vn -0.0513 -0.5489 0.8343
vn -0.4942 -0.5526 0.6711
vn -0.4866 -0.5895 0.6447
vn -0.0904 -0.7161 0.6922
vn -0.7315 -0.3877 0.5609
vn -0.8903 -0.4086 -0.2010
vn -0.1103 -0.2338 0.9660
vn -0.2261 -0.2494 0.9417
vn -0.7693 -0.4462 0.4572
vn -0.9036 -0.4276 0.0244
vn -0.3269 0.2638 0.9075
vn -0.4231 0.0233 -0.9058
vn 0.0631 0.1784 0.9819
vn 0.9743 0.0575 -0.2179
vn 0.9097 -0.0524 0.4120
vn 0.9965 0.0038 0.0831
vn 0.0739 -0.0548 -0.9958
vn -0.6861 0.1001 0.7206
vn -0.9786 0.0636 -0.1959
vn -0.8722 0.1229 -0.4735
vn -0.4836 0.0949 -0.8702
vn 0.2396 0.2962 -0.9246
vn 0.8358 0.3908 -0.3857
vn 0.8741 0.4512 -0.1796
vn 0.5512 0.3108 0.7743
vn 0.2211 0.2631 0.9391
vn -0.8970 0.1485 0.4162
vn -0.5241 0.1088 0.8446
vn -0.1882 0.0255 -0.9818
vn -0.1724 -0.2446 0.9542
vn -0.0476 0.1739 -0.9836
vn 0.5213 0.1033 0.8471
vn 0.3529 0.2680 -0.8965
vn 0.8493 0.2304 0.4750
vn 0.0063 -0.0045 1.0000
vn -0.1831 0.0141 -0.9830
vn -0.8430 0.4721 -0.2578
vn -0.0816 0.1515 -0.9851
vn -0.9393 0.3279 -0.1009
vn -0.3836 0.4350 0.8146
vn -0.8456 0.4611 -0.2691
vn -0.2622 -0.1911 0.9459
vn -0.2197 -0.0548 -0.9740
vn 0.5830 -0.8113 0.0430
vn -0.0498 -0.9833 -0.1749
vn -0.3297 -0.9036 0.2734
vn 0.0855 -0.9930 -0.0815
vn -0.0955 -0.9945 0.0436
vn -0.2932 -0.9540 0.0629
vn -0.1431 -0.9882 0.0548
vn -0.7239 -0.4919 -0.4837
vn -0.8266 -0.4879 -0.2806
vn -0.1871 -0.8588 0.4770
vn -0.7121 -0.6457 -0.2755
vn -0.8873 -0.4608 0.0193
vn 0.6212 -0.6273 -0.4696
vn 0.6803 -0.5682 -0.4629
vn 0.8048 -0.5494 -0.2248
vn 0.8956 -0.3364 -0.2911
vn 0.9025 -0.4034 0.1511
vn 0.7292 -0.3040 -0.6131
vn 0.0543 -0.8106 -0.5831
vn -0.0042 -0.5271 -0.8498
vn -0.4322 -0.3801 -0.8177
vn 0.2962 -0.4549 -0.8398
vn -0.4917 -0.7218 -0.4871
vn 0.2998 -0.3982 -0.8669
vn 0.0361 -0.6652 0.7458
vn 0.6314 -0.4839 0.6060
vn -0.3198 -0.6200 0.7165
vn -0.1516 -0.6055 0.7812
vn 0.6407 -0.4614 0.6137
vn -0.1082 -0.6142 0.7817
vn -0.5758 -0.3567 0.7357
vn 0.6065 -0.3359 0.7207
vn -0.0295 -0.3185 0.9475
vn 0.0189 -0.3698 0.9289
vn 0.1908 -0.5729 0.7971
vn 0.0906 -0.6717 0.7353
vn 0.1984 -0.9183 -0.3425
vn -0.0274 -0.9989 -0.0373
vn -0.0315 -0.9971 -0.0694
vn 0.0497 -0.9892 -0.1377
vn -0.0647 -0.9925 -0.1038
vn 0.4813 -0.5274 0.7001
vn -0.3775 -0.8585 0.3470
vn -0.5540 -0.7687 0.3197
vn -0.9066 -0.4214 -0.0220
vn -0.3599 -0.4637 0.8096
vn -0.7818 -0.4722 0.4071
vn -0.3267 -0.5158 0.7920
vn 0.3454 -0.6158 -0.7081
vn 0.2495 -0.6409 -0.7259
vn 0.5989 -0.4837 -0.6383
vn 0.1645 -0.5403 -0.8252
vn 0.6155 -0.4129 -0.6713
vn 0.4839 -0.2839 -0.8278
vn -0.5632 -0.8160 -0.1301
vn -0.4509 -0.4761 -0.7550
vn -0.8807 -0.3764 -0.2874
vn -0.2635 -0.4702 -0.8423
vn -0.7843 -0.6061 -0.1323
vn -0.2603 -0.2542 -0.9315
vn 0.2462 -0.6731 0.6974
vn 0.8130 -0.5626 0.1501
vn 0.3320 -0.6773 0.6565
vn 0.8129 -0.4913 -0.3129
vn 0.7246 -0.6134 0.3143
vn 0.2384 -0.4557 0.8576
vn 0.1824 -0.5034 0.8446
vn 0.9509 -0.2395 0.1961
vn 0.9070 -0.4177 0.0533
vn 0.7162 -0.2648 0.6457
vn 0.8224 -0.4056 0.3989
vn 0.5584 -0.7270 0.3995
vn -0.5013 -0.8640 -0.0470
vn -0.5358 -0.7197 -0.4415
vn -0.7001 -0.7072 -0.0988
vn -0.7222 -0.6386 0.2659
vn -0.9399 -0.2195 -0.2615
vn -0.8331 -0.4833 0.2689
vn 0.7790 -0.5678 -0.2661
vn 0.6851 -0.6469 -0.3351
vn 0.8134 -0.5316 -0.2362
vn 0.6881 -0.5857 -0.4283
vn 0.8099 -0.5859 -0.0295
vn 0.8335 -0.4965 -0.2426
vn 0.1647 -0.7455 -0.6458
vn -0.1464 -0.6524 -0.7436
vn -0.3809 -0.1456 -0.9131
vn 0.2900 -0.3882 -0.8748
vn -0.4882 -0.5603 -0.6691
vn 0.1722 -0.5401 -0.8238
vn -0.4567 -0.5435 0.7043
vn 0.3561 -0.4542 0.8167
vn -0.1044 -0.6206 0.7772
vn 0.0118 -0.5587 0.8293
vn 0.6761 -0.6406 0.3640
vn -0.3552 -0.4132 0.8385
vn -0.7374 -0.5285 0.4206
vn 0.7500 -0.2426 0.6154
vn 0.1237 -0.4478 0.8855
vn -0.1703 -0.3851 0.9070
vn 0.0594 -0.5487 0.8339
vn 0.2285 -0.5729 0.7872
vn -0.5210 -0.8322 -0.1898
vn -0.3715 -0.6994 -0.6106
vn -0.3012 -0.6979 -0.6498
vn -0.6539 -0.4402 -0.6154
vn -0.6205 -0.3425 -0.7055
vn -0.9079 -0.3852 -0.1650
vn 0.8480 -0.4908 0.2001
vn 0.7440 -0.6567 0.1234
vn 0.8595 -0.4437 0.2538
vn 0.8770 -0.3897 0.2811
vn 0.6710 -0.5420 0.5060
vn 0.8117 -0.5464 0.2063
vn 0.4594 -0.8059 -0.3734
vn 0.3802 -0.6323 -0.6750
vn 0.2748 -0.3365 -0.9007
vn 0.5870 -0.5020 -0.6352
vn 0.1339 -0.6043 -0.7854
vn 0.5900 -0.4971 -0.6362
vn -0.5451 -0.6658 0.5095
vn -0.1132 -0.5015 0.8577
vn -0.7051 -0.5478 0.4504
vn -0.0535 -0.6929 0.7190
vn -0.2942 -0.6240 0.7239
vn -0.7596 -0.4500 0.4695
vn -0.8155 -0.1976 0.5440
vn 0.0912 -0.2935 0.9516
vn -0.7485 -0.2099 0.6290
vn -0.3385 -0.3260 0.8827
vn -0.9125 -0.4038 0.0661
vn -0.5554 -0.5420 0.6307
vn -0.3314 -0.1402 -0.9330
vn -0.9256 0.1266 0.3567
vn -0.1200 0.1450 0.9821
vn 0.2632 0.0810 0.9613
vn 0.6519 -0.0385 -0.7574
vn 0.7716 0.0936 0.6291
vn 0.1048 -0.0490 -0.9933
vn -0.2628 0.1277 0.9564
vn -0.4049 0.0363 -0.9136
vn -0.9695 0.1622 -0.1840
vn -0.5573 -0.0977 0.8245
vn 0.2400 0.2962 -0.9245
vn 0.7189 0.3364 -0.6083
vn 0.7733 0.2768 0.5705
vn 0.8556 0.4292 -0.2895
vn 0.0737 0.2663 0.9611
vn -0.3835 -0.2148 -0.8982
vn -0.3583 0.1214 0.9257
usemtl GreenLeaves
s off
f 214//1 4//1 215//1
f 4//2 216//2 215//2
f 216//3 8//3 217//3
f 8//4 218//4 217//4
f 218//5 12//5 219//5
f 12//6 220//6 219//6
f 14//7 221//7 220//7
f 10//8 6//8 4//8
f 18//9 214//9 222//9
f 221//10 18//10 222//10
f 9//11 13//11 17//11
f 26//12 21//12 19//12
f 26//13 20//13 27//13
f 1//14 24//14 3//14
f 1//15 22//15 23//15
f 23//16 27//16 24//16
f 23//17 25//17 26//17
f 35//18 28//18 29//18
f 35//19 30//19 36//19
f 11//20 32//20 33//20
f 9//21 31//21 32//21
f 32//22 36//22 33//22
f 32//23 34//23 35//23
f 43//24 39//24 45//24
f 43//25 37//25 38//25
f 5//26 42//26 40//26
f 5//27 41//27 7//27
f 40//28 44//28 43//28
f 41//29 43//29 45//29
f 50//30 49//30 51//30
f 53//31 46//31 47//31
f 59//32 47//32 58//32
f 60//33 53//33 59//33
f 55//34 52//34 53//34
f 56//35 51//35 54//35
f 17//36 56//36 54//36
f 13//37 57//37 55//37
f 60//38 15//38 55//38
f 60//39 50//39 56//39
f 59//40 48//40 50//40
f 62//41 67//41 69//41
f 77//42 72//42 70//42
f 77//43 71//43 78//43
f 62//44 74//44 75//44
f 69//45 74//45 61//45
f 74//46 78//46 75//46
f 74//47 76//47 77//47
f 86//48 79//48 80//48
f 86//49 81//49 87//49
f 66//50 83//50 84//50
f 65//51 82//51 83//51
f 83//52 87//52 84//52
f 83//53 85//53 86//53
f 94//54 90//54 96//54
f 94//55 88//55 89//55
f 63//56 93//56 91//56
f 63//57 92//57 64//57
f 91//58 95//58 94//58
f 92//59 94//59 96//59
f 101//60 100//60 102//60
f 104//61 97//61 98//61
f 110//62 98//62 109//62
f 111//63 104//63 110//63
f 106//64 103//64 104//64
f 107//65 102//65 105//65
f 68//66 105//66 69//66
f 67//67 108//67 106//67
f 107//68 106//68 111//68
f 107//69 110//69 101//69
f 110//70 99//70 101//70
f 128//71 123//71 121//71
f 128//72 122//72 129//72
f 113//73 125//73 126//73
f 120//74 125//74 112//74
f 125//75 129//75 126//75
f 125//76 127//76 128//76
f 137//77 130//77 131//77
f 137//78 132//78 138//78
f 117//79 134//79 135//79
f 116//80 133//80 134//80
f 134//81 138//81 135//81
f 134//82 136//82 137//82
f 145//83 141//83 147//83
f 145//84 139//84 140//84
f 114//85 144//85 142//85
f 115//86 142//86 143//86
f 142//87 146//87 145//87
f 143//88 145//88 147//88
f 152//89 151//89 153//89
f 155//90 148//90 149//90
f 161//91 149//91 160//91
f 162//92 155//92 161//92
f 157//93 154//93 155//93
f 158//94 153//94 156//94
f 119//95 156//95 120//95
f 118//96 159//96 157//96
f 118//97 157//97 162//97
f 162//98 152//98 158//98
f 161//99 150//99 152//99
f 179//100 174//100 172//100
f 179//101 173//101 180//101
f 163//102 177//102 164//102
f 163//103 175//103 176//103
f 176//104 180//104 177//104
f 176//105 178//105 179//105
f 188//106 181//106 182//106
f 188//107 183//107 189//107
f 168//108 185//108 186//108
f 167//109 184//109 185//109
f 185//110 189//110 186//110
f 185//111 187//111 188//111
f 196//112 192//112 198//112
f 196//113 190//113 191//113
f 165//114 195//114 193//114
f 165//115 194//115 166//115
f 193//116 197//116 196//116
f 194//117 196//117 198//117
f 203//118 202//118 204//118
f 206//119 199//119 200//119
f 206//120 211//120 212//120
f 213//121 206//121 212//121
f 208//122 205//122 206//122
f 209//123 204//123 207//123
f 170//124 207//124 171//124
f 169//125 210//125 208//125
f 169//126 208//126 213//126
f 213//127 203//127 209//127
f 212//128 201//128 203//128
f 229//129 222//129 230//129
f 222//130 231//130 230//130
f 228//131 221//131 229//131
f 227//132 220//132 228//132
f 226//133 219//133 227//133
f 217//134 226//134 225//134
f 216//135 225//135 224//135
f 223//136 216//136 224//136
f 214//137 223//137 231//137
f 1//138 223//138 3//138
f 3//139 224//139 5//139
f 5//140 225//140 7//140
f 225//141 9//141 7//141
f 9//142 227//142 11//142
f 11//143 228//143 13//143
f 228//144 15//144 13//144
f 17//145 231//145 1//145
f 229//146 17//146 15//146
f 214//147 2//147 4//147
f 4//148 6//148 216//148
f 216//149 6//149 8//149
f 8//150 10//150 218//150
f 218//151 10//151 12//151
f 12//152 14//152 220//152
f 14//153 16//153 221//153
f 4//154 2//154 10//154
f 2//155 18//155 10//155
f 18//156 16//156 14//156
f 14//157 12//157 10//157
f 10//158 8//158 6//158
f 18//159 14//159 10//159
f 18//160 2//160 214//160
f 221//161 16//161 18//161
f 17//162 1//162 3//162
f 3//163 5//163 9//163
f 5//164 7//164 9//164
f 9//165 11//165 13//165
f 3//166 9//166 17//166
f 13//167 15//167 17//167
f 26//168 25//168 21//168
f 26//169 19//169 20//169
f 1//170 23//170 24//170
f 1//171 17//171 22//171
f 23//172 26//172 27//172
f 23//173 22//173 25//173
f 35//174 34//174 28//174
f 35//175 29//175 30//175
f 11//176 9//176 32//176
f 9//177 7//177 31//177
f 32//178 35//178 36//178
f 32//179 31//179 34//179
f 43//180 38//180 39//180
f 43//181 44//181 37//181
f 5//182 3//182 42//182
f 5//183 40//183 41//183
f 40//184 42//184 44//184
f 41//185 40//185 43//185
f 50//186 48//186 49//186
f 53//187 52//187 46//187
f 59//188 53//188 47//188
f 60//189 55//189 53//189
f 55//190 57//190 52//190
f 56//191 50//191 51//191
f 17//192 15//192 56//192
f 13//193 11//193 57//193
f 56//194 15//194 60//194
f 15//195 13//195 55//195
f 60//196 59//196 50//196
f 59//197 58//197 48//197
f 69//198 61//198 62//198
f 62//199 63//199 65//199
f 63//200 64//200 65//200
f 65//201 66//201 67//201
f 62//202 65//202 67//202
f 67//203 68//203 69//203
f 77//204 76//204 72//204
f 77//205 70//205 71//205
f 62//206 61//206 74//206
f 69//207 73//207 74//207
f 74//208 77//208 78//208
f 74//209 73//209 76//209
f 86//210 85//210 79//210
f 86//211 80//211 81//211
f 66//212 65//212 83//212
f 65//213 64//213 82//213
f 83//214 86//214 87//214
f 83//215 82//215 85//215
f 94//216 89//216 90//216
f 94//217 95//217 88//217
f 63//218 62//218 93//218
f 63//219 91//219 92//219
f 91//220 93//220 95//220
f 92//221 91//221 94//221
f 101//222 99//222 100//222
f 104//223 103//223 97//223
f 110//224 104//224 98//224
f 111//225 106//225 104//225
f 106//226 108//226 103//226
f 107//227 101//227 102//227
f 68//228 107//228 105//228
f 67//229 66//229 108//229
f 107//230 68//230 106//230
f 68//231 67//231 106//231
f 107//232 111//232 110//232
f 110//233 109//233 99//233
f 128//234 127//234 123//234
f 128//235 121//235 122//235
f 113//236 112//236 125//236
f 120//237 124//237 125//237
f 125//238 128//238 129//238
f 125//239 124//239 127//239
f 137//240 136//240 130//240
f 137//241 131//241 132//241
f 117//242 116//242 134//242
f 116//243 115//243 133//243
f 134//244 137//244 138//244
f 134//245 133//245 136//245
f 145//246 140//246 141//246
f 145//247 146//247 139//247
f 114//248 113//248 144//248
f 115//249 114//249 142//249
f 142//250 144//250 146//250
f 143//251 142//251 145//251
f 152//252 150//252 151//252
f 155//253 154//253 148//253
f 161//254 155//254 149//254
f 162//255 157//255 155//255
f 157//256 159//256 154//256
f 158//257 152//257 153//257
f 119//258 158//258 156//258
f 118//259 117//259 159//259
f 158//260 119//260 162//260
f 119//261 118//261 162//261
f 162//262 161//262 152//262
f 161//263 160//263 150//263
f 179//264 178//264 174//264
f 179//265 172//265 173//265
f 163//266 176//266 177//266
f 163//267 171//267 175//267
f 176//268 179//268 180//268
f 176//269 175//269 178//269
f 188//270 187//270 181//270
f 188//271 182//271 183//271
f 168//272 167//272 185//272
f 167//273 166//273 184//273
f 185//274 188//274 189//274
f 185//275 184//275 187//275
f 196//276 191//276 192//276
f 196//277 197//277 190//277
f 165//278 164//278 195//278
f 165//279 193//279 194//279
f 193//280 195//280 197//280
f 194//281 193//281 196//281
f 203//282 201//282 202//282
f 206//283 205//283 199//283
f 206//284 200//284 211//284
f 213//285 208//285 206//285
f 208//286 210//286 205//286
f 209//287 203//287 204//287
f 170//288 209//288 207//288
f 169//289 168//289 210//289
f 209//290 170//290 213//290
f 170//291 169//291 213//291
f 213//292 212//292 203//292
f 212//293 211//293 201//293
f 229//294 221//294 222//294
f 222//295 214//295 231//295
f 228//296 220//296 221//296
f 227//297 219//297 220//297
f 226//298 218//298 219//298
f 217//299 218//299 226//299
f 216//300 217//300 225//300
f 223//301 215//301 216//301
f 214//302 215//302 223//302
f 1//303 231//303 223//303
f 3//304 223//304 224//304
f 5//305 224//305 225//305
f 225//306 226//306 9//306
f 9//307 226//307 227//307
f 11//308 227//308 228//308
f 228//309 229//309 15//309
f 17//310 230//310 231//310
f 229//311 230//311 17//311
newmtl GreenLeaves
Ns 225.000000
Ka 1.000000 1.000000 1.000000
Kd 0.172285 0.389000 0.026521
Ks 0.000000 0.000000 0.000000
Ke 0.000000 0.000000 0.000000
Ni 1.000000
d 1.000000
illum 1
