# Blender v2.82 (sub 7) OBJ File: 'Forest.blendD379C932-11C9-4E09-B687-B4B439D4B66E.blend'
# www.blender.org
mtllib p5-orange.mtl
o p5-orange_Icosphere.036
v 0.482437 -0.209676 1.610223
v 0.849184 -1.331062 0.548773
v 1.490031 0.429985 0.587869
v -0.601649 0.898191 0.739822
v -1.866483 0.333420 0.280114
v -1.386756 -1.003981 0.865406
v 1.174272 -0.180982 0.185132
v 1.112341 0.663822 -0.124081
v -0.405067 0.644187 -0.086741
v -1.388212 -0.394736 0.136793
v 0.046118 -0.751526 0.023856
v 0.081841 -0.063097 -0.274693
v 1.482864 0.047147 1.270983
v 0.749876 -0.867850 1.299137
v 1.438165 -0.508620 1.040559
v -0.130442 -1.021310 0.950234
v -0.654742 -0.739737 1.297943
v -0.002243 0.428074 1.253638
v 0.989341 0.776644 0.778617
v -1.329277 -0.160571 1.356047
v -1.249993 0.618766 0.594790
v -1.870372 -0.427627 0.674311
vn 0.3706 -0.2695 0.8888
vn -0.0570 -0.8529 0.5190
vn 0.1339 0.5592 0.8182
vn -0.1152 0.4166 0.9017
vn -0.1411 -0.2601 0.9552
vn -0.4038 -0.8548 -0.3259
vn 0.9031 -0.2260 -0.3652
vn 0.0784 0.9905 -0.1131
vn -0.2700 0.9147 -0.3006
vn -0.5519 -0.6403 -0.5343
vn 0.3102 -0.3652 -0.8777
vn 0.8606 -0.1182 -0.4954
vn -0.0197 0.9544 -0.2980
vn -0.2488 0.0271 -0.9682
vn -0.2346 -0.7460 -0.6233
vn 0.3210 -0.3908 -0.8627
vn 0.3422 -0.3007 -0.8902
vn -0.0270 0.2393 -0.9706
vn -0.2817 0.0605 -0.9576
vn -0.1672 -0.3849 -0.9077
vn -0.4759 -0.1100 0.8726
vn -0.4783 -0.6196 0.6224
vn -0.8025 0.2777 0.5282
vn -0.5659 0.6048 0.5603
vn -0.2532 0.6890 0.6790
vn -0.3695 0.4295 0.8240
vn 0.0424 0.7613 0.6471
vn 0.1503 0.6209 0.7693
vn 0.6200 0.6817 0.3885
vn -0.0505 -0.8120 0.5815
vn -0.0760 -0.8278 0.5558
vn -0.0409 -0.4405 0.8968
vn 0.9973 -0.0686 -0.0280
vn 0.4890 -0.3674 0.7912
vn 0.5409 -0.6818 0.4925
vn 0.0056 -0.9604 -0.2786
vn 0.8416 -0.3641 -0.3991
vn 0.5621 0.8266 -0.0267
vn -0.3052 0.8875 -0.3453
vn -0.6929 -0.3288 -0.6417
usemtl Material
s off
f 1//1 14//1 13//1
f 2//2 14//2 16//2
f 1//3 13//3 18//3
f 1//4 18//4 20//4
f 1//5 20//5 17//5
f 16//6 11//6 2//6
f 15//7 7//7 3//7
f 19//8 8//8 4//8
f 21//9 9//9 5//9
f 22//10 10//10 6//10
f 2//11 11//11 7//11
f 3//12 7//12 8//12
f 4//13 8//13 9//13
f 5//14 9//14 10//14
f 6//15 10//15 11//15
f 7//16 11//16 12//16
f 8//17 7//17 12//17
f 9//18 8//18 12//18
f 10//19 9//19 12//19
f 11//20 10//20 12//20
f 17//21 22//21 6//21
f 17//22 20//22 22//22
f 20//23 5//23 22//23
f 20//24 21//24 5//24
f 20//25 18//25 21//25
f 18//26 4//26 21//26
f 18//27 19//27 4//27
f 18//28 13//28 19//28
f 13//29 3//29 19//29
f 16//30 17//30 6//30
f 16//31 14//31 17//31
f 14//32 1//32 17//32
f 13//33 15//33 3//33
f 13//34 14//34 15//34
f 14//35 2//35 15//35
f 16//36 6//36 11//36
f 15//37 2//37 7//37
f 19//38 3//38 8//38
f 21//39 4//39 9//39
f 22//40 5//40 10//40
