# Blender v2.82 (sub 7) OBJ File: 'Forest.blendD379C932-11C9-4E09-B687-B4B439D4B66E.blend'
# www.blender.org
mtllib r1.mtl
o r1_Icosphere.005
v -0.014124 -0.272797 0.026072
v 0.801829 0.016554 0.769446
v -0.274830 -0.003093 1.044926
v -1.081753 0.144904 0.036186
v -0.473999 0.126972 -1.092145
v 0.710578 -0.119809 -0.616623
v 0.360282 0.384187 1.349773
v -0.859978 0.484781 0.725748
v -0.980622 0.574794 -0.622034
v -0.019941 0.376704 -1.319035
v 1.095484 0.174929 0.172348
v -0.221988 0.601064 -0.141193
v -0.164457 -0.142378 0.679634
v 0.519193 -0.183684 0.519588
v 0.291604 -0.007197 1.072240
v 1.025234 -0.194881 0.111336
v 0.411405 -0.250114 -0.390121
v -0.664980 -0.045313 0.037806
v -0.825841 0.093726 0.594272
v -0.319543 -0.072366 -0.659855
v -0.877205 0.165806 -0.543295
v 0.110645 -0.051906 -1.047853
v 1.114315 0.075269 0.530947
v 1.061396 -0.026981 -0.308202
v 0.051313 0.131737 1.291375
v 0.609138 0.248416 1.137518
v -1.136106 0.277214 0.354049
v -0.654767 0.239500 0.987960
v -0.815674 0.381701 -0.996102
v -1.145572 0.330522 -0.280214
v 0.438278 0.096920 -1.042848
v -0.224152 0.219738 -1.342190
v 0.766867 0.469345 0.963676
v -0.195617 0.354665 1.219677
v -1.070501 0.504980 0.047597
v -0.598143 0.564482 -1.257259
v 0.541177 0.269743 -0.767141
v 0.277620 0.591416 1.181764
v 0.566031 0.419517 0.078815
v -0.485366 0.609696 0.662544
v -0.772586 0.730001 -0.582088
v -0.267031 0.656396 -1.135859
vn -0.0142 -0.9812 0.1925
vn 0.2871 -0.8793 0.3800
vn -0.3260 -0.9387 0.1123
vn -0.3293 -0.9357 -0.1268
vn -0.1562 -0.9646 -0.2123
vn 0.4604 -0.7877 0.4094
vn -0.0309 -0.8591 0.5109
vn -0.6137 -0.7606 0.2117
vn -0.6169 -0.6746 -0.4055
vn 0.3414 -0.7316 -0.5901
vn 0.5781 -0.5191 0.6296
vn -0.4093 -0.4553 0.7907
vn -0.9373 -0.3483 -0.0153
vn -0.5391 -0.4562 -0.7080
vn 0.6614 -0.4074 -0.6297
vn 0.4361 0.6653 0.6060
vn -0.1996 0.8475 0.4918
vn -0.5984 0.8012 0.0032
vn 0.1159 0.6138 -0.7809
vn 0.4378 0.8830 -0.1692
vn 0.2124 0.9762 0.0447
vn 0.4862 0.8579 -0.1662
vn 0.5382 0.7398 -0.4038
vn 0.1929 0.9802 0.0458
vn -0.1625 0.9478 -0.2743
vn -0.5236 0.7863 -0.3280
vn 0.1886 0.9807 0.0513
vn -0.3424 0.9244 0.1684
vn -0.2958 0.9477 0.1200
vn 0.0256 0.9997 -0.0024
vn -0.3441 0.7731 0.5328
vn -0.2167 0.5612 0.7988
vn 0.2464 0.9653 -0.0860
vn 0.1987 0.9749 -0.1000
vn 0.4363 0.8874 -0.1490
vn 0.6694 0.6668 -0.3276
vn 0.7226 0.4314 -0.5401
vn 0.6506 0.5101 -0.5626
vn -0.0406 0.1973 -0.9795
vn -0.5418 -0.4065 -0.7357
vn -0.8240 0.2656 -0.5005
vn -0.8667 0.4946 -0.0648
vn -0.9438 0.3279 0.0416
vn -0.7783 0.5722 0.2586
vn -0.4908 0.4108 0.7684
vn -0.4106 -0.1665 0.8965
vn -0.2304 0.0572 0.9714
vn 0.6752 0.0937 0.7317
vn 0.7627 -0.0365 0.6457
vn 0.8059 0.5800 0.1189
vn 0.3419 -0.3142 -0.8856
vn 0.2595 -0.5444 -0.7976
vn -0.2136 -0.8269 -0.5202
vn -0.9086 0.0307 -0.4165
vn -0.7233 -0.5799 -0.3748
vn -0.6794 -0.6844 -0.2645
vn -0.7969 -0.0212 0.6038
vn -0.6931 -0.5238 0.4952
vn -0.5209 -0.7017 0.4862
vn 0.3271 -0.5740 0.7507
vn 0.3270 -0.5939 0.7351
vn 0.4045 -0.6633 0.6296
vn 0.9979 -0.0263 -0.0597
vn 0.9611 -0.2748 -0.0271
vn 0.4756 -0.8300 -0.2912
vn 0.1429 -0.9277 -0.3449
vn -0.1529 -0.9634 -0.2204
vn -0.2534 -0.9097 -0.3289
vn -0.4240 -0.8705 -0.2499
vn -0.4171 -0.8925 -0.1719
vn -0.4081 -0.8957 -0.1764
vn -0.4132 -0.9044 0.1065
vn -0.3483 -0.9282 0.1312
vn -0.3536 -0.9046 0.2381
vn 0.2544 -0.9446 -0.2074
vn 0.0335 -0.9971 0.0688
vn 0.1109 -0.9921 0.0593
vn -0.0237 -0.9365 0.3499
vn 0.0151 -0.9507 0.3098
vn 0.2742 -0.8776 0.3932
usemtl None
s off
f 1//1 14//1 13//1
f 2//2 14//2 16//2
f 1//3 13//3 18//3
f 1//4 18//4 20//4
f 1//5 20//5 17//5
f 2//6 16//6 23//6
f 3//7 15//7 25//7
f 4//8 19//8 27//8
f 5//9 21//9 29//9
f 6//10 22//10 31//10
f 2//11 23//11 26//11
f 3//12 25//12 28//12
f 4//13 27//13 30//13
f 5//14 29//14 32//14
f 6//15 31//15 24//15
f 7//16 33//16 38//16
f 8//17 34//17 40//17
f 9//18 35//18 41//18
f 10//19 36//19 42//19
f 11//20 37//20 39//20
f 39//21 42//21 12//21
f 39//22 37//22 42//22
f 37//23 10//23 42//23
f 42//24 41//24 12//24
f 42//25 36//25 41//25
f 36//26 9//26 41//26
f 41//27 40//27 12//27
f 41//28 35//28 40//28
f 35//29 8//29 40//29
f 40//30 38//30 12//30
f 40//31 34//31 38//31
f 34//32 7//32 38//32
f 38//33 39//33 12//33
f 38//34 33//34 39//34
f 33//35 11//35 39//35
f 24//36 37//36 11//36
f 24//37 31//37 37//37
f 31//38 10//38 37//38
f 32//39 36//39 10//39
f 32//40 29//40 36//40
f 29//41 9//41 36//41
f 30//42 35//42 9//42
f 30//43 27//43 35//43
f 27//44 8//44 35//44
f 28//45 34//45 8//45
f 28//46 25//46 34//46
f 25//47 7//47 34//47
f 26//48 33//48 7//48
f 26//49 23//49 33//49
f 23//50 11//50 33//50
f 31//51 32//51 10//51
f 31//52 22//52 32//52
f 22//53 5//53 32//53
f 29//54 30//54 9//54
f 29//55 21//55 30//55
f 21//56 4//56 30//56
f 27//57 28//57 8//57
f 27//58 19//58 28//58
f 19//59 3//59 28//59
f 25//60 26//60 7//60
f 25//61 15//61 26//61
f 15//62 2//62 26//62
f 23//63 24//63 11//63
f 23//64 16//64 24//64
f 16//65 6//65 24//65
f 17//66 22//66 6//66
f 17//67 20//67 22//67
f 20//68 5//68 22//68
f 20//69 21//69 5//69
f 20//70 18//70 21//70
f 18//71 4//71 21//71
f 18//72 19//72 4//72
f 18//73 13//73 19//73
f 13//74 3//74 19//74
f 16//75 17//75 6//75
f 16//76 14//76 17//76
f 14//77 1//77 17//77
f 13//78 15//78 3//78
f 13//79 14//79 15//79
f 14//80 2//80 15//80
