# Blender v2.82 (sub 7) OBJ File: 'Forest.blendD379C932-11C9-4E09-B687-B4B439D4B66E.blend'
# www.blender.org
mtllib r10.mtl
o r10_Icosphere.006
v 0.654682 -5.630908 0.322294
v 3.067060 -4.353055 1.922667
v -0.556265 -5.487794 3.304897
v -2.425025 -4.392346 0.289020
v -0.569802 -4.418079 -2.341578
v 3.601634 -4.611035 -1.986858
v 0.995121 5.293786 2.340443
v -1.752060 0.714548 1.368998
v -1.704904 0.661354 -1.704731
v 1.855014 4.678708 -3.189304
v 4.609941 8.175415 -0.106110
v 3.072420 14.948669 0.084279
v -0.154482 -5.633455 2.213757
v 1.973136 -5.921826 1.056492
v 1.124841 -5.344066 3.007964
v 3.722891 -4.701270 -0.233524
v 2.017121 -5.720946 -1.053200
v -1.133769 -5.112273 0.609849
v -1.627585 -5.272555 2.186809
v -0.134111 -4.922554 -1.375970
v -1.838685 -4.337942 -1.254062
v 1.546849 -4.988451 -2.466744
v 3.376583 2.810314 0.926231
v 3.340232 2.948156 -1.307613
v 3.291270 1.628433 2.714555
v -2.588086 -3.325118 1.183057
v -2.056912 -5.035638 2.987749
v -1.482486 -3.169967 -2.210428
v -2.539516 -3.217613 -0.739544
v 1.967459 1.607812 -2.896371
v 0.542477 -1.806128 -3.053735
v 4.265170 7.136349 1.565474
v -0.312954 3.152102 2.178334
v -1.997096 1.042961 -0.106856
v -0.270148 3.114282 -3.104563
v 3.564896 10.008621 -2.038816
v 2.784132 9.186522 1.704806
v 3.957864 11.744993 -0.486428
v -0.210746 5.293018 0.481688
v -0.163754 5.641775 -1.570997
v 3.085946 13.792084 -1.537380
v 2.542854 -4.434818 4.526539
v -0.541510 -5.402379 5.820044
v 0.995314 3.884619 3.735551
v -1.748236 0.569973 2.527966
v -0.204069 -5.526581 4.774743
v 0.886776 -5.279827 5.451943
v 0.030751 -1.518473 5.442006
v 2.549169 1.222435 4.194561
v -1.430958 -5.053095 4.689590
v -0.385285 2.558751 3.730408
vn -0.1744 -0.9818 -0.0759
vn 0.6881 -0.6537 0.3149
vn -0.2951 -0.9469 -0.1275
vn -0.3059 -0.9208 -0.2420
vn -0.3054 -0.9209 -0.2422
vn 0.9567 -0.0008 0.2911
vn -0.7784 0.4416 0.4462
vn -0.9146 -0.3325 0.2301
vn -0.6161 -0.3779 -0.6910
vn 0.2403 -0.0783 -0.9675
vn 0.9990 -0.0402 0.0211
vn 0.9802 0.0105 0.1977
vn -0.9917 -0.1247 -0.0320
vn -0.3079 -0.1260 -0.9430
vn 0.7163 0.0870 -0.6923
vn 0.1915 0.0718 0.9789
vn -0.8398 0.3613 0.4053
vn -0.9257 0.2929 -0.2392
vn -0.1852 0.1994 -0.9623
vn 0.9181 0.1277 -0.3753
vn 0.9342 0.2942 -0.2020
vn 0.8944 0.1682 -0.4145
vn 0.1810 0.1517 -0.9717
vn -0.8958 0.3583 -0.2630
vn -0.8135 0.3263 -0.4814
vn -0.8717 0.2805 -0.4019
vn -0.9458 0.3230 0.0332
vn -0.9231 0.3819 0.0438
vn -0.9084 0.3501 0.2287
vn -0.6189 0.2412 0.7475
vn -0.7573 0.4274 0.4937
vn -0.7631 0.4296 0.4828
vn 0.8092 0.1212 0.5750
vn 0.5739 0.3647 0.7332
vn 0.9263 0.2030 0.3173
vn 0.8421 -0.0820 -0.5331
vn 0.7893 -0.0880 -0.6077
vn 0.6560 -0.0478 -0.7533
vn -0.0288 -0.0151 -0.9995
vn -0.3450 -0.0667 -0.9362
vn -0.7370 0.0462 -0.6743
vn -0.9647 0.1545 -0.2133
vn -0.9915 0.1289 -0.0178
vn -0.9609 0.1896 0.2017
vn -0.8555 0.4958 0.1497
vn -0.3069 -0.9461 0.1032
vn 0.7112 0.5003 0.4939
vn 0.1293 0.1805 0.9750
vn 0.9787 -0.1894 -0.0785
vn 0.9750 -0.2106 0.0702
vn 0.2966 -0.0799 -0.9517
vn 0.2990 -0.0810 -0.9508
vn -0.1154 -0.2153 -0.9697
vn -0.8122 0.0298 -0.5827
vn -0.7869 -0.2291 -0.5729
vn -0.8595 -0.3815 -0.3401
vn -0.8926 0.1654 0.4195
vn -0.8005 -0.5345 -0.2710
vn -0.3086 -0.9443 0.1139
vn -0.2498 -0.9677 0.0343
vn 0.1940 -0.9800 0.0447
vn -0.9984 0.0558 0.0103
vn 0.9729 -0.2294 -0.0300
vn 0.9988 0.0481 -0.0133
vn 0.9969 0.0405 -0.0669
vn 0.2694 -0.8155 -0.5122
vn -0.2742 -0.8881 -0.3690
vn -0.2629 -0.8987 -0.3509
vn -0.3279 -0.8899 -0.3170
vn -0.3300 -0.9094 -0.2530
vn -0.4394 -0.8762 -0.1979
vn -0.4316 -0.8738 -0.2240
vn -0.2316 -0.9579 -0.1699
vn -0.2385 -0.9703 0.0417
vn 0.5396 -0.8381 -0.0804
vn 0.5361 -0.8414 -0.0689
vn -0.1627 -0.9819 -0.0969
vn 0.4842 -0.8722 0.0701
vn 0.0319 -0.9545 0.2965
vn 0.5931 -0.6645 0.4546
vn 0.2445 0.0582 0.9679
vn -0.7475 0.1726 0.6415
vn -0.7866 0.1824 0.5899
vn -0.7621 0.1830 0.6211
vn -0.3271 0.3372 0.8828
vn 0.1782 0.2673 0.9470
vn 0.3658 0.0857 0.9267
vn 0.4671 0.0513 0.8827
vn 0.1244 -0.9798 0.1566
vn -0.6735 0.7004 0.2364
vn 0.9000 -0.0902 0.4265
vn -0.8685 0.4915 0.0642
vn -0.4018 -0.9151 0.0334
vn 0.7097 0.4957 0.5006
vn -0.2542 -0.9665 0.0354
vn -0.9353 0.0798 0.3448
usemtl None
s off
f 1//1 14//1 13//1
f 2//2 14//2 16//2
f 1//3 13//3 18//3
f 1//4 18//4 20//4
f 1//5 20//5 17//5
f 2//6 16//6 23//6
f 33//7 44//7 7//7
f 4//8 19//8 26//8
f 5//9 21//9 28//9
f 6//10 22//10 30//10
f 2//11 23//11 25//11
f 2//12 49//12 42//12
f 4//13 26//13 29//13
f 5//14 28//14 31//14
f 6//15 30//15 24//15
f 7//16 32//16 37//16
f 8//17 33//17 39//17
f 9//18 34//18 40//18
f 10//19 35//19 41//19
f 11//20 36//20 38//20
f 38//21 41//21 12//21
f 38//22 36//22 41//22
f 36//23 10//23 41//23
f 41//24 40//24 12//24
f 41//25 35//25 40//25
f 35//26 9//26 40//26
f 40//27 39//27 12//27
f 40//28 34//28 39//28
f 34//29 8//29 39//29
f 39//30 37//30 12//30
f 39//31 33//31 37//31
f 33//32 7//32 37//32
f 37//33 38//33 12//33
f 37//34 32//34 38//34
f 32//35 11//35 38//35
f 24//36 36//36 11//36
f 24//37 30//37 36//37
f 30//38 10//38 36//38
f 31//39 35//39 10//39
f 31//40 28//40 35//40
f 28//41 9//41 35//41
f 29//42 34//42 9//42
f 29//43 26//43 34//43
f 26//44 8//44 34//44
f 33//45 45//45 51//45
f 3//46 50//46 27//46
f 25//47 44//47 49//47
f 25//48 32//48 7//48
f 25//49 23//49 32//49
f 23//50 11//50 32//50
f 30//51 31//51 10//51
f 30//52 22//52 31//52
f 22//53 5//53 31//53
f 28//54 29//54 9//54
f 28//55 21//55 29//55
f 21//56 4//56 29//56
f 26//57 27//57 8//57
f 26//58 19//58 27//58
f 19//59 3//59 27//59
f 3//60 46//60 43//60
f 15//61 46//61 13//61
f 27//62 45//62 8//62
f 23//63 24//63 11//63
f 23//64 16//64 24//64
f 16//65 6//65 24//65
f 17//66 22//66 6//66
f 17//67 20//67 22//67
f 20//68 5//68 22//68
f 20//69 21//69 5//69
f 20//70 18//70 21//70
f 18//71 4//71 21//71
f 18//72 19//72 4//72
f 18//73 13//73 19//73
f 13//74 3//74 19//74
f 16//75 17//75 6//75
f 16//76 14//76 17//76
f 14//77 1//77 17//77
f 15//78 42//78 47//78
f 13//79 14//79 15//79
f 14//80 2//80 15//80
f 43//81 47//81 48//81
f 43//82 48//82 50//82
f 50//83 51//83 45//83
f 50//84 48//84 51//84
f 48//85 44//85 51//85
f 48//86 49//86 44//86
f 48//87 47//87 49//87
f 47//88 42//88 49//88
f 46//89 47//89 43//89
f 33//90 51//90 44//90
f 2//91 25//91 49//91
f 33//92 8//92 45//92
f 3//93 43//93 50//93
f 25//94 7//94 44//94
f 3//95 13//95 46//95
f 15//61 47//61 46//61
f 27//96 50//96 45//96
f 15//78 2//78 42//78
newmtl None
Ns 500
Ka 0.8 0.8 0.8
Kd 0.8 0.8 0.8
Ks 0.8 0.8 0.8
d 1
illum 2
