# Blender v2.82 (sub 7) OBJ File: 'Forest.blendD379C932-11C9-4E09-B687-B4B439D4B66E.blend'
# www.blender.org
mtllib r3.mtl
o r3_Icosphere
v 0.028462 -0.880455 0.304886
v 0.853843 -0.264933 0.494148
v -0.283528 -0.504374 1.126444
v -1.023291 -0.424186 0.176137
v -0.243771 -0.184629 -1.037667
v 0.707170 -0.217481 -0.686107
v 0.464985 0.691631 0.847127
v -0.842004 0.445866 0.746269
v -0.710867 0.450961 -0.610366
v 0.176048 0.470729 -0.928249
v 0.844010 0.226715 0.004402
v -0.314784 0.763552 -0.013133
v -0.169891 -0.860372 0.809044
v 0.462552 -0.708184 0.524810
v 0.293498 -0.510005 1.332952
v 0.913099 -0.345655 -0.019081
v 0.467254 -0.593044 -0.330238
v -0.555292 -0.791449 0.208536
v -0.830573 -0.465829 0.832327
v -0.137816 -0.538666 -0.483051
v -0.678814 -0.390463 -0.558774
v 0.241796 -0.268820 -0.968891
v 1.055657 0.158839 0.360160
v 0.887156 0.015077 -0.271802
v 0.242180 0.542813 1.226767
v 0.839555 0.482818 0.956693
v -1.182589 -0.043720 0.556742
v -0.728420 -0.047892 1.017120
v -0.531820 0.173666 -1.006503
v -1.026287 -0.004274 -0.263840
v 0.522736 0.232808 -0.790086
v -0.007136 0.356069 -1.254618
v 0.804617 0.612387 0.597548
v -0.092972 0.783115 0.841588
v -0.938787 0.515041 0.147634
v -0.240099 0.555329 -0.877926
v 0.457967 0.279352 -0.509477
v 0.047648 0.617692 0.416310
v 0.301291 0.502408 -0.097705
v -0.552469 0.786975 0.441437
v -0.523056 0.757568 -0.373780
v -0.026638 0.588158 -0.656978
vn 0.2961 -0.9427 0.1540
vn 0.7429 -0.6428 0.1869
vn -0.1477 -0.9889 -0.0187
vn -0.0771 -0.9205 -0.3830
vn 0.0190 -0.9158 -0.4013
vn 0.9097 -0.3811 0.1650
vn -0.3352 0.0784 0.9389
vn -0.8133 -0.5449 0.2043
vn -0.5823 -0.4069 -0.7038
vn 0.5181 0.0147 -0.8552
vn 0.8525 -0.2631 0.4517
vn -0.2214 0.0177 0.9750
vn -0.9588 -0.2087 -0.1927
vn -0.3579 -0.2086 -0.9102
vn 0.8389 0.2297 -0.4934
vn 0.0609 0.9723 -0.2258
vn -0.4104 0.7761 0.4787
vn -0.7146 0.6456 -0.2694
vn 0.1566 0.9437 -0.2915
vn 0.4760 0.8363 -0.2719
vn 0.3795 0.9216 -0.0812
vn 0.5703 0.7934 -0.2128
vn 0.5307 0.8470 0.0298
vn 0.2393 0.9587 -0.1541
vn 0.1561 0.9439 -0.2910
vn -0.4633 0.7016 -0.5415
vn 0.0317 0.9989 -0.0349
vn -0.5492 0.8342 -0.0499
vn -0.6578 0.7287 0.1906
vn 0.2739 0.9572 0.0939
vn 0.2500 0.9275 -0.2781
vn 0.1567 0.9369 -0.3126
vn 0.3885 0.9213 -0.0149
vn 0.0532 0.9797 -0.1935
vn 0.4695 0.7541 -0.4592
vn 0.6317 0.6599 -0.4069
vn 0.5314 0.8469 -0.0178
vn 0.5674 0.8235 -0.0056
vn 0.1367 0.9081 -0.3958
vn -0.5032 0.5956 -0.6262
vn -0.4934 0.5919 -0.6373
vn -0.8757 0.3818 -0.2956
vn -0.9426 0.2900 -0.1656
vn -0.8389 0.5084 0.1944
vn -0.2933 0.4070 0.8650
vn -0.4662 0.5093 0.7234
vn 0.1417 0.8905 0.4323
vn 0.4055 0.8717 0.2750
vn 0.8888 0.4519 0.0766
vn 0.7420 0.5835 -0.3301
vn 0.6112 0.5742 -0.5448
vn 0.6446 -0.0904 -0.7592
vn 0.0614 -0.3947 -0.9167
vn -0.8376 0.1906 -0.5120
vn -0.7751 -0.2564 -0.5775
vn -0.8120 -0.4250 -0.4001
vn -0.6939 0.2170 0.6866
vn -0.7060 -0.1348 0.6953
vn -0.4716 -0.2576 0.8434
vn 0.3066 0.8112 0.4979
vn 0.4187 0.1113 0.9013
vn 0.8342 -0.2785 0.4759
vn 0.7424 0.5827 -0.3305
vn 0.9670 -0.0958 -0.2360
vn 0.9350 -0.1560 -0.3186
vn 0.4009 -0.7520 -0.5233
vn 0.0373 -0.8857 -0.4628
vn -0.0722 -0.8469 -0.5268
vn -0.1604 -0.8456 -0.5091
vn -0.1814 -0.8833 -0.4324
vn -0.5749 -0.7595 -0.3043
vn -0.6176 -0.7753 0.1322
vn -0.4943 -0.8408 0.2207
vn -0.3839 -0.6797 0.6250
vn 0.6232 -0.7096 -0.3288
vn 0.5396 -0.8348 -0.1094
vn 0.4177 -0.9007 -0.1190
vn -0.2506 -0.6876 0.6815
vn 0.3455 -0.8921 0.2911
vn 0.7247 -0.6187 0.3033
usemtl None
s off
f 1//1 14//1 13//1
f 2//2 14//2 16//2
f 1//3 13//3 18//3
f 1//4 18//4 20//4
f 1//5 20//5 17//5
f 2//6 16//6 23//6
f 3//7 15//7 25//7
f 4//8 19//8 27//8
f 5//9 21//9 29//9
f 6//10 22//10 31//10
f 2//11 23//11 26//11
f 3//12 25//12 28//12
f 4//13 27//13 30//13
f 5//14 29//14 32//14
f 6//15 31//15 24//15
f 7//16 33//16 38//16
f 8//17 34//17 40//17
f 9//18 35//18 41//18
f 10//19 36//19 42//19
f 11//20 37//20 39//20
f 39//21 42//21 12//21
f 39//22 37//22 42//22
f 37//23 10//23 42//23
f 42//24 41//24 12//24
f 42//25 36//25 41//25
f 36//26 9//26 41//26
f 41//27 40//27 12//27
f 41//28 35//28 40//28
f 35//29 8//29 40//29
f 40//30 38//30 12//30
f 40//31 34//31 38//31
f 34//32 7//32 38//32
f 38//33 39//33 12//33
f 38//34 33//34 39//34
f 33//35 11//35 39//35
f 24//36 37//36 11//36
f 24//37 31//37 37//37
f 31//38 10//38 37//38
f 32//39 36//39 10//39
f 32//40 29//40 36//40
f 29//41 9//41 36//41
f 30//42 35//42 9//42
f 30//43 27//43 35//43
f 27//44 8//44 35//44
f 28//45 34//45 8//45
f 28//46 25//46 34//46
f 25//47 7//47 34//47
f 26//48 33//48 7//48
f 26//49 23//49 33//49
f 23//50 11//50 33//50
f 31//51 32//51 10//51
f 31//52 22//52 32//52
f 22//53 5//53 32//53
f 29//54 30//54 9//54
f 29//55 21//55 30//55
f 21//56 4//56 30//56
f 27//57 28//57 8//57
f 27//58 19//58 28//58
f 19//59 3//59 28//59
f 25//60 26//60 7//60
f 25//61 15//61 26//61
f 15//62 2//62 26//62
f 23//63 24//63 11//63
f 23//64 16//64 24//64
f 16//65 6//65 24//65
f 17//66 22//66 6//66
f 17//67 20//67 22//67
f 20//68 5//68 22//68
f 20//69 21//69 5//69
f 20//70 18//70 21//70
f 18//71 4//71 21//71
f 18//72 19//72 4//72
f 18//73 13//73 19//73
f 13//74 3//74 19//74
f 16//75 17//75 6//75
f 16//76 14//76 17//76
f 14//77 1//77 17//77
f 13//78 15//78 3//78
f 13//79 14//79 15//79
f 14//80 2//80 15//80
