# Blender v2.82 (sub 7) OBJ File: 'Forest.blendD379C932-11C9-4E09-B687-B4B439D4B66E.blend'
# www.blender.org
mtllib r4.mtl
o r4_Icosphere.008
v 0.079938 -1.033895 0.039281
v 0.590536 -0.893642 0.981267
v -0.531457 -1.009205 0.916010
v -1.243610 -0.851814 -0.166841
v -0.238508 -0.502365 -1.033795
v 0.618582 -0.499586 -0.621114
v -0.559003 -0.024200 1.147263
v -1.246708 -0.504142 0.213524
v -0.887895 0.115565 -1.071516
v -0.131823 0.826213 -1.086696
v 0.308518 0.365513 -0.285787
v -0.312782 1.083750 -0.107025
v -0.105309 -0.996674 0.554859
v 0.433130 -1.116042 0.549919
v 0.067341 -0.862362 1.084942
v 0.785177 -0.797161 0.165745
v 0.436717 -0.961147 -0.254669
v -0.424724 -0.897520 -0.045976
v -0.847498 -1.041607 0.328665
v -0.059980 -0.896624 -0.611311
v -0.700339 -0.674048 -0.645833
v 0.202838 -0.574098 -0.953021
v 0.703885 -0.233695 0.585810
v 0.734394 0.094162 -0.540242
v -0.621117 -0.713313 1.293501
v -0.009654 -0.388948 1.298153
v -1.620640 -0.857112 -0.075019
v -0.955128 -0.892840 0.919171
v -0.608275 -0.079726 -1.060456
v -1.487768 -0.489470 -0.748536
v 0.285605 0.204357 -1.037083
v -0.217711 0.169879 -1.189783
v 0.046388 0.576672 0.985698
v -0.933144 -0.262096 0.694194
v -1.457823 -0.010734 -0.417496
v -0.500494 0.725938 -1.024311
v 0.311852 0.876555 -0.869540
v -0.422937 0.719312 0.879803
v 0.108578 1.142803 -0.159040
v -0.817206 0.423113 0.072390
v -0.695146 0.647026 -0.833732
v -0.184812 1.131480 -0.814166
vn -0.2165 -0.9763 -0.0073
vn 0.7212 -0.6867 0.0909
vn -0.2572 -0.9661 -0.0227
vn -0.2338 -0.9603 -0.1523
vn 0.0250 -0.9771 -0.2115
vn 0.9730 -0.0301 0.2287
vn 0.0177 -0.7849 0.6194
vn -0.0629 -0.9477 -0.3128
vn -0.4668 -0.4562 -0.7576
vn 0.6331 -0.1493 -0.7595
vn 0.6359 0.3134 0.7053
vn -0.2135 -0.7929 0.5708
vn -0.1078 -0.8635 -0.4926
vn -0.1790 -0.2171 -0.9596
vn 0.7354 -0.0514 -0.6757
vn -0.1025 0.3533 0.9299
vn -0.8379 0.4377 0.3262
vn -0.7029 0.4869 -0.5185
vn -0.2905 0.6087 -0.7383
vn 0.9573 0.2147 0.1934
vn -0.1335 0.9901 0.0427
vn 0.4284 0.8796 -0.2070
vn 0.2649 0.6674 -0.6960
vn -0.6850 0.7246 -0.0751
vn -0.6337 0.6822 -0.3647
vn -0.7039 0.4867 -0.5174
vn -0.7880 0.6140 0.0456
vn -0.6138 0.7817 0.1105
vn -0.7132 0.4162 0.5640
vn -0.7670 0.6250 0.1452
vn -0.8726 0.4009 0.2790
vn -0.8059 0.3254 0.4946
vn -0.0899 0.9375 0.3362
vn 0.1672 0.8801 0.4443
vn 0.9618 0.2211 0.1616
vn 0.6577 0.5649 0.4983
vn 0.7500 0.1323 -0.6481
vn 0.4114 0.2053 -0.8881
vn -0.2112 0.1786 -0.9610
vn -0.3646 0.0904 -0.9268
vn 0.0647 0.0361 -0.9973
vn -0.7219 0.4236 -0.5473
vn -0.9830 0.1420 -0.1164
vn -0.7596 0.3642 0.5389
vn -0.8635 0.1959 0.4647
vn -0.7785 0.2348 0.5821
vn -0.8038 0.1919 0.5630
vn -0.0547 0.3103 0.9491
vn 0.6720 0.1924 0.7151
vn 0.7897 0.6104 0.0614
vn 0.2814 0.1129 -0.9529
vn 0.2961 -0.1336 -0.9458
vn 0.1393 -0.2279 -0.9637
vn -0.1834 -0.3153 -0.9311
vn -0.0262 -0.5692 -0.8218
vn -0.1403 -0.8658 -0.4804
vn -0.7625 0.3794 0.5241
vn -0.3151 -0.9323 0.1774
vn -0.2586 -0.9468 0.1914
vn -0.1223 0.2166 0.9686
vn 0.1929 -0.3767 0.9060
vn 0.1573 -0.3841 0.9098
vn 0.6183 0.7499 0.2351
vn 0.9933 0.1013 0.0564
vn 0.9540 -0.1508 -0.2590
vn 0.5451 -0.6424 -0.5386
vn 0.2811 -0.7964 -0.5355
vn 0.0065 -0.7297 -0.6837
vn -0.2306 -0.7581 -0.6100
vn -0.3117 -0.9283 -0.2026
vn -0.0008 -0.9372 -0.3488
vn 0.0008 -0.9336 -0.3582
vn 0.1277 -0.9654 -0.2272
vn 0.0522 -0.9983 0.0270
vn 0.7234 -0.5811 -0.3729
vn 0.5662 -0.8099 -0.1534
vn 0.0446 -0.9810 -0.1887
vn 0.1847 -0.9653 0.1844
vn -0.2037 -0.9312 0.3023
vn 0.0353 -0.8935 0.4478
usemtl None
s off
f 1//1 14//1 13//1
f 2//2 14//2 16//2
f 1//3 13//3 18//3
f 1//4 18//4 20//4
f 1//5 20//5 17//5
f 2//6 16//6 23//6
f 3//7 15//7 25//7
f 4//8 19//8 27//8
f 5//9 21//9 29//9
f 6//10 22//10 31//10
f 2//11 23//11 26//11
f 3//12 25//12 28//12
f 4//13 27//13 30//13
f 5//14 29//14 32//14
f 6//15 31//15 24//15
f 7//16 33//16 38//16
f 8//17 34//17 40//17
f 9//18 35//18 41//18
f 10//19 36//19 42//19
f 11//20 37//20 39//20
f 39//21 42//21 12//21
f 39//22 37//22 42//22
f 37//23 10//23 42//23
f 42//24 41//24 12//24
f 42//25 36//25 41//25
f 36//26 9//26 41//26
f 41//27 40//27 12//27
f 41//28 35//28 40//28
f 35//29 8//29 40//29
f 40//30 38//30 12//30
f 40//31 34//31 38//31
f 34//32 7//32 38//32
f 38//33 39//33 12//33
f 38//34 33//34 39//34
f 33//35 11//35 39//35
f 24//36 37//36 11//36
f 24//37 31//37 37//37
f 31//38 10//38 37//38
f 32//39 36//39 10//39
f 32//40 29//40 36//40
f 29//41 9//41 36//41
f 30//42 35//42 9//42
f 30//43 27//43 35//43
f 27//44 8//44 35//44
f 28//45 34//45 8//45
f 28//46 25//46 34//46
f 25//47 7//47 34//47
f 26//48 33//48 7//48
f 26//49 23//49 33//49
f 23//50 11//50 33//50
f 31//51 32//51 10//51
f 31//52 22//52 32//52
f 22//53 5//53 32//53
f 29//54 30//54 9//54
f 29//55 21//55 30//55
f 21//56 4//56 30//56
f 27//57 28//57 8//57
f 27//58 19//58 28//58
f 19//59 3//59 28//59
f 25//60 26//60 7//60
f 25//61 15//61 26//61
f 15//62 2//62 26//62
f 23//63 24//63 11//63
f 23//64 16//64 24//64
f 16//65 6//65 24//65
f 17//66 22//66 6//66
f 17//67 20//67 22//67
f 20//68 5//68 22//68
f 20//69 21//69 5//69
f 20//70 18//70 21//70
f 18//71 4//71 21//71
f 18//72 19//72 4//72
f 18//73 13//73 19//73
f 13//74 3//74 19//74
f 16//75 17//75 6//75
f 16//76 14//76 17//76
f 14//77 1//77 17//77
f 13//78 15//78 3//78
f 13//79 14//79 15//79
f 14//80 2//80 15//80
newmtl None
Ns 500
Ka 0.8 0.8 0.8
Kd 0.8 0.8 0.8
Ks 0.8 0.8 0.8
d 1
illum 2