# Blender v2.82 (sub 7) OBJ File: 'Forest.blendD379C932-11C9-4E09-B687-B4B439D4B66E.blend'
# www.blender.org
mtllib r7.mtl
o r7_Icosphere.007
v -0.110442 -1.699583 -0.040824
v -0.560553 -1.273467 1.166401
v -1.198882 -1.583522 -0.312328
v -0.115282 -1.267402 -0.920586
v 1.085326 -1.473285 -0.472204
v 0.635986 -1.255618 0.921631
v -1.044904 0.802405 0.435829
v -0.606875 0.814770 -0.671272
v 0.302213 0.785558 -0.578216
v 1.030974 0.800867 0.135133
v -0.120841 0.984145 1.082678
v -0.089089 2.070257 -0.264338
v -0.774850 -1.833814 -0.240690
v -0.471575 -1.777159 0.480181
v -1.210821 -1.650872 0.419357
v 0.135607 -1.367784 1.215268
v 0.381235 -1.602360 0.443673
v -0.109162 -1.626457 -0.572877
v -0.700363 -1.486179 -0.755743
v 0.605536 -1.636418 -0.265124
v 0.526174 -1.368794 -0.777051
v 0.908447 -1.361059 0.191225
v -0.425529 0.123868 1.511407
v 0.333114 0.057121 1.283890
v -1.229296 -0.092339 0.169503
v -0.956539 0.022121 1.046183
v -0.398652 -0.060009 -0.756627
v -0.968799 -0.125107 -0.515368
v 0.650205 -0.109188 -0.378273
v 0.165875 -0.076638 -0.645160
v 0.883283 -0.086908 0.664186
v 0.964191 -0.100803 0.002314
v -0.673830 0.978337 0.908324
v -0.936763 0.950836 -0.201390
v -0.126245 0.962807 -0.805593
v 0.702718 0.902756 -0.204173
v 0.812695 0.927561 0.541341
v -0.630727 1.508216 0.140743
v 0.015871 1.417154 0.405695
v -0.388693 1.610375 -0.481244
v 0.243640 1.934289 -0.825402
v 0.424026 1.774817 -0.157104
vn 0.2001 -0.9797 -0.0072
vn -0.1494 -0.8062 0.5724
vn 0.2343 -0.9632 -0.1318
vn 0.0447 -0.9897 -0.1359
vn 0.1135 -0.9900 0.0835
vn -0.0991 -0.2295 0.9683
vn -0.9997 -0.0147 -0.0177
vn -0.2918 0.0611 -0.9545
vn 0.4982 0.2167 -0.8395
vn 0.9250 -0.1160 0.3618
vn -0.6401 -0.1253 0.7580
vn -0.9287 0.0967 -0.3579
vn 0.1957 0.1769 -0.9646
vn 0.7380 0.2778 -0.6150
vn 0.7465 -0.0114 0.6653
vn -0.7317 0.5794 0.3589
vn -0.7198 0.3417 -0.6043
vn 0.4051 -0.1725 -0.8978
vn 0.7314 0.2676 -0.6272
vn 0.3659 0.7487 0.5528
vn 0.2731 0.7099 0.6492
vn 0.3088 0.6853 0.6595
vn 0.7874 0.5648 0.2470
vn 0.4854 0.8709 0.0768
vn 0.9344 0.3082 -0.1787
vn 0.6959 -0.1170 -0.7085
vn -0.5951 0.6256 -0.5045
vn -0.5426 0.1899 -0.8182
vn -0.3425 0.3061 -0.8883
vn -0.7740 0.5998 -0.2027
vn -0.7940 0.5683 -0.2156
vn -0.8678 0.4959 -0.0317
vn -0.1901 0.6880 0.7004
vn -0.1139 0.8206 0.5601
vn -0.1686 0.8455 0.5067
vn 0.4772 0.4032 0.7808
vn 0.7563 0.1303 0.6411
vn 0.8896 0.1154 0.4420
vn 0.7250 0.0475 -0.6871
vn 0.7688 0.0695 -0.6358
vn 0.6649 0.0930 -0.7411
vn 0.4671 -0.0052 -0.8842
vn 0.1900 -0.0974 -0.9769
vn -0.2770 0.0278 -0.9605
vn -0.7742 0.1984 -0.6010
vn -0.9244 0.1320 -0.3579
vn -0.9665 0.2319 -0.1100
vn -0.8003 0.3106 0.5129
vn -0.6610 0.2949 0.6900
vn -0.2646 0.5036 0.8224
vn 0.9882 -0.0913 0.1227
vn 0.9922 -0.0256 0.1218
vn 0.9661 -0.0040 0.2582
vn 0.4822 -0.0082 -0.8760
vn 0.4820 0.2209 -0.8478
vn 0.2401 0.1646 -0.9567
vn -0.3894 -0.0028 -0.9211
vn -0.3964 0.0833 -0.9143
vn -0.6647 0.0009 -0.7471
vn -0.9529 0.1125 0.2818
vn -0.9556 0.0356 0.2927
vn -0.7063 -0.1517 0.6915
vn 0.2975 0.3394 0.8924
vn 0.2794 -0.0848 0.9564
vn 0.5216 -0.1130 0.8457
vn 0.5138 -0.8010 0.3073
vn 0.4836 -0.8535 0.1940
vn 0.4087 -0.8757 0.2571
vn 0.0939 -0.8762 -0.4726
vn 0.1939 -0.8567 -0.4779
vn 0.0509 -0.6943 -0.7179
vn 0.0573 -0.6940 -0.7177
vn -0.0226 -0.8271 -0.5615
vn -0.3497 -0.7523 -0.5583
vn 0.4100 -0.8281 0.3823
vn 0.2027 -0.9171 0.3433
vn 0.2005 -0.9797 -0.0069
vn -0.4953 -0.8643 -0.0876
vn -0.1785 -0.9722 0.1515
vn -0.1839 -0.8036 0.5660
usemtl None
s off
f 1//1 14//1 13//1
f 2//2 14//2 16//2
f 1//3 13//3 18//3
f 1//4 18//4 20//4
f 1//5 20//5 17//5
f 2//6 16//6 23//6
f 3//7 15//7 25//7
f 4//8 19//8 27//8
f 5//9 21//9 29//9
f 6//10 22//10 31//10
f 2//11 23//11 26//11
f 3//12 25//12 28//12
f 4//13 27//13 30//13
f 5//14 29//14 32//14
f 6//15 31//15 24//15
f 7//16 33//16 38//16
f 8//17 34//17 40//17
f 9//18 35//18 41//18
f 10//19 36//19 42//19
f 11//20 37//20 39//20
f 39//21 42//21 12//21
f 39//22 37//22 42//22
f 37//23 10//23 42//23
f 42//24 41//24 12//24
f 42//25 36//25 41//25
f 36//26 9//26 41//26
f 41//27 40//27 12//27
f 41//28 35//28 40//28
f 35//29 8//29 40//29
f 40//30 38//30 12//30
f 40//31 34//31 38//31
f 34//32 7//32 38//32
f 38//33 39//33 12//33
f 38//34 33//34 39//34
f 33//35 11//35 39//35
f 24//36 37//36 11//36
f 24//37 31//37 37//37
f 31//38 10//38 37//38
f 32//39 36//39 10//39
f 32//40 29//40 36//40
f 29//41 9//41 36//41
f 30//42 35//42 9//42
f 30//43 27//43 35//43
f 27//44 8//44 35//44
f 28//45 34//45 8//45
f 28//46 25//46 34//46
f 25//47 7//47 34//47
f 26//48 33//48 7//48
f 26//49 23//49 33//49
f 23//50 11//50 33//50
f 31//51 32//51 10//51
f 31//52 22//52 32//52
f 22//53 5//53 32//53
f 29//54 30//54 9//54
f 29//55 21//55 30//55
f 21//56 4//56 30//56
f 27//57 28//57 8//57
f 27//58 19//58 28//58
f 19//59 3//59 28//59
f 25//60 26//60 7//60
f 25//61 15//61 26//61
f 15//62 2//62 26//62
f 23//63 24//63 11//63
f 23//64 16//64 24//64
f 16//65 6//65 24//65
f 17//66 22//66 6//66
f 17//67 20//67 22//67
f 20//68 5//68 22//68
f 20//69 21//69 5//69
f 20//70 18//70 21//70
f 18//71 4//71 21//71
f 18//72 19//72 4//72
f 18//73 13//73 19//73
f 13//74 3//74 19//74
f 16//75 17//75 6//75
f 16//76 14//76 17//76
f 14//77 1//77 17//77
f 13//78 15//78 3//78
f 13//79 14//79 15//79
f 14//80 2//80 15//80
