# Blender v2.82 (sub 7) OBJ File: 'Forest.blendD379C932-11C9-4E09-B687-B4B439D4B66E.blend'
# www.blender.org
mtllib r9.mtl
o r9_Icosphere.012
v 0.376793 -0.496369 -0.267636
v 0.355765 0.760544 0.545149
v 0.238219 -0.113904 0.678753
v 0.170074 0.810437 -1.017851
v 0.011010 0.944978 -0.113818
v -0.343743 0.529517 0.605974
v -0.179532 -0.358034 -0.329335
v -0.417704 0.552502 -0.770612
v 0.574063 -0.271605 0.064379
v 0.596308 -0.157280 -0.753273
v 0.338163 -0.511047 0.388727
v 0.460607 -0.069837 0.444003
v 0.366234 0.469231 0.699195
v 0.091760 -0.572375 -0.371583
v 0.083085 -0.480917 0.519165
v 0.337802 -0.332622 -1.424605
v 0.141145 0.938901 0.251440
v 0.221010 0.844363 -0.208472
v -0.039792 0.293269 0.747114
v 0.006760 0.756205 0.786376
v -0.052980 -0.227185 -1.405510
v 0.191315 0.599316 -1.269711
v -0.006912 0.884037 -0.717264
v -0.251817 0.844350 0.282456
v -0.293827 -0.101932 0.385671
v -0.151843 0.331385 -1.245347
v -0.374930 0.118574 -0.703019
v -0.155776 0.751878 -0.990110
v -0.346585 0.811779 -0.468144
v -0.505236 0.489351 -0.062524
v 2.089601 -0.407192 -1.397329
v 1.577977 -0.104344 -0.635744
v 1.940132 0.098773 -1.909221
v 2.968373 0.350018 -1.496815
v 2.556196 -0.364834 -0.175796
v 1.736503 0.984063 -1.557723
v 2.088240 0.799614 0.003940
v 1.468273 0.249539 -0.230472
v 1.701430 -0.464381 -1.611132
v 1.883668 -0.314936 -0.984496
v 1.408353 -0.207448 -0.998563
v 2.088728 -0.346037 -0.513234
v 2.370387 -0.262882 -0.778299
v 2.102792 -0.245712 -1.843976
v 1.652483 -0.169101 -1.838414
v 2.581514 -0.097514 -1.396294
v 2.415259 0.235760 -1.779794
v 2.972676 0.049320 -0.845373
v 1.505451 0.073780 -0.401083
v 2.191625 -0.291365 -0.114981
v 1.516741 0.267212 -1.712183
v 2.597400 0.737230 -1.611157
v 1.870637 0.578267 -1.808769
v 2.701885 -0.095887 0.235290
v 3.143486 0.624415 -1.131150
v 1.324161 0.728301 -1.486917
v 2.149705 1.045485 -1.078641
v 1.985213 0.365837 0.220845
v 1.261014 1.032750 -1.136331
v 1.321431 0.849949 -0.443327
v 0.520658 -0.856783 -2.122718
v 0.844281 -0.074942 -0.946901
v -0.048950 -0.371107 -1.130431
v -0.266599 -0.442279 -2.498798
v 0.928491 -0.459193 -3.692863
v 1.790912 -0.479216 -1.955476
v -0.252346 0.458171 -1.128625
v -0.072283 0.853316 -2.648835
v 1.505073 0.627455 -2.883261
v 1.015663 0.614251 -1.042371
v 0.358963 1.312076 -0.931958
v 0.108095 -0.845423 -1.743116
v 0.755520 -0.579555 -1.435165
v 0.387054 -0.210349 -0.963964
v 1.441380 -0.544869 -1.061166
v 1.205222 -0.634730 -2.029186
v 0.070931 -0.824355 -2.422043
v -0.332764 -0.600890 -1.929337
v 0.798010 -0.695527 -2.899126
v 0.305481 -0.392037 -3.071789
v 1.508129 -0.562773 -3.297703
v 0.940315 0.295601 -0.961141
v 1.814752 -0.306600 -1.050539
v -0.010789 -0.050196 -0.561478
v -0.506674 -0.041007 -1.952015
v -0.239692 -0.014133 -0.907129
v 0.590432 0.125136 -3.548435
v -0.271038 0.168778 -2.688327
v 2.008867 -0.101388 -2.748908
v 1.295536 -0.142051 -3.977709
v -0.116090 0.356311 -0.622729
v -0.420911 0.725738 -1.938602
v 0.830474 0.969593 -3.057723
v 1.763649 0.584028 -1.509881
v 0.268684 0.756692 -0.635480
v 0.679478 0.987968 -0.839423
v 0.020596 0.974617 -1.061319
v -0.073325 1.318998 -1.809113
v 0.667732 1.364875 -1.373962
v 1.468605 -0.070190 -0.085192
v 1.666391 -0.214952 1.359456
v 0.645871 -0.227312 0.549755
v 0.597634 -0.177795 -1.133143
v 2.401343 0.222865 -0.453836
v 0.278870 0.676981 1.292174
v 0.023775 0.366146 -0.028100
v 0.330107 0.463860 -1.196440
v 1.670205 0.969800 -1.419538
v 1.290647 1.278201 1.080706
v 0.208731 1.324338 -0.218882
v 1.033550 -0.245956 0.285605
v 1.898923 -0.041081 0.548103
v 1.152842 -0.218047 0.998485
v 2.516090 0.064118 0.478307
v 2.194500 -0.049750 -0.187348
v 0.940436 -0.331756 -0.489147
v 0.655191 -0.472176 -0.018038
v 1.766423 -0.137660 -1.053978
v 1.087905 -0.306093 -1.104625
v 1.476251 0.704125 1.343957
v 2.501056 0.392923 0.190475
v 0.544711 0.163083 0.996647
v 0.820432 0.440461 1.427960
v 0.239836 -0.134648 -0.395112
v 0.308934 -0.053538 0.339350
v 0.419001 -0.037459 -1.038407
v 2.056279 0.760073 -1.166466
v 0.440475 0.998548 1.454242
v 0.213574 0.607413 0.579033
v -0.088817 0.425585 -0.568470
v 1.095046 0.751890 -1.547695
v 1.636513 1.373579 -0.646440
v 0.286933 1.129642 0.708974
v 0.801559 1.456849 0.492931
v -0.036017 0.903664 -0.117077
v -0.024251 0.985892 -0.846481
v 0.618401 1.361194 -0.951609
vn 0.7306 -0.6822 0.0277
vn 0.2598 -0.9656 -0.0063
vn 0.1453 -0.0665 0.9871
vn 0.3035 -0.9419 -0.1435
vn 0.2429 0.8977 0.3676
vn -0.2233 -0.3078 0.9249
vn -0.1883 0.7448 -0.6402
vn -0.2692 0.9590 -0.0889
vn -0.8759 0.4457 0.1848
vn -0.9226 -0.3856 -0.0094
vn -0.9842 -0.1176 -0.1322
vn -0.9422 -0.3351 0.0023
vn -0.9573 -0.1597 0.2409
vn -0.9318 0.3532 -0.0837
vn -0.8479 0.5233 0.0843
vn -0.3524 0.9358 0.0039
vn -0.7323 0.5925 -0.3357
vn -0.3652 0.9003 -0.2368
vn -0.1943 0.9202 -0.3397
vn -0.7428 0.3423 -0.5754
vn -0.4205 0.4679 -0.7773
vn -0.8910 -0.1544 -0.4271
vn -0.9169 -0.0487 -0.3962
vn -0.8631 -0.4791 -0.1597
vn -0.7253 -0.6768 0.1265
vn -0.5811 -0.3134 0.7511
vn -0.5869 -0.3077 0.7489
vn -0.6362 0.6354 0.4376
vn -0.2051 0.9408 0.2698
vn -0.2256 0.9694 0.0965
vn 0.3912 0.9144 -0.1040
vn -0.2630 -0.9256 -0.2722
vn -0.6271 -0.7610 -0.1663
vn -0.4411 -0.0317 0.8969
vn 0.1590 -0.0993 0.9823
vn 0.5137 0.4154 0.7507
vn 0.3838 0.9154 -0.1215
vn 0.7483 -0.6529 -0.1176
vn -0.6110 -0.7881 0.0750
vn -0.0655 -0.9927 0.1013
vn 0.3490 -0.4938 0.7965
vn 0.7306 -0.1834 0.6577
vn 0.7226 -0.2797 0.6321
vn 0.8631 -0.2912 0.4127
vn 0.7943 -0.6043 -0.0629
vn 0.0185 -0.9738 0.2268
vn -0.4505 -0.8821 0.1378
vn 0.3062 -0.8981 -0.3157
vn 0.5121 -0.8125 -0.2786
vn 0.5323 -0.8454 -0.0444
vn -0.4682 -0.7675 0.4379
vn -0.3669 0.1514 -0.9179
vn 0.4267 0.1452 -0.8927
vn 0.7880 -0.6045 0.1162
vn -0.3721 0.1383 -0.9178
vn 0.6444 0.4308 -0.6318
vn -0.0718 -0.8228 0.5638
vn -0.4874 0.6139 -0.6209
vn -0.0630 0.9740 0.2176
vn -0.0306 0.9658 0.2574
vn -0.0063 0.9925 -0.1218
vn -0.4958 -0.5136 0.7003
vn -0.3449 -0.5107 0.7875
vn 0.2333 0.3900 0.8908
vn 0.3902 0.8928 0.2249
vn 0.3719 0.9040 -0.2106
vn 0.2418 0.9140 -0.3258
vn -0.3855 0.3899 -0.8363
vn -0.4440 0.2368 -0.8642
vn 0.6429 0.5721 0.5093
vn 0.9600 -0.1774 0.2167
vn 0.9180 -0.3577 -0.1712
vn 0.1057 0.5482 -0.8296
vn 0.2042 0.2446 -0.9479
vn 0.1942 0.2280 -0.9541
vn -0.5599 -0.6351 0.5322
vn -0.5338 -0.8081 0.2489
vn -0.1661 -0.9702 0.1761
vn 0.4181 -0.8657 -0.2754
vn 0.4512 -0.8885 -0.0836
vn 0.6839 -0.6607 -0.3095
vn 0.4665 -0.5575 -0.6867
vn 0.6934 -0.3674 -0.6199
vn 0.2762 -0.0513 -0.9597
vn -0.0474 -0.2074 -0.9771
vn -0.1147 -0.6178 -0.7779
vn 0.1028 -0.9751 -0.1967
vn 0.1617 -0.9776 -0.1349
vn 0.0099 -0.9748 0.2228
vn -0.2194 -0.9327 0.2862
vn -0.2160 -0.9080 0.3590
vn 0.2419 -0.9257 0.2906
vn -0.3520 -0.6182 0.7028
vn -0.0533 -0.9982 -0.0281
vn 0.0524 -0.9813 -0.1851
vn 0.3177 -0.9446 -0.0827
vn 0.1810 -0.0091 0.9834
vn 0.1364 -0.8667 0.4797
vn -0.9351 -0.2982 -0.1917
vn -0.6986 -0.2373 -0.6751
vn 0.7379 -0.6652 -0.1141
vn -0.6873 -0.6120 0.3913
vn -0.9372 -0.1095 -0.3311
vn -0.5473 -0.1116 -0.8295
vn 0.9101 -0.4108 0.0544
vn -0.8559 0.4115 0.3134
vn -0.7949 0.5301 -0.2950
vn 0.4787 0.8639 -0.1566
vn 0.5304 0.0169 0.8476
vn 0.5565 0.6847 0.4706
vn 0.5493 0.6886 0.4734
vn 0.5716 0.8165 -0.0818
vn -0.0931 0.9942 0.0537
vn 0.0699 0.9726 -0.2216
vn -0.3155 0.8297 -0.4605
vn -0.7241 0.5874 0.3615
vn -0.8492 0.4310 0.3051
vn -0.8557 0.4113 0.3140
vn -0.6647 0.4331 0.6088
vn -0.5604 0.5580 0.6120
vn 0.1895 0.4382 0.8787
vn 0.4929 0.4210 0.7614
vn 0.9843 0.1221 0.1273
vn 0.8264 0.5458 -0.1383
vn 0.4850 0.6690 -0.5632
vn -0.2785 0.5405 -0.7939
vn -0.4035 0.5427 -0.7366
vn -0.8811 0.2779 -0.3826
vn -0.9553 0.1116 -0.2739
vn -0.9663 0.1040 0.2354
vn -0.9548 0.1049 0.2783
vn 0.7677 0.4458 -0.4604
vn 0.8192 -0.3367 -0.4644
vn 0.2437 -0.7888 -0.5642
vn -0.6803 0.2375 -0.6934
vn -0.6911 -0.2457 -0.6797
vn -0.6803 -0.2216 -0.6986
vn -0.9656 0.0888 0.2444
vn -0.9288 -0.2786 0.2445
vn -0.6687 -0.6169 0.4150
vn 0.0342 -0.0980 0.9946
vn 0.5293 -0.8359 0.1455
vn 0.2559 -0.9667 0.0063
vn 0.1763 -0.9842 -0.0137
vn 0.0209 -0.9591 -0.2821
vn -0.4125 -0.8523 -0.3216
vn -0.2579 -0.7588 -0.5980
vn -0.5410 -0.5969 -0.5925
vn -0.6951 -0.6676 -0.2667
vn -0.4849 -0.8746 -0.0006
vn -0.5685 -0.7146 0.4075
vn 0.2532 -0.9670 0.0280
vn -0.0001 -0.9957 0.0924
vn 0.2607 -0.9230 0.2831
vn 0.0522 -0.7831 0.6196
vn 0.0215 -0.7787 0.6270
vn 0.1816 -0.7001 0.6906
vn 0.2676 -0.9536 -0.1380
vn 0.1473 -0.9749 -0.1667
vn 0.4114 -0.9100 0.0513
vn 0.3322 -0.9283 0.1668
vn 0.0395 -0.9959 0.0815
vn 0.6864 0.1540 0.7107
vn -0.4527 -0.7198 0.5263
vn -0.5052 -0.8405 -0.1958
vn 0.1112 0.0398 0.9930
vn -0.6125 -0.6588 0.4368
vn -0.6817 -0.6711 -0.2913
vn 0.9275 0.3002 -0.2228
vn -0.9101 0.3333 0.2461
vn -0.9469 -0.0529 0.3170
vn -0.8130 -0.1809 -0.5534
vn -0.0849 0.6621 -0.7446
vn 0.2330 0.9673 0.1001
vn -0.1673 0.9849 -0.0440
vn 0.0080 0.9977 -0.0671
vn 0.1256 0.8816 -0.4550
vn -0.5185 0.8181 -0.2487
vn -0.3994 0.4621 -0.7918
vn -0.4785 0.2412 -0.8443
vn -0.8589 0.5103 0.0437
vn -0.9936 0.1129 -0.0033
vn -0.9778 -0.0764 0.1953
vn -0.8305 0.5269 0.1806
vn -0.9344 0.0433 0.3535
vn -0.9897 0.1194 0.0790
vn -0.4562 0.8624 0.2194
vn -0.4456 0.8615 0.2433
vn -0.1307 0.9131 0.3862
vn 0.6611 0.7302 0.1727
vn 0.7843 0.6137 -0.0910
vn 0.6125 0.7113 -0.3448
vn -0.7823 -0.3092 -0.5407
vn -0.7793 -0.5501 -0.3002
vn -0.8722 -0.4715 0.1299
vn -0.8848 -0.2663 0.3824
vn -0.8737 -0.2722 0.4031
vn -0.8490 -0.5127 0.1278
vn -0.3460 -0.2778 0.8962
vn 0.1146 0.0313 0.9929
vn 0.2234 0.4650 0.8566
vn -0.8703 -0.4738 0.1342
vn -0.6992 -0.7005 0.1431
vn -0.5826 -0.7497 0.3138
vn -0.4323 -0.6071 0.6668
vn -0.3991 -0.6337 0.6627
vn -0.4413 -0.6358 0.6333
vn 0.7196 0.4679 0.5131
vn 0.7168 0.4775 0.5080
vn 0.9884 -0.0721 -0.1339
vn 0.2397 -0.9707 0.0170
vn -0.2465 -0.9640 -0.0993
vn 0.0500 -0.9650 -0.2573
vn 0.4905 -0.8706 0.0375
vn 0.2222 -0.8940 0.3892
vn 0.6736 -0.7104 -0.2039
vn 0.1765 -0.9808 0.0825
vn 0.0316 -0.9992 0.0245
vn -0.0192 -0.9989 0.0423
vn 0.2305 -0.9731 -0.0005
vn 0.1273 -0.9767 -0.1728
usemtl None
s off
f 1//1 9//1 11//1
f 1//2 11//2 14//2
f 3//3 13//3 19//3
f 1//4 14//4 16//4
f 2//5 17//5 20//5
f 3//6 19//6 15//6
f 4//7 22//7 28//7
f 5//8 23//8 29//8
f 6//9 24//9 30//9
f 7//10 25//10 27//10
f 27//11 30//11 8//11
f 27//12 25//12 30//12
f 25//13 6//13 30//13
f 30//14 29//14 8//14
f 30//15 24//15 29//15
f 24//16 5//16 29//16
f 29//17 28//17 8//17
f 29//18 23//18 28//18
f 23//19 4//19 28//19
f 28//20 26//20 8//20
f 28//21 22//21 26//21
f 26//22 27//22 8//22
f 26//23 21//23 27//23
f 21//24 7//24 27//24
f 15//25 25//25 7//25
f 15//26 19//26 25//26
f 19//27 6//27 25//27
f 20//28 24//28 6//28
f 20//29 17//29 24//29
f 17//30 5//30 24//30
f 18//31 23//31 5//31
f 16//32 14//32 21//32
f 14//33 7//33 21//33
f 19//34 20//34 6//34
f 19//35 13//35 20//35
f 13//36 2//36 20//36
f 17//37 18//37 5//37
f 10//38 1//38 16//38
f 14//39 15//39 7//39
f 14//40 11//40 15//40
f 11//41 3//41 15//41
f 12//42 13//42 3//42
f 11//43 12//43 3//43
f 11//44 9//44 12//44
f 9//45 1//45 10//45
f 31//46 40//46 39//46
f 32//47 40//47 42//47
f 31//48 39//48 44//48
f 31//49 44//49 46//49
f 31//50 46//50 43//50
f 32//51 42//51 49//51
f 33//52 45//52 51//52
f 34//53 47//53 52//53
f 35//54 48//54 54//54
f 33//55 51//55 53//55
f 34//56 52//56 55//56
f 35//57 54//57 50//57
f 36//58 56//58 59//58
f 37//59 57//59 60//59
f 60//60 57//60 59//60
f 57//61 36//61 59//61
f 50//62 58//62 38//62
f 50//63 54//63 58//63
f 54//64 37//64 58//64
f 55//65 57//65 37//65
f 55//66 52//66 57//66
f 52//67 36//67 57//67
f 53//68 56//68 36//68
f 53//69 51//69 56//69
f 54//70 55//70 37//70
f 54//71 48//71 55//71
f 48//72 34//72 55//72
f 52//73 53//73 36//73
f 52//74 47//74 53//74
f 47//75 33//75 53//75
f 49//76 50//76 38//76
f 49//77 42//77 50//77
f 42//78 35//78 50//78
f 43//79 48//79 35//79
f 43//80 46//80 48//80
f 46//81 34//81 48//81
f 46//82 47//82 34//82
f 46//83 44//83 47//83
f 44//84 33//84 47//84
f 44//85 45//85 33//85
f 44//86 39//86 45//86
f 42//87 43//87 35//87
f 42//88 40//88 43//88
f 40//89 31//89 43//89
f 39//90 40//90 41//90
f 40//91 32//91 41//91
f 61//92 73//92 72//92
f 62//93 73//93 75//93
f 61//94 72//94 77//94
f 61//95 77//95 79//95
f 61//96 79//96 76//96
f 62//97 75//97 82//97
f 63//98 74//98 84//98
f 64//99 78//99 85//99
f 65//100 80//100 87//100
f 66//101 81//101 89//101
f 63//102 84//102 86//102
f 64//103 85//103 88//103
f 65//104 87//104 90//104
f 66//105 89//105 83//105
f 67//106 91//106 97//106
f 68//107 92//107 98//107
f 69//108 93//108 99//108
f 70//109 94//109 96//109
f 96//110 99//110 71//110
f 96//111 94//111 99//111
f 94//112 69//112 99//112
f 99//113 98//113 71//113
f 99//114 93//114 98//114
f 93//115 68//115 98//115
f 98//116 97//116 71//116
f 98//117 92//117 97//117
f 92//118 67//118 97//118
f 97//119 95//119 71//119
f 97//120 91//120 95//120
f 95//121 96//121 71//121
f 83//122 94//122 70//122
f 83//123 89//123 94//123
f 89//124 69//124 94//124
f 90//125 93//125 69//125
f 90//126 87//126 93//126
f 87//127 68//127 93//127
f 88//128 92//128 68//128
f 88//129 85//129 92//129
f 85//130 67//130 92//130
f 86//131 91//131 67//131
f 89//132 90//132 69//132
f 89//133 81//133 90//133
f 81//134 65//134 90//134
f 87//135 88//135 68//135
f 87//136 80//136 88//136
f 80//137 64//137 88//137
f 85//138 86//138 67//138
f 85//139 78//139 86//139
f 78//140 63//140 86//140
f 82//141 75//141 83//141
f 75//142 66//142 83//142
f 76//143 81//143 66//143
f 76//144 79//144 81//144
f 79//145 65//145 81//145
f 79//146 80//146 65//146
f 79//147 77//147 80//147
f 77//148 64//148 80//148
f 77//149 78//149 64//149
f 77//150 72//150 78//150
f 72//151 63//151 78//151
f 75//152 76//152 66//152
f 75//153 73//153 76//153
f 73//154 61//154 76//154
f 72//155 74//155 63//155
f 72//156 73//156 74//156
f 73//157 62//157 74//157
f 100//158 112//158 111//158
f 101//159 112//159 114//159
f 100//160 111//160 116//160
f 100//161 116//161 118//161
f 100//162 118//162 115//162
f 101//163 114//163 120//163
f 102//164 113//164 122//164
f 103//165 117//165 124//165
f 101//166 120//166 123//166
f 102//167 122//167 125//167
f 103//168 124//168 126//168
f 104//169 127//169 121//169
f 105//170 128//170 133//170
f 106//171 129//171 135//171
f 107//172 130//172 136//172
f 108//173 131//173 137//173
f 109//174 132//174 134//174
f 134//175 137//175 110//175
f 134//176 132//176 137//176
f 132//177 108//177 137//177
f 137//178 136//178 110//178
f 137//179 131//179 136//179
f 131//180 107//180 136//180
f 136//181 135//181 110//181
f 136//182 130//182 135//182
f 130//183 106//183 135//183
f 135//184 133//184 110//184
f 135//185 129//185 133//185
f 129//186 105//186 133//186
f 133//187 134//187 110//187
f 133//188 128//188 134//188
f 128//189 109//189 134//189
f 121//190 132//190 109//190
f 121//191 127//191 132//191
f 127//192 108//192 132//192
f 126//193 130//193 107//193
f 126//194 124//194 130//194
f 124//195 106//195 130//195
f 125//196 129//196 106//196
f 125//197 122//197 129//197
f 122//198 105//198 129//198
f 123//199 128//199 105//199
f 123//200 120//200 128//200
f 120//201 109//201 128//201
f 124//202 125//202 106//202
f 124//203 117//203 125//203
f 117//204 102//204 125//204
f 122//205 123//205 105//205
f 122//206 113//206 123//206
f 113//207 101//207 123//207
f 120//208 121//208 109//208
f 120//209 114//209 121//209
f 114//210 104//210 121//210
f 118//211 116//211 119//211
f 116//212 103//212 119//212
f 116//213 117//213 103//213
f 116//214 111//214 117//214
f 111//215 102//215 117//215
f 114//216 115//216 104//216
f 114//217 112//217 115//217
f 112//218 100//218 115//218
f 111//219 113//219 102//219
f 111//220 112//220 113//220
f 112//221 101//221 113//221
newmtl None
Ns 500
Ka 0.8 0.8 0.8
Kd 0.8 0.8 0.8
Ks 0.8 0.8 0.8
d 1
illum 2
