# Blender v2.82 (sub 7) OBJ File: 'Forest.blendD379C932-11C9-4E09-B687-B4B439D4B66E.blend'
# www.blender.org
mtllib t6-green.mtl
o t6-green_Cylinder.003
v 0.000000 -3.318690 -0.695604
v -0.149725 3.595933 -0.901985
v 0.408866 -3.318690 -0.562756
v -0.100726 3.595933 -0.886064
v 0.661559 -3.318690 -0.214954
v -0.070443 3.595933 -0.844382
v 0.661559 -3.318690 0.214954
v -0.070443 3.595933 -0.792861
v 0.408866 -3.318690 0.562756
v -0.100726 3.595933 -0.751180
v -0.000000 -3.318690 0.695604
v -0.149725 3.595933 -0.735259
v -0.408866 -3.318690 0.562756
v -0.198725 3.595933 -0.751180
v -0.661559 -3.318690 0.214954
v -0.229008 3.595933 -0.792861
v -0.661559 -3.318690 -0.214954
v -0.229008 3.595933 -0.844382
v -0.408866 -3.318690 -0.562756
v -0.198725 3.595933 -0.886064
v 0.000000 -1.959919 -0.590149
v 0.000000 -0.576135 -0.513998
v 0.001413 0.835239 -0.530790
v 0.051758 2.240431 -0.707797
v 0.193443 2.240427 -0.661589
v 0.209926 0.835158 -0.462924
v 0.275325 -0.576266 -0.424467
v 0.342096 -1.960001 -0.478950
v 0.280819 2.240167 -0.540489
v 0.338654 0.834077 -0.284688
v 0.445486 -0.577465 -0.189595
v 0.553522 -1.960600 -0.187613
v 0.280429 2.239601 -0.390557
v 0.338439 0.832161 -0.064039
v 0.445486 -0.579387 0.100967
v 0.553522 -1.961511 0.172593
v 0.192506 2.238944 -0.269176
v 0.209373 0.830285 0.114647
v 0.275325 -0.581227 0.336195
v 0.342096 -1.962374 0.464076
v 0.050613 2.238601 -0.222767
v 0.000765 0.829232 0.183069
v -0.000000 -0.582186 0.426186
v -0.000000 -1.962807 0.575471
v -0.091063 2.238632 -0.269002
v -0.207737 0.829390 0.115144
v -0.275325 -0.581963 0.336603
v -0.342096 -1.962702 0.464259
v -0.178395 2.239050 -0.390251
v -0.336459 0.830782 -0.063273
v -0.445486 -0.580559 0.101618
v -0.553522 -1.962065 0.172901
v -0.178005 2.239711 -0.540235
v -0.336244 0.832711 -0.283929
v -0.445486 -0.578618 -0.188954
v -0.553522 -1.961140 -0.187313
v -0.090126 2.240237 -0.661484
v -0.207184 0.834501 -0.462559
v -0.275325 -0.576860 -0.424137
v -0.342095 -1.960308 -0.478779
v 0.073152 1.812721 -1.100048
v 0.464957 1.812576 -0.971928
v 0.706253 1.811159 -0.635943
v 0.670638 2.053885 -0.203112
v 0.427134 2.051445 0.133399
v 0.034485 2.050091 0.262164
v -0.357340 2.050233 0.134072
v -0.598667 2.051818 -0.201964
v -0.597302 2.054365 -0.617680
v -0.353766 2.056645 -0.954145
v -0.194872 0.117513 -1.060703
v 0.511811 0.302445 -0.805091
v 0.956238 0.147918 -0.397101
v 0.956238 0.143081 0.135117
v 0.644988 0.138378 0.566128
v -0.031627 0.521519 0.590830
v -0.535241 0.522009 0.426923
v -0.846491 0.525359 -0.003337
v -1.009736 0.110870 -0.464979
v -0.698485 0.115324 -0.895853
v -0.028171 -1.078964 -1.348098
v 0.679487 -1.079432 -1.117905
v 1.139187 -0.874812 -0.392557
v 1.171713 -0.865532 0.249785
v 0.734356 -0.869562 0.853994
v 0.077455 -1.137061 1.174582
v -0.662729 -1.150158 1.048504
v -1.100086 -1.147226 0.444905
v -1.150844 -0.877383 -0.391130
v -0.735829 -1.080943 -1.117067
v 0.000000 -2.207086 -1.638067
v 0.937646 -2.207254 -1.333314
v 1.517142 -2.208158 -0.535203
v 1.517142 -2.516130 0.714299
v 0.937645 -2.517152 1.512475
v -0.000000 -2.517628 1.817400
v -0.937646 -2.356840 1.264364
v -1.517142 -2.356138 0.466366
v -1.517142 -2.354973 -0.520180
v -0.937645 -2.353799 -1.318442
v 0.865017 -3.645377 -1.182633
v 1.385164 -3.680701 -0.443491
v 1.396141 -3.490870 0.462429
v 0.851848 -3.845516 1.179959
v 0.000156 -3.500641 1.479133
v -0.854948 -3.779451 1.184630
v -1.399217 -3.500981 0.462429
v -1.386755 -3.715523 -0.443010
v -0.864703 -3.645371 -1.182634
v 0.000159 -3.937501 -1.443042
v 0.000000 -3.289058 -0.484903
v 0.285019 -3.289058 -0.392295
v 0.461170 -3.289058 -0.149843
v 0.461170 -3.289058 0.149843
v 0.285019 -3.289058 0.392295
v -0.000000 -3.289058 0.484903
v -0.285019 -3.289058 0.392295
v -0.461170 -3.289058 0.149843
v -0.461170 -3.289058 -0.149843
v -0.285019 -3.289058 -0.392295
v 0.461170 -5.043346 0.149843
v -0.285019 -5.043346 -0.392295
v -0.461170 -5.043346 -0.149843
v -0.461170 -5.043346 0.149843
v -0.285019 -5.043346 0.392295
v -0.000001 -5.043346 0.484903
v 0.461170 -5.043346 -0.149843
v 0.285018 -5.043346 -0.392295
v -0.000000 -5.043346 -0.484903
v 0.285018 -5.043346 0.392295
v -0.261376 -3.899342 0.359752
v -0.261375 -3.899342 -0.359752
v -0.422914 -3.899342 -0.137413
v 0.261375 -3.899342 0.359752
v -0.000000 -3.899342 -0.444678
v 0.261375 -3.899342 -0.359752
v 0.422914 -3.899342 -0.137413
v -0.000000 -3.899342 0.444678
v 0.422914 -3.899342 0.137413
v -0.422914 -3.899342 0.137413
vn 0.3077 0.1429 -0.9407
vn 0.7815 0.2747 -0.5601
vn 0.9123 0.3846 -0.1406
vn 0.6887 0.5230 0.5022
vn 0.2595 0.5452 0.7971
vn -0.2691 0.4993 0.8236
vn -0.7485 0.3857 0.5394
vn -0.9727 0.2322 -0.0018
vn 0.0000 1.0000 0.0000
vn -0.2864 0.0703 -0.9555
vn -0.8058 0.1068 -0.5825
vn -0.1183 -0.9892 0.0860
vn -0.7560 0.4309 -0.4927
vn -0.6949 0.5132 -0.5037
vn -0.7480 0.3900 -0.5370
vn -0.7785 0.2844 -0.5595
vn -0.1303 0.4163 -0.8998
vn -0.3473 0.5216 -0.7793
vn -0.2880 0.3799 -0.8790
vn -0.3061 0.1905 -0.9327
vn -0.8794 0.4604 -0.1212
vn -0.8561 0.5168 0.0006
vn -0.9007 0.3945 0.1820
vn -0.9315 0.3638 0.0028
vn -0.6315 0.4332 0.6430
vn -0.6908 0.5203 0.5021
vn -0.7338 0.4203 0.5337
vn -0.7380 0.4087 0.5370
vn -0.4195 0.4599 0.7827
vn -0.3543 0.5458 0.7593
vn -0.1584 0.4396 0.8841
vn -0.2802 0.4220 0.8622
vn 0.4529 0.4517 0.7686
vn 0.2550 0.5644 0.7851
vn 0.2401 0.4445 0.8630
vn 0.2612 0.4047 0.8763
vn 0.6107 0.4204 0.6710
vn 0.6831 0.5355 0.4966
vn 0.7215 0.4513 0.5252
vn 0.7486 0.3779 0.5447
vn 0.8792 0.4640 -0.1079
vn 0.8506 0.5105 0.1258
vn 0.9002 0.4323 -0.0518
vn 0.9516 0.3074 0.0028
vn 0.7458 0.4356 -0.5040
vn 0.6768 0.5488 -0.4908
vn 0.7301 0.3779 -0.5693
vn 0.6983 0.1779 -0.6933
vn 0.1304 0.4162 -0.8999
vn 0.2586 0.5482 -0.7954
vn 0.2873 0.3724 -0.8825
vn 0.3095 0.1208 -0.9432
vn 0.3507 -0.9025 0.2502
vn 0.2365 -0.6503 0.7219
vn 0.4048 -0.9144 -0.0030
vn 0.3099 -0.9234 -0.2264
vn 0.1162 -0.9270 -0.3566
vn -0.1164 -0.9246 -0.3628
vn -0.3218 -0.9164 -0.2381
vn -0.7106 -0.7036 -0.0045
vn -0.5920 -0.6844 0.4256
vn -0.2319 -0.6637 0.7111
vn -0.2435 -0.6181 0.7474
vn -0.6242 -0.6408 0.4469
vn -0.7438 -0.6684 -0.0065
vn -0.6011 -0.6663 -0.4412
vn -0.1931 -0.7758 -0.6008
vn 0.1890 -0.7910 -0.5819
vn 0.4553 -0.8249 -0.3350
vn 0.5131 -0.8583 -0.0070
vn 0.2463 -0.6184 0.7463
vn 0.6039 -0.6714 0.4296
vn -0.1673 -0.8418 0.5133
vn -0.3254 -0.9169 0.2311
vn -0.3655 -0.9308 -0.0062
vn -0.3138 -0.9202 -0.2342
vn -0.1845 -0.7985 -0.5730
vn 0.1791 -0.8141 -0.5524
vn 0.4940 -0.7903 -0.3625
vn 0.3915 -0.9202 -0.0061
vn 0.1671 -0.8468 0.5050
vn 0.3238 -0.9184 0.2274
vn -0.0746 -0.9706 0.2289
vn -0.1980 -0.9699 0.1417
vn -0.2497 -0.9683 -0.0024
vn -0.3638 -0.8925 -0.2666
vn -0.1306 -0.9051 -0.4047
vn 0.1188 -0.9229 -0.3662
vn 0.3083 -0.9241 -0.2257
vn 0.3779 -0.9258 -0.0024
vn 0.1159 -0.9285 0.3529
vn 0.3038 -0.9275 0.2178
vn -0.2029 -0.7543 0.6244
vn -0.3635 -0.8934 0.2641
vn -0.4474 -0.8943 -0.0000
vn -0.1834 -0.9740 -0.1332
vn -0.1818 -0.8085 -0.5596
vn 0.1651 -0.8454 -0.5080
vn 0.1930 -0.9711 -0.1402
vn 0.4800 -0.8772 0.0000
vn 0.2029 -0.7542 0.6245
vn 0.3293 -0.9134 0.2392
vn 0.1183 -0.9892 -0.0860
vn -0.1463 -0.9892 0.0000
vn -0.0452 -0.9892 0.1391
vn 0.1463 -0.9892 0.0000
vn -0.1183 -0.9892 -0.0860
vn 0.1183 -0.9892 0.0860
vn -0.0452 -0.9892 -0.1391
vn 0.0452 -0.9892 0.1391
vn 0.0452 -0.9892 -0.1391
vn -0.8086 0.0334 0.5875
vn 0.3088 0.0334 0.9505
vn 0.9994 0.0334 0.0000
vn 0.3088 0.0334 -0.9505
vn -0.8086 0.0334 -0.5875
vn -0.3088 0.0334 0.9505
vn -0.3088 0.0334 -0.9505
vn 0.0000 -1.0000 0.0000
vn -0.9994 0.0334 0.0000
vn 0.8086 0.0334 0.5875
vn 0.8086 0.0334 -0.5875
vn 0.8074 -0.0626 -0.5866
vn 0.8074 -0.0626 0.5866
vn -0.9980 -0.0626 0.0000
vn -0.3084 -0.0626 -0.9492
vn -0.3084 -0.0626 0.9492
vn -0.8074 -0.0626 -0.5866
vn 0.3084 -0.0626 -0.9492
vn 0.9980 -0.0626 0.0000
vn 0.3084 -0.0626 0.9492
vn -0.8074 -0.0626 0.5866
vn 0.3058 0.1428 -0.9413
vn 0.7781 0.2740 -0.5653
vn 0.9169 0.3990 0.0000
vn 0.6896 0.5230 0.5010
vn 0.2590 0.5453 0.7972
vn -0.2677 0.4994 0.8240
vn -0.7463 0.3861 0.5422
vn -0.9726 0.2324 0.0000
vn -0.3082 0.0730 -0.9485
vn -0.8044 0.1069 -0.5844
vn -0.7257 0.4444 -0.5252
vn -0.6977 0.5122 -0.5010
vn -0.7483 0.3899 -0.5367
vn -0.7768 0.2844 -0.5618
vn -0.2868 0.3794 -0.8797
vn -0.2609 0.5478 -0.7949
vn -0.2888 0.3797 -0.8789
vn -0.3049 0.1905 -0.9331
vn -0.9034 0.4289 0.0011
vn -0.8565 0.5161 0.0034
vn -0.9029 0.4299 0.0029
vn -0.9314 0.3639 -0.0008
vn -0.7071 0.4853 0.5142
vn -0.6904 0.5200 0.5030
vn -0.7343 0.4204 0.5330
vn -0.7398 0.4090 0.5343
vn -0.2803 0.4212 0.8626
vn -0.2635 0.5223 0.8111
vn -0.2746 0.4610 0.8439
vn -0.2812 0.4219 0.8619
vn 0.2824 0.4067 0.8688
vn 0.2547 0.5643 0.7853
vn 0.2757 0.4537 0.8474
vn 0.2841 0.3994 0.8716
vn 0.7065 0.4866 0.5139
vn 0.6824 0.5352 0.4978
vn 0.7212 0.4512 0.5257
vn 0.7488 0.3779 0.5445
vn 0.9004 0.4351 0.0011
vn 0.8360 0.5487 0.0036
vn 0.9057 0.4240 0.0046
vn 0.9516 0.3074 0.0036
vn 0.7254 0.4445 -0.5255
vn 0.6787 0.5480 -0.4889
vn 0.7541 0.3705 -0.5424
vn 0.7988 0.1739 -0.5760
vn 0.2861 0.3795 -0.8799
vn 0.2589 0.5481 -0.7953
vn 0.2874 0.3724 -0.8825
vn 0.3078 0.1205 -0.9438
vn 0.3527 -0.9020 0.2492
vn -0.2014 -0.7378 0.6443
vn 0.4053 -0.9142 -0.0043
vn 0.3098 -0.9233 -0.2269
vn 0.1162 -0.9270 -0.3565
vn -0.1159 -0.9245 -0.3632
vn -0.3215 -0.9162 -0.2393
vn -0.5396 -0.7525 0.3776
vn -0.5942 -0.6836 0.4239
vn -0.2328 -0.6635 0.7111
vn -0.1478 -0.5610 0.8145
vn -0.6290 -0.6387 0.4432
vn -0.7437 -0.6685 -0.0061
vn -0.6010 -0.6664 -0.4413
vn -0.3990 -0.6639 -0.6324
vn 0.1886 -0.7911 -0.5819
vn 0.4547 -0.8251 -0.3353
vn 0.6228 -0.6787 0.3891
vn 0.2469 -0.6183 0.7462
vn 0.6041 -0.6713 0.4294
vn -0.1675 -0.8418 0.5131
vn -0.3085 -0.8463 0.4343
vn -0.3856 -0.9221 0.0328
vn -0.3146 -0.9200 -0.2338
vn 0.0794 -0.8394 -0.5377
vn 0.1161 -0.7921 -0.5993
vn 0.4942 -0.7904 -0.3619
vn 0.5356 -0.7936 -0.2887
vn 0.1672 -0.8468 0.5049
vn 0.3092 -0.8550 0.4165
vn -0.1980 -0.9698 0.1426
vn -0.3906 -0.8938 -0.2203
vn -0.3641 -0.8927 -0.2655
vn -0.1310 -0.9052 -0.4044
vn 0.0837 -0.9098 -0.4065
vn 0.3092 -0.9239 -0.2254
vn 0.3786 -0.9255 -0.0011
vn 0.2247 -0.9484 0.2237
vn 0.3037 -0.9272 0.2191
vn 0.1228 -0.8378 0.5319
vn -0.3624 -0.9077 0.2117
vn -0.2869 -0.9369 0.1998
vn -0.1974 -0.8111 -0.5506
vn -0.4282 -0.8803 -0.2043
vn 0.3678 -0.9058 -0.2104
vn 0.2056 -0.8511 -0.4831
vn 0.3039 -0.9261 0.2236
vn -0.1229 -0.8379 0.5319
vn 0.4174 -0.8839 0.2108
usemtl GreenLeaves
s off
f 61//1 4//1 62//1
f 62//2 6//2 63//2
f 63//3 8//3 64//3
f 64//4 10//4 65//4
f 10//5 66//5 65//5
f 12//6 67//6 66//6
f 14//7 68//7 67//7
f 16//8 69//8 68//8
f 14//9 10//9 6//9
f 70//10 2//10 61//10
f 18//11 70//11 69//11
f 5//12 112//12 3//12
f 56//13 109//13 108//13
f 55//14 100//14 99//14
f 54//15 90//15 89//15
f 53//16 80//16 79//16
f 60//17 110//17 109//17
f 59//18 91//18 100//18
f 58//19 81//19 90//19
f 57//20 71//20 80//20
f 52//21 108//21 107//21
f 51//22 99//22 98//22
f 50//23 89//23 88//23
f 49//24 79//24 78//24
f 48//25 107//25 106//25
f 47//26 98//26 97//26
f 46//27 88//27 87//27
f 45//28 78//28 77//28
f 44//29 106//29 105//29
f 43//30 97//30 96//30
f 42//31 87//31 86//31
f 76//32 45//32 77//32
f 104//33 44//33 105//33
f 95//34 43//34 96//34
f 85//35 42//35 86//35
f 37//36 76//36 75//36
f 103//37 40//37 104//37
f 94//38 39//38 95//38
f 84//39 38//39 85//39
f 74//40 37//40 75//40
f 102//41 36//41 103//41
f 93//42 35//42 94//42
f 83//43 34//43 84//43
f 73//44 33//44 74//44
f 101//45 32//45 102//45
f 92//46 31//46 93//46
f 82//47 30//47 83//47
f 72//48 29//48 73//48
f 110//49 28//49 101//49
f 91//50 27//50 92//50
f 23//51 82//51 81//51
f 24//52 72//52 71//52
f 53//53 70//53 57//53
f 57//54 61//54 24//54
f 49//55 69//55 53//55
f 45//56 68//56 49//56
f 41//57 67//57 45//57
f 65//58 41//58 37//58
f 64//59 37//59 33//59
f 63//60 33//60 29//60
f 62//61 29//61 25//61
f 61//62 25//62 24//62
f 23//63 72//63 26//63
f 72//64 30//64 26//64
f 73//65 34//65 30//65
f 34//66 75//66 38//66
f 38//67 76//67 42//67
f 76//68 46//68 42//68
f 77//69 50//69 46//69
f 78//70 54//70 50//70
f 58//71 71//71 23//71
f 54//72 80//72 58//72
f 22//73 82//73 27//73
f 27//74 83//74 31//74
f 31//75 84//75 35//75
f 35//76 85//76 39//76
f 39//77 86//77 43//77
f 43//78 87//78 47//78
f 47//79 88//79 51//79
f 51//80 89//80 55//80
f 90//81 22//81 59//81
f 89//82 59//82 55//82
f 21//83 92//83 28//83
f 28//84 93//84 32//84
f 93//85 36//85 32//85
f 94//86 40//86 36//86
f 95//87 44//87 40//87
f 44//88 97//88 48//88
f 97//89 52//89 48//89
f 98//90 56//90 52//90
f 100//91 21//91 60//91
f 99//92 60//92 56//92
f 110//93 3//93 1//93
f 3//94 102//94 5//94
f 102//95 7//95 5//95
f 103//96 9//96 7//96
f 104//97 11//97 9//97
f 11//98 106//98 13//98
f 13//99 107//99 15//99
f 15//100 108//100 17//100
f 19//101 110//101 1//101
f 17//102 109//102 19//102
f 13//103 118//103 117//103
f 7//104 113//104 5//104
f 3//105 111//105 1//105
f 15//106 119//106 118//106
f 9//107 114//107 7//107
f 19//108 119//108 17//108
f 11//109 115//109 9//109
f 1//110 120//110 19//110
f 11//111 117//111 116//111
usemtl Trunck
f 140//112 125//112 131//112
f 138//113 130//113 134//113
f 139//114 127//114 137//114
f 135//115 128//115 129//115
f 133//116 122//116 123//116
f 131//117 126//117 138//117
f 132//118 129//118 122//118
f 121//119 126//119 124//119
f 133//120 124//120 140//120
f 134//121 121//121 139//121
f 136//122 127//122 128//122
f 112//123 137//123 136//123
f 115//124 139//124 114//124
f 119//125 140//125 118//125
f 120//126 135//126 132//126
f 117//127 138//127 116//127
f 119//128 132//128 133//128
f 111//129 136//129 135//129
f 114//130 137//130 113//130
f 116//131 134//131 115//131
f 118//132 131//132 117//132
usemtl GreenLeaves
f 61//133 2//133 4//133
f 62//134 4//134 6//134
f 63//135 6//135 8//135
f 64//136 8//136 10//136
f 10//137 12//137 66//137
f 12//138 14//138 67//138
f 14//139 16//139 68//139
f 16//140 18//140 69//140
f 6//9 4//9 2//9
f 2//9 20//9 18//9
f 18//9 16//9 14//9
f 14//9 12//9 10//9
f 10//9 8//9 6//9
f 6//9 2//9 18//9
f 18//9 14//9 6//9
f 70//141 20//141 2//141
f 18//142 20//142 70//142
f 5//12 113//12 112//12
f 56//143 60//143 109//143
f 55//144 59//144 100//144
f 54//145 58//145 90//145
f 53//146 57//146 80//146
f 60//147 21//147 110//147
f 59//148 22//148 91//148
f 58//149 23//149 81//149
f 57//150 24//150 71//150
f 52//151 56//151 108//151
f 51//152 55//152 99//152
f 50//153 54//153 89//153
f 49//154 53//154 79//154
f 48//155 52//155 107//155
f 47//156 51//156 98//156
f 46//157 50//157 88//157
f 45//158 49//158 78//158
f 44//159 48//159 106//159
f 43//160 47//160 97//160
f 42//161 46//161 87//161
f 76//162 41//162 45//162
f 104//163 40//163 44//163
f 95//164 39//164 43//164
f 85//165 38//165 42//165
f 37//166 41//166 76//166
f 103//167 36//167 40//167
f 94//168 35//168 39//168
f 84//169 34//169 38//169
f 74//170 33//170 37//170
f 102//171 32//171 36//171
f 93//172 31//172 35//172
f 83//173 30//173 34//173
f 73//174 29//174 33//174
f 101//175 28//175 32//175
f 92//176 27//176 31//176
f 82//177 26//177 30//177
f 72//178 25//178 29//178
f 110//179 21//179 28//179
f 91//180 22//180 27//180
f 23//181 26//181 82//181
f 24//182 25//182 72//182
f 53//183 69//183 70//183
f 57//184 70//184 61//184
f 49//185 68//185 69//185
f 45//186 67//186 68//186
f 41//187 66//187 67//187
f 65//188 66//188 41//188
f 64//189 65//189 37//189
f 63//190 64//190 33//190
f 62//191 63//191 29//191
f 61//192 62//192 25//192
f 23//193 71//193 72//193
f 72//194 73//194 30//194
f 73//195 74//195 34//195
f 34//196 74//196 75//196
f 38//197 75//197 76//197
f 76//198 77//198 46//198
f 77//199 78//199 50//199
f 78//200 79//200 54//200
f 58//201 80//201 71//201
f 54//202 79//202 80//202
f 22//203 81//203 82//203
f 27//204 82//204 83//204
f 31//205 83//205 84//205
f 35//206 84//206 85//206
f 39//207 85//207 86//207
f 43//208 86//208 87//208
f 47//209 87//209 88//209
f 51//210 88//210 89//210
f 90//211 81//211 22//211
f 89//212 90//212 59//212
f 21//83 91//83 92//83
f 28//213 92//213 93//213
f 93//214 94//214 36//214
f 94//215 95//215 40//215
f 95//216 96//216 44//216
f 44//217 96//217 97//217
f 97//218 98//218 52//218
f 98//219 99//219 56//219
f 100//220 91//220 21//220
f 99//221 100//221 60//221
f 110//222 101//222 3//222
f 3//223 101//223 102//223
f 102//224 103//224 7//224
f 103//225 104//225 9//225
f 104//226 105//226 11//226
f 11//227 105//227 106//227
f 13//228 106//228 107//228
f 15//229 107//229 108//229
f 19//230 109//230 110//230
f 17//231 108//231 109//231
f 13//103 15//103 118//103
f 7//104 114//104 113//104
f 3//105 112//105 111//105
f 15//106 17//106 119//106
f 9//107 115//107 114//107
f 19//108 120//108 119//108
f 11//109 116//109 115//109
f 1//110 111//110 120//110
f 11//111 13//111 117//111
usemtl Trunck
f 140//112 124//112 125//112
f 138//113 126//113 130//113
f 139//114 121//114 127//114
f 135//115 136//115 128//115
f 133//116 132//116 122//116
f 131//117 125//117 126//117
f 132//118 135//118 129//118
f 122//119 129//119 128//119
f 128//119 127//119 121//119
f 121//119 130//119 126//119
f 126//119 125//119 124//119
f 124//119 123//119 122//119
f 122//119 128//119 124//119
f 128//119 121//119 124//119
f 133//120 123//120 124//120
f 134//121 130//121 121//121
f 136//122 137//122 127//122
f 112//123 113//123 137//123
f 115//124 134//124 139//124
f 119//125 133//125 140//125
f 120//126 111//126 135//126
f 117//127 131//127 138//127
f 119//128 120//128 132//128
f 111//129 112//129 136//129
f 114//130 139//130 137//130
f 116//131 138//131 134//131
f 118//132 140//132 131//132
