# Blender v2.82 (sub 7) OBJ File: ''
# www.blender.org
mtllib f1_cylinder.mtl
o f1_Cylinder.039
v -37.971024 -7.953027 -0.979860
v -38.117542 -7.760839 -0.957374
v -38.114731 -7.757784 -0.975394
v -37.965542 -7.949981 -1.004353
v -38.102985 -7.750705 -0.984483
v -37.947071 -7.944199 -1.016984
v -38.089149 -7.743722 -0.979320
v -37.926369 -7.939028 -1.010364
v -38.081364 -7.740938 -0.962926
v -37.915627 -7.937537 -0.988362
v -38.084217 -7.744007 -0.944899
v -37.921207 -7.940649 -0.963854
v -38.096027 -7.751127 -0.935801
v -37.939774 -7.946494 -0.951207
v -38.109829 -7.758097 -0.940969
v -37.960381 -7.951602 -0.957842
v -37.856766 -8.701041 -0.997395
v -37.846561 -8.701121 -1.040799
v -37.809357 -8.701308 -1.063839
v -37.766914 -8.701485 -1.053023
v -37.744122 -8.701554 -1.014682
v -37.754368 -8.701485 -0.971272
v -37.791615 -8.701308 -0.948225
v -37.834015 -8.701121 -0.959048
v -37.775330 -8.449702 -0.959298
v -37.810959 -8.451415 -0.968649
v -37.831059 -8.201675 -0.959318
v -37.859043 -8.204794 -0.967332
v -37.830162 -8.452125 -1.001478
v -37.874054 -8.205858 -0.994742
v -37.744148 -8.447990 -0.978902
v -37.806484 -8.198318 -0.975398
v -37.735676 -8.447282 -1.015978
v -37.799789 -8.196754 -1.006139
v -37.754875 -8.447990 -1.048808
v -37.814915 -8.197915 -1.033532
v -37.790501 -8.449702 -1.058160
v -37.842922 -8.201056 -1.041541
v -37.821686 -8.451415 -1.038555
v -37.867386 -8.204317 -1.025479
v -38.168797 -7.939552 -0.949508
v -38.089294 -7.832329 -1.103709
v -37.997574 -7.832329 -0.921547
v -38.290878 -7.832329 -1.072771
v -38.142479 -7.832329 -0.778025
v -38.323750 -7.832329 -0.871489
v -38.195114 -7.658837 -1.120991
v -38.013840 -7.658837 -1.027527
v -38.046711 -7.658837 -0.826245
v -38.248299 -7.658837 -0.795307
v -38.340015 -7.658837 -0.977469
v -38.168797 -7.551613 -0.949508
vt -0.967140 0.582000
vt -0.967140 0.582000
vt -0.967140 0.582000
vt -0.967140 0.582000
vt -0.967140 0.582000
vt -0.967140 0.582000
vt -0.967140 0.582000
vt -0.967140 0.582000
vt -0.967140 0.582000
vt -0.967140 0.582000
vt -0.967140 0.582000
vt -0.967140 0.582000
vt -0.967140 0.582000
vt -0.967140 0.582000
vt -0.967140 0.582000
vt -0.967140 0.582000
vt -0.967140 0.582000
vt -0.967140 0.582000
vt -0.967140 0.582000
vt -0.967140 0.582000
vt -0.967140 0.582000
vt -0.967140 0.582000
vt -0.967140 0.582000
vt -0.967140 0.582000
vt -0.967140 0.582000
vt -0.967140 0.582000
vt -0.967140 0.582000
vt -0.967140 0.582000
vt -0.967140 0.582000
vt -0.967140 0.582000
vt -0.967140 0.582000
vt -0.967140 0.582000
vt -0.967140 0.582000
vt -0.967140 0.582000
vt -0.967140 0.582000
vt -0.967140 0.582000
vt -0.967140 0.582000
vt -0.967140 0.582000
vt -0.967140 0.582000
vt -0.967140 0.582000
vt -0.967140 0.582000
vt -0.967140 0.582000
vt -0.967140 0.582000
vt -0.967140 0.582000
vt -0.967140 0.582000
vt -0.967140 0.582000
vt -0.967140 0.582000
vt -0.967140 0.582000
vt -0.967140 0.582000
vt -0.967140 0.582000
vt -0.967140 0.582000
vt -0.967140 0.582000
vn -0.7832 -0.5709 -0.2463
vn -0.4902 -0.2550 -0.8335
vn 0.2136 0.3245 -0.9214
vn 0.6838 0.6252 -0.3762
vn 0.7561 0.6052 0.2490
vn 0.4676 0.3078 0.8286
vn -0.4716 0.8786 0.0748
vn -0.7145 -0.5853 0.3833
vn -0.2361 -0.2627 0.9356
vn -0.0045 -1.0000 0.0004
vn -0.2466 0.0600 0.9673
vn -0.2509 -0.0563 0.9664
vn -0.2581 -0.1403 0.9559
vn -0.8556 0.0998 0.5079
vn -0.8493 -0.1683 0.5004
vn -0.8177 -0.3445 0.4612
vn 0.5262 0.0034 0.8504
vn 0.5238 0.1189 0.8435
vn 0.5185 0.1936 0.8329
vn 0.9727 -0.0323 0.2297
vn 0.9469 0.2336 0.2209
vn 0.8971 0.3861 0.2150
vn 0.8591 -0.0323 -0.5108
vn 0.8371 0.2336 -0.4946
vn 0.7995 0.3887 -0.4579
vn 0.2470 0.0034 -0.9690
vn 0.2468 0.1180 -0.9619
vn 0.2498 0.1924 -0.9490
vn -0.5253 0.0599 -0.8488
vn -0.5293 -0.0550 -0.8467
vn -0.5311 -0.1354 -0.8364
vn -0.9686 0.0997 -0.2279
vn -0.9606 -0.1659 -0.2228
vn -0.9168 -0.3359 -0.2158
vn 0.5422 -0.7946 -0.2730
vn -0.0921 -0.7947 -0.6000
vn 0.4272 -0.7947 0.4313
vn -0.2782 -0.7947 0.5396
vn -0.5991 -0.7946 -0.0978
vn -0.1490 -0.1876 -0.9709
vn 0.8773 -0.1876 -0.4417
vn 0.6912 -0.1876 0.6979
vn -0.4501 -0.1876 0.8730
vn -0.9694 -0.1876 -0.1583
vn 0.4501 0.1876 -0.8730
vn 0.9694 0.1876 0.1583
vn 0.1490 0.1876 0.9709
vn -0.8773 0.1876 0.4417
vn -0.6912 0.1876 -0.6979
vn 0.2782 0.7946 -0.5396
vn 0.5991 0.7947 0.0978
vn 0.0921 0.7947 0.6000
vn -0.5422 0.7946 0.2730
vn -0.4272 0.7947 -0.4313
vn -0.7880 -0.5749 -0.2204
vn -0.4907 -0.2553 -0.8331
vn 0.1909 0.3102 -0.9313
vn 0.6631 0.6195 -0.4201
vn 0.7608 0.6091 0.2241
vn 0.4605 0.3025 0.8345
vn -0.4715 0.8787 0.0752
vn -0.4717 0.8785 0.0754
vn -0.4718 0.8785 0.0749
vn -0.4717 0.8785 0.0751
vn -0.6957 -0.5799 0.4240
vn -0.2236 -0.2547 0.9408
vn -0.0045 -1.0000 0.0006
vn -0.0044 -1.0000 0.0008
vn -0.0044 -1.0000 0.0010
vn -0.0045 -1.0000 0.0005
vn -0.2561 0.0590 0.9649
vn -0.2689 -0.0576 0.9614
vn -0.2708 -0.1441 0.9518
vn -0.8599 0.0987 0.5009
vn -0.8621 -0.1667 0.4786
vn -0.8359 -0.3457 0.4264
vn 0.5321 0.0040 0.8467
vn 0.5321 0.1196 0.8382
vn 0.5108 0.1910 0.8382
vn 0.9745 -0.0312 0.2221
vn 0.9475 0.2335 0.2182
vn 0.8884 0.3843 0.2511
vn 0.8631 -0.0312 -0.5041
vn 0.8472 0.2326 -0.4776
vn 0.8169 0.3897 -0.4253
vn 0.2537 0.0040 -0.9673
vn 0.2606 0.1190 -0.9581
vn 0.2546 0.1938 -0.9474
vn -0.5336 0.0590 -0.8437
vn -0.5428 -0.0560 -0.8380
vn -0.5301 -0.1350 -0.8371
vn -0.9705 0.0987 -0.2200
vn -0.9620 -0.1655 -0.2170
vn -0.9099 -0.3345 -0.2453
usemtl GreenLeaves
s off
f 1/1/1 3/2/1 4/3/1
f 4/3/2 5/4/2 6/5/2
f 6/5/3 7/6/3 8/7/3
f 8/7/4 9/8/4 10/9/4
f 9/8/5 12/10/5 10/9/5
f 11/11/6 14/12/6 12/10/6
f 9/8/7 7/6/7 3/2/7
f 15/13/8 1/1/8 16/14/8
f 13/15/9 16/14/9 14/12/9
f 22/16/10 23/17/10 24/18/10
f 23/17/11 26/19/11 24/18/11
f 27/20/12 26/19/12 25/21/12
f 14/12/13 28/22/13 27/20/13
f 24/18/14 29/23/14 17/24/14
f 28/22/15 29/23/15 26/19/15
f 16/14/16 30/25/16 28/22/16
f 22/16/17 25/21/17 23/17/17
f 32/26/18 25/21/18 31/27/18
f 12/10/19 27/20/19 32/26/19
f 21/28/20 31/27/20 22/16/20
f 34/29/21 31/27/21 33/30/21
f 10/9/22 32/26/22 34/29/22
f 35/31/23 21/28/23 20/32/23
f 35/31/24 34/29/24 33/30/24
f 36/33/25 10/9/25 34/29/25
f 37/34/26 20/32/26 19/35/26
f 37/34/27 36/33/27 35/31/27
f 38/36/28 8/7/28 36/33/28
f 39/37/29 19/35/29 18/38/29
f 39/37/30 38/36/30 37/34/30
f 40/39/31 6/5/31 38/36/31
f 29/23/32 18/38/32 17/24/32
f 29/23/33 40/39/33 39/37/33
f 30/25/34 4/3/34 40/39/34
usemtl Material.001
f 41/40/35 42/41/35 43/42/35
f 42/41/36 41/40/36 44/43/36
f 41/40/37 43/42/37 45/44/37
f 41/40/38 45/44/38 46/45/38
f 41/40/39 46/45/39 44/43/39
f 42/41/40 44/43/40 47/46/40
f 43/42/41 42/41/41 48/47/41
f 45/44/42 43/42/42 49/48/42
f 46/45/43 45/44/43 50/49/43
f 44/43/44 46/45/44 51/50/44
f 42/41/45 47/46/45 48/47/45
f 43/42/46 48/47/46 49/48/46
f 45/44/47 49/48/47 50/49/47
f 46/45/48 50/49/48 51/50/48
f 44/43/49 51/50/49 47/46/49
f 48/47/50 47/46/50 52/51/50
f 49/48/51 48/47/51 52/51/51
f 50/49/52 49/48/52 52/51/52
f 51/50/53 50/49/53 52/51/53
f 47/46/54 51/50/54 52/51/54
usemtl GreenLeaves
f 1/1/55 2/52/55 3/2/55
f 4/3/56 3/2/56 5/4/56
f 6/5/57 5/4/57 7/6/57
f 8/7/58 7/6/58 9/8/58
f 9/8/59 11/11/59 12/10/59
f 11/11/60 13/15/60 14/12/60
f 5/4/61 3/2/61 7/6/61
f 3/2/62 2/52/62 9/8/62
f 2/52/63 15/13/63 11/11/63
f 15/13/64 13/15/64 11/11/64
f 11/11/63 9/8/63 2/52/63
f 15/13/65 2/52/65 1/1/65
f 13/15/66 15/13/66 16/14/66
f 24/18/67 17/24/67 22/16/67
f 17/24/68 18/38/68 20/32/68
f 18/38/69 19/35/69 20/32/69
f 20/32/68 21/28/68 17/24/68
f 21/28/70 22/16/70 17/24/70
f 23/17/71 25/21/71 26/19/71
f 27/20/72 28/22/72 26/19/72
f 14/12/73 16/14/73 28/22/73
f 24/18/74 26/19/74 29/23/74
f 28/22/75 30/25/75 29/23/75
f 16/14/76 1/1/76 30/25/76
f 22/16/77 31/27/77 25/21/77
f 32/26/78 27/20/78 25/21/78
f 12/10/79 14/12/79 27/20/79
f 21/28/80 33/30/80 31/27/80
f 34/29/81 32/26/81 31/27/81
f 10/9/82 12/10/82 32/26/82
f 35/31/83 33/30/83 21/28/83
f 35/31/84 36/33/84 34/29/84
f 36/33/85 8/7/85 10/9/85
f 37/34/86 35/31/86 20/32/86
f 37/34/87 38/36/87 36/33/87
f 38/36/88 6/5/88 8/7/88
f 39/37/89 37/34/89 19/35/89
f 39/37/90 40/39/90 38/36/90
f 40/39/91 4/3/91 6/5/91
f 29/23/92 39/37/92 18/38/92
f 29/23/93 30/25/93 40/39/93
f 30/25/94 1/1/94 4/3/94
