# Blender v2.82 (sub 7) OBJ File: ''
# www.blender.org
mtllib f4_cylinder.mtl
o f4_Cylinder.043
v -35.172867 -7.953027 -1.409292
v -35.319386 -7.760839 -1.386805
v -35.316574 -7.757784 -1.404826
v -35.167385 -7.949981 -1.433785
v -35.304829 -7.750705 -1.413914
v -35.148914 -7.944199 -1.446416
v -35.290993 -7.743722 -1.408752
v -35.128212 -7.939028 -1.439796
v -35.283207 -7.740938 -1.392358
v -35.117470 -7.937537 -1.417793
v -35.286060 -7.744007 -1.374331
v -35.123051 -7.940649 -1.393285
v -35.297871 -7.751127 -1.365233
v -35.141617 -7.946494 -1.380639
v -35.311672 -7.758097 -1.370400
v -35.162224 -7.951602 -1.387274
v -35.058609 -8.701041 -1.426827
v -35.048405 -8.701121 -1.470231
v -35.011200 -8.701308 -1.493271
v -34.968758 -8.701485 -1.482455
v -34.945965 -8.701554 -1.444114
v -34.956211 -8.701485 -1.400703
v -34.993458 -8.701308 -1.377657
v -35.035858 -8.701121 -1.388480
v -34.977173 -8.449702 -1.388730
v -35.012802 -8.451415 -1.398081
v -35.032902 -8.201675 -1.388750
v -35.060886 -8.204794 -1.396764
v -35.032005 -8.452125 -1.430910
v -35.075897 -8.205858 -1.424174
v -34.945992 -8.447990 -1.408334
v -35.008327 -8.198318 -1.404830
v -34.937519 -8.447282 -1.445410
v -35.001633 -8.196754 -1.435571
v -34.956718 -8.447990 -1.478240
v -35.016758 -8.197915 -1.462964
v -34.992344 -8.449702 -1.487591
v -35.044765 -8.201056 -1.470973
v -35.023529 -8.451415 -1.467987
v -35.069229 -8.204317 -1.454911
v -35.370640 -7.939552 -1.378940
v -35.291138 -7.832328 -1.533141
v -35.199417 -7.832329 -1.350979
v -35.492725 -7.832328 -1.502203
v -35.327271 -7.801441 -1.216041
v -35.525597 -7.832329 -1.300921
v -35.396957 -7.658836 -1.550423
v -35.215683 -7.658837 -1.456959
v -35.265606 -7.689724 -1.247092
v -35.450142 -7.658837 -1.224739
v -35.541859 -7.658837 -1.406901
v -35.370640 -7.551613 -1.378940
v -35.184689 -7.764647 -1.493498
v -35.260143 -8.076233 -1.569680
v -35.128670 -8.026269 -1.540727
v -35.159897 -8.098070 -1.572256
v -35.268436 -7.929917 -1.546626
v -35.490753 -7.929917 -1.512507
v -35.358948 -8.143267 -1.591844
v -35.457466 -8.143267 -1.576725
v -35.580742 -7.956428 -1.583130
v -35.625957 -7.956428 -1.306268
v -35.644833 -8.032796 -1.521626
v -35.654957 -8.032796 -1.459634
v -35.616016 -7.928910 -1.231902
v -35.399513 -7.928910 -1.120274
v -35.600624 -7.989720 -1.156094
v -35.522446 -7.989720 -1.115786
v -35.298557 -7.955656 -1.115233
v -35.131386 -7.955656 -1.280811
v -35.218704 -8.009522 -1.136064
v -35.154125 -8.009522 -1.200027
v -35.206116 -7.898021 -1.146103
v -35.098351 -7.719831 -1.123429
v -35.143017 -7.876710 -1.132127
v -35.088203 -7.786077 -1.120594
v -35.513172 -7.881966 -1.198392
v -35.407864 -7.639837 -1.092071
v -35.450577 -7.821777 -1.115890
v -35.413700 -7.736991 -1.078659
v -35.626263 -7.600049 -1.283359
v -35.605759 -7.818777 -1.149747
v -35.649071 -7.646712 -1.160618
v -35.641422 -7.728306 -1.110776
v -35.224892 -7.645152 -1.578495
v -35.466625 -7.477882 -1.456785
v -35.331299 -7.573084 -1.648621
v -35.439850 -7.497972 -1.593968
v -35.206150 -7.663200 -1.106964
v -35.336388 -7.491947 -1.270451
v -35.239182 -7.575164 -1.055881
v -35.300179 -7.494959 -1.132449
v -35.506958 -7.600624 -1.149794
v -35.406353 -7.464939 -1.344926
v -35.581673 -7.435532 -1.222214
v -35.550323 -7.393255 -1.283013
v -35.431995 -7.608860 -1.677990
v -35.629910 -7.608860 -1.481962
v -35.533653 -7.619895 -1.688669
v -35.603077 -7.619895 -1.619909
v -35.372044 -7.890706 -1.603900
v -35.516048 -7.654610 -1.627419
v -35.504341 -7.869821 -1.677284
v -35.561317 -7.776412 -1.686589
v -35.569355 -7.883872 -1.404445
v -35.627655 -7.678021 -1.291367
v -35.708202 -7.864278 -1.318202
v -35.730999 -7.783783 -1.273985
v -35.086193 -7.886113 -1.440624
v -35.102459 -7.712619 -1.546603
v -35.054688 -7.966207 -1.522120
v -35.062752 -7.880155 -1.574686
vt -0.967140 0.582000
vt -0.967140 0.582000
vt -0.967140 0.582000
vt -0.967140 0.582000
vt -0.967140 0.582000
vt -0.967140 0.582000
vt -0.967140 0.582000
vt -0.967140 0.582000
vt -0.967140 0.582000
vt -0.967140 0.582000
vt -0.967140 0.582000
vt -0.967140 0.582000
vt -0.967140 0.582000
vt -0.967140 0.582000
vt -0.967140 0.582000
vt -0.967140 0.582000
vt -0.967140 0.582000
vt -0.967140 0.582000
vt -0.967140 0.582000
vt -0.967140 0.582000
vt -0.967140 0.582000
vt -0.967140 0.582000
vt -0.967140 0.582000
vt -0.967140 0.582000
vt -0.967140 0.582000
vt -0.967140 0.582000
vt -0.967140 0.582000
vt -0.967140 0.582000
vt -0.967140 0.582000
vt -0.967140 0.582000
vt -0.967140 0.582000
vt -0.967140 0.582000
vt -0.967140 0.582000
vt -0.967140 0.582000
vt -0.967140 0.582000
vt -0.967140 0.582000
vt -0.967140 0.582000
vt -0.967140 0.582000
vt -0.967140 0.582000
vt -0.967140 0.582000
vt -0.967140 0.582000
vt -0.967140 0.582000
vt -0.967140 0.582000
vt -0.967140 0.582000
vt -0.967140 0.582000
vt -0.967140 0.582000
vt -0.967140 0.582000
vt -0.967140 0.582000
vt -0.967140 0.582000
vt -0.967140 0.582000
vt -0.967140 0.582000
vt -0.967140 0.582000
vt -0.967140 0.582000
vt -0.967140 0.582000
vt -0.967140 0.582000
vt -0.967140 0.582000
vt -0.967140 0.582000
vt -0.967140 0.582000
vt -0.967140 0.582000
vt -0.967140 0.582000
vt -0.967140 0.582000
vt -0.967140 0.582000
vt -0.967140 0.582000
vt -0.967140 0.582000
vt -0.967140 0.582000
vt -0.967140 0.582000
vt -0.967140 0.582000
vt -0.967140 0.582000
vt -0.967140 0.582000
vt -0.967140 0.582000
vt -0.967140 0.582000
vt -0.967140 0.582000
vt -0.967140 0.582000
vt -0.967140 0.582000
vt -0.967140 0.582000
vt -0.967140 0.582000
vt -0.967140 0.582000
vt -0.967140 0.582000
vt -0.967140 0.582000
vt -0.967140 0.582000
vt -0.967140 0.582000
vt -0.967140 0.582000
vt -0.967140 0.582000
vt -0.967140 0.582000
vt -0.967140 0.582000
vt -0.967140 0.582000
vt -0.967140 0.582000
vt -0.967140 0.582000
vt -0.967140 0.582000
vt -0.967140 0.582000
vt -0.967140 0.582000
vt -0.967140 0.582000
vt -0.967140 0.582000
vt -0.967140 0.582000
vt -0.967140 0.582000
vt -0.967140 0.582000
vt -0.967140 0.582000
vt -0.967140 0.582000
vt -0.967140 0.582000
vt -0.967140 0.582000
vt -0.967140 0.582000
vt -0.967140 0.582000
vt -0.967140 0.582000
vt -0.967140 0.582000
vt -0.967140 0.582000
vt -0.967140 0.582000
vt -0.967140 0.582000
vt -0.967140 0.582000
vt -0.967140 0.582000
vt -0.967140 0.582000
vt -0.967140 0.582000
vt -0.967140 0.582000
vn -0.7832 -0.5709 -0.2463
vn -0.4902 -0.2550 -0.8335
vn 0.2136 0.3245 -0.9215
vn 0.6838 0.6252 -0.3762
vn 0.7561 0.6052 0.2490
vn 0.4676 0.3077 0.8287
vn -0.4716 0.8786 0.0748
vn -0.7145 -0.5853 0.3833
vn -0.2361 -0.2627 0.9356
vn -0.0045 -1.0000 0.0004
vn -0.2466 0.0600 0.9672
vn -0.2509 -0.0563 0.9664
vn -0.2581 -0.1403 0.9559
vn -0.8556 0.0998 0.5079
vn -0.8493 -0.1683 0.5004
vn -0.8177 -0.3446 0.4612
vn 0.5262 0.0034 0.8504
vn 0.5238 0.1189 0.8435
vn 0.5185 0.1935 0.8329
vn 0.9727 -0.0323 0.2296
vn 0.9469 0.2336 0.2208
vn 0.8971 0.3861 0.2150
vn 0.8591 -0.0323 -0.5108
vn 0.8371 0.2336 -0.4946
vn 0.7995 0.3887 -0.4579
vn 0.2470 0.0034 -0.9690
vn 0.2468 0.1180 -0.9619
vn 0.2498 0.1924 -0.9490
vn -0.5253 0.0599 -0.8488
vn -0.5292 -0.0550 -0.8467
vn -0.5311 -0.1354 -0.8364
vn -0.9686 0.0997 -0.2279
vn -0.9606 -0.1659 -0.2228
vn -0.9168 -0.3359 -0.2158
vn 0.5422 -0.7946 -0.2730
vn -0.0921 -0.7947 -0.6000
vn 0.3836 -0.7523 0.5357
vn -0.1703 -0.7288 0.6632
vn -0.5991 -0.7947 -0.0978
vn -0.1490 -0.1876 -0.9709
vn 0.8773 -0.1876 -0.4417
vn 0.6912 -0.1876 0.6979
vn -0.3489 -0.2454 0.9045
vn -0.9694 -0.1876 -0.1583
vn 0.4501 0.1876 -0.8730
vn 0.9343 0.2455 0.2584
vn 0.1490 0.1876 0.9709
vn -0.8773 0.1876 0.4417
vn -0.6912 0.1876 -0.6979
vn 0.2782 0.7947 -0.5396
vn 0.6342 0.7288 0.2581
vn 0.2019 0.7523 0.6272
vn -0.5422 0.7947 0.2730
vn -0.4272 0.7947 -0.4313
vn 0.2446 0.1740 -0.9539
vn 0.0590 0.3797 -0.9232
vn -0.1509 0.1008 -0.9834
vn -0.1463 0.2641 -0.9533
vn -0.7688 0.6271 -0.1255
vn -0.8091 0.5727 -0.1321
vn -0.3747 0.6832 0.6268
vn -0.3253 0.7043 0.6310
vn 0.6377 0.6154 0.4633
vn 0.5580 0.6094 0.5633
vn -0.5511 0.2313 0.8017
vn -0.2189 0.0082 0.9757
vn -0.9229 0.2906 0.2525
vn -0.8321 0.1246 0.5404
vn 0.8447 0.3345 0.4179
vn 0.9300 0.2511 0.2683
vn 0.5843 0.8102 0.0470
vn 0.5654 0.8247 -0.0104
vn -0.8696 -0.2618 0.4185
vn -0.8657 -0.4509 0.2173
vn -0.8379 -0.1380 -0.5280
vn -0.5438 -0.5311 -0.6497
vn 0.2799 0.9175 0.2826
vn -0.0972 0.9904 -0.0981
vn 0.5326 0.2441 -0.8104
vn 0.4995 0.2212 -0.8376
vn -0.8067 0.0922 -0.5837
vn -0.4667 0.3206 -0.8243
vn 0.6771 0.4288 0.5980
vn 0.9639 0.1987 0.1774
vn -0.7880 -0.5749 -0.2204
vn -0.4907 -0.2553 -0.8331
vn 0.1909 0.3103 -0.9313
vn 0.6631 0.6194 -0.4202
vn 0.7608 0.6091 0.2241
vn 0.4605 0.3025 0.8345
vn -0.4716 0.8786 0.0752
vn -0.4717 0.8785 0.0754
vn -0.4718 0.8785 0.0749
vn -0.4717 0.8785 0.0751
vn -0.6957 -0.5799 0.4240
vn -0.2236 -0.2547 0.9408
vn -0.0045 -1.0000 0.0006
vn -0.0044 -1.0000 0.0008
vn -0.0044 -1.0000 0.0010
vn -0.0045 -1.0000 0.0005
vn -0.2561 0.0590 0.9649
vn -0.2689 -0.0576 0.9614
vn -0.2708 -0.1441 0.9518
vn -0.8599 0.0987 0.5009
vn -0.8621 -0.1667 0.4786
vn -0.8359 -0.3457 0.4264
vn 0.5321 0.0040 0.8467
vn 0.5321 0.1196 0.8382
vn 0.5108 0.1910 0.8382
vn 0.9745 -0.0312 0.2221
vn 0.9475 0.2335 0.2182
vn 0.8884 0.3843 0.2511
vn 0.8631 -0.0312 -0.5041
vn 0.8472 0.2326 -0.4776
vn 0.8169 0.3897 -0.4252
vn 0.2537 0.0040 -0.9673
vn 0.2606 0.1190 -0.9581
vn 0.2546 0.1938 -0.9474
vn -0.5336 0.0590 -0.8437
vn -0.5427 -0.0560 -0.8380
vn -0.5301 -0.1351 -0.8371
vn -0.9705 0.0987 -0.2200
vn -0.9620 -0.1655 -0.2170
vn -0.9099 -0.3346 -0.2452
vn 0.1195 0.3552 -0.9271
vn 0.1359 0.2041 -0.9695
vn -0.8091 0.5726 -0.1321
vn -0.3138 0.7288 0.6086
vn 0.6046 0.5116 0.6105
vn 0.5580 0.6093 0.5634
vn -0.2225 0.3731 0.9007
vn -0.9229 0.2905 0.2525
vn 0.9301 0.2510 0.2683
vn -0.8379 -0.1381 -0.5280
vn -0.5439 -0.5311 -0.6497
vn -0.0972 0.9904 -0.0982
vn -0.4667 0.3206 -0.8242
vn 0.6772 0.4288 0.5980
vn 0.9639 0.1986 0.1774
usemtl GreenLeaves
s off
f 1/1/1 3/2/1 4/3/1
f 4/3/2 5/4/2 6/5/2
f 6/5/3 7/6/3 8/7/3
f 8/7/4 9/8/4 10/9/4
f 9/8/5 12/10/5 10/9/5
f 11/11/6 14/12/6 12/10/6
f 9/8/7 7/6/7 3/2/7
f 15/13/8 1/1/8 16/14/8
f 13/15/9 16/14/9 14/12/9
f 22/16/10 23/17/10 24/18/10
f 23/17/11 26/19/11 24/18/11
f 27/20/12 26/19/12 25/21/12
f 14/12/13 28/22/13 27/20/13
f 24/18/14 29/23/14 17/24/14
f 28/22/15 29/23/15 26/19/15
f 16/14/16 30/25/16 28/22/16
f 22/16/17 25/21/17 23/17/17
f 32/26/18 25/21/18 31/27/18
f 12/10/19 27/20/19 32/26/19
f 21/28/20 31/27/20 22/16/20
f 34/29/21 31/27/21 33/30/21
f 10/9/22 32/26/22 34/29/22
f 35/31/23 21/28/23 20/32/23
f 35/31/24 34/29/24 33/30/24
f 36/33/25 10/9/25 34/29/25
f 37/34/26 20/32/26 19/35/26
f 37/34/27 36/33/27 35/31/27
f 38/36/28 8/7/28 36/33/28
f 39/37/29 19/35/29 18/38/29
f 39/37/30 38/36/30 37/34/30
f 40/39/31 6/5/31 38/36/31
f 29/23/32 18/38/32 17/24/32
f 29/23/33 40/39/33 39/37/33
f 30/25/34 4/3/34 40/39/34
usemtl blue
f 41/40/35 42/41/35 43/42/35
f 42/41/36 41/40/36 44/43/36
f 41/40/37 43/42/37 45/44/37
f 41/40/38 45/44/38 46/45/38
f 41/40/39 46/45/39 44/43/39
f 42/41/40 44/43/40 47/46/40
f 43/42/41 42/41/41 48/47/41
f 45/44/42 43/42/42 49/48/42
f 46/45/43 45/44/43 50/49/43
f 44/43/44 46/45/44 51/50/44
f 42/41/45 47/46/45 48/47/45
f 43/42/46 48/47/46 49/48/46
f 45/44/47 49/48/47 50/49/47
f 46/45/48 50/49/48 51/50/48
f 44/43/49 51/50/49 47/46/49
f 48/47/50 47/46/50 52/51/50
f 49/48/51 48/47/51 52/51/51
f 50/49/52 49/48/52 52/51/52
f 51/50/53 50/49/53 52/51/53
f 47/46/54 51/50/54 52/51/54
f 42/41/55 53/52/55 54/53/55
f 54/53/56 55/54/56 56/55/56
f 42/41/57 58/56/57 44/43/57
f 58/56/58 59/57/58 60/58/58
f 44/43/59 62/59/59 46/45/59
f 61/60/60 64/61/60 62/59/60
f 46/45/61 66/62/61 45/44/61
f 65/63/62 68/64/62 66/62/62
f 45/44/63 70/65/63 43/42/63
f 69/66/64 72/67/64 70/65/64
f 49/48/65 73/68/65 74/69/65
f 74/69/66 75/70/66 76/71/66
f 50/49/67 77/72/67 78/73/67
f 78/73/68 79/74/68 80/75/68
f 46/45/69 81/76/69 82/77/69
f 82/77/70 83/78/70 84/79/70
f 52/51/71 85/80/71 86/81/71
f 86/81/72 87/82/72 88/83/72
f 49/48/73 90/84/73 52/51/73
f 89/85/74 92/86/74 90/84/74
f 50/49/75 94/87/75 52/51/75
f 94/87/76 95/88/76 96/89/76
f 47/46/77 98/90/77 51/50/77
f 97/91/78 100/92/78 98/90/78
f 47/46/79 101/93/79 102/94/79
f 102/94/80 103/95/80 104/96/80
f 51/50/81 105/97/81 106/98/81
f 106/98/82 107/99/82 108/100/82
f 43/42/83 110/101/83 48/47/83
f 109/102/84 112/103/84 110/101/84
usemtl GreenLeaves
f 1/1/85 2/104/85 3/2/85
f 4/3/86 3/2/86 5/4/86
f 6/5/87 5/4/87 7/6/87
f 8/7/88 7/6/88 9/8/88
f 9/8/89 11/11/89 12/10/89
f 11/11/90 13/15/90 14/12/90
f 5/4/91 3/2/91 7/6/91
f 3/2/92 2/104/92 9/8/92
f 2/104/93 15/13/93 11/11/93
f 15/13/94 13/15/94 11/11/94
f 11/11/93 9/8/93 2/104/93
f 15/13/95 2/104/95 1/1/95
f 13/15/96 15/13/96 16/14/96
f 24/18/97 17/24/97 22/16/97
f 17/24/98 18/38/98 20/32/98
f 18/38/99 19/35/99 20/32/99
f 20/32/98 21/28/98 17/24/98
f 21/28/100 22/16/100 17/24/100
f 23/17/101 25/21/101 26/19/101
f 27/20/102 28/22/102 26/19/102
f 14/12/103 16/14/103 28/22/103
f 24/18/104 26/19/104 29/23/104
f 28/22/105 30/25/105 29/23/105
f 16/14/106 1/1/106 30/25/106
f 22/16/107 31/27/107 25/21/107
f 32/26/108 27/20/108 25/21/108
f 12/10/109 14/12/109 27/20/109
f 21/28/110 33/30/110 31/27/110
f 34/29/111 32/26/111 31/27/111
f 10/9/112 12/10/112 32/26/112
f 35/31/113 33/30/113 21/28/113
f 35/31/114 36/33/114 34/29/114
f 36/33/115 8/7/115 10/9/115
f 37/34/116 35/31/116 20/32/116
f 37/34/117 38/36/117 36/33/117
f 38/36/118 6/5/118 8/7/118
f 39/37/119 37/34/119 19/35/119
f 39/37/120 40/39/120 38/36/120
f 40/39/121 4/3/121 6/5/121
f 29/23/122 39/37/122 18/38/122
f 29/23/123 30/25/123 40/39/123
f 30/25/124 1/1/124 4/3/124
usemtl blue
f 42/41/125 48/47/125 53/52/125
f 54/53/126 53/52/126 55/54/126
f 42/41/57 57/105/57 58/56/57
f 58/56/58 57/105/58 59/57/58
f 44/43/59 61/60/59 62/59/59
f 61/60/127 63/106/127 64/61/127
f 46/45/128 65/63/128 66/62/128
f 65/63/62 67/107/62 68/64/62
f 45/44/129 69/66/129 70/65/129
f 69/66/130 71/108/130 72/67/130
f 49/48/131 45/44/131 73/68/131
f 74/69/66 73/68/66 75/70/66
f 50/49/132 46/45/132 77/72/132
f 78/73/68 77/72/68 79/74/68
f 46/45/69 51/50/69 81/76/69
f 82/77/133 81/76/133 83/78/133
f 52/51/71 48/47/71 85/80/71
f 86/81/72 85/80/72 87/82/72
f 49/48/73 89/85/73 90/84/73
f 89/85/74 91/109/74 92/86/74
f 50/49/134 93/110/134 94/87/134
f 94/87/135 93/110/135 95/88/135
f 47/46/77 97/91/77 98/90/77
f 97/91/136 99/111/136 100/92/136
f 47/46/79 42/41/79 101/93/79
f 102/94/80 101/93/80 103/95/80
f 51/50/81 44/43/81 105/97/81
f 106/98/137 105/97/137 107/99/137
f 43/42/138 109/102/138 110/101/138
f 109/102/139 111/112/139 112/103/139
