# Blender v2.82 (sub 7) OBJ File: 'Forest.blendD379C932-11C9-4E09-B687-B4B439D4B66E.blend'
# www.blender.org
mtllib Forest.blendD379C932-11C9-4E09-B687-B4B439D4B66E.mtl
o t4-green_Cylinder.006
v 52.641449 -5.430186 1.445972
v 52.437714 1.456703 1.599276
v 52.767143 -5.430186 1.034850
v 52.452778 1.456703 1.550007
v 53.110481 -5.430186 0.776125
v 52.493923 1.456703 1.519001
v 53.540325 -5.430186 0.768623
v 52.545437 1.456703 1.518101
v 53.892483 -5.430186 1.015207
v 52.587639 1.456703 1.547653
v 54.032448 -5.430186 1.421692
v 52.604416 1.456703 1.596367
v 53.906754 -5.430186 1.832814
v 52.589352 1.456703 1.645636
v 53.563416 -5.430186 2.091539
v 52.548203 1.456703 1.676642
v 53.133572 -5.430186 2.099042
v 52.496693 1.456703 1.677542
v 52.781414 -5.430186 1.852457
v 52.454487 1.456703 1.647990
v 52.746891 -4.099150 1.444132
v 52.823029 -2.715365 1.442803
v 52.806213 -1.303991 1.441683
v 52.628357 0.101201 1.394435
v 52.672085 0.101196 1.251965
v 52.870430 -1.304072 1.232017
v 52.907742 -2.715496 1.165957
v 52.852100 -4.099231 1.100147
v 52.791641 0.100936 1.162488
v 53.046394 -1.305153 1.100198
v 53.139606 -2.716696 0.991723
v 53.139702 -4.099831 0.883668
v 52.941555 0.100371 1.160262
v 53.267014 -1.307070 1.096562
v 53.430126 -2.718617 0.986652
v 53.499855 -4.100741 0.877382
v 53.064453 0.099714 1.246053
v 53.447926 -1.308945 1.222490
v 53.668285 -2.720457 1.152681
v 53.794983 -4.101604 1.083690
v 53.113331 0.099371 1.387115
v 53.519978 -1.309999 1.429872
v 53.763069 -2.721416 1.426394
v 53.912331 -4.102037 1.423789
v 53.069576 0.099401 1.529576
v 53.455700 -1.309840 1.639528
v 53.678307 -2.721193 1.703241
v 53.807106 -4.101933 1.767773
v 52.949871 0.099820 1.619011
v 53.279556 -1.308448 1.771344
v 53.446327 -2.719789 1.877476
v 53.519482 -4.101295 1.984253
v 52.799900 0.100481 1.621239
v 53.058929 -1.306519 1.774980
v 53.155796 -2.717848 1.882548
v 53.159325 -4.100370 1.990539
v 52.677139 0.101007 1.535489
v 52.878075 -1.304729 1.649057
v 52.917683 -2.716090 1.716517
v 52.864212 -4.099539 1.784231
v 52.431267 -0.278624 1.383956
v 52.517921 -0.278728 1.102423
v 52.754963 -0.279741 0.925833
v 53.064655 -0.106292 0.945881
v 53.308121 -0.108036 1.115662
v 53.405018 -0.109004 1.394594
v 53.318386 -0.108902 1.676141
v 53.081306 -0.107769 1.852754
v 52.784267 -0.105949 1.856963
v 52.540836 -0.104320 1.687158
v 52.495682 -1.719887 1.601035
v 52.678345 -1.581013 1.067082
v 52.978851 -1.697055 0.728042
v 53.378460 -1.700688 0.721067
v 53.706158 -1.704219 0.949117
v 53.733574 -1.416499 1.456820
v 53.617107 -1.416131 1.837100
v 53.298130 -1.413615 2.076437
v 52.953651 -1.724876 2.205057
v 52.626057 -1.721531 1.977005
v 52.400089 -3.198154 1.465407
v 52.548454 -3.198473 0.980700
v 53.037006 -3.059090 0.658985
v 53.474106 -3.052768 0.629196
v 53.890820 -3.055514 0.919888
v 54.116974 -3.237729 1.363477
v 54.039906 -3.246651 1.869099
v 53.634007 -3.244653 2.174148
v 53.065205 -3.060841 2.218657
v 52.565849 -3.199502 1.944630
v 52.311020 -4.401808 1.451740
v 52.494389 -4.401916 0.852152
v 52.995441 -4.402491 0.474819
v 53.789940 -4.598345 0.460951
v 54.303894 -4.598995 0.820568
v 54.508190 -4.599298 1.413388
v 54.166946 -4.497045 2.015731
v 53.665966 -4.496598 2.393063
v 53.038670 -4.495857 2.404012
v 52.524662 -4.495111 2.044397
v 52.454269 -5.755234 0.810357
v 52.993473 -5.779511 0.416663
v 53.662415 -5.647881 0.396877
v 54.199379 -5.894938 0.789625
v 54.431320 -5.655036 1.414801
v 54.224831 -5.848897 2.050151
v 53.698452 -5.655036 2.461442
v 53.029564 -5.803888 2.463910
v 52.476570 -5.755234 2.087874
v 52.273090 -5.958835 1.452471
v 52.852119 -5.401065 1.442295
v 52.939739 -5.401065 1.155703
v 53.179081 -5.401065 0.975347
v 53.478722 -5.401065 0.970117
v 53.724209 -5.401065 1.142010
v 53.821777 -5.401065 1.425370
v 53.734158 -5.401065 1.711961
v 53.494816 -5.401065 1.892317
v 53.195175 -5.401065 1.897547
v 52.949688 -5.401065 1.725654
v 52.767544 -8.633509 1.443772
v 52.870445 -8.633509 1.107185
v 53.151539 -8.633509 0.895367
v 53.503452 -8.633509 0.889224
v 53.791767 -8.633509 1.091104
v 53.906353 -8.633509 1.423895
v 53.803452 -8.633509 1.760481
v 53.522358 -8.633509 1.972299
v 53.170444 -8.633509 1.978442
v 52.882130 -8.633509 1.776562
v 53.624859 -7.017287 1.216877
v 53.442348 -7.017287 1.089083
v 53.049038 -7.017287 1.650788
v 53.231548 -7.017287 1.778582
v 53.219582 -7.017287 1.092971
v 53.041641 -7.017287 1.227057
v 53.454315 -7.017287 1.774694
v 53.632256 -7.017287 1.640608
v 53.697395 -7.017287 1.427541
v 52.976501 -7.017287 1.440124
vn -0.9551 0.0399 -0.2937
vn -0.5878 0.1811 -0.7885
vn -0.0990 0.3105 -0.9454
vn 0.5156 0.4404 -0.7350
vn 0.8368 0.4651 -0.2889
vn 0.8714 0.4110 0.2678
vn 0.5745 0.2824 0.7683
vn 0.0152 0.1169 0.9930
vn 0.0000 1.0000 -0.0000
vn -0.9336 -0.0417 0.3558
vn -0.5723 -0.0111 0.8199
vn 0.0865 -0.9896 0.1149
vn -0.5347 0.2678 0.8015
vn -0.5513 0.2677 0.7902
vn -0.5266 0.2110 0.8235
vn -0.5577 0.2100 0.8030
vn -0.9338 0.2514 0.2547
vn -0.8980 0.2684 0.3487
vn -0.9252 0.2025 0.3208
vn -0.9395 0.1054 0.3259
vn -0.0320 0.2796 0.9596
vn 0.0176 0.2805 0.9597
vn 0.1136 0.2327 0.9659
vn 0.0597 0.3054 0.9504
vn 0.6273 0.2806 0.7265
vn 0.5754 0.2927 0.7637
vn 0.5796 0.2662 0.7702
vn 0.5622 0.3549 0.7470
vn 0.8964 0.2827 0.3413
vn 0.8657 0.3236 0.3818
vn 0.9369 0.2943 0.1887
vn 0.8863 0.3752 0.2714
vn 0.8793 0.2777 -0.3870
vn 0.8845 0.3531 -0.3048
vn 0.8988 0.2876 -0.3308
vn 0.8954 0.3584 -0.2641
vn 0.6144 0.2757 -0.7393
vn 0.5433 0.3210 -0.7758
vn 0.5511 0.2762 -0.7874
vn -0.0600 0.2810 -0.9578
vn 0.0347 0.2824 -0.9587
vn -0.0508 0.2483 -0.9674
vn -0.0145 0.2335 -0.9723
vn -0.5666 0.2691 -0.7788
vn -0.5761 0.2840 -0.7664
vn -0.5804 0.2024 -0.7887
vn -0.6994 0.0874 -0.7093
vn -0.9422 0.2513 -0.2218
vn -0.9187 0.2775 -0.2811
vn -0.9373 0.1974 -0.2871
vn -0.9498 0.0323 -0.3112
vn 0.4052 -0.7013 -0.5865
vn 0.8532 -0.5112 -0.1038
vn -0.0137 -0.7516 -0.6595
vn -0.3701 -0.7881 -0.4918
vn -0.5694 -0.8032 -0.1748
vn -0.5732 -0.7955 0.1965
vn -0.3714 -0.7656 0.5252
vn 0.1877 -0.5807 0.7922
vn 0.5213 -0.4867 0.7010
vn 0.8536 -0.4499 0.2626
vn 0.7988 -0.5808 0.1568
vn 0.4398 -0.6599 0.6092
vn 0.0062 -0.6892 0.7245
vn -0.4207 -0.6857 0.5940
vn -0.5783 -0.7263 0.3716
vn -0.4290 -0.8938 -0.1306
vn -0.2352 -0.9231 -0.3041
vn 0.3098 -0.7914 -0.5270
vn 0.7258 -0.6392 -0.2542
vn 0.4011 -0.7038 -0.5863
vn 0.7379 -0.6358 0.2262
vn 0.5139 -0.6436 0.5672
vn 0.0378 -0.7152 0.6979
vn -0.4179 -0.6889 0.5923
vn -0.7789 -0.5956 0.1964
vn -0.8039 -0.5692 -0.1726
vn -0.5017 -0.5547 -0.6638
vn -0.1735 -0.5928 -0.7864
vn 0.7222 -0.6444 -0.2515
vn 0.4731 -0.6553 -0.5889
vn 0.5638 -0.8077 0.1726
vn 0.3546 -0.8068 0.4726
vn -0.1113 -0.7232 0.6816
vn -0.4021 -0.7142 0.5729
vn -0.6237 -0.7517 0.2144
vn -0.6360 -0.7397 -0.2200
vn -0.4157 -0.7239 -0.5507
vn -0.0133 -0.7209 -0.6929
vn 0.5856 -0.7592 -0.2840
vn 0.3981 -0.7179 -0.5711
vn 0.7651 -0.6361 0.1000
vn 0.3917 -0.7322 0.5572
vn 0.1092 -0.7851 0.6096
vn -0.5243 -0.7231 0.4497
vn -0.5807 -0.7215 0.3771
vn -0.5782 -0.7495 -0.3224
vn -0.5011 -0.7487 -0.4339
vn 0.0985 -0.7695 -0.6310
vn 0.7612 -0.6361 -0.1266
vn 0.3664 -0.7203 -0.5890
vn 0.5693 0.1221 -0.8130
vn -0.0865 -0.9896 -0.1149
vn 0.0025 -0.9896 0.1438
vn 0.1375 -0.9896 0.0420
vn -0.0025 -0.9896 -0.1438
vn -0.0825 -0.9896 0.1178
vn 0.0825 -0.9896 -0.1178
vn -0.1360 -0.9896 0.0468
vn 0.1360 -0.9896 -0.0468
vn -0.1375 -0.9896 -0.0420
vn 0.0000 -1.0000 0.0000
vn -0.5693 0.1221 0.8130
vn -0.5973 0.1221 -0.7927
vn 0.5973 0.1221 0.7927
vn 0.9385 0.1221 -0.3231
vn -0.9385 0.1221 0.3231
vn -0.0173 0.1221 -0.9924
vn 0.0173 0.1221 0.9924
vn -0.9492 0.1221 -0.2902
vn 0.9492 0.1221 0.2902
vn 0.9538 -0.0730 0.2916
vn -0.9538 -0.0730 -0.2916
vn 0.0174 -0.0730 0.9972
vn -0.0174 -0.0730 -0.9972
vn -0.9430 -0.0730 0.3247
vn 0.9430 -0.0730 -0.3247
vn 0.6002 -0.0730 0.7965
vn -0.6002 -0.0730 -0.7965
vn -0.5720 -0.0730 0.8170
vn 0.5720 -0.0730 -0.8170
usemtl GreenLeaves
s off
f 61//1 2//1 4//1 62//1
f 62//2 4//2 6//2 63//2
f 63//3 6//3 8//3 64//3
f 64//4 8//4 10//4 65//4
f 65//5 10//5 12//5 66//5
f 66//6 12//6 14//6 67//6
f 67//7 14//7 16//7 68//7
f 68//8 16//8 18//8 69//8
f 4//9 2//9 20//9 18//9 16//9 14//9 12//9 10//9 8//9 6//9
f 70//10 20//10 2//10 61//10
f 69//11 18//11 20//11 70//11
f 3//12 5//12 113//12 112//12
f 108//13 56//13 60//13 109//13
f 99//14 55//14 59//14 100//14
f 89//15 54//15 58//15 90//15
f 79//16 53//16 57//16 80//16
f 109//17 60//17 21//17 110//17
f 100//18 59//18 22//18 91//18
f 90//19 58//19 23//19 81//19
f 80//20 57//20 24//20 71//20
f 107//21 52//21 56//21 108//21
f 98//22 51//22 55//22 99//22
f 88//23 50//23 54//23 89//23
f 78//24 49//24 53//24 79//24
f 106//25 48//25 52//25 107//25
f 97//26 47//26 51//26 98//26
f 87//27 46//27 50//27 88//27
f 77//28 45//28 49//28 78//28
f 105//29 44//29 48//29 106//29
f 96//30 43//30 47//30 97//30
f 86//31 42//31 46//31 87//31
f 76//32 41//32 45//32 77//32
f 104//33 40//33 44//33 105//33
f 95//34 39//34 43//34 96//34
f 85//35 38//35 42//35 86//35
f 75//36 37//36 41//36 76//36
f 103//37 36//37 40//37 104//37
f 94//38 35//38 39//38 95//38
f 84//39 34//39 38//39 85//39
f 74//38 33//38 37//38 75//38
f 102//40 32//40 36//40 103//40
f 93//41 31//41 35//41 94//41
f 83//42 30//42 34//42 84//42
f 73//43 29//43 33//43 74//43
f 101//44 28//44 32//44 102//44
f 92//45 27//45 31//45 93//45
f 82//46 26//46 30//46 83//46
f 72//47 25//47 29//47 73//47
f 110//48 21//48 28//48 101//48
f 91//49 22//49 27//49 92//49
f 81//50 23//50 26//50 82//50
f 71//51 24//51 25//51 72//51
f 53//52 69//52 70//52 57//52
f 57//53 70//53 61//53 24//53
f 49//54 68//54 69//54 53//54
f 45//55 67//55 68//55 49//55
f 41//56 66//56 67//56 45//56
f 37//57 65//57 66//57 41//57
f 33//58 64//58 65//58 37//58
f 29//59 63//59 64//59 33//59
f 25//60 62//60 63//60 29//60
f 24//61 61//61 62//61 25//61
f 23//62 71//62 72//62 26//62
f 26//63 72//63 73//63 30//63
f 30//64 73//64 74//64 34//64
f 34//65 74//65 75//65 38//65
f 38//66 75//66 76//66 42//66
f 42//67 76//67 77//67 46//67
f 46//68 77//68 78//68 50//68
f 50//69 78//69 79//69 54//69
f 58//70 80//70 71//70 23//70
f 54//71 79//71 80//71 58//71
f 22//72 81//72 82//72 27//72
f 27//73 82//73 83//73 31//73
f 31//74 83//74 84//74 35//74
f 35//75 84//75 85//75 39//75
f 39//76 85//76 86//76 43//76
f 43//77 86//77 87//77 47//77
f 47//78 87//78 88//78 51//78
f 51//79 88//79 89//79 55//79
f 59//80 90//80 81//80 22//80
f 55//81 89//81 90//81 59//81
f 21//82 91//82 92//82 28//82
f 28//83 92//83 93//83 32//83
f 32//84 93//84 94//84 36//84
f 36//85 94//85 95//85 40//85
f 40//86 95//86 96//86 44//86
f 44//87 96//87 97//87 48//87
f 48//88 97//88 98//88 52//88
f 52//89 98//89 99//89 56//89
f 60//90 100//90 91//90 21//90
f 56//91 99//91 100//91 60//91
f 1//92 110//92 101//92 3//92
f 3//93 101//93 102//93 5//93
f 5//94 102//94 103//94 7//94
f 7//95 103//95 104//95 9//95
f 9//96 104//96 105//96 11//96
f 11//97 105//97 106//97 13//97
f 13//98 106//98 107//98 15//98
f 15//99 107//99 108//99 17//99
f 19//100 109//100 110//100 1//100
f 17//101 108//101 109//101 19//101
usemtl Trunck
f 132//102 131//102 125//102 124//102
usemtl GreenLeaves
f 13//103 15//103 118//103 117//103
f 5//104 7//104 114//104 113//104
f 1//105 3//105 112//105 111//105
f 15//106 17//106 119//106 118//106
f 7//107 9//107 115//107 114//107
f 17//108 19//108 120//108 119//108
f 9//109 11//109 116//109 115//109
f 19//110 1//110 111//110 120//110
f 11//111 13//111 117//111 116//111
usemtl Trunck
f 121//112 122//112 123//112 124//112 125//112 126//112 127//112 128//112 129//112 130//112
f 134//113 133//113 130//113 129//113
f 136//114 135//114 123//114 122//114
f 138//115 137//115 128//115 127//115
f 131//116 139//116 126//116 125//116
f 133//117 140//117 121//117 130//117
f 135//118 132//118 124//118 123//118
f 137//119 134//119 129//119 128//119
f 140//120 136//120 122//120 121//120
f 139//121 138//121 127//121 126//121
f 116//122 117//122 138//122 139//122
f 111//123 112//123 136//123 140//123
f 118//124 119//124 134//124 137//124
f 113//125 114//125 132//125 135//125
f 120//126 111//126 140//126 133//126
f 115//127 116//127 139//127 131//127
f 117//128 118//128 137//128 138//128
f 112//129 113//129 135//129 136//129
f 119//130 120//130 133//130 134//130
f 114//131 115//131 131//131 132//131
