# Blender v2.82 (sub 7) OBJ File: ''
# www.blender.org
mtllib g1-yellow_cube.mtl
o g1-yellow_Cube.010
v -29.694105 -7.863170 2.293513
v -29.805054 -7.863170 2.310541
v -29.837526 -8.697628 2.435215
v -29.625740 -8.697628 2.402713
v -29.824255 -7.863170 2.185433
v -29.892620 -8.697628 2.076233
v -29.713305 -7.863170 2.168406
v -29.680834 -8.697628 2.043730
v -29.623688 -7.220420 2.154652
v -29.604488 -7.220420 2.279760
v -29.734638 -7.220420 2.171680
v -29.847977 -6.658939 2.189074
v -29.737028 -6.658939 2.172046
v -29.715439 -7.220420 2.296787
v -29.828777 -6.658939 2.314182
v -29.717827 -6.658939 2.297154
vt -0.967140 0.582000
vt -0.967140 0.582000
vt -0.967140 0.582000
vt -0.967140 0.582000
vt -0.967140 0.582000
vt -0.967140 0.582000
vt -0.967140 0.582000
vt -0.967140 0.582000
vt -0.967140 0.582000
vt -0.967140 0.582000
vt -0.967140 0.582000
vt -0.967140 0.582000
vt -0.967140 0.582000
vt -0.967140 0.582000
vt -0.967140 0.582000
vt -0.967140 0.582000
vn 0.1502 0.1404 0.9786
vn -0.9866 0.0610 0.1514
vn -0.1502 0.1404 -0.9786
vn 0.9866 0.0610 -0.1514
vn 0.0000 -1.0000 0.0000
vn 0.9787 -0.1397 -0.1502
vn -0.1517 -0.0000 -0.9884
vn -0.9787 0.1397 0.1502
vn 0.1517 0.0000 0.9884
vn 0.0000 1.0000 -0.0000
vn 0.9684 0.2001 -0.1486
vn -0.9684 -0.2001 0.1486
usemtl Material.002
s off
f 2/1/1 4/2/1 1/3/1
f 2/1/2 6/4/2 3/5/2
f 5/6/3 8/7/3 6/4/3
f 7/8/4 4/2/4 8/7/4
f 3/5/5 8/7/5 4/2/5
f 1/3/6 9/9/6 10/10/6
f 11/11/7 13/12/7 9/9/7
f 7/8/7 11/11/7 9/9/7
f 2/1/8 11/11/8 5/6/8
f 1/3/9 14/13/9 2/1/9
f 12/14/10 16/15/10 13/12/10
f 9/9/11 16/15/11 10/10/11
f 14/13/9 16/15/9 15/16/9
f 14/13/12 12/14/12 11/11/12
f 2/1/1 3/5/1 4/2/1
f 2/1/2 5/6/2 6/4/2
f 5/6/3 7/8/3 8/7/3
f 7/8/4 1/3/4 4/2/4
f 3/5/5 6/4/5 8/7/5
f 1/3/6 7/8/6 9/9/6
f 11/11/7 12/14/7 13/12/7
f 7/8/7 5/6/7 11/11/7
f 2/1/8 14/13/8 11/11/8
f 1/3/9 10/10/9 14/13/9
f 12/14/10 15/16/10 16/15/10
f 9/9/11 13/12/11 16/15/11
f 14/13/9 10/10/9 16/15/9
f 14/13/12 15/16/12 12/14/12
