# Blender v2.82 (sub 7) OBJ File: ''
# www.blender.org
mtllib g2-green_cube.mtl
o g2-green_Cube.005
v -30.361719 -8.347762 6.019878
v -30.484055 -8.347762 6.038653
v -30.539137 -8.716783 6.166799
v -30.305618 -8.716783 6.130960
v -30.503254 -8.347762 5.913547
v -30.594231 -8.716783 5.807817
v -30.380919 -8.347762 5.894772
v -30.360710 -8.716783 5.771978
v -30.505888 -7.431661 5.913949
v -30.486689 -7.431661 6.039059
v -30.628223 -7.431661 5.932724
v -30.546848 -6.678093 5.920237
v -30.424513 -6.678093 5.901462
v -30.609024 -7.431661 6.057833
v -30.527649 -6.678093 6.045344
v -30.405313 -6.678093 6.026570
vt -0.967140 0.582000
vt -0.967140 0.582000
vt -0.967140 0.582000
vt -0.967140 0.582000
vt -0.967140 0.582000
vt -0.967140 0.582000
vt -0.967140 0.582000
vt -0.967140 0.582000
vt -0.967140 0.582000
vt -0.967140 0.582000
vt -0.967140 0.582000
vt -0.967140 0.582000
vt -0.967140 0.582000
vt -0.967140 0.582000
vt -0.967140 0.582000
vt -0.967140 0.582000
vn 0.1445 0.3053 0.9412
vn -0.9692 0.1963 0.1487
vn -0.1445 0.3053 -0.9412
vn 0.9831 0.1041 -0.1509
vn 0.0000 -1.0000 0.0000
vn 0.9791 0.1367 -0.1503
vn -0.1517 0.0000 -0.9884
vn -0.9791 -0.1367 0.1503
vn 0.1517 -0.0000 0.9884
vn 0.0000 1.0000 -0.0000
vn 0.9826 -0.1086 -0.1508
vn -0.9826 0.1086 0.1508
vn 0.9831 0.1040 -0.1509
usemtl GreenLeaves
s off
f 2/1/1 4/2/1 1/3/1
f 2/1/2 6/4/2 3/5/2
f 5/6/3 8/7/3 6/4/3
f 1/3/4 8/7/4 7/8/4
f 4/2/5 6/4/5 8/7/5
f 1/3/6 9/9/6 10/10/6
f 9/9/7 12/11/7 13/12/7
f 5/6/7 9/9/7 7/8/7
f 2/1/8 11/13/8 5/6/8
f 2/1/9 10/10/9 14/14/9
f 12/11/10 16/15/10 13/12/10
f 10/10/11 13/12/11 16/15/11
f 10/10/9 15/16/9 14/14/9
f 14/14/12 12/11/12 11/13/12
f 2/1/1 3/5/1 4/2/1
f 2/1/2 5/6/2 6/4/2
f 5/6/3 7/8/3 8/7/3
f 1/3/13 4/2/13 8/7/13
f 4/2/5 3/5/5 6/4/5
f 1/3/6 7/8/6 9/9/6
f 9/9/7 11/13/7 12/11/7
f 5/6/7 11/13/7 9/9/7
f 2/1/8 14/14/8 11/13/8
f 2/1/9 1/3/9 10/10/9
f 12/11/10 15/16/10 16/15/10
f 10/10/11 9/9/11 13/12/11
f 10/10/9 16/15/9 15/16/9
f 14/14/12 15/16/12 12/11/12
