# Blender v2.82 (sub 7) OBJ File: ''
# www.blender.org
mtllib g2-yellow_cube.mtl
o g2-yellow_Cube.009
v -30.905081 -8.328608 2.479362
v -31.027416 -8.328608 2.498136
v -31.082499 -8.697628 2.626281
v -30.848980 -8.697628 2.590443
v -31.046616 -8.328608 2.373028
v -31.137592 -8.697628 2.267298
v -30.924280 -8.328608 2.354254
v -30.904072 -8.697628 2.231461
v -31.049250 -7.412507 2.373433
v -31.030050 -7.412507 2.498541
v -31.171585 -7.412507 2.392208
v -31.090210 -6.658939 2.379719
v -30.967875 -6.658939 2.360944
v -31.152386 -7.412507 2.517315
v -31.071011 -6.658939 2.504827
v -30.948675 -6.658939 2.486052
vt -0.967140 0.582000
vt -0.967140 0.582000
vt -0.967140 0.582000
vt -0.967140 0.582000
vt -0.967140 0.582000
vt -0.967140 0.582000
vt -0.967140 0.582000
vt -0.967140 0.582000
vt -0.967140 0.582000
vt -0.967140 0.582000
vt -0.967140 0.582000
vt -0.967140 0.582000
vt -0.967140 0.582000
vt -0.967140 0.582000
vt -0.967140 0.582000
vt -0.967140 0.582000
vn 0.1444 0.3053 0.9412
vn -0.9692 0.1963 0.1487
vn -0.1444 0.3053 -0.9412
vn 0.9831 0.1040 -0.1509
vn 0.0000 -1.0000 0.0000
vn 0.9791 0.1367 -0.1503
vn -0.1517 0.0000 -0.9884
vn -0.9791 -0.1367 0.1503
vn 0.1517 -0.0000 0.9884
vn 0.0000 1.0000 -0.0000
vn 0.9826 -0.1086 -0.1508
vn -0.9826 0.1086 0.1508
vn 0.1445 0.3053 0.9412
usemtl Material.002
s off
f 2/1/1 4/2/1 1/3/1
f 2/1/2 6/4/2 3/5/2
f 5/6/3 8/7/3 6/4/3
f 7/8/4 4/2/4 8/7/4
f 4/2/5 6/4/5 8/7/5
f 1/3/6 9/9/6 10/10/6
f 9/9/7 12/11/7 13/12/7
f 5/6/7 9/9/7 7/8/7
f 2/1/8 11/13/8 5/6/8
f 2/1/9 10/10/9 14/14/9
f 12/11/10 16/15/10 13/12/10
f 10/10/11 13/12/11 16/15/11
f 10/10/9 15/16/9 14/14/9
f 11/13/12 15/16/12 12/11/12
f 2/1/13 3/5/13 4/2/13
f 2/1/2 5/6/2 6/4/2
f 5/6/3 7/8/3 8/7/3
f 7/8/4 1/3/4 4/2/4
f 4/2/5 3/5/5 6/4/5
f 1/3/6 7/8/6 9/9/6
f 9/9/7 11/13/7 12/11/7
f 5/6/7 11/13/7 9/9/7
f 2/1/8 14/14/8 11/13/8
f 2/1/9 1/3/9 10/10/9
f 12/11/10 15/16/10 16/15/10
f 10/10/11 9/9/11 13/12/11
f 10/10/9 16/15/9 15/16/9
f 11/13/12 14/14/12 15/16/12
