# Blender v2.82 (sub 7) OBJ File: ''
# www.blender.org
mtllib g5-green_cube.mtl
o g5-green_Cube.008
v -34.040462 -8.267726 6.546091
v -34.226852 -8.267726 6.574696
v -34.179203 -8.716783 6.615356
v -34.073662 -8.716783 6.599160
v -34.234547 -8.267726 6.524549
v -34.201286 -8.716783 6.471470
v -34.048161 -8.267726 6.495944
v -34.095745 -8.716783 6.455274
v -33.835369 -6.946275 6.451366
v -33.824097 -6.946275 6.524807
v -33.908134 -6.946275 6.462533
v -33.896862 -6.946275 6.535974
vt -0.967140 0.582000
vt -0.967140 0.582000
vt -0.967140 0.582000
vt -0.967140 0.582000
vt -0.967140 0.582000
vt -0.967140 0.582000
vt -0.967140 0.582000
vt -0.967140 0.582000
vt -0.967140 0.582000
vt -0.967140 0.582000
vt -0.967140 0.582000
vt -0.967140 0.582000
vn 0.1509 0.1050 0.9830
vn -0.9844 -0.0908 0.1510
vn -0.1509 0.1050 -0.9830
vn 0.9844 -0.0906 -0.1511
vn 0.0000 -1.0000 0.0000
vn 0.9754 -0.1621 -0.1497
vn 0.0000 1.0000 0.0000
vn -0.1517 -0.0089 -0.9884
vn -0.9586 0.2437 0.1471
vn 0.1517 -0.0089 0.9884
vn -0.9843 -0.0908 0.1511
vn -0.1508 0.1050 -0.9830
vn 0.9844 -0.0907 -0.1511
vn 0.9753 -0.1621 -0.1497
usemtl GreenLeaves
s off
f 1/1/1 3/2/1 4/3/1
f 5/4/2 3/2/2 2/5/2
f 7/6/3 6/7/3 5/4/3
f 7/6/4 4/3/4 8/8/4
f 3/2/5 8/8/5 4/3/5
f 1/1/6 9/9/6 10/10/6
f 9/9/7 12/11/7 10/10/7
f 7/6/8 11/12/8 9/9/8
f 5/4/9 12/11/9 11/12/9
f 1/1/10 12/11/10 2/5/10
f 1/1/1 2/5/1 3/2/1
f 5/4/11 6/7/11 3/2/11
f 7/6/12 8/8/12 6/7/12
f 7/6/13 1/1/13 4/3/13
f 3/2/5 6/7/5 8/8/5
f 1/1/14 7/6/14 9/9/14
f 9/9/7 11/12/7 12/11/7
f 7/6/8 5/4/8 11/12/8
f 5/4/9 2/5/9 12/11/9
f 1/1/10 10/10/10 12/11/10
