# Blender v2.82 (sub 7) OBJ File: ''
# www.blender.org
mtllib g6-green_cylinder.mtl
o g6-green_Cylinder.010
v -35.043751 -8.559990 6.527708
v -35.009411 -8.562803 6.456943
v -34.908798 -8.564707 6.414240
v -34.801228 -8.564169 6.424900
v -34.748566 -8.563932 6.482406
v -34.781559 -8.564169 6.553057
v -34.880981 -8.564707 6.595482
v -34.989769 -8.562803 6.584917
v -35.010311 -8.021211 6.607018
v -35.129200 -8.003452 6.598976
v -35.341545 -7.376235 6.632266
v -35.421772 -7.378590 6.625721
v -35.811951 -6.835301 6.674395
v -35.845470 -6.846552 6.670675
v -35.185253 -7.993573 6.549424
v -35.462532 -7.375565 6.591978
v -35.861332 -6.851125 6.653182
v -34.894398 -8.037594 6.566016
v -35.253181 -7.377193 6.603374
v -35.779308 -6.823745 6.661396
v -34.852062 -8.045031 6.498290
v -35.212368 -7.381699 6.553585
v -35.767914 -6.818867 6.638844
v -34.912762 -8.037594 6.446375
v -35.266235 -7.377193 6.518326
v -35.785549 -6.823745 6.620748
v -35.035633 -8.021211 6.442019
v -35.359196 -7.376235 6.517262
v -35.820583 -6.835301 6.618135
v -35.146641 -8.003452 6.485343
v -35.433765 -7.378590 6.547564
v -35.851448 -6.846552 6.631737
v -35.941265 -6.705426 6.665449
vt -0.967140 0.582000
vt -0.967140 0.582000
vt -0.967140 0.582000
vt -0.967140 0.582000
vt -0.967140 0.582000
vt -0.967140 0.582000
vt -0.967140 0.582000
vt -0.967140 0.582000
vt -0.967140 0.582000
vt -0.967140 0.582000
vt -0.967140 0.582000
vt -0.967140 0.582000
vt -0.967140 0.582000
vt -0.967140 0.582000
vt -0.967140 0.582000
vt -0.967140 0.582000
vt -0.967140 0.582000
vt -0.967140 0.582000
vt -0.967140 0.582000
vt -0.967140 0.582000
vt -0.967140 0.582000
vt -0.967140 0.582000
vt -0.967140 0.582000
vt -0.967140 0.582000
vt -0.967140 0.582000
vt -0.967140 0.582000
vt -0.967140 0.582000
vt -0.967140 0.582000
vt -0.967140 0.582000
vt -0.967140 0.582000
vt -0.967140 0.582000
vt -0.967140 0.582000
vt -0.967140 0.582000
vn 0.0051 -1.0000 -0.0008
vn -0.0973 -0.0443 0.9943
vn -0.0791 -0.0795 0.9937
vn -0.0763 -0.1432 0.9868
vn -0.7180 -0.1958 0.6679
vn -0.6563 -0.3362 0.6754
vn -0.5710 -0.5091 0.6441
vn 0.3915 0.0613 0.9181
vn 0.3474 0.1363 0.9277
vn 0.3068 0.1939 0.9318
vn 0.8934 0.1654 0.4178
vn 0.7978 0.3954 0.4553
vn 0.6574 0.5752 0.4868
vn 0.7270 0.1654 -0.6664
vn 0.6245 0.3954 -0.6736
vn 0.4812 0.5751 -0.6616
vn 0.0981 0.0613 -0.9933
vn 0.0532 0.1363 -0.9892
vn 0.0132 0.1939 -0.9809
vn -0.3910 -0.0443 -0.9193
vn -0.3734 -0.0795 -0.9242
vn -0.3687 -0.1432 -0.9185
vn -0.8853 -0.1958 -0.4218
vn -0.8287 -0.3362 -0.4475
vn -0.7378 -0.5091 -0.4432
vn -0.7973 -0.3993 -0.4526
vn -0.3936 -0.0311 -0.9188
vn -0.0331 0.3148 -0.9486
vn 0.3861 0.7240 -0.5715
vn 0.5397 0.7241 0.4294
vn 0.2529 0.3148 0.9149
vn -0.6248 -0.3993 0.6709
vn -0.0999 -0.0310 0.9945
vn -0.0621 -0.9980 0.0095
vn -0.0178 -0.9998 0.0027
vn 0.0054 -1.0000 -0.0008
vn -0.0739 -0.0435 0.9963
vn -0.0787 -0.0794 0.9937
vn -0.0645 -0.1349 0.9888
vn -0.6687 -0.1946 0.7176
vn -0.6171 -0.3262 0.7161
vn -0.5681 -0.5076 0.6478
vn 0.3405 0.0611 0.9382
vn 0.3096 0.1221 0.9430
vn 0.3039 0.1915 0.9333
vn 0.8441 0.1683 0.5091
vn 0.7353 0.3673 0.5695
vn 0.6661 0.5847 0.4630
vn 0.6525 0.1683 -0.7388
vn 0.5307 0.3673 -0.7638
vn 0.4965 0.5847 -0.6415
vn 0.0435 0.0611 -0.9972
vn 0.0126 0.1221 -0.9924
vn 0.0100 0.1916 -0.9814
vn -0.3692 -0.0435 -0.9283
vn -0.3731 -0.0794 -0.9244
vn -0.3580 -0.1349 -0.9239
vn -0.8531 -0.1946 -0.4841
vn -0.8034 -0.3262 -0.4981
vn -0.7362 -0.5076 -0.4476
usemtl GreenLeaves
s off
f 6/1/1 7/2/1 4/3/1
f 9/4/2 8/5/2 7/2/2
f 11/6/3 10/7/3 9/4/3
f 13/8/4 12/9/4 11/6/4
f 10/7/5 1/10/5 8/5/5
f 12/9/6 15/11/6 10/7/6
f 14/12/7 16/13/7 12/9/7
f 18/14/8 7/2/8 6/1/8
f 19/15/9 9/4/9 18/14/9
f 20/16/10 11/6/10 19/15/10
f 21/17/11 6/1/11 5/18/11
f 22/19/12 18/14/12 21/17/12
f 23/20/13 19/15/13 22/19/13
f 4/3/14 21/17/14 5/18/14
f 24/21/15 22/19/15 21/17/15
f 25/22/16 23/20/16 22/19/16
f 3/23/17 24/21/17 4/3/17
f 27/24/18 25/22/18 24/21/18
f 28/25/19 26/26/19 25/22/19
f 2/27/20 27/24/20 3/23/20
f 30/28/21 28/25/21 27/24/21
f 31/29/22 29/30/22 28/25/22
f 1/10/23 30/28/23 2/27/23
f 15/11/24 31/29/24 30/28/24
f 16/13/25 32/31/25 31/29/25
f 17/32/26 33/33/26 32/31/26
f 32/31/27 33/33/27 29/30/27
f 29/30/28 33/33/28 26/26/28
f 26/26/29 33/33/29 23/20/29
f 23/20/30 33/33/30 20/16/30
f 20/16/31 33/33/31 13/8/31
f 14/12/32 33/33/32 17/32/32
f 13/8/33 33/33/33 14/12/33
f 8/5/34 1/10/34 2/27/34
f 2/27/35 3/23/35 8/5/35
f 3/23/1 4/3/1 7/2/1
f 8/5/35 3/23/35 7/2/35
f 4/3/36 5/18/36 6/1/36
f 9/4/37 10/7/37 8/5/37
f 11/6/38 12/9/38 10/7/38
f 13/8/39 14/12/39 12/9/39
f 10/7/40 15/11/40 1/10/40
f 12/9/41 16/13/41 15/11/41
f 14/12/42 17/32/42 16/13/42
f 18/14/43 9/4/43 7/2/43
f 19/15/44 11/6/44 9/4/44
f 20/16/45 13/8/45 11/6/45
f 21/17/46 18/14/46 6/1/46
f 22/19/47 19/15/47 18/14/47
f 23/20/48 20/16/48 19/15/48
f 4/3/49 24/21/49 21/17/49
f 24/21/50 25/22/50 22/19/50
f 25/22/51 26/26/51 23/20/51
f 3/23/52 27/24/52 24/21/52
f 27/24/53 28/25/53 25/22/53
f 28/25/54 29/30/54 26/26/54
f 2/27/55 30/28/55 27/24/55
f 30/28/56 31/29/56 28/25/56
f 31/29/57 32/31/57 29/30/57
f 1/10/58 15/11/58 30/28/58
f 15/11/59 16/13/59 31/29/59
f 16/13/60 17/32/60 32/31/60
