# Blender v2.82 (sub 7) OBJ File: ''
# www.blender.org
mtllib g7-yellow_cylinder.mtl
o g7-yellow_Cylinder.037
v -37.123009 -8.540836 3.222902
v -37.109535 -8.543650 3.155339
v -37.052315 -8.545553 3.119298
v -36.986088 -8.545015 3.136301
v -36.949451 -8.544778 3.196267
v -36.966419 -8.545015 3.264459
v -37.024502 -8.545553 3.300539
v -37.089893 -8.543650 3.283314
v -37.149254 -8.002057 3.311372
v -37.216698 -7.984297 3.295435
v -37.143559 -7.366035 3.284912
v -37.198196 -7.366293 3.274441
v -37.297527 -6.821290 3.278478
v -37.318138 -6.809137 3.272777
v -37.252052 -7.974419 3.242706
v -37.227608 -7.361663 3.238955
v -37.328865 -6.804338 3.254495
v -37.088474 -8.018440 3.278831
v -37.084057 -7.365564 3.260451
v -37.278561 -6.834271 3.267578
v -37.070496 -8.025877 3.214843
v -37.058342 -7.367631 3.212978
v -37.273060 -6.839900 3.245931
v -37.106834 -8.018440 3.159191
v -37.097107 -7.365564 3.175401
v -37.284798 -6.834271 3.226929
v -37.174576 -8.002057 3.146374
v -37.161209 -7.366035 3.169909
v -37.306160 -6.821290 3.222218
v -37.234135 -7.984297 3.181803
v -37.210194 -7.366293 3.196283
v -37.324116 -6.809137 3.233838
v -37.310406 -6.640584 3.251662
vt -0.967140 0.582000
vt -0.967140 0.582000
vt -0.967140 0.582000
vt -0.967140 0.582000
vt -0.967140 0.582000
vt -0.967140 0.582000
vt -0.967140 0.582000
vt -0.967140 0.582000
vt -0.967140 0.582000
vt -0.967140 0.582000
vt -0.967140 0.582000
vt -0.967140 0.582000
vt -0.967140 0.582000
vt -0.967140 0.582000
vt -0.967140 0.582000
vt -0.967140 0.582000
vt -0.967140 0.582000
vt -0.967140 0.582000
vt -0.967140 0.582000
vt -0.967140 0.582000
vt -0.967140 0.582000
vt -0.967140 0.582000
vt -0.967140 0.582000
vt -0.967140 0.582000
vt -0.967140 0.582000
vt -0.967140 0.582000
vt -0.967140 0.582000
vt -0.967140 0.582000
vt -0.967140 0.582000
vt -0.967140 0.582000
vt -0.967140 0.582000
vt -0.967140 0.582000
vt -0.967140 0.582000
vn -0.0177 -0.9989 -0.0433
vn -0.2561 -0.0780 0.9635
vn -0.2191 0.0425 0.9748
vn -0.1879 -0.0415 0.9813
vn -0.8622 -0.2055 0.4630
vn -0.8260 0.0438 0.5620
vn -0.7699 -0.1639 0.6167
vn 0.5245 0.0985 0.8457
vn 0.4764 0.0215 0.8790
vn 0.3764 0.1255 0.9179
vn 0.9480 0.2127 0.2366
vn 0.9621 -0.0170 0.2723
vn 0.8404 0.3144 0.4415
vn 0.8334 0.2127 -0.5100
vn 0.8361 -0.0170 -0.5482
vn 0.6693 0.3144 -0.6732
vn 0.2467 0.0985 -0.9641
vn 0.1909 0.0215 -0.9814
vn 0.0838 0.1255 -0.9886
vn -0.5332 -0.0780 -0.8424
vn -0.5014 0.0425 -0.8642
vn -0.4735 -0.0415 -0.8798
vn -0.9614 -0.2055 -0.1832
vn -0.9565 0.0438 -0.2885
vn -0.9194 -0.1639 -0.3574
vn -0.9637 0.1044 -0.2458
vn -0.4748 0.1306 -0.8704
vn 0.3044 0.1601 -0.9390
vn 0.8600 0.1749 -0.4794
vn 0.9642 0.1749 0.1995
vn 0.5719 0.1601 0.8045
vn -0.8456 0.1044 0.5236
vn -0.1920 0.1307 0.9727
vn -0.0168 -0.9992 -0.0374
vn -0.0048 -0.9992 0.0406
vn -0.0039 -0.9989 0.0466
vn -0.0202 -0.9997 0.0163
vn -0.0242 -0.9997 -0.0095
vn -0.2485 -0.0773 0.9655
vn -0.1882 0.0390 0.9813
vn -0.2997 -0.0617 0.9520
vn -0.8301 -0.2072 0.5177
vn -0.7672 0.0345 0.6404
vn -0.8687 -0.1708 0.4649
vn 0.4897 0.0951 0.8667
vn 0.3798 0.0351 0.9244
vn 0.5769 0.1725 0.7984
vn 0.9468 0.2129 0.2413
vn 0.8794 0.0074 0.4760
vn 0.9293 0.3382 0.1482
vn 0.8309 0.2129 -0.5141
vn 0.6962 0.0074 -0.7178
vn 0.8421 0.3383 -0.4200
vn 0.2072 0.0951 -0.9737
vn 0.0851 0.0351 -0.9958
vn 0.3109 0.1725 -0.9347
vn -0.5266 -0.0773 -0.8466
vn -0.4739 0.0390 -0.8797
vn -0.5713 -0.0617 -0.8184
vn -0.9471 -0.2072 -0.2450
vn -0.9240 0.0345 -0.3808
vn -0.9682 -0.1708 -0.1829
usemtl Material.002
s off
f 6/1/1 7/2/1 8/3/1
f 9/4/2 8/3/2 7/2/2
f 11/5/3 10/6/3 9/4/3
f 13/7/4 12/8/4 11/5/4
f 10/6/5 1/9/5 8/3/5
f 12/8/6 15/10/6 10/6/6
f 14/11/7 16/12/7 12/8/7
f 18/13/8 7/2/8 6/1/8
f 19/14/9 9/4/9 18/13/9
f 20/15/10 11/5/10 19/14/10
f 21/16/11 6/1/11 5/17/11
f 22/18/12 18/13/12 21/16/12
f 23/19/13 19/14/13 22/18/13
f 4/20/14 21/16/14 5/17/14
f 24/21/15 22/18/15 21/16/15
f 25/22/16 23/19/16 22/18/16
f 3/23/17 24/21/17 4/20/17
f 27/24/18 25/22/18 24/21/18
f 28/25/19 26/26/19 25/22/19
f 2/27/20 27/24/20 3/23/20
f 30/28/21 28/25/21 27/24/21
f 31/29/22 29/30/22 28/25/22
f 1/9/23 30/28/23 2/27/23
f 15/10/24 31/29/24 30/28/24
f 16/12/25 32/31/25 31/29/25
f 17/32/26 33/33/26 32/31/26
f 32/31/27 33/33/27 29/30/27
f 29/30/28 33/33/28 26/26/28
f 26/26/29 33/33/29 23/19/29
f 23/19/30 33/33/30 20/15/30
f 20/15/31 33/33/31 13/7/31
f 14/11/32 33/33/32 17/32/32
f 13/7/33 33/33/33 14/11/33
f 8/3/34 1/9/34 6/1/34
f 1/9/35 2/27/35 4/20/35
f 2/27/36 3/23/36 4/20/36
f 4/20/37 5/17/37 1/9/37
f 5/17/38 6/1/38 1/9/38
f 9/4/39 10/6/39 8/3/39
f 11/5/40 12/8/40 10/6/40
f 13/7/41 14/11/41 12/8/41
f 10/6/42 15/10/42 1/9/42
f 12/8/43 16/12/43 15/10/43
f 14/11/44 17/32/44 16/12/44
f 18/13/45 9/4/45 7/2/45
f 19/14/46 11/5/46 9/4/46
f 20/15/47 13/7/47 11/5/47
f 21/16/48 18/13/48 6/1/48
f 22/18/49 19/14/49 18/13/49
f 23/19/50 20/15/50 19/14/50
f 4/20/51 24/21/51 21/16/51
f 24/21/52 25/22/52 22/18/52
f 25/22/53 26/26/53 23/19/53
f 3/23/54 27/24/54 24/21/54
f 27/24/55 28/25/55 25/22/55
f 28/25/56 29/30/56 26/26/56
f 2/27/57 30/28/57 27/24/57
f 30/28/58 31/29/58 28/25/58
f 31/29/59 32/31/59 29/30/59
f 1/9/60 15/10/60 30/28/60
f 15/10/61 16/12/61 31/29/61
f 16/12/62 17/32/62 32/31/62
