# Blender v2.82 (sub 7) OBJ File: ''
# www.blender.org
mtllib g8-yellow_cylinder.mtl
o g8-yellow_Cylinder.036
v -38.032249 -8.702905 3.362442
v -38.017193 -8.702905 3.325338
v -37.970417 -8.702905 3.303746
v -37.919319 -8.702905 3.310317
v -37.893829 -8.702905 3.341200
v -37.908886 -8.702905 3.378304
v -37.955662 -8.702905 3.399894
v -38.006760 -8.702905 3.393325
v -37.949348 -8.017456 3.441034
v -38.044174 -8.017421 3.428843
v -38.091476 -8.017385 3.371532
v -37.862541 -8.017421 3.400968
v -37.834602 -8.017385 3.332110
v -37.881905 -8.017421 3.274799
v -37.976730 -8.017456 3.262608
v -38.063538 -8.017421 3.302675
v -37.963039 -6.542157 3.351821
vt -0.967140 0.582000
vt -0.967140 0.582000
vt -0.967140 0.582000
vt -0.967140 0.582000
vt -0.967140 0.582000
vt -0.967140 0.582000
vt -0.967140 0.582000
vt -0.967140 0.582000
vt -0.967140 0.582000
vt -0.967140 0.582000
vt -0.967140 0.582000
vt -0.967140 0.582000
vt -0.967140 0.582000
vt -0.967140 0.582000
vt -0.967140 0.582000
vt -0.967140 0.582000
vt -0.967140 0.582000
vn 0.0000 -1.0000 0.0000
vn -0.1273 -0.0583 0.9902
vn -0.7691 -0.0749 0.6348
vn 0.4184 -0.0583 0.9064
vn 0.9240 -0.0749 0.3750
vn 0.7691 -0.0749 -0.6348
vn 0.1273 -0.0583 -0.9902
vn -0.4184 -0.0583 -0.9064
vn -0.9240 -0.0749 -0.3750
vn -0.9240 0.0754 -0.3749
vn -0.4183 0.0587 -0.9064
vn 0.1273 0.0587 -0.9901
vn 0.7690 0.0754 -0.6348
vn 0.9240 0.0754 0.3749
vn 0.4183 0.0587 0.9064
vn -0.7690 0.0754 0.6348
vn -0.1273 0.0587 0.9901
vn -0.1273 -0.0583 0.9901
vn -0.7691 -0.0749 0.6347
vn 0.9240 -0.0749 0.3749
vn 0.7691 -0.0749 -0.6347
vn 0.1273 -0.0583 -0.9901
vn -0.9240 -0.0749 -0.3749
usemtl Material.002
s off
f 6/1/1 7/2/1 4/3/1
f 9/4/2 8/5/2 7/2/2
f 10/6/3 1/7/3 8/5/3
f 6/1/4 9/4/4 7/2/4
f 5/8/5 12/9/5 6/1/5
f 14/10/6 5/8/6 4/3/6
f 15/11/7 4/3/7 3/12/7
f 2/13/8 15/11/8 3/12/8
f 1/7/9 16/14/9 2/13/9
f 11/15/10 17/16/10 16/14/10
f 16/14/11 17/16/11 15/11/11
f 15/11/12 17/16/12 14/10/12
f 14/10/13 17/16/13 13/17/13
f 13/17/14 17/16/14 12/9/14
f 12/9/15 17/16/15 9/4/15
f 10/6/16 17/16/16 11/15/16
f 9/4/17 17/16/17 10/6/17
f 8/5/1 1/7/1 2/13/1
f 2/13/1 3/12/1 8/5/1
f 3/12/1 4/3/1 7/2/1
f 8/5/1 3/12/1 7/2/1
f 4/3/1 5/8/1 6/1/1
f 9/4/18 10/6/18 8/5/18
f 10/6/19 11/15/19 1/7/19
f 6/1/4 12/9/4 9/4/4
f 5/8/20 13/17/20 12/9/20
f 14/10/21 13/17/21 5/8/21
f 15/11/22 14/10/22 4/3/22
f 2/13/8 16/14/8 15/11/8
f 1/7/23 11/15/23 16/14/23
