# Blender v2.82 (sub 7) OBJ File: ''
# www.blender.org
mtllib p3-green_icosphere.mtl
o p3-green_Icosphere.009
v -34.571724 -7.100621 -14.255765
v -34.575291 -7.208781 -14.705625
v -35.184635 -7.451640 -13.881077
v -35.007000 -8.442129 -14.658835
v -33.269863 -7.505875 -14.495298
v -33.762745 -6.991820 -12.516532
v -33.046528 -7.119312 -13.173608
v -31.266153 -7.559114 -13.757945
v -30.247398 -8.144686 -14.096736
v -33.841953 -8.711557 -14.305255
v -35.413536 -8.333773 -13.463083
v -35.178234 -7.995178 -14.214966
v -35.214108 -8.772949 -13.769844
v -32.615891 -7.839829 -11.847019
v -34.670551 -7.507042 -12.301797
v -34.934738 -8.486499 -12.678234
v -30.974548 -7.323443 -12.443441
v -31.806839 -7.289147 -12.355985
v -31.358307 -8.300402 -12.274210
v -30.321640 -7.648135 -13.385752
v -30.850805 -8.758663 -13.395159
v -33.761738 -8.754651 -13.547341
vt -0.967140 0.582000
vt -0.967140 0.582000
vt -0.967140 0.582000
vt -0.967140 0.582000
vt -0.967140 0.582000
vt -0.967140 0.582000
vt -0.967140 0.582000
vt -0.967140 0.582000
vt -0.967140 0.582000
vt -0.967140 0.582000
vt -0.967140 0.582000
vt -0.967140 0.582000
vt -0.967140 0.582000
vt -0.967140 0.582000
vt -0.967140 0.582000
vt -0.967140 0.582000
vt -0.967140 0.582000
vt -0.967140 0.582000
vt -0.967140 0.582000
vt -0.967140 0.582000
vt -0.967140 0.582000
vt -0.967140 0.582000
vn -0.5720 0.7986 -0.1875
vn 0.1393 -0.0862 -0.9865
vn -0.4252 0.8939 0.1419
vn 0.0838 0.9914 -0.1010
vn 0.1662 0.9618 -0.2176
vn 0.2262 -0.2555 -0.9400
vn -0.9178 -0.1644 -0.3613
vn -0.2511 -0.2875 0.9243
vn 0.1089 0.1280 0.9858
vn 0.8380 -0.4024 0.3686
vn -0.1021 -0.9243 -0.3678
vn -0.7430 -0.5757 0.3412
vn -0.0384 -0.7339 0.6782
vn 0.8409 -0.2469 0.4816
vn 0.1602 -0.8070 -0.5684
vn 0.0216 -0.9980 -0.0590
vn -0.0277 -0.9651 0.2604
vn 0.0142 -0.9499 0.3122
vn -0.0206 -0.9287 0.3703
vn 0.0016 -0.9984 -0.0569
vn 0.2838 0.7998 -0.5289
vn 0.1712 0.9639 -0.2039
vn 0.1701 0.9620 -0.2136
vn 0.0539 0.9908 0.1241
vn 0.1523 0.9880 -0.0257
vn 0.0363 0.6490 0.7599
vn -0.1008 0.5289 0.8427
vn -0.4535 0.8733 0.1782
vn -0.8795 0.3700 0.2993
vn 0.2404 0.7644 -0.5982
vn 0.2656 0.6914 -0.6718
vn 0.1678 0.9582 -0.2317
vn -0.9613 0.1359 -0.2396
vn -0.8070 0.3022 -0.5074
vn -0.7881 0.2546 -0.5604
vn 0.0875 -0.1955 -0.9768
vn -0.9589 -0.1063 -0.2629
vn -0.8509 0.0279 0.5245
vn 0.3911 0.2452 0.8871
vn 0.7119 -0.3444 0.6120
usemtl GreenLeaves
s off
f 1/1/1 2/2/1 3/3/1
f 4/4/2 2/2/2 5/5/2
f 1/1/3 3/3/3 6/6/3
f 1/1/4 6/6/4 7/7/4
f 1/1/5 7/7/5 8/8/5
f 5/5/6 10/9/6 4/4/6
f 12/10/7 13/11/7 11/12/7
f 15/13/8 16/14/8 14/15/8
f 18/16/9 19/17/9 17/18/9
f 20/19/10 21/20/10 9/21/10
f 4/4/11 10/9/11 13/11/11
f 11/12/12 13/11/12 16/14/12
f 14/15/13 16/14/13 19/17/13
f 17/18/14 19/17/14 21/20/14
f 9/21/15 21/20/15 10/9/15
f 13/11/16 10/9/16 22/22/16
f 16/14/17 13/11/17 22/22/17
f 19/17/18 16/14/18 22/22/18
f 21/20/19 19/17/19 22/22/19
f 10/9/20 21/20/20 22/22/20
f 8/8/21 20/19/21 9/21/21
f 8/8/22 7/7/22 20/19/22
f 7/7/23 17/18/23 20/19/23
f 7/7/24 18/16/24 17/18/24
f 7/7/25 6/6/25 18/16/25
f 6/6/26 14/15/26 18/16/26
f 6/6/27 15/13/27 14/15/27
f 6/6/28 3/3/28 15/13/28
f 3/3/29 11/12/29 15/13/29
f 5/5/30 8/8/30 9/21/30
f 5/5/31 2/2/31 8/8/31
f 2/2/32 1/1/32 8/8/32
f 3/3/33 12/10/33 11/12/33
f 3/3/34 2/2/34 12/10/34
f 2/2/35 4/4/35 12/10/35
f 5/5/36 9/21/36 10/9/36
f 12/10/37 4/4/37 13/11/37
f 15/13/38 11/12/38 16/14/38
f 18/16/39 14/15/39 19/17/39
f 20/19/40 17/18/40 21/20/40
