# Blender v2.82 (sub 7) OBJ File: ''
# www.blender.org
mtllib p4-green_icosphere.mtl
o p4-green_Icosphere.031
v -33.767147 -6.639949 -17.577133
v -33.872414 -6.869789 -18.081802
v -34.636555 -6.823977 -17.233046
v -34.183681 -7.541207 -18.693117
v -33.013531 -7.408306 -18.187378
v -33.181011 -6.967540 -16.530155
v -32.447369 -6.780890 -17.118450
v -31.988718 -6.991010 -17.663492
v -32.137112 -7.866186 -17.999660
v -33.516552 -8.762731 -18.041420
v -34.811291 -7.180696 -16.709362
v -34.573948 -7.212202 -17.696150
v -34.502819 -8.120181 -17.311281
v -32.628113 -7.812581 -16.092457
v -34.249619 -7.202790 -16.229225
v -34.170063 -7.945333 -16.284880
v -31.674461 -7.391378 -16.509356
v -32.052929 -7.337012 -16.381664
v -32.846943 -8.348475 -16.562014
v -31.635462 -7.213243 -17.375065
v -32.233139 -8.374963 -17.331964
v -33.173409 -8.613772 -17.161030
vt -0.967140 0.582000
vt -0.967140 0.582000
vt -0.967140 0.582000
vt -0.967140 0.582000
vt -0.967140 0.582000
vt -0.967140 0.582000
vt -0.967140 0.582000
vt -0.967140 0.582000
vt -0.967140 0.582000
vt -0.967140 0.582000
vt -0.967140 0.582000
vt -0.967140 0.582000
vt -0.967140 0.582000
vt -0.967140 0.582000
vt -0.967140 0.582000
vt -0.967140 0.582000
vt -0.967140 0.582000
vt -0.967140 0.582000
vt -0.967140 0.582000
vt -0.967140 0.582000
vt -0.967140 0.582000
vt -0.967140 0.582000
vn -0.3206 0.8855 -0.3364
vn 0.2676 0.5779 -0.7710
vn -0.0676 0.9408 0.3322
vn -0.0023 0.9540 0.2998
vn 0.1787 0.9591 -0.2194
vn 0.4079 -0.2463 -0.8792
vn -0.9592 -0.1706 -0.2253
vn -0.1160 -0.0866 0.9895
vn 0.2519 -0.3581 0.8991
vn 0.8639 -0.4527 -0.2207
vn -0.6911 -0.5958 -0.4092
vn -0.8047 -0.4842 0.3434
vn -0.0388 -0.6495 0.7594
vn 0.5485 -0.6974 0.4613
vn 0.4872 -0.7270 -0.4839
vn -0.3617 -0.8857 0.2909
vn -0.3618 -0.8925 0.2693
vn -0.1646 -0.8655 0.4731
vn 0.2814 -0.9248 0.2562
vn 0.2565 -0.9645 0.0632
vn 0.6823 0.1584 -0.7137
vn 0.4869 0.8703 0.0742
vn 0.5084 0.8387 0.1955
vn 0.2808 0.8323 0.4779
vn 0.2039 0.8308 0.5179
vn 0.0424 0.4812 0.8756
vn 0.1239 0.5191 0.8457
vn -0.0944 0.9189 0.3831
vn -0.3484 0.8247 0.4455
vn 0.3412 0.2861 -0.8954
vn 0.2176 0.5102 -0.8321
vn 0.1539 0.8867 -0.4359
vn -0.9636 0.1259 -0.2358
vn -0.5913 0.5768 -0.5635
vn -0.5793 0.6791 -0.4509
vn 0.1295 -0.1537 -0.9796
vn -0.9330 -0.1999 -0.2992
vn -0.6475 -0.1257 0.7516
vn 0.6954 -0.6128 0.3753
vn 0.8871 -0.4584 -0.0544
usemtl GreenLeaves
s off
f 1/1/1 2/2/1 3/3/1
f 4/4/2 2/2/2 5/5/2
f 1/1/3 3/3/3 6/6/3
f 1/1/4 6/6/4 7/7/4
f 1/1/5 7/7/5 8/8/5
f 5/5/6 10/9/6 4/4/6
f 12/10/7 13/11/7 11/12/7
f 15/13/8 16/14/8 14/15/8
f 18/16/9 19/17/9 17/18/9
f 20/19/10 21/20/10 9/21/10
f 4/4/11 10/9/11 13/11/11
f 11/12/12 13/11/12 16/14/12
f 14/15/13 16/14/13 19/17/13
f 17/18/14 19/17/14 21/20/14
f 9/21/15 21/20/15 10/9/15
f 13/11/16 10/9/16 22/22/16
f 16/14/17 13/11/17 22/22/17
f 19/17/18 16/14/18 22/22/18
f 21/20/19 19/17/19 22/22/19
f 10/9/20 21/20/20 22/22/20
f 8/8/21 20/19/21 9/21/21
f 8/8/22 7/7/22 20/19/22
f 7/7/23 17/18/23 20/19/23
f 7/7/24 18/16/24 17/18/24
f 7/7/25 6/6/25 18/16/25
f 6/6/26 14/15/26 18/16/26
f 6/6/27 15/13/27 14/15/27
f 6/6/28 3/3/28 15/13/28
f 3/3/29 11/12/29 15/13/29
f 5/5/30 8/8/30 9/21/30
f 5/5/31 2/2/31 8/8/31
f 2/2/32 1/1/32 8/8/32
f 3/3/33 12/10/33 11/12/33
f 3/3/34 2/2/34 12/10/34
f 2/2/35 4/4/35 12/10/35
f 5/5/36 9/21/36 10/9/36
f 12/10/37 4/4/37 13/11/37
f 15/13/38 11/12/38 16/14/38
f 18/16/39 14/15/39 19/17/39
f 20/19/40 17/18/40 21/20/40
