# Blender v2.82 (sub 7) OBJ File: ''
# www.blender.org
mtllib r10_Icosphere.mtl
o r10_Icosphere.006
v -68.734650 -9.104748 5.631877
v -67.416191 -9.395666 6.366076
v -69.543808 -9.107295 7.523341
v -66.322266 -7.826895 7.232252
v -65.666435 -8.175110 5.076061
v -70.523094 -8.586112 5.919434
v -69.523438 -8.396394 3.933614
v -67.372208 -9.194786 4.256383
v -66.012741 -0.663526 6.235816
v -68.394211 1.819946 7.650029
v -69.702286 -0.321738 7.487920
v -69.774612 -0.915089 9.039994
v -68.394012 0.410779 9.045136
v -71.814354 -7.866186 5.598605
v -71.016914 -8.746394 7.496394
v -71.977417 -6.798958 6.492642
v -69.959129 -7.891919 2.968007
v -71.228012 -7.811781 4.055521
v -70.871811 -6.643806 3.099157
v -65.787697 -8.084875 3.322726
v -67.842476 -8.462290 2.842841
v -67.421867 -1.866027 2.413215
v -66.098061 -1.845407 8.024141
v -66.840157 -2.251405 9.504147
v -66.846474 -7.908659 9.836123
v -71.928841 -6.691454 4.570041
v -68.846848 -5.279967 2.255850
v -66.049095 -0.525684 4.001973
v -65.124161 3.662509 6.875061
v -66.605194 5.712683 7.014392
v -71.141388 -2.759292 6.678583
v -69.600075 1.819178 5.791275
v -71.094231 -2.812485 3.604855
v -71.386421 -2.430879 5.202729
v -69.553085 2.167935 3.738588
v -67.534317 1.204869 2.120282
v -69.659477 -0.359557 2.205023
v -66.303383 10.318244 3.772208
v -64.779388 4.701575 5.203477
v -65.824432 6.534782 3.270771
v -65.431465 8.271153 4.823159
v -66.316910 11.474830 5.393866
v -71.137566 -2.903866 7.837551
v -71.446243 -8.509478 8.297334
v -69.945595 -8.961634 8.614480
v -69.930840 -8.876220 11.129627
v -70.820290 -8.526937 9.999175
v -69.593399 -9.000422 10.084327
v -68.264488 -8.817906 8.317548
v -68.502548 -8.753668 10.761527
v -69.358574 -4.992314 10.751590
vt -0.967140 0.582000
vt -0.967140 0.582000
vt -0.967140 0.582000
vt -0.967140 0.582000
vt -0.967140 0.582000
vt -0.967140 0.582000
vt -0.967140 0.582000
vt -0.967140 0.582000
vt -0.967140 0.582000
vt -0.967140 0.582000
vt -0.967140 0.582000
vt -0.967140 0.582000
vt -0.967140 0.582000
vt -0.967140 0.582000
vt -0.967140 0.582000
vt -0.967140 0.582000
vt -0.967140 0.582000
vt -0.967140 0.582000
vt -0.967140 0.582000
vt -0.967140 0.582000
vt -0.967140 0.582000
vt -0.967140 0.582000
vt -0.967140 0.582000
vt -0.967140 0.582000
vt -0.967140 0.582000
vt -0.967140 0.582000
vt -0.967140 0.582000
vt -0.967140 0.582000
vt -0.967140 0.582000
vt -0.967140 0.582000
vt -0.967140 0.582000
vt -0.967140 0.582000
vt -0.967140 0.582000
vt -0.967140 0.582000
vt -0.967140 0.582000
vt -0.967140 0.582000
vt -0.967140 0.582000
vt -0.967140 0.582000
vt -0.967140 0.582000
vt -0.967140 0.582000
vt -0.967140 0.582000
vt -0.967140 0.582000
vt -0.967140 0.582000
vt -0.967140 0.582000
vt -0.967140 0.582000
vt -0.967140 0.582000
vt -0.967140 0.582000
vt -0.967140 0.582000
vt -0.967140 0.582000
vt -0.967140 0.582000
vt -0.967140 0.582000
vn -0.1744 -0.9818 -0.0759
vn 0.6881 -0.6537 0.3149
vn -0.2951 -0.9469 -0.1275
vn -0.3059 -0.9208 -0.2420
vn -0.3054 -0.9209 -0.2422
vn 0.9567 -0.0008 0.2911
vn -0.7784 0.4416 0.4462
vn -0.9146 -0.3325 0.2301
vn -0.6161 -0.3779 -0.6910
vn 0.2403 -0.0783 -0.9675
vn 0.9990 -0.0402 0.0211
vn 0.9802 0.0105 0.1977
vn -0.9917 -0.1247 -0.0320
vn -0.3079 -0.1260 -0.9430
vn 0.7163 0.0870 -0.6923
vn 0.1915 0.0718 0.9789
vn -0.8398 0.3612 0.4053
vn -0.9257 0.2929 -0.2392
vn -0.1852 0.1994 -0.9623
vn 0.9181 0.1277 -0.3753
vn 0.9342 0.2942 -0.2020
vn 0.8944 0.1682 -0.4145
vn 0.1810 0.1517 -0.9717
vn -0.8958 0.3583 -0.2630
vn -0.8135 0.3263 -0.4814
vn -0.8717 0.2805 -0.4019
vn -0.9458 0.3230 0.0332
vn -0.9231 0.3819 0.0438
vn -0.9084 0.3501 0.2287
vn -0.6189 0.2412 0.7475
vn -0.7573 0.4274 0.4937
vn -0.7631 0.4296 0.4828
vn 0.8092 0.1212 0.5750
vn 0.5739 0.3647 0.7332
vn 0.9263 0.2030 0.3173
vn 0.8421 -0.0820 -0.5331
vn 0.7893 -0.0880 -0.6077
vn 0.6560 -0.0478 -0.7533
vn -0.0288 -0.0151 -0.9995
vn -0.3450 -0.0667 -0.9362
vn -0.7370 0.0462 -0.6743
vn -0.9647 0.1545 -0.2133
vn -0.9915 0.1289 -0.0178
vn -0.9609 0.1896 0.2017
vn -0.8555 0.4958 0.1497
vn -0.3069 -0.9461 0.1032
vn 0.7112 0.5003 0.4939
vn 0.1293 0.1805 0.9750
vn 0.9787 -0.1894 -0.0785
vn 0.9750 -0.2106 0.0702
vn 0.2966 -0.0799 -0.9517
vn 0.2990 -0.0810 -0.9508
vn -0.1154 -0.2153 -0.9697
vn -0.8122 0.0298 -0.5827
vn -0.7869 -0.2291 -0.5729
vn -0.8595 -0.3815 -0.3401
vn -0.8926 0.1654 0.4195
vn -0.8005 -0.5345 -0.2710
vn -0.3086 -0.9443 0.1139
vn -0.2498 -0.9677 0.0343
vn 0.1940 -0.9800 0.0447
vn -0.9984 0.0558 0.0103
vn 0.9729 -0.2294 -0.0300
vn 0.9988 0.0481 -0.0133
vn 0.9969 0.0405 -0.0669
vn 0.2694 -0.8155 -0.5122
vn -0.2742 -0.8881 -0.3690
vn -0.2629 -0.8987 -0.3509
vn -0.3279 -0.8899 -0.3170
vn -0.3300 -0.9094 -0.2530
vn -0.4394 -0.8762 -0.1978
vn -0.4316 -0.8738 -0.2240
vn -0.2316 -0.9579 -0.1699
vn -0.2385 -0.9703 0.0417
vn 0.5396 -0.8381 -0.0805
vn 0.5361 -0.8414 -0.0689
vn -0.1627 -0.9819 -0.0969
vn 0.4842 -0.8722 0.0701
vn 0.0319 -0.9545 0.2965
vn 0.5931 -0.6645 0.4546
vn 0.2445 0.0582 0.9679
vn -0.7475 0.1726 0.6415
vn -0.7866 0.1824 0.5899
vn -0.7621 0.1830 0.6211
vn -0.3271 0.3372 0.8828
vn 0.1782 0.2673 0.9470
vn 0.3658 0.0857 0.9267
vn 0.4671 0.0513 0.8827
vn 0.1244 -0.9798 0.1566
vn -0.6735 0.7004 0.2364
vn 0.9000 -0.0902 0.4265
vn -0.8685 0.4915 0.0642
vn -0.4018 -0.9151 0.0334
vn 0.7097 0.4957 0.5006
vn -0.2542 -0.9665 0.0354
vn -0.9353 0.0798 0.3448
usemtl None
s off
f 1/1/1 2/2/1 3/3/1
f 4/4/2 2/2/2 5/5/2
f 1/1/3 3/3/3 6/6/3
f 1/1/4 6/6/4 7/7/4
f 1/1/5 7/7/5 8/8/5
f 4/4/6 5/5/6 9/9/6
f 11/10/7 13/11/7 10/12/7
f 14/13/8 15/14/8 16/15/8
f 17/16/9 18/17/9 19/18/9
f 20/19/10 21/20/10 22/21/10
f 4/4/11 9/9/11 23/22/11
f 4/4/12 24/23/12 25/24/12
f 14/13/13 16/15/13 26/25/13
f 17/16/14 19/18/14 27/26/14
f 20/19/15 22/21/15 28/27/15
f 10/12/16 29/28/16 30/29/16
f 31/30/17 11/10/17 32/31/17
f 33/32/18 34/33/18 35/34/18
f 36/35/19 37/36/19 38/37/19
f 39/38/20 40/39/20 41/40/20
f 41/40/21 38/37/21 42/41/21
f 41/40/22 40/39/22 38/37/22
f 40/39/23 36/35/23 38/37/23
f 38/37/24 35/34/24 42/41/24
f 38/37/25 37/36/25 35/34/25
f 37/36/26 33/32/26 35/34/26
f 35/34/27 32/31/27 42/41/27
f 35/34/28 34/33/28 32/31/28
f 34/33/29 31/30/29 32/31/29
f 32/31/30 30/29/30 42/41/30
f 32/31/31 11/10/31 30/29/31
f 11/10/32 10/12/32 30/29/32
f 30/29/33 41/40/33 42/41/33
f 30/29/34 29/28/34 41/40/34
f 29/28/35 39/38/35 41/40/35
f 28/27/36 40/39/36 39/38/36
f 28/27/37 22/21/37 40/39/37
f 22/21/38 36/35/38 40/39/38
f 27/26/39 37/36/39 36/35/39
f 27/26/40 19/18/40 37/36/40
f 19/18/41 33/32/41 37/36/41
f 26/25/42 34/33/42 33/32/42
f 26/25/43 16/15/43 34/33/43
f 16/15/44 31/30/44 34/33/44
f 11/10/45 43/42/45 12/43/45
f 45/44/46 47/45/46 44/46/46
f 23/22/47 13/11/47 24/23/47
f 23/22/48 29/28/48 10/12/48
f 23/22/49 9/9/49 29/28/49
f 9/9/50 39/38/50 29/28/50
f 22/21/51 27/26/51 36/35/51
f 22/21/52 21/20/52 27/26/52
f 21/20/53 17/16/53 27/26/53
f 19/18/54 26/25/54 33/32/54
f 19/18/55 18/17/55 26/25/55
f 18/17/56 14/13/56 26/25/56
f 16/15/57 44/46/57 31/30/57
f 16/15/58 15/14/58 44/46/58
f 15/14/59 45/44/59 44/46/59
f 45/44/60 48/47/60 46/48/60
f 49/49/61 48/47/61 3/3/61
f 44/46/62 43/42/62 31/30/62
f 9/9/63 28/27/63 39/38/63
f 9/9/64 5/5/64 28/27/64
f 5/5/65 20/19/65 28/27/65
f 8/8/66 21/20/66 20/19/66
f 8/8/67 7/7/67 21/20/67
f 7/7/68 17/16/68 21/20/68
f 7/7/69 18/17/69 17/16/69
f 7/7/70 6/6/70 18/17/70
f 6/6/71 14/13/71 18/17/71
f 6/6/72 15/14/72 14/13/72
f 6/6/73 3/3/73 15/14/73
f 3/3/74 45/44/74 15/14/74
f 5/5/75 8/8/75 20/19/75
f 5/5/76 2/2/76 8/8/76
f 2/2/77 1/1/77 8/8/77
f 49/49/78 25/24/78 50/50/78
f 3/3/79 2/2/79 49/49/79
f 2/2/80 4/4/80 49/49/80
f 46/48/81 50/50/81 51/51/81
f 46/48/82 51/51/82 47/45/82
f 47/45/83 12/43/83 43/42/83
f 47/45/84 51/51/84 12/43/84
f 51/51/85 13/11/85 12/43/85
f 51/51/86 24/23/86 13/11/86
f 51/51/87 50/50/87 24/23/87
f 50/50/88 25/24/88 24/23/88
f 48/47/89 50/50/89 46/48/89
f 11/10/90 12/43/90 13/11/90
f 4/4/91 23/22/91 24/23/91
f 11/10/92 31/30/92 43/42/92
f 45/44/93 46/48/93 47/45/93
f 23/22/94 10/12/94 13/11/94
f 45/44/95 3/3/95 48/47/95
f 49/49/61 50/50/61 48/47/61
f 44/46/96 47/45/96 43/42/96
f 49/49/78 4/4/78 25/24/78
