# Blender v2.82 (sub 7) OBJ File: ''
# www.blender.org
mtllib r6_Icosphere.mtl
o r6_Icosphere.003
v -65.670273 -8.968492 -14.424149
v -64.719696 -9.173045 -13.830739
v -65.872307 -8.972703 -13.802538
v -63.971123 -9.124385 -13.282245
v -64.093643 -8.938906 -14.094398
v -66.595047 -8.855855 -14.475756
v -65.913017 -8.688153 -15.039243
v -65.089714 -8.858145 -14.855739
v -63.649250 -8.715628 -13.316825
v -66.024696 -8.594476 -13.408271
v -64.783875 -9.110003 -13.119885
v -65.413712 -8.295435 -13.083974
v -67.238907 -8.557004 -14.533187
v -66.815361 -8.580564 -13.901241
v -67.061920 -7.882656 -14.107666
v -66.001549 -8.226159 -15.540441
v -66.608017 -8.406116 -15.054766
v -66.322350 -7.724950 -15.548702
v -64.780396 -8.570901 -15.206285
v -65.409050 -8.364957 -15.508864
v -65.097672 -7.777637 -15.515335
v -64.283310 -8.624994 -12.856748
v -66.544357 -7.938062 -13.514709
v -66.844658 -7.825975 -14.889100
v -65.732040 -7.788188 -15.973381
v -64.258232 -8.194024 -14.610915
v -65.195442 -7.694599 -13.077350
v -64.687859 -7.656452 -13.129339
v -65.495277 -7.009301 -13.805338
v -66.818871 -7.202905 -13.754903
v -66.093468 -7.355678 -13.477101
v -66.233376 -6.812788 -14.206514
v -66.463081 -7.178195 -15.218611
v -66.687485 -7.146863 -14.560689
v -66.180687 -6.692772 -15.032248
v -65.490715 -7.146840 -15.676194
v -66.019135 -7.042924 -15.623350
v -65.628616 -6.631495 -15.235492
v -64.252831 -7.728354 -13.934950
v -65.006416 -7.163864 -15.050496
v -65.138847 -6.905047 -14.428213
v -65.763275 -6.583302 -14.620560
vt -0.967140 0.582000
vt -0.967140 0.582000
vt -0.967140 0.582000
vt -0.967140 0.582000
vt -0.967140 0.582000
vt -0.967140 0.582000
vt -0.967140 0.582000
vt -0.967140 0.582000
vt -0.967140 0.582000
vt -0.967140 0.582000
vt -0.967140 0.582000
vt -0.967140 0.582000
vt -0.967140 0.582000
vt -0.967140 0.582000
vt -0.967140 0.582000
vt -0.967140 0.582000
vt -0.967140 0.582000
vt -0.967140 0.582000
vt -0.967140 0.582000
vt -0.967140 0.582000
vt -0.967140 0.582000
vt -0.967140 0.582000
vt -0.967140 0.582000
vt -0.967140 0.582000
vt -0.967140 0.582000
vt -0.967140 0.582000
vt -0.967140 0.582000
vt -0.967140 0.582000
vt -0.967140 0.582000
vt -0.967140 0.582000
vt -0.967140 0.582000
vt -0.967140 0.582000
vt -0.967140 0.582000
vt -0.967140 0.582000
vt -0.967140 0.582000
vt -0.967140 0.582000
vt -0.967140 0.582000
vt -0.967140 0.582000
vt -0.967140 0.582000
vt -0.967140 0.582000
vt -0.967140 0.582000
vt -0.967140 0.582000
vn -0.1724 -0.9830 -0.0627
vn 0.2447 -0.9366 -0.2508
vn -0.1183 -0.9920 -0.0452
vn -0.0906 -0.9192 -0.3832
vn -0.1058 -0.9199 -0.3775
vn 0.7496 -0.6117 -0.2528
vn -0.3310 -0.2955 0.8962
vn -0.8259 -0.1295 0.5487
vn -0.5215 -0.3467 -0.7797
vn 0.3689 -0.2056 -0.9064
vn 0.5192 -0.3426 0.7830
vn -0.3968 -0.1678 0.9024
vn -0.8992 0.3765 -0.2227
vn -0.5675 -0.3753 -0.7329
vn 0.7404 0.0346 -0.6713
vn 0.0149 0.7311 0.6821
vn -0.0638 0.7947 0.6037
vn -0.7742 0.5621 -0.2908
vn 0.0541 0.6573 -0.7517
vn 0.7136 0.6876 -0.1341
vn 0.4508 0.8922 0.0288
vn 0.6688 0.7261 -0.1597
vn 0.6473 0.5880 -0.4850
vn -0.1495 0.9827 -0.1097
vn -0.2881 0.7873 -0.5451
vn -0.6416 0.5702 -0.5131
vn -0.3543 0.9284 0.1123
vn -0.6272 0.7755 0.0727
vn -0.5735 0.8184 -0.0366
vn -0.0191 0.8835 0.4680
vn -0.1212 0.7850 0.6075
vn -0.0367 0.7201 0.6929
vn 0.3445 0.8738 0.3434
vn 0.3808 0.8515 0.3604
vn 0.5829 0.7745 0.2457
vn 0.8258 0.4613 -0.3244
vn 0.7636 0.3138 -0.5643
vn 0.7527 0.3227 -0.5738
vn -0.0075 0.4227 -0.9062
vn -0.5647 0.1625 -0.8091
vn -0.6930 0.2335 -0.6821
vn -0.8789 0.3566 -0.3168
vn -0.9172 0.3242 -0.2315
vn -0.9129 0.3896 -0.1218
vn -0.3171 0.1855 0.9301
vn -0.3022 0.1735 0.9373
vn -0.3647 0.1223 0.9230
vn 0.0750 0.2991 0.9513
vn 0.5689 0.4342 0.6985
vn 0.7036 0.6327 0.3235
vn 0.5767 0.1547 -0.8022
vn 0.5607 -0.3057 -0.7695
vn -0.1155 -0.6615 -0.7410
vn -0.7857 0.1587 -0.5979
vn -0.7669 -0.1336 -0.6277
vn -0.6316 -0.0365 -0.7745
vn -0.7548 -0.0687 0.6524
vn -0.7547 -0.0738 0.6519
vn -0.5123 -0.2736 0.8140
vn -0.1813 0.0550 0.9819
vn -0.2583 -0.2410 0.9355
vn 0.1488 -0.5858 0.7967
vn 0.8876 0.3760 -0.2661
vn 0.8765 -0.1281 -0.4641
vn 0.7976 -0.2146 -0.5637
vn 0.0370 -0.7887 -0.6137
vn -0.0345 -0.8056 -0.5914
vn -0.1384 -0.7403 -0.6579
vn -0.2822 -0.7297 -0.6228
vn -0.2946 -0.7579 -0.5821
vn -0.2994 -0.7568 -0.5811
vn -0.4258 -0.8687 0.2530
vn -0.3936 -0.8787 0.2701
vn -0.3662 -0.7382 0.5666
vn 0.2763 -0.8484 -0.4515
vn 0.1944 -0.9158 -0.3515
vn -0.0290 -0.9584 -0.2840
vn -0.4272 -0.7293 0.5345
vn -0.1691 -0.9830 0.0719
vn 0.0000 -0.9961 0.0883
usemtl None
s off
f 1/1/1 2/2/1 3/3/1
f 4/4/2 2/2/2 5/5/2
f 1/1/3 3/3/3 6/6/3
f 1/1/4 6/6/4 7/7/4
f 1/1/5 7/7/5 8/8/5
f 4/4/6 5/5/6 9/9/6
f 10/10/7 11/11/7 12/12/7
f 13/13/8 14/14/8 15/15/8
f 16/16/9 17/17/9 18/18/9
f 19/19/10 20/20/10 21/21/10
f 4/4/11 9/9/11 22/22/11
f 10/10/12 12/12/12 23/23/12
f 13/13/13 15/15/13 24/24/13
f 16/16/14 18/18/14 25/25/14
f 19/19/15 21/21/15 26/26/15
f 27/27/16 28/28/16 29/29/16
f 30/30/17 31/31/17 32/32/17
f 33/33/18 34/34/18 35/35/18
f 36/36/19 37/37/19 38/38/19
f 39/39/20 40/40/20 41/41/20
f 41/41/21 38/38/21 42/42/21
f 41/41/22 40/40/22 38/38/22
f 40/40/23 36/36/23 38/38/23
f 38/38/24 35/35/24 42/42/24
f 38/38/25 37/37/25 35/35/25
f 37/37/26 33/33/26 35/35/26
f 35/35/27 32/32/27 42/42/27
f 35/35/28 34/34/28 32/32/28
f 34/34/29 30/30/29 32/32/29
f 32/32/30 29/29/30 42/42/30
f 32/32/31 31/31/31 29/29/31
f 31/31/32 27/27/32 29/29/32
f 29/29/33 41/41/33 42/42/33
f 29/29/34 28/28/34 41/41/34
f 28/28/35 39/39/35 41/41/35
f 26/26/36 40/40/36 39/39/36
f 26/26/37 21/21/37 40/40/37
f 21/21/38 36/36/38 40/40/38
f 25/25/39 37/37/39 36/36/39
f 25/25/40 18/18/40 37/37/40
f 18/18/41 33/33/41 37/37/41
f 24/24/42 34/34/42 33/33/42
f 24/24/43 15/15/43 34/34/43
f 15/15/44 30/30/44 34/34/44
f 23/23/45 31/31/45 30/30/45
f 23/23/46 12/12/46 31/31/46
f 12/12/47 27/27/47 31/31/47
f 22/22/48 28/28/48 27/27/48
f 22/22/49 9/9/49 28/28/49
f 9/9/50 39/39/50 28/28/50
f 21/21/51 25/25/51 36/36/51
f 21/21/52 20/20/52 25/25/52
f 20/20/53 16/16/53 25/25/53
f 18/18/54 24/24/54 33/33/54
f 18/18/55 17/17/55 24/24/55
f 17/17/56 13/13/56 24/24/56
f 15/15/57 23/23/57 30/30/57
f 15/15/58 14/14/58 23/23/58
f 14/14/59 10/10/59 23/23/59
f 12/12/60 22/22/60 27/27/60
f 12/12/61 11/11/61 22/22/61
f 11/11/62 4/4/62 22/22/62
f 9/9/63 26/26/63 39/39/63
f 9/9/64 5/5/64 26/26/64
f 5/5/65 19/19/65 26/26/65
f 8/8/66 20/20/66 19/19/66
f 8/8/67 7/7/67 20/20/67
f 7/7/68 16/16/68 20/20/68
f 7/7/69 17/17/69 16/16/69
f 7/7/70 6/6/70 17/17/70
f 6/6/71 13/13/71 17/17/71
f 6/6/72 14/14/72 13/13/72
f 6/6/73 3/3/73 14/14/73
f 3/3/74 10/10/74 14/14/74
f 5/5/75 8/8/75 19/19/75
f 5/5/76 2/2/76 8/8/76
f 2/2/77 1/1/77 8/8/77
f 3/3/78 11/11/78 10/10/78
f 3/3/79 2/2/79 11/11/79
f 2/2/80 4/4/80 11/11/80
