# Blender v2.82 (sub 7) OBJ File: ''
# www.blender.org
mtllib t4-cyan_cylinder.mtl
o t4-cyan_Cylinder.014
v 32.931393 -0.280999 1.383956
v 32.937840 1.454328 1.599276
v 32.952904 1.454328 1.550007
v 33.018047 -0.281103 1.102423
v 32.994049 1.454328 1.519001
v 33.255089 -0.282115 0.925833
v 33.045563 1.454328 1.518101
v 33.564781 -0.108667 0.945881
v 33.087765 1.454328 1.547653
v 33.808247 -0.110411 1.115662
v 33.104542 1.454328 1.596367
v 33.905144 -0.111379 1.394594
v 33.089478 1.454328 1.645636
v 33.818512 -0.111277 1.676141
v 33.048328 1.454328 1.676642
v 33.581432 -0.110144 1.852754
v 32.996819 1.454328 1.677542
v 33.284393 -0.108324 1.856963
v 32.954613 1.454328 1.647990
v 33.040962 -0.106695 1.687158
v 33.267269 -5.432561 1.034849
v 33.610607 -5.432561 0.776124
v 33.679207 -5.403440 0.975346
v 33.439865 -5.403440 1.155702
v 33.529690 -5.806263 2.463909
v 33.659451 -4.102746 1.990538
v 33.364338 -4.101913 1.784230
v 32.976696 -5.757609 2.087873
v 33.538795 -4.498232 2.404011
v 33.655922 -2.720223 1.882547
v 33.417809 -2.718465 1.716516
v 33.024788 -4.497487 2.044396
v 33.565331 -3.063216 2.218657
v 33.559055 -1.308894 1.774980
v 33.378201 -1.307104 1.649057
v 33.065975 -3.201877 1.944630
v 33.453777 -1.727251 2.205057
v 33.300026 0.098106 1.621239
v 33.177265 0.098632 1.535489
v 33.126183 -1.723906 1.977005
v 33.247017 -4.101524 1.444131
v 32.773216 -5.961210 1.452470
v 33.323154 -2.717740 1.442803
v 32.811146 -4.404183 1.451739
v 33.306339 -1.306366 1.441683
v 32.900215 -3.200529 1.465407
v 33.128483 0.098826 1.394435
v 32.995808 -1.722262 1.601035
v 34.198578 -5.657412 2.461441
v 34.019608 -4.103671 1.984252
v 34.166092 -4.498973 2.393062
v 33.946453 -2.722164 1.877476
v 34.134132 -3.247028 2.174148
v 33.779682 -1.310823 1.771344
v 33.798256 -1.415990 2.076436
v 33.449997 0.097445 1.619011
v 34.724957 -5.851273 2.050150
v 34.307232 -4.104308 1.767772
v 34.667072 -4.499420 2.015730
v 34.178432 -2.723568 1.703241
v 34.540031 -3.249025 1.869099
v 33.955826 -1.312215 1.639528
v 34.117233 -1.418506 1.837100
v 33.569702 0.097027 1.529576
v 34.931446 -5.657411 1.414800
v 34.412457 -4.104412 1.423788
v 35.008316 -4.601673 1.413387
v 34.263195 -2.723791 1.426394
v 34.617100 -3.240104 1.363477
v 34.020103 -1.312373 1.429872
v 34.233700 -1.418874 1.456820
v 33.613457 0.096996 1.387115
v 34.699505 -5.897313 0.789624
v 34.295109 -4.103979 1.083689
v 34.804020 -4.601369 0.820567
v 34.168411 -2.722832 1.152681
v 34.390945 -3.057889 0.919888
v 33.948051 -1.311320 1.222490
v 34.206284 -1.706594 0.949117
v 33.564579 0.097339 1.246053
v 34.162540 -5.650256 0.396876
v 33.999981 -4.103116 0.877381
v 34.290066 -4.600720 0.460950
v 33.930252 -2.720992 0.986652
v 33.974232 -3.055143 0.629196
v 33.767139 -1.309445 1.096562
v 33.878586 -1.703062 0.721067
v 33.441681 0.097996 1.160262
v 33.493599 -5.781886 0.416662
v 33.639828 -4.102205 0.883667
v 33.495567 -4.404865 0.474818
v 33.639732 -2.719071 0.991723
v 33.537132 -3.061465 0.658985
v 33.546520 -1.307528 1.100198
v 33.478977 -1.699430 0.728042
v 33.291767 0.098562 1.162488
v 32.954399 -5.757609 0.810356
v 33.352226 -4.101606 1.100146
v 32.994514 -4.404290 0.852151
v 33.407867 -2.717871 1.165956
v 33.048580 -3.200848 0.980699
v 33.370556 -1.306447 1.232017
v 33.178471 -1.583388 1.067082
v 33.172211 0.098821 1.251965
v 33.141575 -5.432561 1.445971
v 34.040451 -5.432561 0.768622
v 34.392609 -5.432561 1.015206
v 34.532574 -5.432561 1.421691
v 34.406879 -5.432561 1.832814
v 34.063541 -5.432561 2.091538
v 33.633698 -5.432561 2.099041
v 33.281540 -5.432561 1.852456
v 33.994942 -5.403440 1.892316
v 34.234283 -5.403440 1.711960
v 33.978848 -5.403440 0.970116
v 33.352245 -5.403440 1.442294
v 33.695301 -5.403440 1.897546
v 34.224335 -5.403440 1.142009
v 33.449814 -5.403440 1.725653
v 34.321903 -5.403440 1.425369
v 33.942474 -7.019662 1.089082
v 34.124985 -7.019662 1.216876
v 34.291893 -8.635884 1.091103
v 34.003578 -8.635884 0.889223
v 33.267670 -8.635884 1.443771
v 33.370571 -8.635884 1.107184
v 33.651665 -8.635884 0.895366
v 34.406479 -8.635884 1.423894
v 34.303577 -8.635884 1.760480
v 34.022484 -8.635884 1.972298
v 33.670570 -8.635884 1.978441
v 33.382256 -8.635884 1.776562
v 33.731674 -7.019662 1.778581
v 33.549164 -7.019662 1.650787
v 33.541767 -7.019662 1.227056
v 33.719707 -7.019662 1.092970
v 34.132381 -7.019662 1.640607
v 33.954441 -7.019662 1.774693
v 34.197521 -7.019662 1.427540
v 33.476627 -7.019662 1.440123
vt -0.967140 0.582000
vt -0.967140 0.582000
vt -0.967140 0.582000
vt -0.967140 0.582000
vt -0.967140 0.582000
vt -0.967140 0.582000
vt -0.967140 0.582000
vt -0.967140 0.582000
vt -0.967140 0.582000
vt -0.967140 0.582000
vt -0.967140 0.582000
vt -0.967140 0.582000
vt -0.967140 0.582000
vt -0.967140 0.582000
vt -0.967140 0.582000
vt -0.967140 0.582000
vt -0.967140 0.582000
vt -0.967140 0.582000
vt -0.967140 0.582000
vt -0.967140 0.582000
vt -0.967140 0.582000
vt -0.967140 0.582000
vt -0.967140 0.582000
vt -0.967140 0.582000
vt -0.967140 0.582000
vt -0.967140 0.582000
vt -0.967140 0.582000
vt -0.967140 0.582000
vt -0.967140 0.582000
vt -0.967140 0.582000
vt -0.967140 0.582000
vt -0.967140 0.582000
vt -0.967140 0.582000
vt -0.967140 0.582000
vt -0.967140 0.582000
vt -0.967140 0.582000
vt -0.967140 0.582000
vt -0.967140 0.582000
vt -0.967140 0.582000
vt -0.967140 0.582000
vt -0.967140 0.582000
vt -0.967140 0.582000
vt -0.967140 0.582000
vt -0.967140 0.582000
vt -0.967140 0.582000
vt -0.967140 0.582000
vt -0.967140 0.582000
vt -0.967140 0.582000
vt -0.967140 0.582000
vt -0.967140 0.582000
vt -0.967140 0.582000
vt -0.967140 0.582000
vt -0.967140 0.582000
vt -0.967140 0.582000
vt -0.967140 0.582000
vt -0.967140 0.582000
vt -0.967140 0.582000
vt -0.967140 0.582000
vt -0.967140 0.582000
vt -0.967140 0.582000
vt -0.967140 0.582000
vt -0.967140 0.582000
vt -0.967140 0.582000
vt -0.967140 0.582000
vt -0.967140 0.582000
vt -0.967140 0.582000
vt -0.967140 0.582000
vt -0.967140 0.582000
vt -0.967140 0.582000
vt -0.967140 0.582000
vt -0.967140 0.582000
vt -0.967140 0.582000
vt -0.967140 0.582000
vt -0.967140 0.582000
vt -0.967140 0.582000
vt -0.967140 0.582000
vt -0.967140 0.582000
vt -0.967140 0.582000
vt -0.967140 0.582000
vt -0.967140 0.582000
vt -0.967140 0.582000
vt -0.967140 0.582000
vt -0.967140 0.582000
vt -0.967140 0.582000
vt -0.967140 0.582000
vt -0.967140 0.582000
vt -0.967140 0.582000
vt -0.967140 0.582000
vt -0.967140 0.582000
vt -0.967140 0.582000
vt -0.967140 0.582000
vt -0.967140 0.582000
vt -0.967140 0.582000
vt -0.967140 0.582000
vt -0.967140 0.582000
vt -0.967140 0.582000
vt -0.967140 0.582000
vt -0.967140 0.582000
vt -0.967140 0.582000
vt -0.967140 0.582000
vt -0.967140 0.582000
vt -0.967140 0.582000
vt -0.967140 0.582000
vt -0.967140 0.582000
vt -0.967140 0.582000
vt -0.967140 0.582000
vt -0.967140 0.582000
vt -0.967140 0.582000
vt -0.967140 0.582000
vt -0.967140 0.582000
vt -0.967140 0.582000
vt -0.967140 0.582000
vt -0.967140 0.582000
vt -0.967140 0.582000
vt -0.967140 0.582000
vt -0.967140 0.582000
vt -0.967140 0.582000
vt -0.967140 0.582000
vt -0.967140 0.582000
vt -0.967140 0.582000
vt -0.967140 0.582000
vt -0.967140 0.582000
vt -0.967140 0.582000
vt -0.967140 0.582000
vt -0.967140 0.582000
vt -0.967140 0.582000
vt -0.967140 0.582000
vt -0.967140 0.582000
vt -0.967140 0.582000
vt -0.967140 0.582000
vt -0.967140 0.582000
vt -0.967140 0.582000
vt -0.967140 0.582000
vt -0.967140 0.582000
vt -0.967140 0.582000
vt -0.967140 0.582000
vt -0.967140 0.582000
vt -0.967140 0.582000
vt -0.967140 0.582000
vt -0.967140 0.582000
vn -0.9550 0.0400 -0.2940
vn -0.5870 0.1813 -0.7890
vn -0.1104 0.3064 -0.9455
vn 0.5157 0.4404 -0.7350
vn 0.8367 0.4651 -0.2891
vn 0.8714 0.4110 0.2680
vn 0.5740 0.2823 0.7687
vn 0.0148 0.1168 0.9930
vn 0.0000 1.0000 0.0000
vn -0.9319 -0.0413 0.3605
vn -0.5721 -0.0111 0.8201
vn 0.0865 -0.9896 0.1148
vn -0.5262 0.2646 0.8081
vn -0.5520 0.2679 0.7896
vn -0.5150 0.2143 0.8300
vn -0.5571 0.2100 0.8034
vn -0.9440 0.2415 0.2249
vn -0.8933 0.2644 0.3636
vn -0.9253 0.2025 0.3206
vn -0.9394 0.1054 0.3262
vn -0.0568 0.2713 0.9608
vn 0.0171 0.2806 0.9597
vn 0.1488 0.2274 0.9624
vn 0.0743 0.3095 0.9480
vn 0.6526 0.2705 0.7078
vn 0.5754 0.2927 0.7637
vn 0.5799 0.2662 0.7699
vn 0.5629 0.3548 0.7465
vn 0.8876 0.2723 0.3715
vn 0.8438 0.3319 0.4217
vn 0.9460 0.2878 0.1493
vn 0.8864 0.3752 0.2711
vn 0.8665 0.2648 -0.4231
vn 0.8846 0.3531 -0.3047
vn 0.8957 0.2890 -0.3379
vn 0.8976 0.3610 -0.2530
vn 0.6455 0.2631 -0.7170
vn 0.5432 0.3210 -0.7758
vn 0.5511 0.2762 -0.7874
vn 0.5433 0.3210 -0.7758
vn -0.0822 0.2736 -0.9583
vn 0.0518 0.2782 -0.9591
vn -0.0694 0.2503 -0.9657
vn -0.0148 0.2335 -0.9722
vn -0.5605 0.2668 -0.7840
vn -0.5766 0.2842 -0.7660
vn -0.5783 0.2031 -0.7902
vn -0.7304 0.0876 -0.6774
vn -0.9513 0.2415 -0.1918
vn -0.9187 0.2775 -0.2810
vn -0.9374 0.1974 -0.2870
vn -0.9483 0.0333 -0.3157
vn 0.4059 -0.7018 -0.5854
vn 0.7130 -0.6561 -0.2475
vn -0.0131 -0.7518 -0.6592
vn -0.3702 -0.7881 -0.4918
vn -0.5695 -0.8032 -0.1747
vn -0.5731 -0.7956 0.1966
vn -0.3708 -0.7659 0.5253
vn 0.0076 -0.7177 0.6963
vn 0.5225 -0.4874 0.6996
vn 0.8536 -0.4502 0.2620
vn 0.7329 -0.6422 0.2247
vn 0.4449 -0.6655 0.5993
vn 0.0060 -0.6891 0.7246
vn -0.4206 -0.6857 0.5941
vn -0.4564 -0.8763 0.1541
vn -0.4291 -0.8937 -0.1309
vn -0.2351 -0.9230 -0.3045
vn -0.0136 -0.9456 -0.3251
vn 0.7259 -0.6393 -0.2538
vn 0.4012 -0.7038 -0.5862
vn 0.7380 -0.6358 0.2261
vn 0.4314 -0.6919 0.5789
vn 0.0071 -0.7301 0.6834
vn -0.4181 -0.6890 0.5920
vn -0.7194 -0.6493 0.2468
vn -0.7650 -0.6002 -0.2337
vn -0.5019 -0.5546 -0.6637
vn -0.0172 -0.6975 -0.7164
vn 0.7222 -0.6443 -0.2515
vn 0.4098 -0.6913 -0.5951
vn 0.5638 -0.8077 0.1726
vn 0.3540 -0.8071 0.4725
vn 0.0083 -0.8051 0.5931
vn -0.4025 -0.7140 0.5728
vn -0.6238 -0.7516 0.2143
vn -0.6581 -0.7256 -0.2011
vn -0.4161 -0.7237 -0.5507
vn -0.0139 -0.7205 -0.6933
vn 0.5573 -0.8075 -0.1932
vn 0.3977 -0.7175 -0.5718
vn 0.6362 -0.7466 0.1945
vn 0.3987 -0.7491 0.5290
vn 0.0089 -0.8616 0.5075
vn -0.2882 -0.8646 0.4116
vn -0.4821 -0.8603 0.1660
vn -0.4875 -0.8603 -0.1491
vn -0.3085 -0.8587 -0.4093
vn -0.0090 -0.8559 -0.5170
vn 0.6289 -0.7467 -0.2166
vn 0.3799 -0.7492 -0.5425
vn -0.0865 -0.9896 -0.1148
vn 0.0025 -0.9896 0.1438
vn 0.1375 -0.9896 0.0420
vn -0.0025 -0.9896 -0.1438
vn -0.0825 -0.9896 0.1178
vn 0.0825 -0.9896 -0.1178
vn -0.1360 -0.9896 0.0468
vn 0.1360 -0.9896 -0.0468
vn -0.1375 -0.9896 -0.0420
vn 0.5693 0.1221 -0.8130
vn 0.0000 -1.0000 0.0000
vn -0.5693 0.1221 0.8130
vn -0.5973 0.1221 -0.7927
vn 0.5973 0.1221 0.7927
vn 0.9385 0.1221 -0.3231
vn -0.9385 0.1221 0.3231
vn -0.0173 0.1221 -0.9924
vn 0.0173 0.1221 0.9924
vn -0.9492 0.1221 -0.2902
vn 0.9492 0.1221 0.2902
vn 0.9538 -0.0730 0.2916
vn -0.9538 -0.0730 -0.2916
vn 0.0174 -0.0730 0.9972
vn -0.0174 -0.0730 -0.9972
vn -0.9430 -0.0730 0.3247
vn 0.9430 -0.0730 -0.3247
vn 0.6002 -0.0730 0.7965
vn -0.6002 -0.0730 -0.7965
vn -0.5720 -0.0730 0.8170
vn 0.5720 -0.0730 -0.8170
vn -0.9555 0.0398 -0.2922
vn -0.5919 0.1804 -0.7855
vn -0.0164 0.3389 -0.9407
vn 0.5150 0.4403 -0.7355
vn 0.8370 0.4651 -0.2883
vn 0.8717 0.4111 0.2665
vn 0.5772 0.2829 0.7660
vn 0.0174 0.1172 0.9930
vn -0.9446 -0.0441 0.3252
vn -0.5735 -0.0112 0.8191
vn 0.0865 -0.9896 0.1149
vn -0.5506 0.2735 0.7887
vn -0.5498 0.2673 0.7914
vn -0.5583 0.2015 0.8048
vn -0.5593 0.2100 0.8020
vn -0.9100 0.2707 0.3142
vn -0.9078 0.2773 0.3147
vn -0.9251 0.2024 0.3213
vn -0.9398 0.1054 0.3252
vn 0.0174 0.2954 0.9552
vn 0.0186 0.2802 0.9597
vn 0.0181 0.2452 0.9693
vn 0.0155 0.2926 0.9561
vn 0.5741 0.3001 0.7618
vn 0.5789 0.2663 0.7707
vn 0.5603 0.3551 0.7483
vn 0.9113 0.3029 0.2787
vn 0.9122 0.3001 0.2790
vn 0.9098 0.3075 0.2787
vn 0.8862 0.3751 0.2721
vn 0.9010 0.3029 -0.3105
vn 0.8844 0.3532 -0.3050
vn 0.9061 0.2841 -0.3134
vn 0.8859 0.3484 -0.3061
vn 0.5471 0.3002 -0.7814
vn 0.5510 0.2762 -0.7875
vn -0.0159 0.2950 -0.9554
vn -0.0147 0.2943 -0.9556
vn -0.0139 0.2440 -0.9697
vn -0.0136 0.2335 -0.9723
vn -0.5781 0.2734 -0.7688
vn -0.5751 0.2837 -0.7673
vn -0.5866 0.2005 -0.7847
vn -0.5969 0.0855 -0.7978
vn -0.9206 0.2704 -0.2816
vn -0.9187 0.2774 -0.2812
vn -0.9373 0.1974 -0.2872
vn -0.9556 0.0287 -0.2933
vn 0.4048 -0.7010 -0.5871
vn 0.8868 -0.4586 -0.0568
vn -0.0140 -0.7515 -0.6596
vn -0.3701 -0.7881 -0.4918
vn -0.5694 -0.8033 -0.1749
vn -0.5733 -0.7955 0.1964
vn -0.3717 -0.7655 0.5251
vn 0.2436 -0.5289 0.8130
vn 0.5207 -0.4864 0.7017
vn 0.8535 -0.4498 0.2629
vn 0.8180 -0.5593 0.1344
vn 0.4378 -0.6576 0.6131
vn 0.0064 -0.6893 0.7245
vn -0.4207 -0.6857 0.5939
vn -0.6001 -0.6816 0.4187
vn -0.4289 -0.8939 -0.1305
vn -0.2353 -0.9232 -0.3039
vn 0.4166 -0.7005 -0.5794
vn 0.7258 -0.6391 -0.2545
vn 0.4010 -0.7038 -0.5864
vn 0.7379 -0.6358 0.2263
vn 0.5467 -0.6218 0.5608
vn 0.0584 -0.7047 0.7071
vn -0.4178 -0.6888 0.5925
vn -0.8022 -0.5711 0.1744
vn -0.8249 -0.5489 -0.1354
vn -0.5016 -0.5547 -0.6638
vn -0.2380 -0.5410 -0.8066
vn 0.7221 -0.6444 -0.2516
vn 0.4987 -0.6392 -0.5854
vn 0.3550 -0.8067 0.4726
vn -0.1567 -0.6860 0.7105
vn -0.4018 -0.7143 0.5730
vn -0.6236 -0.7517 0.2145
vn -0.6262 -0.7456 -0.2282
vn -0.4154 -0.7240 -0.5507
vn -0.0129 -0.7211 -0.6927
vn 0.5977 -0.7304 -0.3305
vn 0.3982 -0.7181 -0.5707
vn 0.8197 -0.5706 0.0504
vn 0.3871 -0.7210 0.5747
vn 0.1639 -0.7336 0.6596
vn -0.6249 -0.6339 0.4557
vn -0.6137 -0.6338 0.4709
vn -0.6138 -0.6770 -0.4061
vn -0.5916 -0.6768 -0.4381
vn 0.1559 -0.7119 -0.6847
vn 0.8174 -0.5706 -0.0790
vn 0.3575 -0.7015 -0.6165
vn -0.0865 -0.9896 -0.1149
vn -0.9384 0.1221 0.3231
usemtl blue
s off
f 1/1/1 3/2/1 4/3/1
f 4/3/2 5/4/2 6/5/2
f 5/4/3 8/6/3 6/5/3
f 8/6/4 9/7/4 10/8/4
f 9/7/5 12/9/5 10/8/5
f 11/10/6 14/11/6 12/9/6
f 13/12/7 16/13/7 14/11/7
f 15/14/8 18/15/8 16/13/8
f 17/16/9 9/7/9 5/4/9
f 20/17/10 2/18/10 1/1/10
f 17/16/11 20/17/11 18/15/11
f 21/19/12 23/20/12 24/21/12
f 26/22/13 28/23/13 25/24/13
f 30/25/14 32/26/14 29/27/14
f 33/28/15 35/29/15 36/30/15
f 38/31/16 40/32/16 37/33/16
f 28/23/17 41/34/17 42/35/17
f 31/36/18 44/37/18 32/26/18
f 35/29/19 46/38/19 36/30/19
f 39/39/20 48/40/20 40/32/20
f 49/41/21 26/22/21 25/24/21
f 52/42/22 29/27/22 51/43/22
f 54/44/23 33/28/23 53/45/23
f 55/46/24 38/31/24 37/33/24
f 58/47/25 49/41/25 57/48/25
f 60/49/26 51/43/26 59/50/26
f 62/51/27 53/45/27 61/52/27
f 64/53/28 55/46/28 63/54/28
f 65/55/29 58/47/29 57/48/29
f 68/56/30 59/50/30 67/57/30
f 70/58/31 61/52/31 69/59/31
f 71/60/32 64/53/32 63/54/32
f 74/61/33 65/55/33 73/62/33
f 75/63/34 68/56/34 67/57/34
f 77/64/35 70/58/35 69/59/35
f 80/65/36 71/60/36 79/66/36
f 81/67/37 74/61/37 73/62/37
f 83/68/38 76/69/38 75/63/38
f 85/70/39 78/71/39 77/64/39
f 87/72/40 80/65/40 79/66/40
f 90/73/41 81/67/41 89/74/41
f 91/75/42 84/76/42 83/68/42
f 93/77/43 86/78/43 85/70/43
f 95/79/44 88/80/44 87/72/44
f 97/81/45 90/73/45 89/74/45
f 99/82/46 92/83/46 91/75/46
f 102/84/47 93/77/47 101/85/47
f 103/86/48 96/87/48 95/79/48
f 41/34/49 97/81/49 42/35/49
f 44/37/50 100/88/50 99/82/50
f 46/38/51 102/84/51 101/85/51
f 47/89/52 103/86/52 48/40/52
f 38/31/53 20/17/53 39/39/53
f 20/17/54 47/89/54 39/39/54
f 56/90/55 18/15/55 38/31/55
f 64/53/56 16/13/56 56/90/56
f 72/91/57 14/11/57 64/53/57
f 10/8/58 72/91/58 80/65/58
f 8/6/59 80/65/59 88/80/59
f 96/87/60 8/6/60 88/80/60
f 4/3/61 96/87/61 104/92/61
f 1/1/62 104/92/62 47/89/62
f 45/93/63 103/86/63 102/84/63
f 103/86/64 94/94/64 102/84/64
f 95/79/65 86/78/65 94/94/65
f 86/78/66 79/66/66 78/71/66
f 78/71/67 71/60/67 70/58/67
f 71/60/68 62/51/68 70/58/68
f 63/54/69 54/44/69 62/51/69
f 55/46/70 34/95/70 54/44/70
f 35/29/71 48/40/71 45/93/71
f 34/95/72 40/32/72 35/29/72
f 43/96/73 101/85/73 100/88/73
f 100/88/74 93/77/74 92/83/74
f 92/83/75 85/70/75 84/76/75
f 84/76/76 77/64/76 76/69/76
f 77/64/77 68/56/77 76/69/77
f 68/56/78 61/52/78 60/49/78
f 60/49/79 53/45/79 52/42/79
f 52/42/80 33/28/80 30/25/80
f 36/30/81 43/96/81 31/36/81
f 33/28/82 31/36/82 30/25/82
f 41/34/83 99/82/83 98/97/83
f 98/97/84 91/75/84 90/73/84
f 91/75/85 82/98/85 90/73/85
f 83/68/86 74/61/86 82/98/86
f 75/63/87 66/99/87 74/61/87
f 66/99/88 59/50/88 58/47/88
f 58/47/89 51/43/89 50/100/89
f 50/100/90 29/27/90 26/22/90
f 27/101/91 44/37/91 41/34/91
f 26/22/92 32/26/92 27/101/92
f 105/102/93 97/81/93 21/19/93
f 97/81/94 22/103/94 21/19/94
f 22/103/95 81/67/95 106/104/95
f 81/67/96 107/105/96 106/104/96
f 107/105/97 65/55/97 108/106/97
f 65/55/98 109/107/98 108/106/98
f 109/107/99 49/41/99 110/108/99
f 49/41/100 111/109/100 110/108/100
f 28/23/101 105/102/101 112/110/101
f 111/109/102 28/23/102 112/110/102
f 110/108/103 114/111/103 109/107/103
f 106/104/104 23/20/104 22/103/104
f 21/19/105 116/112/105 105/102/105
f 111/109/106 113/113/106 110/108/106
f 107/105/107 115/114/107 106/104/107
f 111/109/108 119/115/108 117/116/108
f 107/105/109 120/117/109 118/118/109
f 112/110/110 116/112/110 119/115/110
f 108/106/111 114/111/111 120/117/111
usemtl Trunck_NONE
f 122/119/112 124/120/112 121/121/112
f 124/120/113 128/122/113 130/123/113
f 134/124/114 131/125/114 133/126/114
f 135/127/115 127/128/115 126/129/115
f 137/130/116 130/123/116 129/131/116
f 139/132/117 123/133/117 122/119/117
f 134/124/118 125/134/118 132/135/118
f 136/136/119 124/120/119 127/128/119
f 138/137/120 131/125/120 130/123/120
f 135/127/121 125/134/121 140/138/121
f 137/130/122 128/122/122 139/132/122
f 114/111/123 139/132/123 120/117/123
f 116/112/124 135/127/124 140/138/124
f 117/116/125 138/137/125 113/113/125
f 115/114/126 136/136/126 23/20/126
f 119/115/127 140/138/127 134/124/127
f 118/118/128 139/132/128 122/119/128
f 114/111/129 138/137/129 137/130/129
f 24/21/130 136/136/130 135/127/130
f 119/115/131 133/126/131 117/116/131
f 118/118/132 121/121/132 115/114/132
usemtl blue
f 1/1/133 2/18/133 3/2/133
f 4/3/134 3/2/134 5/4/134
f 5/4/135 7/139/135 8/6/135
f 8/6/136 7/139/136 9/7/136
f 9/7/137 11/10/137 12/9/137
f 11/10/138 13/12/138 14/11/138
f 13/12/139 15/14/139 16/13/139
f 15/14/140 17/16/140 18/15/140
f 5/4/9 3/2/9 17/16/9
f 3/2/9 2/18/9 17/16/9
f 2/18/9 19/140/9 17/16/9
f 17/16/9 15/14/9 9/7/9
f 15/14/9 13/12/9 9/7/9
f 13/12/9 11/10/9 9/7/9
f 9/7/9 7/139/9 5/4/9
f 20/17/141 19/140/141 2/18/141
f 17/16/142 19/140/142 20/17/142
f 21/19/143 22/103/143 23/20/143
f 26/22/144 27/101/144 28/23/144
f 30/25/145 31/36/145 32/26/145
f 33/28/146 34/95/146 35/29/146
f 38/31/147 39/39/147 40/32/147
f 28/23/148 27/101/148 41/34/148
f 31/36/149 43/96/149 44/37/149
f 35/29/150 45/93/150 46/38/150
f 39/39/151 47/89/151 48/40/151
f 49/41/152 50/100/152 26/22/152
f 52/42/153 30/25/153 29/27/153
f 54/44/154 34/95/154 33/28/154
f 55/46/155 56/90/155 38/31/155
f 58/47/156 50/100/156 49/41/156
f 60/49/26 52/42/26 51/43/26
f 62/51/157 54/44/157 53/45/157
f 64/53/158 56/90/158 55/46/158
f 65/55/159 66/99/159 58/47/159
f 68/56/160 60/49/160 59/50/160
f 70/58/161 62/51/161 61/52/161
f 71/60/162 72/91/162 64/53/162
f 74/61/163 66/99/163 65/55/163
f 75/63/164 76/69/164 68/56/164
f 77/64/165 78/71/165 70/58/165
f 80/65/166 72/91/166 71/60/166
f 81/67/167 82/98/167 74/61/167
f 83/68/40 84/76/40 76/69/40
f 85/70/168 86/78/168 78/71/168
f 87/72/40 88/80/40 80/65/40
f 90/73/169 82/98/169 81/67/169
f 91/75/170 92/83/170 84/76/170
f 93/77/171 94/94/171 86/78/171
f 95/79/172 96/87/172 88/80/172
f 97/81/173 98/97/173 90/73/173
f 99/82/174 100/88/174 92/83/174
f 102/84/175 94/94/175 93/77/175
f 103/86/176 104/92/176 96/87/176
f 41/34/177 98/97/177 97/81/177
f 44/37/178 43/96/178 100/88/178
f 46/38/179 45/93/179 102/84/179
f 47/89/180 104/92/180 103/86/180
f 38/31/181 18/15/181 20/17/181
f 20/17/182 1/1/182 47/89/182
f 56/90/183 16/13/183 18/15/183
f 64/53/184 14/11/184 16/13/184
f 72/91/185 12/9/185 14/11/185
f 10/8/186 12/9/186 72/91/186
f 8/6/187 10/8/187 80/65/187
f 96/87/188 6/5/188 8/6/188
f 4/3/189 6/5/189 96/87/189
f 1/1/190 4/3/190 104/92/190
f 45/93/191 48/40/191 103/86/191
f 103/86/192 95/79/192 94/94/192
f 95/79/193 87/72/193 86/78/193
f 86/78/194 87/72/194 79/66/194
f 78/71/195 79/66/195 71/60/195
f 71/60/196 63/54/196 62/51/196
f 63/54/197 55/46/197 54/44/197
f 55/46/198 37/33/198 34/95/198
f 35/29/199 40/32/199 48/40/199
f 34/95/200 37/33/200 40/32/200
f 43/96/201 46/38/201 101/85/201
f 100/88/202 101/85/202 93/77/202
f 92/83/203 93/77/203 85/70/203
f 84/76/204 85/70/204 77/64/204
f 77/64/205 69/59/205 68/56/205
f 68/56/206 69/59/206 61/52/206
f 60/49/207 61/52/207 53/45/207
f 52/42/208 53/45/208 33/28/208
f 36/30/209 46/38/209 43/96/209
f 33/28/210 36/30/210 31/36/210
f 41/34/83 44/37/83 99/82/83
f 98/97/211 99/82/211 91/75/211
f 91/75/212 83/68/212 82/98/212
f 83/68/213 75/63/213 74/61/213
f 75/63/214 67/57/214 66/99/214
f 66/99/215 67/57/215 59/50/215
f 58/47/216 59/50/216 51/43/216
f 50/100/217 51/43/217 29/27/217
f 27/101/218 32/26/218 44/37/218
f 26/22/219 29/27/219 32/26/219
f 105/102/220 42/35/220 97/81/220
f 97/81/221 89/74/221 22/103/221
f 22/103/222 89/74/222 81/67/222
f 81/67/223 73/62/223 107/105/223
f 107/105/224 73/62/224 65/55/224
f 65/55/225 57/48/225 109/107/225
f 109/107/226 57/48/226 49/41/226
f 49/41/227 25/24/227 111/109/227
f 28/23/228 42/35/228 105/102/228
f 111/109/229 25/24/229 28/23/229
f 110/108/230 113/113/230 114/111/230
f 106/104/104 115/114/104 23/20/104
f 21/19/105 24/21/105 116/112/105
f 111/109/106 117/116/106 113/113/106
f 107/105/107 118/118/107 115/114/107
f 111/109/108 112/110/108 119/115/108
f 107/105/109 108/106/109 120/117/109
f 112/110/110 105/102/110 116/112/110
f 108/106/111 109/107/111 114/111/111
usemtl Trunck_NONE
f 122/119/112 123/133/112 124/120/112
f 132/135/113 125/134/113 124/120/113
f 125/134/113 126/129/113 124/120/113
f 126/129/113 127/128/113 124/120/113
f 124/120/113 123/133/113 128/122/113
f 128/122/113 129/131/113 130/123/113
f 130/123/113 131/125/113 124/120/113
f 131/125/113 132/135/113 124/120/113
f 134/124/114 132/135/114 131/125/114
f 135/127/115 136/136/115 127/128/115
f 137/130/116 138/137/116 130/123/116
f 139/132/117 128/122/117 123/133/117
f 134/124/231 140/138/231 125/134/231
f 136/136/119 121/121/119 124/120/119
f 138/137/120 133/126/120 131/125/120
f 135/127/121 126/129/121 125/134/121
f 137/130/122 129/131/122 128/122/122
f 114/111/123 137/130/123 139/132/123
f 116/112/124 24/21/124 135/127/124
f 117/116/125 133/126/125 138/137/125
f 115/114/126 121/121/126 136/136/126
f 119/115/127 116/112/127 140/138/127
f 118/118/128 120/117/128 139/132/128
f 114/111/129 113/113/129 138/137/129
f 24/21/130 23/20/130 136/136/130
f 119/115/131 134/124/131 133/126/131
f 118/118/132 122/119/132 121/121/132
