# Blender v2.82 (sub 7) OBJ File: ''
# www.blender.org
mtllib t4-purple_cylinder.mtl
o t4-purple_Cylinder.031
v -5.154144 -0.215605 1.383956
v -5.147697 1.519722 1.599276
v -5.132634 1.519722 1.550007
v -5.067492 -0.215709 1.102423
v -5.091487 1.519722 1.519001
v -4.830447 -0.216721 0.925833
v -5.039974 1.519722 1.518101
v -4.520757 -0.043273 0.945881
v -4.997770 1.519722 1.547653
v -4.277291 -0.045017 1.115662
v -4.980997 1.519722 1.596367
v -4.180395 -0.045984 1.394594
v -4.996060 1.519722 1.645636
v -4.267026 -0.045883 1.676141
v -5.037207 1.519722 1.676642
v -4.504106 -0.044750 1.852754
v -5.088720 1.519722 1.677542
v -4.801142 -0.042930 1.856963
v -5.130923 1.519722 1.647990
v -5.044575 -0.041301 1.687158
v -4.818268 -5.367167 1.034849
v -4.474929 -5.367167 0.776124
v -4.406332 -5.338046 0.975346
v -4.645672 -5.338046 1.155702
v -4.555848 -5.740870 2.463909
v -4.426087 -4.037352 1.990538
v -4.721199 -4.036520 1.784230
v -5.108841 -5.692215 2.087873
v -4.546742 -4.432838 2.404011
v -4.429614 -2.654829 1.882547
v -4.667730 -2.653071 1.716516
v -5.060751 -4.432093 2.044396
v -4.520207 -2.997823 2.218657
v -4.526480 -1.243500 1.774980
v -4.707335 -1.241710 1.649057
v -5.019560 -3.136483 1.944630
v -4.631758 -1.661857 2.205057
v -4.785509 0.163500 1.621239
v -4.908273 0.164026 1.535489
v -4.959353 -1.658512 1.977005
v -4.838522 -4.036130 1.444131
v -5.312320 -5.895816 1.452470
v -4.762383 -2.652345 1.442803
v -5.274392 -4.338789 1.451739
v -4.779197 -1.240971 1.441683
v -5.185323 -3.135135 1.465407
v -4.957055 0.164220 1.394435
v -5.089728 -1.656868 1.601035
v -3.886958 -5.592018 2.461441
v -4.065928 -4.038277 1.984252
v -3.919443 -4.433579 2.393062
v -4.139085 -2.656770 1.877476
v -3.951405 -3.181634 2.174148
v -4.305854 -1.245429 1.771344
v -4.287280 -1.350596 2.076436
v -4.635540 0.162839 1.619011
v -3.360579 -5.785879 2.050150
v -3.778304 -4.038913 1.767772
v -3.418465 -4.434025 2.015730
v -3.907105 -2.658174 1.703241
v -3.545507 -3.183631 1.869099
v -4.129711 -1.246821 1.639528
v -3.968304 -1.353112 1.837100
v -4.515835 0.162421 1.529576
v -3.154092 -5.592017 1.414800
v -3.673079 -4.039018 1.423788
v -3.077222 -4.536278 1.413387
v -3.822342 -2.658396 1.426394
v -3.468438 -3.174710 1.363477
v -4.065435 -1.246979 1.429872
v -3.851838 -1.353479 1.456820
v -4.472079 0.162390 1.387115
v -3.386033 -5.831919 0.789624
v -3.790427 -4.038585 1.083689
v -3.281517 -4.535975 0.820567
v -3.917124 -2.657438 1.152681
v -3.694592 -2.992494 0.919888
v -4.137487 -1.245926 1.222490
v -3.879252 -1.641200 0.949117
v -4.520957 0.162733 1.246053
v -3.922995 -5.584861 0.396876
v -4.085556 -4.037722 0.877381
v -3.795471 -4.535326 0.460950
v -4.155286 -2.655598 0.986652
v -4.111305 -2.989749 0.629196
v -4.318399 -1.244051 1.096562
v -4.206950 -1.637668 0.721067
v -4.643854 0.163390 1.160262
v -4.591938 -5.716492 0.416662
v -4.445707 -4.036811 0.883667
v -4.589971 -4.339471 0.474818
v -4.445803 -2.653677 0.991723
v -4.548403 -2.996071 0.658985
v -4.539017 -1.242134 1.100198
v -4.606558 -1.634036 0.728042
v -4.793770 0.163956 1.162488
v -5.131140 -5.692215 0.810356
v -4.733310 -4.036212 1.100146
v -5.091021 -4.338896 0.852151
v -4.677670 -2.652477 1.165956
v -5.036957 -3.135454 0.980699
v -4.714980 -1.241053 1.232017
v -4.907067 -1.517994 1.067082
v -4.913327 0.164215 1.251965
v -4.943961 -5.367167 1.445971
v -4.045087 -5.367167 0.768622
v -3.692928 -5.367167 1.015206
v -3.552964 -5.367167 1.421691
v -3.678657 -5.367167 1.832814
v -4.021996 -5.367167 2.091538
v -4.451838 -5.367167 2.099041
v -4.803997 -5.367167 1.852456
v -4.090594 -5.338047 1.892316
v -3.851254 -5.338047 1.711960
v -4.106691 -5.338046 0.970116
v -4.733292 -5.338046 1.442294
v -4.390235 -5.338047 1.897546
v -3.861202 -5.338046 1.142009
v -4.635724 -5.338047 1.725653
v -3.763634 -5.338046 1.425369
v -4.143062 -6.954268 1.089082
v -3.960553 -6.954268 1.216876
v -3.793645 -8.570490 1.091103
v -4.081959 -8.570490 0.889223
v -4.817869 -8.570490 1.443771
v -4.714964 -8.570490 1.107184
v -4.433871 -8.570490 0.895366
v -3.679056 -8.570490 1.423894
v -3.781961 -8.570490 1.760480
v -4.063054 -8.570490 1.972298
v -4.414967 -8.570490 1.978441
v -4.703280 -8.570490 1.776562
v -4.353863 -6.954268 1.778581
v -4.536373 -6.954268 1.650787
v -4.543768 -6.954268 1.227056
v -4.365830 -6.954268 1.092970
v -3.953157 -6.954268 1.640607
v -4.131095 -6.954268 1.774693
v -3.888016 -6.954268 1.427540
v -4.608910 -6.954268 1.440123
vt -0.967140 0.582000
vt -0.967140 0.582000
vt -0.967140 0.582000
vt -0.967140 0.582000
vt -0.967140 0.582000
vt -0.967140 0.582000
vt -0.967140 0.582000
vt -0.967140 0.582000
vt -0.967140 0.582000
vt -0.967140 0.582000
vt -0.967140 0.582000
vt -0.967140 0.582000
vt -0.967140 0.582000
vt -0.967140 0.582000
vt -0.967140 0.582000
vt -0.967140 0.582000
vt -0.967140 0.582000
vt -0.967140 0.582000
vt -0.967140 0.582000
vt -0.967140 0.582000
vt -0.967140 0.582000
vt -0.967140 0.582000
vt -0.967140 0.582000
vt -0.967140 0.582000
vt -0.967140 0.582000
vt -0.967140 0.582000
vt -0.967140 0.582000
vt -0.967140 0.582000
vt -0.967140 0.582000
vt -0.967140 0.582000
vt -0.967140 0.582000
vt -0.967140 0.582000
vt -0.967140 0.582000
vt -0.967140 0.582000
vt -0.967140 0.582000
vt -0.967140 0.582000
vt -0.967140 0.582000
vt -0.967140 0.582000
vt -0.967140 0.582000
vt -0.967140 0.582000
vt -0.967140 0.582000
vt -0.967140 0.582000
vt -0.967140 0.582000
vt -0.967140 0.582000
vt -0.967140 0.582000
vt -0.967140 0.582000
vt -0.967140 0.582000
vt -0.967140 0.582000
vt -0.967140 0.582000
vt -0.967140 0.582000
vt -0.967140 0.582000
vt -0.967140 0.582000
vt -0.967140 0.582000
vt -0.967140 0.582000
vt -0.967140 0.582000
vt -0.967140 0.582000
vt -0.967140 0.582000
vt -0.967140 0.582000
vt -0.967140 0.582000
vt -0.967140 0.582000
vt -0.967140 0.582000
vt -0.967140 0.582000
vt -0.967140 0.582000
vt -0.967140 0.582000
vt -0.967140 0.582000
vt -0.967140 0.582000
vt -0.967140 0.582000
vt -0.967140 0.582000
vt -0.967140 0.582000
vt -0.967140 0.582000
vt -0.967140 0.582000
vt -0.967140 0.582000
vt -0.967140 0.582000
vt -0.967140 0.582000
vt -0.967140 0.582000
vt -0.967140 0.582000
vt -0.967140 0.582000
vt -0.967140 0.582000
vt -0.967140 0.582000
vt -0.967140 0.582000
vt -0.967140 0.582000
vt -0.967140 0.582000
vt -0.967140 0.582000
vt -0.967140 0.582000
vt -0.967140 0.582000
vt -0.967140 0.582000
vt -0.967140 0.582000
vt -0.967140 0.582000
vt -0.967140 0.582000
vt -0.967140 0.582000
vt -0.967140 0.582000
vt -0.967140 0.582000
vt -0.967140 0.582000
vt -0.967140 0.582000
vt -0.967140 0.582000
vt -0.967140 0.582000
vt -0.967140 0.582000
vt -0.967140 0.582000
vt -0.967140 0.582000
vt -0.967140 0.582000
vt -0.967140 0.582000
vt -0.967140 0.582000
vt -0.967140 0.582000
vt -0.967140 0.582000
vt -0.967140 0.582000
vt -0.967140 0.582000
vt -0.967140 0.582000
vt -0.967140 0.582000
vt -0.967140 0.582000
vt -0.967140 0.582000
vt -0.967140 0.582000
vt -0.967140 0.582000
vt -0.967140 0.582000
vt -0.967140 0.582000
vt -0.967140 0.582000
vt -0.967140 0.582000
vt -0.967140 0.582000
vt -0.967140 0.582000
vt -0.967140 0.582000
vt -0.967140 0.582000
vt -0.967140 0.582000
vt -0.967140 0.582000
vt -0.967140 0.582000
vt -0.967140 0.582000
vt -0.967140 0.582000
vt -0.967140 0.582000
vt -0.967140 0.582000
vt -0.967140 0.582000
vt -0.967140 0.582000
vt -0.967140 0.582000
vt -0.967140 0.582000
vt -0.967140 0.582000
vt -0.967140 0.582000
vt -0.967140 0.582000
vt -0.967140 0.582000
vt -0.967140 0.582000
vt -0.967140 0.582000
vt -0.967140 0.582000
vt -0.967140 0.582000
vt -0.967140 0.582000
vn -0.9550 0.0400 -0.2939
vn -0.5870 0.1813 -0.7890
vn -0.1104 0.3064 -0.9455
vn 0.5157 0.4403 -0.7350
vn 0.8367 0.4651 -0.2891
vn 0.8714 0.4110 0.2680
vn 0.5740 0.2823 0.7687
vn 0.0148 0.1168 0.9930
vn 0.0000 1.0000 0.0000
vn -0.9319 -0.0413 0.3605
vn -0.5721 -0.0111 0.8201
vn 0.0865 -0.9896 0.1149
vn -0.5262 0.2646 0.8081
vn -0.5520 0.2679 0.7896
vn -0.5150 0.2143 0.8300
vn -0.5571 0.2100 0.8034
vn -0.9440 0.2415 0.2249
vn -0.8933 0.2644 0.3636
vn -0.9253 0.2025 0.3206
vn -0.9394 0.1054 0.3262
vn -0.0568 0.2713 0.9608
vn 0.0171 0.2806 0.9597
vn 0.1488 0.2274 0.9624
vn 0.0743 0.3095 0.9480
vn 0.6526 0.2705 0.7078
vn 0.5754 0.2927 0.7637
vn 0.5799 0.2662 0.7699
vn 0.5629 0.3548 0.7465
vn 0.8876 0.2723 0.3715
vn 0.8438 0.3319 0.4217
vn 0.9460 0.2878 0.1493
vn 0.8864 0.3752 0.2711
vn 0.8665 0.2648 -0.4231
vn 0.8846 0.3531 -0.3047
vn 0.8957 0.2890 -0.3379
vn 0.8976 0.3609 -0.2530
vn 0.6455 0.2631 -0.7170
vn 0.5432 0.3210 -0.7758
vn 0.5511 0.2762 -0.7874
vn 0.5433 0.3210 -0.7758
vn -0.0822 0.2736 -0.9583
vn 0.0518 0.2782 -0.9591
vn -0.0694 0.2503 -0.9657
vn -0.0148 0.2335 -0.9722
vn -0.5605 0.2668 -0.7840
vn -0.5766 0.2842 -0.7660
vn -0.5783 0.2031 -0.7902
vn -0.7304 0.0876 -0.6774
vn -0.9513 0.2415 -0.1918
vn -0.9187 0.2775 -0.2810
vn -0.9374 0.1974 -0.2871
vn -0.9483 0.0333 -0.3157
vn 0.4059 -0.7018 -0.5854
vn 0.7130 -0.6561 -0.2475
vn -0.0131 -0.7518 -0.6593
vn -0.3702 -0.7881 -0.4918
vn -0.5695 -0.8032 -0.1747
vn -0.5731 -0.7956 0.1966
vn -0.3708 -0.7658 0.5253
vn 0.0076 -0.7177 0.6963
vn 0.5225 -0.4874 0.6996
vn 0.8536 -0.4502 0.2620
vn 0.7329 -0.6422 0.2247
vn 0.4449 -0.6655 0.5993
vn 0.0060 -0.6891 0.7246
vn -0.4206 -0.6857 0.5941
vn -0.4564 -0.8763 0.1541
vn -0.4291 -0.8937 -0.1309
vn -0.2351 -0.9230 -0.3045
vn -0.0136 -0.9456 -0.3251
vn 0.7259 -0.6393 -0.2538
vn 0.4012 -0.7038 -0.5862
vn 0.7380 -0.6358 0.2261
vn 0.4314 -0.6919 0.5789
vn 0.0071 -0.7301 0.6833
vn -0.4181 -0.6890 0.5920
vn -0.7194 -0.6493 0.2468
vn -0.7650 -0.6002 -0.2337
vn -0.5019 -0.5546 -0.6637
vn -0.0172 -0.6975 -0.7164
vn 0.7222 -0.6443 -0.2515
vn 0.4098 -0.6914 -0.5951
vn 0.5638 -0.8077 0.1726
vn 0.3540 -0.8071 0.4725
vn 0.0083 -0.8051 0.5931
vn -0.4025 -0.7140 0.5728
vn -0.6238 -0.7516 0.2143
vn -0.6581 -0.7256 -0.2011
vn -0.4161 -0.7237 -0.5507
vn -0.0140 -0.7205 -0.6933
vn 0.5573 -0.8075 -0.1932
vn 0.3977 -0.7175 -0.5718
vn 0.6362 -0.7466 0.1945
vn 0.3987 -0.7491 0.5290
vn 0.0089 -0.8616 0.5075
vn -0.2882 -0.8646 0.4116
vn -0.4821 -0.8603 0.1660
vn -0.4875 -0.8603 -0.1491
vn -0.3085 -0.8587 -0.4093
vn -0.0090 -0.8559 -0.5170
vn 0.6289 -0.7467 -0.2166
vn 0.3799 -0.7492 -0.5425
vn -0.0865 -0.9896 -0.1149
vn 0.0025 -0.9896 0.1438
vn 0.1375 -0.9896 0.0420
vn -0.0025 -0.9896 -0.1438
vn -0.0825 -0.9896 0.1178
vn 0.0825 -0.9896 -0.1178
vn -0.1360 -0.9896 0.0468
vn 0.1360 -0.9896 -0.0468
vn -0.1375 -0.9896 -0.0420
vn 0.5693 0.1221 -0.8130
vn 0.0000 -1.0000 0.0000
vn -0.5693 0.1221 0.8130
vn -0.5973 0.1221 -0.7927
vn 0.5973 0.1221 0.7927
vn 0.9384 0.1221 -0.3231
vn -0.9384 0.1221 0.3231
vn -0.0173 0.1221 -0.9924
vn 0.0173 0.1221 0.9924
vn -0.9492 0.1221 -0.2902
vn 0.9492 0.1221 0.2902
vn 0.9538 -0.0730 0.2916
vn -0.9538 -0.0730 -0.2916
vn 0.0174 -0.0730 0.9972
vn -0.0174 -0.0730 -0.9972
vn -0.9430 -0.0730 0.3247
vn 0.9430 -0.0730 -0.3247
vn 0.6002 -0.0730 0.7965
vn -0.6002 -0.0730 -0.7965
vn -0.5720 -0.0730 0.8170
vn 0.5720 -0.0730 -0.8170
vn -0.9555 0.0398 -0.2921
vn -0.5919 0.1804 -0.7855
vn -0.0164 0.3389 -0.9407
vn 0.5150 0.4403 -0.7355
vn 0.8370 0.4651 -0.2882
vn 0.8717 0.4111 0.2665
vn 0.5772 0.2829 0.7660
vn 0.0174 0.1172 0.9930
vn -0.9446 -0.0441 0.3253
vn -0.5736 -0.0112 0.8191
vn -0.5506 0.2735 0.7887
vn -0.5498 0.2673 0.7914
vn -0.5583 0.2015 0.8048
vn -0.5593 0.2100 0.8020
vn -0.9100 0.2707 0.3142
vn -0.9078 0.2773 0.3147
vn -0.9251 0.2024 0.3213
vn -0.9398 0.1054 0.3252
vn 0.0174 0.2954 0.9552
vn 0.0186 0.2803 0.9597
vn 0.0181 0.2452 0.9693
vn 0.0155 0.2925 0.9561
vn 0.5741 0.3001 0.7618
vn 0.5789 0.2663 0.7707
vn 0.5603 0.3551 0.7483
vn 0.9113 0.3029 0.2787
vn 0.9122 0.3001 0.2790
vn 0.9098 0.3075 0.2787
vn 0.8862 0.3751 0.2721
vn 0.9010 0.3029 -0.3105
vn 0.8844 0.3532 -0.3050
vn 0.9061 0.2841 -0.3134
vn 0.8859 0.3484 -0.3061
vn 0.5471 0.3002 -0.7814
vn 0.5510 0.2762 -0.7875
vn -0.0159 0.2950 -0.9554
vn -0.0147 0.2943 -0.9556
vn -0.0139 0.2440 -0.9697
vn -0.0136 0.2335 -0.9723
vn -0.5781 0.2734 -0.7688
vn -0.5751 0.2837 -0.7673
vn -0.5866 0.2005 -0.7847
vn -0.5969 0.0855 -0.7978
vn -0.9206 0.2704 -0.2816
vn -0.9187 0.2774 -0.2812
vn -0.9373 0.1974 -0.2872
vn -0.9556 0.0287 -0.2933
vn 0.4048 -0.7010 -0.5871
vn 0.8868 -0.4586 -0.0568
vn -0.0140 -0.7515 -0.6596
vn -0.3701 -0.7881 -0.4918
vn -0.5694 -0.8033 -0.1749
vn -0.5733 -0.7955 0.1964
vn -0.3717 -0.7656 0.5251
vn 0.2436 -0.5289 0.8130
vn 0.5207 -0.4864 0.7017
vn 0.8536 -0.4498 0.2629
vn 0.8180 -0.5593 0.1344
vn 0.4378 -0.6576 0.6131
vn 0.0064 -0.6893 0.7245
vn -0.4207 -0.6857 0.5939
vn -0.6001 -0.6816 0.4187
vn -0.4289 -0.8939 -0.1305
vn -0.2353 -0.9232 -0.3039
vn 0.4166 -0.7005 -0.5794
vn 0.7258 -0.6391 -0.2545
vn 0.4010 -0.7038 -0.5864
vn 0.7379 -0.6358 0.2263
vn 0.5467 -0.6218 0.5608
vn 0.0584 -0.7047 0.7071
vn -0.4178 -0.6888 0.5925
vn -0.8022 -0.5711 0.1744
vn -0.8249 -0.5489 -0.1354
vn -0.5016 -0.5547 -0.6638
vn -0.2380 -0.5410 -0.8066
vn 0.7221 -0.6444 -0.2516
vn 0.4987 -0.6392 -0.5854
vn 0.3550 -0.8067 0.4726
vn -0.1567 -0.6860 0.7105
vn -0.4018 -0.7143 0.5730
vn -0.6236 -0.7517 0.2145
vn -0.6262 -0.7456 -0.2282
vn -0.4154 -0.7240 -0.5507
vn -0.0129 -0.7211 -0.6927
vn 0.5977 -0.7304 -0.3305
vn 0.3982 -0.7181 -0.5707
vn 0.8197 -0.5706 0.0504
vn 0.3871 -0.7210 0.5747
vn 0.1639 -0.7336 0.6596
vn -0.6249 -0.6339 0.4557
vn -0.6137 -0.6338 0.4709
vn -0.6138 -0.6770 -0.4061
vn -0.5916 -0.6768 -0.4381
vn 0.1559 -0.7119 -0.6847
vn 0.8174 -0.5706 -0.0790
vn 0.3575 -0.7015 -0.6165
vn -0.0865 -0.9896 -0.1148
usemtl Material.004
s off
f 1/1/1 3/2/1 4/3/1
f 4/3/2 5/4/2 6/5/2
f 5/4/3 8/6/3 6/5/3
f 8/6/4 9/7/4 10/8/4
f 9/7/5 12/9/5 10/8/5
f 11/10/6 14/11/6 12/9/6
f 13/12/7 16/13/7 14/11/7
f 15/14/8 18/15/8 16/13/8
f 17/16/9 9/7/9 5/4/9
f 20/17/10 2/18/10 1/1/10
f 17/16/11 20/17/11 18/15/11
f 21/19/12 23/20/12 24/21/12
f 26/22/13 28/23/13 25/24/13
f 30/25/14 32/26/14 29/27/14
f 33/28/15 35/29/15 36/30/15
f 38/31/16 40/32/16 37/33/16
f 28/23/17 41/34/17 42/35/17
f 31/36/18 44/37/18 32/26/18
f 35/29/19 46/38/19 36/30/19
f 39/39/20 48/40/20 40/32/20
f 49/41/21 26/22/21 25/24/21
f 52/42/22 29/27/22 51/43/22
f 54/44/23 33/28/23 53/45/23
f 55/46/24 38/31/24 37/33/24
f 58/47/25 49/41/25 57/48/25
f 60/49/26 51/43/26 59/50/26
f 62/51/27 53/45/27 61/52/27
f 64/53/28 55/46/28 63/54/28
f 65/55/29 58/47/29 57/48/29
f 68/56/30 59/50/30 67/57/30
f 70/58/31 61/52/31 69/59/31
f 71/60/32 64/53/32 63/54/32
f 74/61/33 65/55/33 73/62/33
f 75/63/34 68/56/34 67/57/34
f 77/64/35 70/58/35 69/59/35
f 80/65/36 71/60/36 79/66/36
f 81/67/37 74/61/37 73/62/37
f 83/68/38 76/69/38 75/63/38
f 85/70/39 78/71/39 77/64/39
f 87/72/40 80/65/40 79/66/40
f 90/73/41 81/67/41 89/74/41
f 91/75/42 84/76/42 83/68/42
f 93/77/43 86/78/43 85/70/43
f 95/79/44 88/80/44 87/72/44
f 97/81/45 90/73/45 89/74/45
f 99/82/46 92/83/46 91/75/46
f 102/84/47 93/77/47 101/85/47
f 103/86/48 96/87/48 95/79/48
f 41/34/49 97/81/49 42/35/49
f 44/37/50 100/88/50 99/82/50
f 46/38/51 102/84/51 101/85/51
f 47/89/52 103/86/52 48/40/52
f 38/31/53 20/17/53 39/39/53
f 20/17/54 47/89/54 39/39/54
f 56/90/55 18/15/55 38/31/55
f 64/53/56 16/13/56 56/90/56
f 72/91/57 14/11/57 64/53/57
f 10/8/58 72/91/58 80/65/58
f 8/6/59 80/65/59 88/80/59
f 96/87/60 8/6/60 88/80/60
f 4/3/61 96/87/61 104/92/61
f 1/1/62 104/92/62 47/89/62
f 45/93/63 103/86/63 102/84/63
f 103/86/64 94/94/64 102/84/64
f 95/79/65 86/78/65 94/94/65
f 86/78/66 79/66/66 78/71/66
f 78/71/67 71/60/67 70/58/67
f 71/60/68 62/51/68 70/58/68
f 63/54/69 54/44/69 62/51/69
f 55/46/70 34/95/70 54/44/70
f 35/29/71 48/40/71 45/93/71
f 34/95/72 40/32/72 35/29/72
f 43/96/73 101/85/73 100/88/73
f 100/88/74 93/77/74 92/83/74
f 92/83/75 85/70/75 84/76/75
f 84/76/76 77/64/76 76/69/76
f 77/64/77 68/56/77 76/69/77
f 68/56/78 61/52/78 60/49/78
f 60/49/79 53/45/79 52/42/79
f 52/42/80 33/28/80 30/25/80
f 36/30/81 43/96/81 31/36/81
f 33/28/82 31/36/82 30/25/82
f 41/34/83 99/82/83 98/97/83
f 98/97/84 91/75/84 90/73/84
f 91/75/85 82/98/85 90/73/85
f 83/68/86 74/61/86 82/98/86
f 75/63/87 66/99/87 74/61/87
f 66/99/88 59/50/88 58/47/88
f 58/47/89 51/43/89 50/100/89
f 50/100/90 29/27/90 26/22/90
f 27/101/91 44/37/91 41/34/91
f 26/22/92 32/26/92 27/101/92
f 105/102/93 97/81/93 21/19/93
f 97/81/94 22/103/94 21/19/94
f 22/103/95 81/67/95 106/104/95
f 81/67/96 107/105/96 106/104/96
f 107/105/97 65/55/97 108/106/97
f 65/55/98 109/107/98 108/106/98
f 109/107/99 49/41/99 110/108/99
f 49/41/100 111/109/100 110/108/100
f 28/23/101 105/102/101 112/110/101
f 111/109/102 28/23/102 112/110/102
f 110/108/103 114/111/103 109/107/103
f 22/103/104 115/112/104 23/20/104
f 21/19/105 116/113/105 105/102/105
f 111/109/106 113/114/106 110/108/106
f 106/104/107 118/115/107 115/112/107
f 112/110/108 117/116/108 111/109/108
f 108/106/109 118/115/109 107/105/109
f 105/102/110 119/117/110 112/110/110
f 109/107/111 120/118/111 108/106/111
usemtl Trunck_NONE
f 122/119/112 124/120/112 121/121/112
f 124/120/113 130/122/113 132/123/113
f 134/124/114 131/125/114 133/126/114
f 136/127/115 126/128/115 135/129/115
f 137/130/116 130/122/116 129/131/116
f 139/132/117 123/133/117 122/119/117
f 134/124/118 125/134/118 132/123/118
f 121/121/119 127/135/119 136/127/119
f 133/126/120 130/122/120 138/136/120
f 140/137/121 126/128/121 125/134/121
f 137/130/122 128/138/122 139/132/122
f 114/111/123 139/132/123 120/118/123
f 24/21/124 140/137/124 116/113/124
f 117/116/125 138/136/125 113/114/125
f 115/112/126 136/127/126 23/20/126
f 119/117/127 140/137/127 134/124/127
f 120/118/128 122/119/128 118/115/128
f 114/111/129 138/136/129 137/130/129
f 23/20/130 135/129/130 24/21/130
f 117/116/131 134/124/131 133/126/131
f 118/115/132 121/121/132 115/112/132
usemtl Material.004
f 1/1/133 2/18/133 3/2/133
f 4/3/134 3/2/134 5/4/134
f 5/4/135 7/139/135 8/6/135
f 8/6/136 7/139/136 9/7/136
f 9/7/137 11/10/137 12/9/137
f 11/10/138 13/12/138 14/11/138
f 13/12/139 15/14/139 16/13/139
f 15/14/140 17/16/140 18/15/140
f 5/4/9 3/2/9 2/18/9
f 2/18/9 19/140/9 5/4/9
f 19/140/9 17/16/9 5/4/9
f 17/16/9 15/14/9 9/7/9
f 15/14/9 13/12/9 9/7/9
f 13/12/9 11/10/9 9/7/9
f 9/7/9 7/139/9 5/4/9
f 20/17/141 19/140/141 2/18/141
f 17/16/142 19/140/142 20/17/142
f 21/19/12 22/103/12 23/20/12
f 26/22/143 27/101/143 28/23/143
f 30/25/144 31/36/144 32/26/144
f 33/28/145 34/95/145 35/29/145
f 38/31/146 39/39/146 40/32/146
f 28/23/147 27/101/147 41/34/147
f 31/36/148 43/96/148 44/37/148
f 35/29/149 45/93/149 46/38/149
f 39/39/150 47/89/150 48/40/150
f 49/41/151 50/100/151 26/22/151
f 52/42/152 30/25/152 29/27/152
f 54/44/153 34/95/153 33/28/153
f 55/46/154 56/90/154 38/31/154
f 58/47/155 50/100/155 49/41/155
f 60/49/26 52/42/26 51/43/26
f 62/51/156 54/44/156 53/45/156
f 64/53/157 56/90/157 55/46/157
f 65/55/158 66/99/158 58/47/158
f 68/56/159 60/49/159 59/50/159
f 70/58/160 62/51/160 61/52/160
f 71/60/161 72/91/161 64/53/161
f 74/61/162 66/99/162 65/55/162
f 75/63/163 76/69/163 68/56/163
f 77/64/164 78/71/164 70/58/164
f 80/65/165 72/91/165 71/60/165
f 81/67/166 82/98/166 74/61/166
f 83/68/40 84/76/40 76/69/40
f 85/70/167 86/78/167 78/71/167
f 87/72/40 88/80/40 80/65/40
f 90/73/168 82/98/168 81/67/168
f 91/75/169 92/83/169 84/76/169
f 93/77/170 94/94/170 86/78/170
f 95/79/171 96/87/171 88/80/171
f 97/81/172 98/97/172 90/73/172
f 99/82/173 100/88/173 92/83/173
f 102/84/174 94/94/174 93/77/174
f 103/86/175 104/92/175 96/87/175
f 41/34/176 98/97/176 97/81/176
f 44/37/177 43/96/177 100/88/177
f 46/38/178 45/93/178 102/84/178
f 47/89/179 104/92/179 103/86/179
f 38/31/180 18/15/180 20/17/180
f 20/17/181 1/1/181 47/89/181
f 56/90/182 16/13/182 18/15/182
f 64/53/183 14/11/183 16/13/183
f 72/91/184 12/9/184 14/11/184
f 10/8/185 12/9/185 72/91/185
f 8/6/186 10/8/186 80/65/186
f 96/87/187 6/5/187 8/6/187
f 4/3/188 6/5/188 96/87/188
f 1/1/189 4/3/189 104/92/189
f 45/93/190 48/40/190 103/86/190
f 103/86/191 95/79/191 94/94/191
f 95/79/192 87/72/192 86/78/192
f 86/78/193 87/72/193 79/66/193
f 78/71/194 79/66/194 71/60/194
f 71/60/195 63/54/195 62/51/195
f 63/54/196 55/46/196 54/44/196
f 55/46/197 37/33/197 34/95/197
f 35/29/198 40/32/198 48/40/198
f 34/95/199 37/33/199 40/32/199
f 43/96/200 46/38/200 101/85/200
f 100/88/201 101/85/201 93/77/201
f 92/83/202 93/77/202 85/70/202
f 84/76/203 85/70/203 77/64/203
f 77/64/204 69/59/204 68/56/204
f 68/56/205 69/59/205 61/52/205
f 60/49/206 61/52/206 53/45/206
f 52/42/207 53/45/207 33/28/207
f 36/30/208 46/38/208 43/96/208
f 33/28/209 36/30/209 31/36/209
f 41/34/83 44/37/83 99/82/83
f 98/97/210 99/82/210 91/75/210
f 91/75/211 83/68/211 82/98/211
f 83/68/212 75/63/212 74/61/212
f 75/63/213 67/57/213 66/99/213
f 66/99/214 67/57/214 59/50/214
f 58/47/215 59/50/215 51/43/215
f 50/100/216 51/43/216 29/27/216
f 27/101/217 32/26/217 44/37/217
f 26/22/218 29/27/218 32/26/218
f 105/102/219 42/35/219 97/81/219
f 97/81/220 89/74/220 22/103/220
f 22/103/221 89/74/221 81/67/221
f 81/67/222 73/62/222 107/105/222
f 107/105/223 73/62/223 65/55/223
f 65/55/224 57/48/224 109/107/224
f 109/107/225 57/48/225 49/41/225
f 49/41/226 25/24/226 111/109/226
f 28/23/227 42/35/227 105/102/227
f 111/109/228 25/24/228 28/23/228
f 110/108/229 113/114/229 114/111/229
f 22/103/104 106/104/104 115/112/104
f 21/19/105 24/21/105 116/113/105
f 111/109/106 117/116/106 113/114/106
f 106/104/107 107/105/107 118/115/107
f 112/110/108 119/117/108 117/116/108
f 108/106/109 120/118/109 118/115/109
f 105/102/110 116/113/110 119/117/110
f 109/107/111 114/111/111 120/118/111
usemtl Trunck_NONE
f 122/119/112 123/133/112 124/120/112
f 132/123/113 125/134/113 126/128/113
f 126/128/113 127/135/113 132/123/113
f 127/135/113 124/120/113 132/123/113
f 124/120/113 123/133/113 130/122/113
f 123/133/113 128/138/113 130/122/113
f 128/138/113 129/131/113 130/122/113
f 130/122/113 131/125/113 132/123/113
f 134/124/114 132/123/114 131/125/114
f 136/127/115 127/135/115 126/128/115
f 137/130/116 138/136/116 130/122/116
f 139/132/117 128/138/117 123/133/117
f 134/124/118 140/137/118 125/134/118
f 121/121/119 124/120/119 127/135/119
f 133/126/120 131/125/120 130/122/120
f 140/137/121 135/129/121 126/128/121
f 137/130/122 129/131/122 128/138/122
f 114/111/123 137/130/123 139/132/123
f 24/21/124 135/129/124 140/137/124
f 117/116/125 133/126/125 138/136/125
f 115/112/126 121/121/126 136/127/126
f 119/117/127 116/113/127 140/137/127
f 120/118/128 139/132/128 122/119/128
f 114/111/129 113/114/129 138/136/129
f 23/20/130 136/127/130 135/129/130
f 117/116/131 119/117/131 134/124/131
f 118/115/132 122/119/132 121/121/132
