# Blender v2.82 (sub 7) OBJ File: ''
# www.blender.org
mtllib t6-orange_cylinder.mtl
o t6-orange_Cylinder.020
v 19.957615 -1.990829 -9.201292
v 19.734737 -0.207619 -9.003228
v 19.783737 -0.207619 -8.987308
v 20.349421 -1.990976 -9.073173
v 19.814020 -0.207619 -8.945626
v 20.590715 -1.992393 -8.737186
v 19.814020 -0.207619 -8.894105
v 20.555101 -1.749666 -8.304357
v 19.783737 -0.207619 -8.852424
v 20.311596 -1.752107 -7.967845
v 19.734737 -0.207619 -8.836503
v 19.918947 -1.753461 -7.839080
v 19.685738 -0.207619 -8.852424
v 19.527122 -1.753319 -7.967173
v 19.655455 -0.207619 -8.894105
v 19.285795 -1.751733 -8.303207
v 19.655455 -0.207619 -8.945626
v 19.287161 -1.749186 -8.718925
v 19.685738 -0.207619 -8.987308
v 19.530697 -1.746906 -9.055389
v 20.293327 -7.122241 -8.664001
v 20.546021 -7.122241 -8.316198
v 20.345633 -7.092609 -8.251088
v 20.169481 -7.092609 -8.493540
v 18.497707 -7.519073 -8.544254
v 19.330940 -5.764691 -8.288558
v 19.542366 -5.763860 -8.580025
v 19.019758 -7.448922 -9.283878
v 18.367321 -6.158524 -8.621426
v 19.438976 -4.382169 -8.290199
v 19.609137 -4.380412 -8.525382
v 18.946817 -6.157350 -9.419687
v 18.733618 -4.680933 -8.492374
v 19.548220 -2.970840 -8.385174
v 19.677279 -2.969051 -8.563804
v 19.148632 -4.884493 -9.218311
v 18.874727 -3.692681 -8.566224
v 19.706457 -1.563840 -8.641479
v 19.794336 -1.563314 -8.762728
v 19.185976 -3.688226 -8.997098
v 19.884462 -5.763471 -8.691394
v 19.884623 -7.741052 -9.544287
v 19.884462 -4.379685 -8.615243
v 19.884462 -6.010637 -9.739312
v 19.885876 -2.968312 -8.632035
v 19.856291 -4.882514 -9.449343
v 19.936220 -1.563121 -8.809041
v 19.689590 -3.686038 -9.161947
v 18.485245 -7.304532 -7.638816
v 19.330940 -5.765615 -7.928344
v 18.367321 -6.159688 -7.634879
v 19.438976 -4.384109 -7.999627
v 18.784376 -4.950778 -7.656340
v 19.548004 -2.972769 -8.164518
v 19.037971 -3.278193 -8.104582
v 19.706068 -1.564502 -8.491494
v 19.029514 -7.583002 -6.916615
v 19.542366 -5.766253 -7.636986
v 18.946817 -6.160391 -6.836881
v 19.609137 -4.385514 -7.764640
v 19.221733 -4.953710 -7.052741
v 19.676725 -2.974161 -7.986101
v 19.349222 -3.281542 -7.674322
v 19.793400 -1.564920 -8.370246
v 19.884619 -7.304192 -6.622112
v 19.884462 -5.766357 -7.525774
v 19.884462 -6.321179 -6.283845
v 19.884462 -4.385736 -7.675058
v 19.961918 -4.940612 -6.926663
v 19.885227 -2.974320 -7.918176
v 19.852835 -3.282032 -7.510416
v 19.935076 -1.564950 -8.324011
v 20.736311 -7.649067 -6.921287
v 20.226559 -5.765924 -7.637168
v 20.822107 -6.320703 -6.588770
v 20.159788 -4.384778 -7.765049
v 20.618818 -4.673113 -7.247251
v 20.093836 -2.973266 -7.986598
v 20.529449 -3.665173 -7.535117
v 20.076969 -1.564607 -8.370420
v 21.280603 -7.294422 -7.638816
v 20.437984 -5.765061 -7.928652
v 21.401604 -6.319681 -7.386946
v 20.329948 -4.382937 -8.000279
v 21.056175 -4.669083 -7.851461
v 20.222902 -2.971390 -8.165284
v 20.840700 -3.660471 -7.966127
v 20.164892 -1.563950 -8.491801
v 21.269627 -7.484251 -8.544736
v 20.437984 -5.764152 -8.288858
v 21.401604 -6.011710 -8.636448
v 20.329948 -4.381017 -8.290839
v 21.023649 -4.678364 -8.493802
v 20.223116 -2.969475 -8.385933
v 20.840700 -3.655634 -8.498346
v 20.165281 -1.563385 -8.641733
v 20.749479 -7.448927 -9.283878
v 20.226559 -5.763553 -8.580195
v 20.822107 -6.010806 -9.434559
v 20.159788 -4.379817 -8.525712
v 20.563950 -4.882984 -9.219151
v 20.094389 -2.968394 -8.564169
v 20.396273 -3.501107 -8.906336
v 20.077906 -1.563125 -8.762833
v 19.884462 -7.122241 -8.796849
v 20.546021 -7.122241 -7.886292
v 20.293327 -7.122241 -7.538489
v 19.884462 -7.122241 -7.405641
v 19.475595 -7.122241 -7.538489
v 19.222904 -7.122241 -7.886292
v 19.222904 -7.122241 -8.316198
v 19.475597 -7.122241 -8.664001
v 19.423292 -7.092609 -7.951402
v 19.599443 -7.092609 -7.708950
v 20.345633 -7.092609 -7.951402
v 19.884462 -7.092609 -8.586148
v 19.423292 -7.092609 -8.251088
v 20.169481 -7.092609 -7.708950
v 19.599443 -7.092609 -8.493540
v 19.884462 -7.092609 -7.616342
v 19.623087 -7.702894 -7.741493
v 19.461548 -7.702894 -7.963832
v 19.423292 -8.673665 -7.951403
v 19.599443 -8.673665 -7.708951
v 20.145838 -7.702894 -7.741493
v 19.884462 -7.702894 -7.656568
v 19.884462 -8.673665 -7.616343
v 20.169481 -8.673665 -7.708951
v 20.307377 -7.702894 -8.238658
v 20.307377 -7.702894 -7.963832
v 20.345633 -8.673665 -7.951403
v 20.345633 -8.673665 -8.251088
v 19.884462 -7.702894 -8.545923
v 20.145838 -7.702894 -8.460997
v 20.169481 -8.673665 -8.493540
v 19.884462 -8.673665 -8.586148
v 19.461548 -7.702894 -8.238658
v 19.623087 -7.702894 -8.460998
v 19.599443 -8.673665 -8.493540
v 19.423292 -8.673665 -8.251088
vt -0.967140 0.582000
vt -0.967140 0.582000
vt -0.967140 0.582000
vt -0.967140 0.582000
vt -0.967140 0.582000
vt -0.967140 0.582000
vt -0.967140 0.582000
vt -0.967140 0.582000
vt -0.967140 0.582000
vt -0.967140 0.582000
vt -0.967140 0.582000
vt -0.967140 0.582000
vt -0.967140 0.582000
vt -0.967140 0.582000
vt -0.967140 0.582000
vt -0.967140 0.582000
vt -0.967140 0.582000
vt -0.967140 0.582000
vt -0.967140 0.582000
vt -0.967140 0.582000
vt -0.967140 0.582000
vt -0.967140 0.582000
vt -0.967140 0.582000
vt -0.967140 0.582000
vt -0.967140 0.582000
vt -0.967140 0.582000
vt -0.967140 0.582000
vt -0.967140 0.582000
vt -0.967140 0.582000
vt -0.967140 0.582000
vt -0.967140 0.582000
vt -0.967140 0.582000
vt -0.967140 0.582000
vt -0.967140 0.582000
vt -0.967140 0.582000
vt -0.967140 0.582000
vt -0.967140 0.582000
vt -0.967140 0.582000
vt -0.967140 0.582000
vt -0.967140 0.582000
vt -0.967140 0.582000
vt -0.967140 0.582000
vt -0.967140 0.582000
vt -0.967140 0.582000
vt -0.967140 0.582000
vt -0.967140 0.582000
vt -0.967140 0.582000
vt -0.967140 0.582000
vt -0.967140 0.582000
vt -0.967140 0.582000
vt -0.967140 0.582000
vt -0.967140 0.582000
vt -0.967140 0.582000
vt -0.967140 0.582000
vt -0.967140 0.582000
vt -0.967140 0.582000
vt -0.967140 0.582000
vt -0.967140 0.582000
vt -0.967140 0.582000
vt -0.967140 0.582000
vt -0.967140 0.582000
vt -0.967140 0.582000
vt -0.967140 0.582000
vt -0.967140 0.582000
vt -0.967140 0.582000
vt -0.967140 0.582000
vt -0.967140 0.582000
vt -0.967140 0.582000
vt -0.967140 0.582000
vt -0.967140 0.582000
vt -0.967140 0.582000
vt -0.967140 0.582000
vt -0.967140 0.582000
vt -0.967140 0.582000
vt -0.967140 0.582000
vt -0.967140 0.582000
vt -0.967140 0.582000
vt -0.967140 0.582000
vt -0.967140 0.582000
vt -0.967140 0.582000
vt -0.967140 0.582000
vt -0.967140 0.582000
vt -0.967140 0.582000
vt -0.967140 0.582000
vt -0.967140 0.582000
vt -0.967140 0.582000
vt -0.967140 0.582000
vt -0.967140 0.582000
vt -0.967140 0.582000
vt -0.967140 0.582000
vt -0.967140 0.582000
vt -0.967140 0.582000
vt -0.967140 0.582000
vt -0.967140 0.582000
vt -0.967140 0.582000
vt -0.967140 0.582000
vt -0.967140 0.582000
vt -0.967140 0.582000
vt -0.967140 0.582000
vt -0.967140 0.582000
vt -0.967140 0.582000
vt -0.967140 0.582000
vt -0.967140 0.582000
vt -0.967140 0.582000
vt -0.967140 0.582000
vt -0.967140 0.582000
vt -0.967140 0.582000
vt -0.967140 0.582000
vt -0.967140 0.582000
vt -0.967140 0.582000
vt -0.967140 0.582000
vt -0.967140 0.582000
vt -0.967140 0.582000
vt -0.967140 0.582000
vt -0.967140 0.582000
vt -0.967140 0.582000
vt -0.967140 0.582000
vt -0.967140 0.582000
vt -0.967140 0.582000
vt -0.967140 0.582000
vt -0.967140 0.582000
vt -0.967140 0.582000
vt -0.967140 0.582000
vt -0.967140 0.582000
vt -0.967140 0.582000
vt -0.967140 0.582000
vt -0.967140 0.582000
vt -0.967140 0.582000
vt -0.967140 0.582000
vt -0.967140 0.582000
vt -0.967140 0.582000
vt -0.967140 0.582000
vt -0.967140 0.582000
vt -0.967140 0.582000
vt -0.967140 0.582000
vt -0.967140 0.582000
vt -0.967140 0.582000
vt -0.967140 0.582000
vt -0.967140 0.582000
vt -0.967140 0.582000
vn 0.3077 0.1429 -0.9407
vn 0.7815 0.2747 -0.5601
vn 0.9139 0.3815 -0.1387
vn 0.6887 0.5230 0.5022
vn 0.2595 0.5452 0.7971
vn -0.2691 0.4993 0.8236
vn -0.7485 0.3857 0.5394
vn -0.9727 0.2322 -0.0018
vn 0.0000 1.0000 -0.0000
vn -0.2864 0.0703 -0.9555
vn -0.8058 0.1068 -0.5825
vn -0.1183 -0.9892 0.0860
vn -0.7560 0.4309 -0.4927
vn -0.6949 0.5132 -0.5037
vn -0.7480 0.3899 -0.5370
vn -0.7785 0.2844 -0.5595
vn -0.1413 0.3920 -0.9090
vn -0.3473 0.5216 -0.7793
vn -0.2880 0.3799 -0.8790
vn -0.3061 0.1905 -0.9327
vn -0.8905 0.4399 -0.1165
vn -0.8561 0.5168 0.0006
vn -0.9007 0.3945 0.1820
vn -0.9314 0.3640 0.0026
vn -0.6315 0.4332 0.6430
vn -0.6908 0.5203 0.5021
vn -0.7338 0.4203 0.5337
vn -0.7380 0.4087 0.5370
vn -0.4167 0.4343 0.7986
vn -0.3543 0.5458 0.7593
vn -0.1584 0.4396 0.8841
vn -0.2802 0.4220 0.8622
vn 0.4476 0.4211 0.7889
vn 0.2550 0.5644 0.7851
vn 0.2401 0.4445 0.8630
vn 0.2612 0.4047 0.8763
vn 0.6107 0.4204 0.6710
vn 0.6831 0.5355 0.4966
vn 0.7215 0.4513 0.5252
vn 0.7486 0.3779 0.5447
vn 0.8892 0.4454 -0.1041
vn 0.8506 0.5105 0.1258
vn 0.9002 0.4323 -0.0518
vn 0.9516 0.3074 0.0028
vn 0.7458 0.4356 -0.5040
vn 0.6768 0.5488 -0.4908
vn 0.7319 0.3743 -0.5694
vn 0.6983 0.1779 -0.6933
vn 0.1413 0.3921 -0.9090
vn 0.2586 0.5482 -0.7954
vn 0.2873 0.3724 -0.8825
vn 0.3095 0.1208 -0.9432
vn 0.3507 -0.9025 0.2502
vn 0.1419 -0.8911 0.4311
vn 0.4048 -0.9144 -0.0030
vn 0.3099 -0.9234 -0.2264
vn 0.1162 -0.9270 -0.3566
vn -0.1164 -0.9246 -0.3628
vn -0.3218 -0.9164 -0.2381
vn -0.4280 -0.9038 -0.0045
vn -0.5920 -0.6844 0.4256
vn -0.2319 -0.6637 0.7111
vn -0.2435 -0.6181 0.7474
vn -0.6242 -0.6408 0.4469
vn -0.7438 -0.6684 -0.0065
vn -0.6011 -0.6663 -0.4412
vn -0.1931 -0.7758 -0.6007
vn 0.1890 -0.7910 -0.5819
vn 0.4553 -0.8249 -0.3349
vn 0.5131 -0.8583 -0.0070
vn 0.2463 -0.6184 0.7463
vn 0.6039 -0.6714 0.4296
vn -0.1673 -0.8418 0.5133
vn -0.3254 -0.9169 0.2311
vn -0.3655 -0.9308 -0.0062
vn -0.3138 -0.9202 -0.2342
vn -0.1260 -0.9100 -0.3951
vn 0.1791 -0.8141 -0.5524
vn 0.4940 -0.7903 -0.3625
vn 0.3915 -0.9202 -0.0061
vn 0.1670 -0.8468 0.5050
vn 0.3238 -0.9184 0.2274
vn -0.0746 -0.9706 0.2289
vn -0.1980 -0.9699 0.1417
vn -0.2497 -0.9683 -0.0024
vn -0.3638 -0.8925 -0.2666
vn -0.1306 -0.9051 -0.4047
vn 0.1188 -0.9229 -0.3662
vn 0.3083 -0.9241 -0.2257
vn 0.3779 -0.9258 -0.0024
vn 0.0756 -0.9705 0.2289
vn 0.3038 -0.9275 0.2178
vn -0.1262 -0.9129 0.3883
vn -0.3292 -0.9135 0.2392
vn -0.2282 -0.9736 0.0000
vn -0.1834 -0.9740 -0.1332
vn -0.0733 -0.9715 -0.2256
vn 0.0733 -0.9715 -0.2256
vn 0.1930 -0.9711 -0.1402
vn 0.2399 -0.9708 0.0000
vn 0.1262 -0.9129 0.3883
vn 0.3293 -0.9134 0.2392
vn 0.1183 -0.9892 -0.0860
vn -0.1463 -0.9892 0.0000
vn -0.0452 -0.9892 0.1391
vn 0.1463 -0.9892 0.0000
vn -0.1183 -0.9892 -0.0860
vn 0.1183 -0.9892 0.0860
vn -0.0452 -0.9892 -0.1391
vn 0.0452 -0.9892 0.1391
vn 0.0452 -0.9892 -0.1391
vn -0.8084 0.0394 0.5873
vn 0.3088 0.0394 0.9503
vn 0.9992 0.0394 0.0000
vn 0.3088 0.0394 -0.9503
vn -0.8084 0.0394 -0.5873
vn -0.3088 0.0394 0.9503
vn -0.3088 0.0394 -0.9503
vn 0.0000 -1.0000 0.0000
vn -0.9992 0.0394 0.0000
vn 0.8084 0.0394 0.5873
vn 0.8084 0.0394 -0.5873
vn 0.8074 -0.0626 -0.5866
vn 0.8074 -0.0626 0.5866
vn -0.9980 -0.0626 0.0000
vn -0.3084 -0.0626 -0.9492
vn -0.3084 -0.0626 0.9492
vn -0.8074 -0.0626 -0.5866
vn 0.3084 -0.0626 -0.9492
vn 0.9980 -0.0626 0.0000
vn 0.3084 -0.0626 0.9492
vn -0.8074 -0.0626 0.5866
vn 0.3059 0.1428 -0.9413
vn 0.7781 0.2740 -0.5653
vn 0.9013 0.4331 0.0000
vn 0.6895 0.5230 0.5010
vn 0.2590 0.5452 0.7972
vn -0.2677 0.4994 0.8240
vn -0.7463 0.3862 0.5422
vn -0.9726 0.2324 0.0000
vn -0.3082 0.0730 -0.9485
vn -0.8044 0.1069 -0.5844
vn -0.7257 0.4444 -0.5252
vn -0.6977 0.5122 -0.5010
vn -0.7482 0.3901 -0.5367
vn -0.7769 0.2844 -0.5618
vn -0.2781 0.4424 -0.8526
vn -0.2609 0.5478 -0.7949
vn -0.2888 0.3797 -0.8789
vn -0.3049 0.1905 -0.9331
vn -0.8763 0.4818 0.0012
vn -0.8565 0.5161 0.0034
vn -0.9029 0.4299 0.0029
vn -0.9318 0.3631 -0.0008
vn -0.7071 0.4853 0.5142
vn -0.6904 0.5200 0.5030
vn -0.7343 0.4204 0.5330
vn -0.7398 0.4090 0.5342
vn -0.2697 0.4878 0.8302
vn -0.2635 0.5223 0.8111
vn -0.2746 0.4610 0.8439
vn -0.2812 0.4219 0.8619
vn 0.2697 0.4879 0.8302
vn 0.2547 0.5643 0.7853
vn 0.2757 0.4537 0.8474
vn 0.2841 0.3994 0.8716
vn 0.7065 0.4866 0.5139
vn 0.6824 0.5352 0.4978
vn 0.7212 0.4512 0.5257
vn 0.7488 0.3779 0.5445
vn 0.8758 0.4827 0.0012
vn 0.8360 0.5487 0.0036
vn 0.9057 0.4240 0.0046
vn 0.9516 0.3074 0.0036
vn 0.7254 0.4445 -0.5255
vn 0.6787 0.5480 -0.4889
vn 0.7493 0.3850 -0.5388
vn 0.7988 0.1739 -0.5760
vn 0.2774 0.4422 -0.8530
vn 0.2589 0.5481 -0.7953
vn 0.2874 0.3724 -0.8825
vn 0.3078 0.1205 -0.9438
vn 0.3527 -0.9020 0.2492
vn -0.1363 -0.6733 0.7267
vn 0.4053 -0.9142 -0.0043
vn 0.3098 -0.9233 -0.2269
vn 0.1162 -0.9270 -0.3565
vn -0.1159 -0.9245 -0.3632
vn -0.3215 -0.9162 -0.2393
vn -0.6287 -0.6992 0.3404
vn -0.5942 -0.6836 0.4239
vn -0.2328 -0.6635 0.7111
vn -0.1478 -0.5610 0.8145
vn -0.6290 -0.6387 0.4432
vn -0.7437 -0.6685 -0.0061
vn -0.6010 -0.6664 -0.4413
vn -0.3990 -0.6639 -0.6324
vn 0.1886 -0.7911 -0.5819
vn 0.4547 -0.8251 -0.3353
vn 0.6228 -0.6787 0.3891
vn 0.2469 -0.6183 0.7462
vn 0.6041 -0.6713 0.4294
vn -0.1675 -0.8418 0.5131
vn -0.3085 -0.8463 0.4343
vn -0.3856 -0.9221 0.0328
vn -0.3146 -0.9200 -0.2338
vn 0.0346 -0.8011 -0.5975
vn 0.1161 -0.7921 -0.5993
vn 0.4942 -0.7904 -0.3619
vn 0.5356 -0.7936 -0.2887
vn 0.1672 -0.8468 0.5049
vn 0.3092 -0.8550 0.4165
vn -0.1980 -0.9698 0.1426
vn -0.3906 -0.8938 -0.2203
vn -0.3642 -0.8927 -0.2655
vn -0.1310 -0.9052 -0.4044
vn 0.0837 -0.9098 -0.4065
vn 0.3092 -0.9239 -0.2254
vn 0.3786 -0.9255 -0.0011
vn 0.2377 -0.9334 0.2688
vn 0.3037 -0.9272 0.2191
vn 0.0680 -0.7685 0.6362
vn -0.3787 -0.8981 0.2236
vn -0.3894 -0.9005 0.1934
vn -0.1974 -0.8111 -0.5506
vn -0.4567 -0.8114 -0.3648
vn 0.3964 -0.8505 -0.3458
vn 0.2056 -0.8511 -0.4831
vn 0.4159 -0.8836 0.2151
vn -0.0680 -0.7685 0.6362
vn 0.4174 -0.8839 0.2108
usemtl Material.001
s off
f 1/1/1 3/2/1 4/3/1
f 4/3/2 5/4/2 6/5/2
f 5/4/3 8/6/3 6/5/3
f 8/6/4 9/7/4 10/8/4
f 9/7/5 12/9/5 10/8/5
f 11/10/6 14/11/6 12/9/6
f 13/12/7 16/13/7 14/11/7
f 15/14/8 18/15/8 16/13/8
f 2/16/9 17/17/9 9/7/9
f 20/18/10 2/16/10 1/1/10
f 17/17/11 20/18/11 18/15/11
f 22/19/12 24/20/12 21/21/12
f 26/22/13 28/23/13 25/24/13
f 30/25/14 32/26/14 29/27/14
f 33/28/15 35/29/15 36/30/15
f 38/31/16 40/32/16 37/33/16
f 28/23/17 41/34/17 42/35/17
f 31/36/18 44/37/18 32/26/18
f 35/29/19 46/38/19 36/30/19
f 39/39/20 48/40/20 40/32/20
f 49/41/21 26/22/21 25/24/21
f 52/42/22 29/27/22 51/43/22
f 54/44/23 33/28/23 53/45/23
f 55/46/24 38/31/24 37/33/24
f 58/47/25 49/41/25 57/48/25
f 60/49/26 51/43/26 59/50/26
f 62/51/27 53/45/27 61/52/27
f 64/53/28 55/46/28 63/54/28
f 65/55/29 58/47/29 57/48/29
f 68/56/30 59/50/30 67/57/30
f 70/58/31 61/52/31 69/59/31
f 71/60/32 64/53/32 63/54/32
f 74/61/33 65/55/33 73/62/33
f 75/63/34 68/56/34 67/57/34
f 77/64/35 70/58/35 69/59/35
f 80/65/36 71/60/36 79/66/36
f 81/67/37 74/61/37 73/62/37
f 83/68/38 76/69/38 75/63/38
f 85/70/39 78/71/39 77/64/39
f 87/72/40 80/65/40 79/66/40
f 90/73/41 81/67/41 89/74/41
f 91/75/42 84/76/42 83/68/42
f 93/77/43 86/78/43 85/70/43
f 95/79/44 88/80/44 87/72/44
f 97/81/45 90/73/45 89/74/45
f 99/82/46 92/83/46 91/75/46
f 102/84/47 93/77/47 101/85/47
f 103/86/48 96/87/48 95/79/48
f 41/34/49 97/81/49 42/35/49
f 44/37/50 100/88/50 99/82/50
f 45/89/51 101/85/51 46/38/51
f 47/90/52 103/86/52 48/40/52
f 38/31/53 20/18/53 39/39/53
f 20/18/54 47/90/54 39/39/54
f 56/91/55 18/15/55 38/31/55
f 64/53/56 16/13/56 56/91/56
f 72/92/57 14/11/57 64/53/57
f 10/8/58 72/92/58 80/65/58
f 8/6/59 80/65/59 88/80/59
f 96/87/60 8/6/60 88/80/60
f 4/3/61 96/87/61 104/93/61
f 1/1/62 104/93/62 47/90/62
f 45/89/63 103/86/63 102/84/63
f 103/86/64 94/94/64 102/84/64
f 95/79/65 86/78/65 94/94/65
f 86/78/66 79/66/66 78/71/66
f 78/71/67 71/60/67 70/58/67
f 71/60/68 62/51/68 70/58/68
f 63/54/69 54/44/69 62/51/69
f 55/46/70 34/95/70 54/44/70
f 35/29/71 48/40/71 45/89/71
f 34/95/72 40/32/72 35/29/72
f 43/96/73 101/85/73 100/88/73
f 100/88/74 93/77/74 92/83/74
f 92/83/75 85/70/75 84/76/75
f 84/76/76 77/64/76 76/69/76
f 77/64/77 68/56/77 76/69/77
f 68/56/78 61/52/78 60/49/78
f 60/49/79 53/45/79 52/42/79
f 52/42/80 33/28/80 30/25/80
f 36/30/81 43/96/81 31/36/81
f 33/28/82 31/36/82 30/25/82
f 41/34/83 99/82/83 98/97/83
f 98/97/84 91/75/84 90/73/84
f 91/75/85 82/98/85 90/73/85
f 83/68/86 74/61/86 82/98/86
f 75/63/87 66/99/87 74/61/87
f 66/99/88 59/50/88 58/47/88
f 59/50/89 50/100/89 58/47/89
f 51/43/90 26/22/90 50/100/90
f 27/101/91 44/37/91 41/34/91
f 29/27/92 27/101/92 26/22/92
f 105/102/93 97/81/93 21/21/93
f 97/81/94 22/19/94 21/21/94
f 22/19/95 81/67/95 106/103/95
f 81/67/96 107/104/96 106/103/96
f 107/104/97 65/55/97 108/105/97
f 65/55/98 109/106/98 108/105/98
f 109/106/99 49/41/99 110/107/99
f 49/41/100 111/108/100 110/107/100
f 28/23/101 105/102/101 112/109/101
f 111/108/102 28/23/102 112/109/102
f 110/107/103 114/110/103 109/106/103
f 106/103/104 23/111/104 22/19/104
f 21/21/105 116/112/105 105/102/105
f 111/108/106 113/113/106 110/107/106
f 106/103/107 118/114/107 115/115/107
f 111/108/108 119/116/108 117/117/108
f 107/104/109 120/118/109 118/114/109
f 105/102/110 119/116/110 112/109/110
f 109/106/111 120/118/111 108/105/111
usemtl Trunck_NONE
f 122/119/112 124/120/112 121/121/112
f 126/122/113 128/123/113 125/124/113
f 129/125/114 131/126/114 132/127/114
f 134/128/115 136/129/115 133/130/115
f 138/131/116 140/132/116 137/133/116
f 121/121/117 127/134/117 126/122/117
f 138/131/118 136/129/118 139/135/118
f 131/126/119 127/134/119 123/136/119
f 137/133/120 123/136/120 122/119/120
f 130/137/121 128/123/121 131/126/121
f 134/128/122 132/127/122 135/138/122
f 23/111/123 134/128/123 24/20/123
f 118/114/124 130/137/124 115/115/124
f 113/113/125 137/133/125 122/119/125
f 116/112/126 138/131/126 119/116/126
f 120/118/127 121/121/127 126/122/127
f 119/116/128 137/133/128 117/117/128
f 116/112/129 134/128/129 133/130/129
f 115/115/130 129/125/130 23/111/130
f 120/118/131 125/124/131 118/114/131
f 113/113/132 121/121/132 114/110/132
usemtl Material.001
f 1/1/133 2/16/133 3/2/133
f 4/3/134 3/2/134 5/4/134
f 5/4/135 7/139/135 8/6/135
f 8/6/136 7/139/136 9/7/136
f 9/7/137 11/10/137 12/9/137
f 11/10/138 13/12/138 14/11/138
f 13/12/139 15/14/139 16/13/139
f 15/14/140 17/17/140 18/15/140
f 5/4/9 3/2/9 2/16/9
f 2/16/9 19/140/9 17/17/9
f 17/17/9 15/14/9 13/12/9
f 13/12/9 11/10/9 17/17/9
f 11/10/9 9/7/9 17/17/9
f 9/7/9 7/139/9 5/4/9
f 5/4/9 2/16/9 9/7/9
f 20/18/141 19/140/141 2/16/141
f 17/17/142 19/140/142 20/18/142
f 22/19/12 23/111/12 24/20/12
f 26/22/143 27/101/143 28/23/143
f 30/25/144 31/36/144 32/26/144
f 33/28/145 34/95/145 35/29/145
f 38/31/146 39/39/146 40/32/146
f 28/23/147 27/101/147 41/34/147
f 31/36/148 43/96/148 44/37/148
f 35/29/149 45/89/149 46/38/149
f 39/39/150 47/90/150 48/40/150
f 49/41/151 50/100/151 26/22/151
f 52/42/152 30/25/152 29/27/152
f 54/44/153 34/95/153 33/28/153
f 55/46/154 56/91/154 38/31/154
f 58/47/155 50/100/155 49/41/155
f 60/49/156 52/42/156 51/43/156
f 62/51/157 54/44/157 53/45/157
f 64/53/158 56/91/158 55/46/158
f 65/55/159 66/99/159 58/47/159
f 68/56/160 60/49/160 59/50/160
f 70/58/161 62/51/161 61/52/161
f 71/60/162 72/92/162 64/53/162
f 74/61/163 66/99/163 65/55/163
f 75/63/164 76/69/164 68/56/164
f 77/64/165 78/71/165 70/58/165
f 80/65/166 72/92/166 71/60/166
f 81/67/167 82/98/167 74/61/167
f 83/68/168 84/76/168 76/69/168
f 85/70/169 86/78/169 78/71/169
f 87/72/170 88/80/170 80/65/170
f 90/73/171 82/98/171 81/67/171
f 91/75/172 92/83/172 84/76/172
f 93/77/173 94/94/173 86/78/173
f 95/79/174 96/87/174 88/80/174
f 97/81/175 98/97/175 90/73/175
f 99/82/176 100/88/176 92/83/176
f 102/84/177 94/94/177 93/77/177
f 103/86/178 104/93/178 96/87/178
f 41/34/179 98/97/179 97/81/179
f 44/37/180 43/96/180 100/88/180
f 45/89/181 102/84/181 101/85/181
f 47/90/182 104/93/182 103/86/182
f 38/31/183 18/15/183 20/18/183
f 20/18/184 1/1/184 47/90/184
f 56/91/185 16/13/185 18/15/185
f 64/53/186 14/11/186 16/13/186
f 72/92/187 12/9/187 14/11/187
f 10/8/188 12/9/188 72/92/188
f 8/6/189 10/8/189 80/65/189
f 96/87/190 6/5/190 8/6/190
f 4/3/191 6/5/191 96/87/191
f 1/1/192 4/3/192 104/93/192
f 45/89/193 48/40/193 103/86/193
f 103/86/194 95/79/194 94/94/194
f 95/79/195 87/72/195 86/78/195
f 86/78/196 87/72/196 79/66/196
f 78/71/197 79/66/197 71/60/197
f 71/60/198 63/54/198 62/51/198
f 63/54/199 55/46/199 54/44/199
f 55/46/200 37/33/200 34/95/200
f 35/29/201 40/32/201 48/40/201
f 34/95/202 37/33/202 40/32/202
f 43/96/203 46/38/203 101/85/203
f 100/88/204 101/85/204 93/77/204
f 92/83/205 93/77/205 85/70/205
f 84/76/206 85/70/206 77/64/206
f 77/64/207 69/59/207 68/56/207
f 68/56/208 69/59/208 61/52/208
f 60/49/209 61/52/209 53/45/209
f 52/42/210 53/45/210 33/28/210
f 36/30/211 46/38/211 43/96/211
f 33/28/212 36/30/212 31/36/212
f 41/34/83 44/37/83 99/82/83
f 98/97/213 99/82/213 91/75/213
f 91/75/214 83/68/214 82/98/214
f 83/68/215 75/63/215 74/61/215
f 75/63/216 67/57/216 66/99/216
f 66/99/217 67/57/217 59/50/217
f 59/50/218 51/43/218 50/100/218
f 51/43/219 29/27/219 26/22/219
f 27/101/220 32/26/220 44/37/220
f 29/27/221 32/26/221 27/101/221
f 105/102/222 42/35/222 97/81/222
f 97/81/223 89/74/223 22/19/223
f 22/19/224 89/74/224 81/67/224
f 81/67/225 73/62/225 107/104/225
f 107/104/226 73/62/226 65/55/226
f 65/55/227 57/48/227 109/106/227
f 109/106/228 57/48/228 49/41/228
f 49/41/229 25/24/229 111/108/229
f 28/23/230 42/35/230 105/102/230
f 111/108/231 25/24/231 28/23/231
f 110/107/103 113/113/103 114/110/103
f 106/103/104 115/115/104 23/111/104
f 21/21/105 24/20/105 116/112/105
f 111/108/106 117/117/106 113/113/106
f 106/103/107 107/104/107 118/114/107
f 111/108/108 112/109/108 119/116/108
f 107/104/109 108/105/109 120/118/109
f 105/102/110 116/112/110 119/116/110
f 109/106/111 114/110/111 120/118/111
usemtl Trunck_NONE
f 122/119/112 123/136/112 124/120/112
f 126/122/113 127/134/113 128/123/113
f 129/125/114 130/137/114 131/126/114
f 134/128/115 135/138/115 136/129/115
f 138/131/116 139/135/116 140/132/116
f 121/121/117 124/120/117 127/134/117
f 138/131/118 133/130/118 136/129/118
f 139/135/119 136/129/119 135/138/119
f 135/138/119 132/127/119 131/126/119
f 131/126/119 128/123/119 127/134/119
f 127/134/119 124/120/119 123/136/119
f 123/136/119 140/132/119 131/126/119
f 140/132/119 139/135/119 131/126/119
f 139/135/119 135/138/119 131/126/119
f 137/133/120 140/132/120 123/136/120
f 130/137/121 125/124/121 128/123/121
f 134/128/122 129/125/122 132/127/122
f 23/111/123 129/125/123 134/128/123
f 118/114/124 125/124/124 130/137/124
f 113/113/125 117/117/125 137/133/125
f 116/112/126 133/130/126 138/131/126
f 120/118/127 114/110/127 121/121/127
f 119/116/128 138/131/128 137/133/128
f 116/112/129 24/20/129 134/128/129
f 115/115/130 130/137/130 129/125/130
f 120/118/131 126/122/131 125/124/131
f 113/113/132 122/119/132 121/121/132
